<?xml version="1.0" encoding="utf-8"?>
<!-- Generator: Adobe Illustrator 22.1.0, SVG Export Plug-In . SVG Version: 6.00 Build 0)  -->
<svg version="1.1" xmlns="http://www.w3.org/2000/svg" xmlns:xlink="http://www.w3.org/1999/xlink" x="0px" y="0px" width="144px"
	 height="72px" viewBox="0 0 144 72" enable-background="new 0 0 144 72" xml:space="preserve">
<g id="repères">
</g>
<g id="Calque_2">
	<g>
		<g>
			<path fill="#373737" d="M34.3,32c0,6.6,0,13.1,0,19.7c0,1.9,3,1.9,3,0c0-6.6,0-13.1,0-19.7C37.3,30.1,34.3,30.1,34.3,32L34.3,32z
				"/>
		</g>
	</g>
	<g>
		<g>
			<path fill="#373737" d="M34.9,51c-3,3.7-6,7.2-9.1,10.7c-1.3,1.4,0.8,3.6,2.1,2.1C31,60.4,34,56.8,37,53.1
				C38.2,51.6,36.1,49.5,34.9,51L34.9,51z"/>
		</g>
	</g>
	<g>
		<g>
			<path fill="#373737" d="M34.6,52.7c2.7,4.5,6.6,8,9.9,12c1.2,1.5,3.3-0.6,2.1-2.1c-3.1-3.8-6.9-7.1-9.4-11.4
				C36.2,49.6,33.6,51.1,34.6,52.7L34.6,52.7z"/>
		</g>
	</g>
	<g>
		<g>
			<path fill="#373737" d="M34.8,53c0,3.6,0,7.2,0,10.8c0,1.9,3,1.9,3,0c0-3.6,0-7.2,0-10.8C37.8,51.1,34.8,51.1,34.8,53L34.8,53z"
				/>
		</g>
	</g>
	<g>
		<g>
			<path fill="#373737" d="M51.7,18.5c-11.9,0-23.8,0-35.7,0c-1.9,0-1.9,3,0,3c11.9,0,23.8,0,35.7,0C53.6,21.5,53.6,18.5,51.7,18.5
				L51.7,18.5z"/>
		</g>
	</g>
	<g>
		<g>
			<path fill="#373737" d="M14.7,20.2c0,3.4,0,6.9,0,10.3c0,1.9,3,1.9,3,0c0-3.4,0-6.9,0-10.3C17.7,18.2,14.7,18.2,14.7,20.2
				L14.7,20.2z"/>
		</g>
	</g>
	<g>
		<g>
			<path fill="#373737" d="M16,31.8c12.1,0,24.2,0,36.3,0c1.9,0,1.9-3,0-3c-12.1,0-24.2,0-36.3,0C14.1,28.8,14.1,31.8,16,31.8
				L16,31.8z"/>
		</g>
	</g>
	<g>
		<g>
			<path fill="#373737" d="M50.2,20c0,3.4,0,6.9,0,10.3c0,1.9,3,1.9,3,0c0-3.4,0-6.9,0-10.3C53.2,18.1,50.2,18.1,50.2,20L50.2,20z"
				/>
		</g>
	</g>
	<g>
		<g>
			<path fill="#373737" d="M18.1,24.3c0.8-0.3,1.6-0.6,2.4-1c-0.5-0.8-1-1.7-1.5-2.5c-1.4,1.7-2.5,3.3-3.4,5.3
				c-0.8,1.6,1,2.9,2.4,1.8c2.2-1.8,4.3-3.8,6.2-5.9c-0.8-0.6-1.6-1.2-2.4-1.8c-1.6,2.5-3.2,4.9-4.8,7.4c-1,1.5,1.1,2.8,2.4,1.8
				c2.6-2.1,5.1-4.4,7.3-7c-0.8-0.6-1.6-1.2-2.4-1.8c-1.6,2.2-3.2,4.5-4.8,6.7c-0.9,1.3,0.8,2.8,2.1,2.1c2.8-1.7,3.8-5.1,6.7-6.6
				c-0.7-0.7-1.4-1.4-2.1-2.1c-1.4,2.2-2.8,4.4-4.2,6.6c-0.8,1.2,0.8,2.9,2.1,2.1c2.8-2,5.1-4.3,7.4-6.9c-0.8-0.6-1.6-1.2-2.4-1.8
				c-1.6,2.4-3.1,4.8-4.7,7.2c-0.9,1.4,1.2,3,2.4,1.8c2.3-2.4,4.7-4.8,7-7.2c-0.8-0.5-1.7-1-2.5-1.5c-0.8,3-4.1,4.5-5.2,7.5
				c-0.5,1.3,1.1,2.3,2.2,1.7c3.3-1.8,4.5-5.7,7.7-7.6c-0.7-0.7-1.4-1.4-2.1-2.1c-1.6,2.5-3.2,4.9-4.7,7.4c-0.9,1.5,1.2,3,2.4,1.8
				c2.5-2.5,4.8-5.1,7-7.8c-0.9-0.4-1.7-0.7-2.6-1.1c0.1,1.9-3.2,4.9-4.3,6.3c-1.2,1.5,0.7,3.5,2.1,2.1c2.2-2.3,4.4-4.6,6.6-6.9
				c-0.8-0.1-1.6-0.2-2.4-0.3c0.4,0.8-4.2,4.3-4.6,5.2c-0.5,0.9-0.5,1.3-0.6,2.5c-0.2,1.3,1.7,1.9,2.6,1.1c2.6-2.7,5.3-5.3,7.9-8
				c-0.8-0.6-1.6-1.2-2.4-1.8c-1.2,2.6-2.5,4.9-4.2,7.1c-1,1.3,1.3,3.1,2.4,1.8c2.3-2.8,4.6-5.5,7.2-8.1c-0.8-0.6-1.6-1.2-2.4-1.8
				c-1.6,2.7-3.1,5.4-4.7,8.1c-0.9,1.5,1.1,3,2.4,1.8c2.8-2.6,5.5-5.1,8.3-7.7c-0.7-0.7-1.4-1.4-2.1-2.1c-2,2.5-4,4.9-6,7.4
				c-0.8,1-0.1,3.2,1.5,2.5c3.3-1.4,5.3-3.7,7.3-6.5c-0.9-0.4-1.8-0.8-2.7-1.2c-0.6,1.8-1.6,3.3-3,4.5c-0.9,0.8-0.3,2.7,1.1,2.6
				c2.1-0.2,3.3-0.7,4.9-2.2c-0.8-0.6-1.6-1.2-2.4-1.8c-0.7,1.4-0.8,1.7-0.9,3.3c-0.1,1.9,2.9,1.9,3,0c0.2-0.6,0.3-1.2,0.5-1.7
				c0.8-1.5-1.1-3-2.4-1.8c-0.9,0.4-1.8,0.9-2.8,1.3c0.4,0.9,0.7,1.7,1.1,2.6c1.7-1.7,2.9-3.5,3.8-5.8c0.7-1.7-1.8-2.4-2.7-1.2
				c-1.6,2.1-3,4-5.6,5.1c0.5,0.8,1,1.7,1.5,2.5c2-2.5,4-4.9,6-7.4c1.2-1.5-0.7-3.5-2.1-2.1c-2.8,2.6-5.5,5.1-8.3,7.7
				c0.8,0.6,1.6,1.2,2.4,1.8c1.6-2.7,3.1-5.4,4.7-8.1c0.8-1.5-1.2-3.1-2.4-1.8c-2.5,2.6-4.9,5.3-7.2,8.1c0.8,0.6,1.6,1.2,2.4,1.8
				c1.7-2.3,3.1-4.6,4.2-7.1c0.7-1.5-1.1-3.1-2.4-1.8c-2.6,2.7-5.3,5.3-7.9,8c0.9,0.4,1.7,0.7,2.6,1.1c0.4-3.7,6.7-4.9,4.8-9.1
				c-0.4-0.9-1.7-0.9-2.4-0.3c-2.2,2.3-4.4,4.6-6.6,6.9c0.7,0.7,1.4,1.4,2.1,2.1c1.9-2.4,5.3-5.1,5.2-8.4c-0.1-1.2-1.7-2.2-2.6-1.1
				c-2.2,2.8-4.5,5.4-7,7.8c0.8,0.6,1.6,1.2,2.4,1.8c1.6-2.5,3.2-4.9,4.7-7.4c0.8-1.3-0.8-2.8-2.1-2.1c-3.2,2-4.5,5.8-7.7,7.6
				c0.7,0.6,1.5,1.1,2.2,1.7c1.1-3,4.4-4.2,5.2-7.5c0.4-1.4-1.4-2.5-2.5-1.5c-2.3,2.4-4.7,4.8-7,7.2c0.8,0.6,1.6,1.2,2.4,1.8
				c1.6-2.4,3.1-4.8,4.7-7.2c0.9-1.4-1.2-3.1-2.4-1.8c-2.1,2.4-4.2,4.6-6.8,6.4c0.7,0.7,1.4,1.4,2.1,2.1c1.4-2.2,2.9-4.4,4.2-6.6
				c0.8-1.3-0.8-2.7-2.1-2.1c-2.9,1.6-3.9,5-6.7,6.6c0.7,0.7,1.4,1.4,2.1,2.1c1.6-2.2,3.2-4.5,4.8-6.7c1-1.4-1.2-3.1-2.4-1.8
				c-2.3,2.5-4.7,4.8-7.3,7c0.8,0.6,1.6,1.2,2.4,1.8c1.6-2.5,3.2-4.9,4.8-7.4c0.9-1.4-1.2-3.1-2.4-1.8c-1.9,2.2-4,4.1-6.2,5.9
				c0.8,0.6,1.6,1.2,2.4,1.8c0.8-1.8,1.7-3.2,3-4.7c0.8-1,0.1-3.1-1.5-2.5c-0.8,0.3-1.6,0.6-2.4,1C15.5,22.1,16.3,25,18.1,24.3
				L18.1,24.3z"/>
		</g>
	</g>
	<g>
		<g>
			<path fill="#373737" d="M52,24.5c1.4,0,2.9,0,4.3,0c0.4,0,0.7,0,1.1,0c0.7,0.1,0.7,0-0.1-0.4c0,0.3,0.1,0.6,0.1,1
				c0.6-0.2,0.5-0.3-0.1-0.2c-0.6-0.1-1.4,0-2.1,0c-0.4,0-1.8-0.2-2.1,0c-0.4,1.3-0.2,1.7,0.5,1.4c0.3-0.1,0.7-0.1,1-0.1
				c0.6,0,1.2,0,1.9,0.1c1.9,0.2,1.9-2.8,0-3c-1.9-0.2-6.4-0.2-6.1,2.7c0.3,2.8,5,2,6.8,1.9c1.1,0,2.3-0.2,2.8-1.3
				c0.4-1,0.4-2.5,0-3.5c-0.5-1.4-1.8-1.5-3-1.5c-1.7,0-3.4,0-5.1,0C50.1,21.5,50.1,24.5,52,24.5L52,24.5z"/>
		</g>
	</g>
</g>
<g id="Calque_3">
	<g>
		<g>
			<path fill="#373737" d="M106.3,32c0,6.6,0,13.1,0,19.7c0,1.9,3,1.9,3,0c0-6.6,0-13.1,0-19.7C109.3,30.1,106.3,30.1,106.3,32
				L106.3,32z"/>
		</g>
	</g>
	<g>
		<g>
			<path fill="#373737" d="M106.9,51c-3,3.7-6,7.2-9.1,10.7c-1.3,1.4,0.8,3.6,2.1,2.1c3.1-3.5,6.2-7.1,9.1-10.7
				C110.2,51.6,108.1,49.5,106.9,51L106.9,51z"/>
		</g>
	</g>
	<g>
		<g>
			<path fill="#373737" d="M106.6,52.7c2.7,4.5,6.6,8,9.9,12c1.2,1.5,3.3-0.6,2.1-2.1c-3.1-3.8-6.9-7.1-9.4-11.4
				C108.2,49.6,105.6,51.1,106.6,52.7L106.6,52.7z"/>
		</g>
	</g>
	<g>
		<g>
			<path fill="#373737" d="M106.8,53c0,3.6,0,7.2,0,10.8c0,1.9,3,1.9,3,0c0-3.6,0-7.2,0-10.8C109.8,51.1,106.8,51.1,106.8,53
				L106.8,53z"/>
		</g>
	</g>
	<g>
		<g>
			<path fill="#373737" d="M123.7,18.5c-11.9,0-23.8,0-35.7,0c-1.9,0-1.9,3,0,3c11.9,0,23.8,0,35.7,0
				C125.6,21.5,125.6,18.5,123.7,18.5L123.7,18.5z"/>
		</g>
	</g>
	<g>
		<g>
			<path fill="#373737" d="M86.7,20.2c0,3.4,0,6.9,0,10.3c0,1.9,3,1.9,3,0c0-3.4,0-6.9,0-10.3C89.7,18.2,86.7,18.2,86.7,20.2
				L86.7,20.2z"/>
		</g>
	</g>
	<g>
		<g>
			<path fill="#373737" d="M88,31.8c12.1,0,24.2,0,36.3,0c1.9,0,1.9-3,0-3c-12.1,0-24.2,0-36.3,0C86.1,28.8,86.1,31.8,88,31.8
				L88,31.8z"/>
		</g>
	</g>
	<g>
		<g>
			<path fill="#373737" d="M122.2,20c0,3.4,0,6.9,0,10.3c0,1.9,3,1.9,3,0c0-3.4,0-6.9,0-10.3C125.2,18.1,122.2,18.1,122.2,20
				L122.2,20z"/>
		</g>
	</g>
	<g>
		<g>
			<path fill="#373737" d="M90.1,24.3c0.8-0.3,1.6-0.6,2.4-1c-0.5-0.8-1-1.7-1.5-2.5c-1.4,1.7-2.5,3.3-3.4,5.3
				c-0.8,1.6,1,2.9,2.4,1.8c2.2-1.8,4.3-3.8,6.2-5.9c-0.8-0.6-1.6-1.2-2.4-1.8c-1.6,2.5-3.2,4.9-4.8,7.4c-1,1.5,1.1,2.8,2.4,1.8
				c2.6-2.1,5.1-4.4,7.3-7c-0.8-0.6-1.6-1.2-2.4-1.8c-1.6,2.2-3.2,4.5-4.8,6.7c-0.9,1.3,0.8,2.8,2.1,2.1c2.8-1.7,3.8-5.1,6.7-6.6
				c-0.7-0.7-1.4-1.4-2.1-2.1c-1.4,2.2-2.8,4.4-4.2,6.6c-0.8,1.2,0.8,2.9,2.1,2.1c2.8-2,5.1-4.3,7.4-6.9c-0.8-0.6-1.6-1.2-2.4-1.8
				c-1.6,2.4-3.1,4.8-4.7,7.2c-0.9,1.4,1.2,3,2.4,1.8c2.3-2.4,4.7-4.8,7-7.2c-0.8-0.5-1.7-1-2.5-1.5c-0.8,3-4.1,4.5-5.2,7.5
				c-0.5,1.3,1.1,2.3,2.2,1.7c3.3-1.8,4.5-5.7,7.7-7.6c-0.7-0.7-1.4-1.4-2.1-2.1c-1.6,2.5-3.2,4.9-4.7,7.4c-0.9,1.5,1.2,3,2.4,1.8
				c2.5-2.5,4.8-5.1,7-7.8c-0.9-0.4-1.7-0.7-2.6-1.1c0.1,1.9-3.2,4.9-4.3,6.3c-1.2,1.5,0.7,3.5,2.1,2.1c2.2-2.3,4.4-4.6,6.6-6.9
				c-0.8-0.1-1.6-0.2-2.4-0.3c0.4,0.8-4.2,4.3-4.6,5.2c-0.5,0.9-0.5,1.3-0.6,2.5c-0.2,1.3,1.7,1.9,2.6,1.1c2.6-2.7,5.3-5.3,7.9-8
				c-0.8-0.6-1.6-1.2-2.4-1.8c-1.2,2.6-2.5,4.9-4.2,7.1c-1,1.3,1.3,3.1,2.4,1.8c2.3-2.8,4.6-5.5,7.2-8.1c-0.8-0.6-1.6-1.2-2.4-1.8
				c-1.6,2.7-3.1,5.4-4.7,8.1c-0.9,1.5,1.1,3,2.4,1.8c2.8-2.6,5.5-5.1,8.3-7.7c-0.7-0.7-1.4-1.4-2.1-2.1c-2,2.5-4,4.9-6,7.4
				c-0.8,1-0.1,3.2,1.5,2.5c3.3-1.4,5.3-3.7,7.3-6.5c-0.9-0.4-1.8-0.8-2.7-1.2c-0.6,1.8-1.6,3.3-3,4.5c-0.9,0.8-0.3,2.7,1.1,2.6
				c2.1-0.2,3.3-0.7,4.9-2.2c-0.8-0.6-1.6-1.2-2.4-1.8c-0.7,1.4-0.8,1.7-0.9,3.3c-0.1,1.9,2.9,1.9,3,0c0.2-0.6,0.3-1.2,0.5-1.7
				c0.8-1.5-1.1-3-2.4-1.8c-0.9,0.4-1.8,0.9-2.8,1.3c0.4,0.9,0.7,1.7,1.1,2.6c1.7-1.7,2.9-3.5,3.8-5.8c0.7-1.7-1.8-2.4-2.7-1.2
				c-1.6,2.1-3,4-5.6,5.1c0.5,0.8,1,1.7,1.5,2.5c2-2.5,4-4.9,6-7.4c1.2-1.5-0.7-3.5-2.1-2.1c-2.8,2.6-5.5,5.1-8.3,7.7
				c0.8,0.6,1.6,1.2,2.4,1.8c1.6-2.7,3.1-5.4,4.7-8.1c0.8-1.5-1.2-3.1-2.4-1.8c-2.5,2.6-4.9,5.3-7.2,8.1c0.8,0.6,1.6,1.2,2.4,1.8
				c1.7-2.3,3.1-4.6,4.2-7.1c0.7-1.5-1.1-3.1-2.4-1.8c-2.6,2.7-5.3,5.3-7.9,8c0.9,0.4,1.7,0.7,2.6,1.1c0.4-3.7,6.7-4.9,4.8-9.1
				c-0.4-0.9-1.7-0.9-2.4-0.3c-2.2,2.3-4.4,4.6-6.6,6.9c0.7,0.7,1.4,1.4,2.1,2.1c1.9-2.4,5.3-5.1,5.2-8.4c-0.1-1.2-1.7-2.2-2.6-1.1
				c-2.2,2.8-4.5,5.4-7,7.8c0.8,0.6,1.6,1.2,2.4,1.8c1.6-2.5,3.2-4.9,4.7-7.4c0.8-1.3-0.8-2.8-2.1-2.1c-3.2,2-4.5,5.8-7.7,7.6
				c0.7,0.6,1.5,1.1,2.2,1.7c1.1-3,4.4-4.2,5.2-7.5c0.4-1.4-1.4-2.5-2.5-1.5c-2.3,2.4-4.7,4.8-7,7.2c0.8,0.6,1.6,1.2,2.4,1.8
				c1.6-2.4,3.1-4.8,4.7-7.2c0.9-1.4-1.2-3.1-2.4-1.8c-2.1,2.4-4.2,4.6-6.8,6.4c0.7,0.7,1.4,1.4,2.1,2.1c1.4-2.2,2.9-4.4,4.2-6.6
				c0.8-1.3-0.8-2.7-2.1-2.1c-2.9,1.6-3.9,5-6.7,6.6c0.7,0.7,1.4,1.4,2.1,2.1c1.6-2.2,3.2-4.5,4.8-6.7c1-1.4-1.2-3.1-2.4-1.8
				c-2.3,2.5-4.7,4.8-7.3,7c0.8,0.6,1.6,1.2,2.4,1.8c1.6-2.5,3.2-4.9,4.8-7.4c0.9-1.4-1.2-3.1-2.4-1.8c-1.9,2.2-4,4.1-6.2,5.9
				c0.8,0.6,1.6,1.2,2.4,1.8c0.8-1.8,1.7-3.2,3-4.7c0.8-1,0.1-3.1-1.5-2.5c-0.8,0.3-1.6,0.6-2.4,1C87.5,22.1,88.3,25,90.1,24.3
				L90.1,24.3z"/>
		</g>
	</g>
	<g>
		<g>
			<path fill="#373737" d="M124,24.5c1.4,0,2.9,0,4.3,0c0.4,0,0.7,0,1.1,0c0.7,0.1,0.7,0-0.1-0.4c0,0.3,0.1,0.6,0.1,1
				c0.6-0.2,0.5-0.3-0.1-0.2c-0.6-0.1-1.4,0-2.1,0c-0.4,0-1.8-0.2-2.1,0c-0.4,1.3-0.2,1.7,0.5,1.4c0.3-0.1,0.7-0.1,1-0.1
				c0.6,0,1.2,0,1.9,0.1c1.9,0.2,1.9-2.8,0-3c-1.9-0.2-6.4-0.2-6.1,2.7c0.3,2.8,5,2,6.8,1.9c1.1,0,2.3-0.2,2.8-1.3
				c0.4-1,0.4-2.5,0-3.5c-0.5-1.4-1.8-1.5-3-1.5c-1.7,0-3.4,0-5.1,0C122.1,21.5,122.1,24.5,124,24.5L124,24.5z"/>
		</g>
	</g>
	<g>
		<g>
			<path fill="#DAFF15" d="M132.8,23.3c1-0.9,2.1-1.7,3.1-2.6c-0.8-0.1-1.6-0.2-2.4-0.3c-0.3-0.5-0.3,0.2-0.3,0.5
				c0,0.4,0.2,0.9,0.4,1.2c0.7,0.9,2.3,1,3.4,1.3c-0.1-0.9-0.2-1.8-0.4-2.7c-0.9,0.5-1.3,1.3-1.2,2.4c0.1,0.5,0.2,0.9,0.5,1.3
				c0.1,0.1,1.1,1.1,1,0.9c0.1-0.4,0.3-0.7,0.4-1.1c-0.3,0.4-1.2,0.3-1.6,1c-0.2,0.3-0.3,0.7-0.3,1.1c0,0.1,0.2,1.7,0.4,1
				c0.3-0.2,0.3-0.3-0.2-0.2c-0.2,0-0.4,0-0.6,0.1c-0.3,0.2-0.6,0.4-0.8,0.7c-0.5,0.8-0.4,1.5,0,2.3c0.4-0.8,0.9-1.5,1.3-2.3
				c-0.3,0-2-1.5-2.1-1.8c0-0.3,0-0.6,0-1c0.1-0.5-0.2-0.6-1-0.1c-0.2,0.3,0.3,1.2,0.5,1.5c0.5,1,2.1,1,2.6,0c0.5-1,0.7-1.9,0.6-3
				c-0.2-1.9-3.1-1.9-3,0c0,0.3,0,2.1,0.5,1.5c0.4-0.1,0.7-0.3,1.1-0.4c-0.4,0-1.6-1.9-1.8-2.2c-1.2-1.5-3.8,0-2.6,1.5
				c1,1.4,2.3,4,4.4,3.7c2.3-0.4,1.6-2.5,1.5-4.1c-1,0-2,0-3,0c0.1,0.5,0,1-0.2,1.5c0.9,0,1.7,0,2.6,0c-0.6-1.3-0.3-2.7-2.1-3
				c-1.5-0.2-2.6,1-2.8,2.4c-0.2,1.3-0.2,3.2,0.8,4.1c0.6,0.6,1.4,1,2.1,1.6c0.7,0.5,1.3,0.8,2.2,0.8c1.2-0.1,1.8-1.2,1.3-2.3
				c0-0.1-0.1-0.2-0.1-0.3c0.1,0.4,0.1,0.8,0.2,1.2c-0.4,0.4-0.3,0.6,0.2,0.4c0.3,0,0.5-0.1,0.8-0.2c0.3-0.2,0.6-0.5,0.8-0.8
				c0.3-0.5,0.3-1,0.2-1.5c0-0.3-0.1-0.5-0.2-0.8c-0.5,0.3-0.6,0.4-0.2,0.3c0.7-0.6,1.6-0.6,1.5-1.9c0-0.5-0.2-0.9-0.4-1.3
				c-0.2-0.2-0.4-0.4-0.6-0.7c-0.3-0.5-0.6-0.4-0.8,0.1c1.1-0.6,0.9-2.4-0.4-2.7c-0.7-0.2-1.6-0.3-2.2-0.6c0.2,0.3,0.5,0.6,0.7,0.9
				c0.1,0.3,0.2-0.6,0.2-0.8c0-0.5-0.1-0.8-0.3-1.1c-0.6-0.9-1.6-0.9-2.4-0.3c-1,0.9-2.1,1.7-3.1,2.6
				C129.1,22.4,131.3,24.5,132.8,23.3L132.8,23.3z"/>
		</g>
	</g>
	<g>
		<g>
			<path fill="#FF2A2A" d="M131.2,25c0.7,0.1,2.3-0.1,2.7-0.9c0.3-0.2,0.2-0.2-0.3-0.2c0.3,0.2,0.5,0.3,0.8,0.5
				c0.5,0.3,1.1,0.7,1.6,1c-0.2-0.6-0.5-1.1-0.7-1.7c-0.1,0.4-0.2,0.8-0.3,1.2c-0.2,0.8-0.1,0.2,0.1,0.2c-0.6,0-1.2,0.1-1.7,0.5
				c-0.8,0.7-0.9,2-0.1,2.8c0.6-0.8,1.2-1.6,1.8-2.4c-1.1-0.6-2.3-1.2-3.4-1.7c0.1,0.8,0.2,1.6,0.3,2.4c-0.2,0-0.2,0,0,0
				c0.1,0,0.3,0,0.4,0c0.3,0,0.6,0,0.8,0c0.7-0.1,1.2-0.3,1.7-0.8c0.9-0.9,0.2-2.7-1.1-2.6c-0.6,0-1.1,0.1-1.7,0.1
				c-0.2,0-0.5,0-0.7,0.1c-0.6,0-0.6,0-0.2,0.1c0.2,0.3,0.5,0.6,0.7,0.9c0,0.1,0,0.2,0,0.4c1.4-1.3-0.7-3.4-2.1-2.1
				c-0.9,0.9-1.4,2.4-0.3,3.3c1.1,0.9,3,0.4,4.2,0.3c-0.4-0.9-0.7-1.7-1.1-2.6c0.2-0.2-0.2-0.1-0.4-0.1c-0.3,0-0.5,0-0.8,0
				c-0.7,0.1-1.2,0.3-1.7,0.8c-0.6,0.7-0.6,1.9,0.3,2.4c1.1,0.6,2.3,1.2,3.4,1.7c1.5,0.7,3.1-1.1,1.8-2.4c0,0-0.1-0.1-0.1-0.1
				c0.1,0.4,0.3,0.7,0.4,1.1c-0.9,0.6-1,0.9-0.3,0.8c0.3,0,0.5-0.1,0.8-0.1c0.4-0.1,0.7-0.4,1-0.7c0.6-0.8,0.7-1.8,0.9-2.8
				c0.1-0.7-0.1-1.3-0.7-1.7c-0.9-0.6-2.1-1.7-3.2-1.9c-1.3-0.2-1.9,1.1-3,1C129.3,21.7,129.3,24.7,131.2,25L131.2,25z"/>
		</g>
	</g>
</g>
</svg>
