<?xml version="1.0" encoding="utf-8"?>
<!-- Generator: Adobe Illustrator 22.1.0, SVG Export Plug-In . SVG Version: 6.00 Build 0)  -->
<svg version="1.1" xmlns="http://www.w3.org/2000/svg" xmlns:xlink="http://www.w3.org/1999/xlink" x="0px" y="0px" width="720px"
	 height="72px" viewBox="0 0 720 72" enable-background="new 0 0 720 72" xml:space="preserve">
<g id="repères">
</g>
<g id="Calque_2">
	<g>
		<g>
			<path fill="#373737" d="M33,13.3c4.2,1.6,8.6,7.7,10.4,11.5c2.2,4.5,3.2,10,3.3,15c0.2,10-4.4,20-14.2,23.7
				c-1.8,0.7-1,3.6,0.8,2.9c11-4.1,16.7-15.1,16.4-26.6c-0.1-6.1-1.4-12.7-4.6-17.9c-2.5-4.3-6.6-9.6-11.4-11.4
				C31.9,9.8,31.2,12.7,33,13.3L33,13.3z"/>
		</g>
	</g>
	<g>
		<g>
			<path fill="#B7B7B7" d="M30.6,12.2c0.1,17.7,0,35.5,0.6,53.2c0.1,1.9,3.1,1.9,3,0c-0.6-17.7-0.5-35.4-0.6-53.2
				C33.6,10.2,30.6,10.2,30.6,12.2L30.6,12.2z"/>
		</g>
	</g>
	<g>
		<g>
			<path fill="#FF0000" d="M32.5,40.5c10.8,0,21.6,0,32.3,0c1.9,0,1.9-3,0-3c-10.8,0-21.6,0-32.3,0C30.6,37.5,30.6,40.5,32.5,40.5
				L32.5,40.5z"/>
		</g>
	</g>
</g>
<g id="Calque_3">
	<g>
		<g>
			<path fill="#373737" d="M98.8,14.4c5.3,0.6,11.7,6.1,14.6,10.2c2.5,3.5,4.5,7.5,5.7,11.6c2.8,9.6,1.1,20.4-7.4,26.6
				c-1.5,1.1,0,3.7,1.5,2.6c9.5-6.9,12-19,8.7-30c-3.1-10.2-11.7-22.6-23.2-24C96.9,11.1,96.9,14.1,98.8,14.4L98.8,14.4z"/>
		</g>
	</g>
	<g>
		<g>
			<path fill="#B7B7B7" d="M96.2,13.5c-0.2,9.8-1,19.4,2.1,28.9c2.7,8.4,7.7,16.4,13.2,23.2c1.2,1.5,3.3-0.6,2.1-2.1
				c-5.4-6.8-10.4-14.9-12.8-23.2c-2.5-8.8-1.7-17.7-1.6-26.8C99.2,11.6,96.2,11.6,96.2,13.5L96.2,13.5z"/>
		</g>
	</g>
	<g>
		<g>
			<path fill="#FF0000" d="M100.6,41.7c10.4-2.9,20.8-5.8,31.2-8.6c1.9-0.5,1.1-3.4-0.8-2.9c-10.4,2.9-20.8,5.8-31.2,8.6
				C97.9,39.3,98.7,42.2,100.6,41.7L100.6,41.7z"/>
		</g>
	</g>
</g>
<g id="Calque_4">
	<g>
		<g>
			<path fill="#373737" d="M165,13.9c4.8-0.6,11.2,2.2,15.1,4.9c4,2.7,7.3,6.7,9.8,10.7c5.4,8.7,6.5,20-0.4,28.3
				c-1.2,1.5,0.9,3.6,2.1,2.1c7.4-8.8,7.2-20.8,1.7-30.5c-2.6-4.7-6.3-9.2-10.6-12.4c-4.5-3.4-12-6.8-17.8-6.1
				C163.1,11.1,163.1,14.1,165,13.9L165,13.9z"/>
		</g>
	</g>
	<g>
		<g>
			<path fill="#B7B7B7" d="M162.7,12.8c-3.3,12.1-5.3,22.9,2.1,33.9c5.6,8.3,16.5,11.3,25.6,13.9c1.9,0.5,2.7-2.4,0.8-2.9
				c-8.3-2.4-18.6-5-23.8-12.6c-7-10.3-4.8-20.4-1.8-31.6C166,11.8,163.2,11,162.7,12.8L162.7,12.8z"/>
		</g>
	</g>
	<g>
		<g>
			<path fill="#FF0000" d="M166.7,43.9c9.4-5.3,18.8-10.6,28.2-15.9c1.7-0.9,0.2-3.5-1.5-2.6c-9.4,5.3-18.8,10.6-28.2,15.9
				C163.5,42.2,165,44.8,166.7,43.9L166.7,43.9z"/>
		</g>
	</g>
</g>
<g id="Calque_5">
	<g>
		<g>
			<path fill="#373737" d="M247.3,11.7c4.4,1,9.5,6.3,11.9,9.9c2.9,4.2,4.6,9.5,5.4,14.6c1.5,10-1.8,20.5-11.1,25.4
				c-1.7,0.9-0.2,3.5,1.5,2.6c10.3-5.5,14.3-17.3,12.6-28.4c-0.9-5.9-3-12.2-6.8-17c-2.9-3.8-7.9-8.8-12.7-9.9
				C246.2,8.4,245.4,11.3,247.3,11.7L247.3,11.7z"/>
		</g>
	</g>
	<g>
		<g>
			<path fill="#B7B7B7" d="M245.4,9.6c-9,9-16,18.1-13.2,31.4c2.2,10.3,13.1,17.4,20.8,23.3c1.5,1.2,3.6-0.9,2.1-2.1
				c-6.9-5.3-17.2-11.9-19.8-20.9c-3.5-12.4,3.8-21.4,12.1-29.6C248.9,10.4,246.8,8.3,245.4,9.6L245.4,9.6z"/>
		</g>
	</g>
	<g>
		<g>
			<path fill="#FF0000" d="M234.3,40.2c10.7-1.4,21.4-2.8,32-4.3c1.9-0.3,1.9-3.3,0-3c-10.7,1.4-21.4,2.8-32,4.3
				C232.4,37.4,232.4,40.4,234.3,40.2L234.3,40.2z"/>
		</g>
	</g>
</g>
<g id="Calque_6">
	<g>
		<g>
			<path fill="#373737" d="M320.3,11.7c4.4,1,9.5,6.3,11.9,9.9c2.9,4.2,4.6,9.5,5.4,14.6c1.5,10-1.8,20.5-11.1,25.4
				c-1.7,0.9-0.2,3.5,1.5,2.6c10.3-5.5,14.3-17.3,12.6-28.4c-0.9-5.9-3-12.2-6.8-17c-2.9-3.8-7.9-8.8-12.7-9.9
				C319.2,8.4,318.4,11.3,320.3,11.7L320.3,11.7z"/>
		</g>
	</g>
	<g>
		<g>
			<path fill="#B7B7B7" d="M318.2,11.5c2.2,4.7,4.9,9.5,6.3,14.6c0.8,3.1,1,6.3,1.4,9.5c0.4,3.2,1.2,6.3,1.5,9.5
				c0.5,6-0.5,12-1.7,17.8c-0.4,1.9,2.5,2.7,2.9,0.8c1.1-5.8,2.2-11.8,1.8-17.8c-0.2-3.6-1.1-7.2-1.6-10.8
				c-0.5-3.4-0.6-6.9-1.6-10.2c-1.5-5.2-4.2-10.2-6.5-15C320,8.2,317.4,9.7,318.2,11.5L318.2,11.5z"/>
		</g>
	</g>
	<g>
		<g>
			<path fill="#FF0000" d="M326.3,37.2c10.7-1.4,21.4-2.8,32-4.3c1.9-0.3,1.9-3.3,0-3c-10.7,1.4-21.4,2.8-32,4.3
				C324.4,34.4,324.4,37.4,326.3,37.2L326.3,37.2z"/>
		</g>
	</g>
</g>
<g id="Calque_7">
	<g>
		<g>
			<path fill="#373737" d="M392.3,11.7c4.4,1,9.5,6.3,11.9,9.9c2.9,4.2,4.6,9.5,5.4,14.6c1.5,10-1.8,20.5-11.1,25.4
				c-1.7,0.9-0.2,3.5,1.5,2.6c10.3-5.5,14.3-17.3,12.6-28.4c-0.9-5.9-3-12.2-6.8-17c-2.9-3.8-7.9-8.8-12.7-9.9
				C391.2,8.4,390.4,11.3,392.3,11.7L392.3,11.7z"/>
		</g>
	</g>
	<g>
		<g>
			<path fill="#B7B7B7" d="M390.2,11.5c5,7.8,10.2,14.5,11.6,23.8c1.5,10-0.6,18.1-4.1,27.7c-0.7,1.8,2.2,2.6,2.9,0.8
				c3.6-9.7,5.8-18,4.3-28.2c-1.5-10.2-6.6-17-12.1-25.6C391.7,8.3,389.2,9.8,390.2,11.5L390.2,11.5z"/>
		</g>
	</g>
	<g>
		<g>
			<path fill="#FF0000" d="M423.3,34.2c2.2-0.3,4.4-0.6,6.6-0.9c0.8-0.1,1.5-0.6,1.5-1.5c0-0.7-0.7-1.6-1.5-1.5
				c-2.2,0.3-4.4,0.6-6.6,0.9c-0.8,0.1-1.5,0.6-1.5,1.5C421.8,33.4,422.5,34.3,423.3,34.2L423.3,34.2z"/>
		</g>
	</g>
</g>
<g id="Calque_8">
	<g>
		<g>
			<path fill="#373737" d="M475.9,15.1c3.4,2.7,5.4,8.7,6.3,12.8c1.2,5.2,0.5,11-0.9,16.1c-2.8,9.9-10.3,18.3-21.1,18.8
				c-1.9,0.1-1.9,3.1,0,3c11.4-0.5,20.1-8.9,23.5-19.5c1.8-5.5,2.6-11.9,1.7-17.6c-0.8-5.1-3.3-12.5-7.4-15.7
				C476.5,11.8,474.4,13.9,475.9,15.1L475.9,15.1z"/>
		</g>
	</g>
	<g>
		<g>
			<path fill="#B7B7B7" d="M474.3,13.5c-5.4,16.9-10.3,33.9-15.8,50.8c-0.6,1.8,2.3,2.6,2.9,0.8c5.5-16.9,10.4-33.9,15.8-50.8
				C477.7,12.5,474.8,11.7,474.3,13.5L474.3,13.5z"/>
		</g>
	</g>
</g>
<g id="Calque_9">
	<g>
		<g>
			<path fill="#373737" d="M547.9,15.1c3.4,2.7,5.4,8.7,6.3,12.8c1.2,5.2,0.5,11-0.9,16.1c-2.8,9.9-10.3,18.3-21.1,18.8
				c-1.9,0.1-1.9,3.1,0,3c11.4-0.5,20.1-8.9,23.5-19.5c1.8-5.5,2.6-11.9,1.7-17.6c-0.8-5.1-3.3-12.5-7.4-15.7
				C548.5,11.8,546.4,13.9,547.9,15.1L547.9,15.1z"/>
		</g>
	</g>
	<g>
		<g>
			<path fill="#B7B7B7" d="M546.3,13.5c-5.4,16.9-10.3,33.9-15.8,50.8c-0.6,1.8,2.3,2.6,2.9,0.8c5.5-16.9,10.4-33.9,15.8-50.8
				C549.7,12.5,546.8,11.7,546.3,13.5L546.3,13.5z"/>
		</g>
	</g>
	<g>
		<g>
			<path fill="#FF0000" d="M537.7,40c4.5,9.8,8.9,19.6,13.4,29.4c0.8,1.8,3.4,0.2,2.6-1.5c-4.5-9.8-8.9-19.6-13.4-29.4
				C539.5,36.8,536.9,38.3,537.7,40L537.7,40z"/>
		</g>
	</g>
</g>
<g id="Calque_10">
	<g>
		<g>
			<path fill="#373737" d="M614.4,13.9c3.9,1.9,7.1,7.4,8.8,11.2c2.3,5.1,2.9,11.3,2.4,16.8c-0.9,10-6.6,19.3-16.7,22
				c-1.9,0.5-1.1,3.4,0.8,2.9c10.7-2.8,17.4-12.4,18.7-23.1c0.8-6,0.3-12.8-1.9-18.5c-1.9-4.7-5.8-11.5-10.6-13.8
				C614.2,10.5,612.7,13.1,614.4,13.9L614.4,13.9z"/>
		</g>
	</g>
	<g>
		<g>
			<path fill="#B7B7B7" d="M612.4,12.8c-1.7,17.6-3,35.3-4.8,52.9c-0.2,1.9,2.8,1.9,3,0c1.8-17.6,3.1-35.3,4.8-52.9
				C615.6,10.9,612.6,10.9,612.4,12.8L612.4,12.8z"/>
		</g>
	</g>
	<g>
		<g>
			<path fill="#FF0000" d="M611.4,41c10.3,3.2,20.6,6.4,30.9,9.6c1.8,0.6,2.6-2.3,0.8-2.9c-10.3-3.2-20.6-6.4-30.9-9.6
				C610.4,37.6,609.6,40.5,611.4,41L611.4,41z"/>
		</g>
	</g>
</g>
<g id="Calque_11">
	<g>
		<g>
			<path fill="#373737" d="M681,13.3c4.2,1.6,8.6,7.7,10.4,11.5c2.2,4.5,3.2,10,3.3,15c0.2,10-4.4,20-14.2,23.7
				c-1.8,0.7-1,3.6,0.8,2.9c11-4.1,16.7-15.1,16.4-26.6c-0.1-6.1-1.4-12.7-4.6-17.9c-2.5-4.3-6.6-9.6-11.4-11.4
				C679.9,9.8,679.2,12.7,681,13.3L681,13.3z"/>
		</g>
	</g>
	<g>
		<g>
			<path fill="#B7B7B7" d="M678.6,12.2c0.1,17.7,0,35.5,0.6,53.2c0.1,1.9,3.1,1.9,3,0c-0.6-17.7-0.5-35.4-0.6-53.2
				C681.6,10.2,678.6,10.2,678.6,12.2L678.6,12.2z"/>
		</g>
	</g>
	<g>
		<g>
			<path fill="#FF0000" d="M680.5,40.5c10.8,0,21.6,0,32.3,0c1.9,0,1.9-3,0-3c-10.8,0-21.6,0-32.3,0
				C678.6,37.5,678.6,40.5,680.5,40.5L680.5,40.5z"/>
		</g>
	</g>
	<rect fill="#C2FFFA" fill-opacity="0" width="72" height="72"/>
	<rect x="72" fill="#C2FFFA" fill-opacity="0" width="72" height="72"/>
	<rect x="144" fill="#C2FFFA" fill-opacity="0" width="72" height="72"/>
	<rect x="216" fill="#C2FFFA" fill-opacity="0" width="72" height="72"/>
	<rect x="288" fill="#C2FFFA" fill-opacity="0" width="72" height="72"/>
	<rect x="360" fill="#C2FFFA" fill-opacity="0" width="72" height="72"/>
	<rect x="432" fill="#C2FFFA" fill-opacity="0" width="72" height="72"/>
	<rect x="504" fill="#C2FFFA" fill-opacity="0" width="72" height="72"/>
	<rect x="576" fill="#C2FFFA" fill-opacity="0" width="72" height="72"/>
	<rect x="648" fill="#C2FFFA" fill-opacity="0" width="72" height="72"/>
</g>
</svg>
