<?xml version="1.0" encoding="utf-8"?>
<!-- Generator: Adobe Illustrator 22.1.0, SVG Export Plug-In . SVG Version: 6.00 Build 0)  -->
<svg version="1.1" xmlns="http://www.w3.org/2000/svg" xmlns:xlink="http://www.w3.org/1999/xlink" x="0px" y="0px" width="432px"
	 height="72px" viewBox="0 0 432 72" enable-background="new 0 0 432 72" xml:space="preserve">
<g id="repères">
</g>
<g id="Calque_2">
	<g>
		<g>
			<path fill="#373737" d="M12.4,46.4c2.8,3.2,4.1,5.4,8.3,5.5c6.3,0.1,12.7,0,19-0.1c5.9-0.1,12.1,0.1,18-0.4
				c4-0.3,6.4-3.7,9.2-6.3c0.5-0.4,0.6-1.3,0.2-1.8c-1.5-2.4-3.2-6.8-5.7-8.3c-1-0.6-2.2-0.2-3.3-0.5c-6.4-1.6-1.5-1.3-4.2-3
				C51.3,29.9,48,30.1,45,30c-4.9-0.2-9.8,0-14.7,0.2c-4.9,0.2-9.8,0.3-14.7,0.2c-2.3-0.1-4.4-0.5-5.5,1.8C9,34.4,9.8,38.1,10,40.5
				c0.2,3.1,0.7,4.8,3.5,6.4c6.6,4,16.4,2.4,23.7,2.4c4.7,0,9.4-0.1,14.1,0.4c3.4,0.3,6.7,0.7,9.7-1.2c1.4-0.9,3.1-2.3,3.2-4.1
				c0.1-1.9-2.9-6.5-4.4-7.5c-0.8-0.5-1.6-0.5-2.4-0.7c-2.9-0.7-3.3-1.5-5.5-2.7c-2.8-1.7-6.5-1.5-9.7-1.5
				c-5.8-0.1-11.6,0.2-17.5,0.3c-3.3,0-9.4-1.5-12.2,0.4c-2.2,1.5-1,4.6-0.5,6.8c0.9,4.1,1.7,3,4.5,5.4c0.4-0.9,0.7-1.7,1.1-2.6
				c-0.5,0-0.9-0.1-1.4-0.1c-1.7-0.4-2.6,1.8-1.2,2.7c3.6,2.3,8.7,1.8,12.8,2c6.4,0.2,12.9-0.1,19.3,0.1c3.4,0.1,9.7,2.9,12.8,0
				c2.7-2.5,0.3-5.5-1.1-8.1c-0.6-1.1-2.5-0.9-2.7,0.4c-0.4,1.9-0.8,3.2-1.8,5c-0.6,1.2,0.4,2.4,1.7,2.2c4.7-0.8,3.2-5.5,1-8.1
				c-0.7-0.8-2.3-0.4-2.5,0.7c-0.8,1.3-1.6,2.6-2.3,3.9c0.7,0.6,1.5,1.1,2.2,1.7c0.6-1.8,1.2-3.4,2-5.1c0.7-1.4-1.1-3.2-2.4-1.8
				c-1.6,1.7-3.2,3.5-4.8,5.2c0.8,0.6,1.6,1.2,2.4,1.8c0.9-1.8,1.9-3.6,2.8-5.4c0.8-1.5-1.1-3.1-2.4-1.8c-1.8,1.8-3.7,3.7-5.5,5.5
				c0.8,0.6,1.6,1.2,2.4,1.8c1.7-2.3,3.3-4.5,5-6.8c0.9-1.2-0.9-2.9-2.1-2.1c-3,2.3-6,4.6-9.1,6.9c0.6,0.8,1.2,1.6,1.8,2.4
				c3-2.7,5.7-5.7,8.1-9c1.1-1.5-1.1-2.8-2.4-1.8c-3.7,2.9-7.4,5.8-11,8.7c0.7,0.7,1.4,1.4,2.1,2.1c3.2-3,6.2-6.1,8.7-9.7
				c0.9-1.3-0.8-2.7-2.1-2.1c-4.7,2.6-8.9,5.7-12.7,9.5c-1.4,1.4,0.7,3.4,2.1,2.1c3.1-2.8,5.8-5.8,8.3-9.2c1-1.4-1.2-3-2.4-1.8
				c-2.7,2.9-5.5,5.4-8.6,7.9c0.7,0.7,1.4,1.4,2.1,2.1c2.5-3,5.1-5.9,7.7-8.7c1.2-1.2-0.3-3.2-1.8-2.4c-4.3,2.5-8.2,5.5-11.8,9.1
				c-1.4,1.4,0.7,3.3,2.1,2.1c3.3-2.7,6.2-5.7,8.9-9.1c-0.7-0.7-1.4-1.4-2.1-2.1c-2.6,3.3-5.1,6.6-7.7,9.9c0.8,0.6,1.6,1.2,2.4,1.8
				c2.2-2.9,4.3-5.7,6.5-8.6c1-1.3-0.9-2.7-2.1-2.1c-4.4,2.2-7.9,5.2-10.8,9.2c-1,1.4,1.3,3.1,2.4,1.8c2.7-3.1,5.3-6.3,8-9.4
				c1-1.2-0.3-3.3-1.8-2.4c-4.4,2.8-8.3,6-12,9.7c-1.4,1.4,0.7,3.5,2.1,2.1c3.1-3,6.2-6,9.3-8.9c1.3-1.2-0.3-3.1-1.8-2.4
				c-4.1,2.2-7.8,4.9-11.2,8.1c-1.4,1.4,0.7,3.4,2.1,2.1c2.9-2.5,7.1-5,8.7-8.6c0.6-1.3-0.6-2.8-2.1-2.1c-4.6,2.6-9.1,5.2-13.6,8
				c0.5,0.9,1,1.7,1.5,2.6c3.3-2.2,6.4-4.6,9.3-7.3c1.2-1.1-0.4-3.4-1.8-2.4c-3.5,2.5-6.4,5.4-9,8.8c-1,1.3,0.9,2.7,2.1,2.1
				c3.5-1.8,6.2-4.3,8.3-7.6c0.9-1.5-1.1-2.9-2.4-1.8c-2.2,2-4.4,4.1-6.6,6.1c0.8,0.5,1.7,1,2.5,1.5c0.7-2.9,4.1-4.7,5.8-7.1
				c1-1.4-0.9-2.6-2.1-2.1c-3.3,1.5-6.2,3.4-8.8,5.9c-1.4,1.4,0.7,3.3,2.1,2.1c2.1-1.7,4.3-3.3,6.6-4.8c1.6-1,0.2-3.5-1.5-2.6
				c-3,1.6-6,3.2-9,4.9c0.5,0.9,1,1.7,1.5,2.6c2.9-1.7,5.8-3.4,8.7-5.1c1.7-1,0.2-3.4-1.5-2.6c-2.3,1-4.6,2.1-6.9,3.1
				c0.6,0.8,1.2,1.6,1.8,2.4c1.4-1.1,2.8-2.1,4.3-3c1.6-1,0.2-3.6-1.5-2.6c-1.8,1.1-3.6,2-5.5,2.9c0.6,0.8,1.2,1.6,1.8,2.4
				c1.4-1.2,2.7-2.4,4.1-3.6c1.3-1.2-0.4-3.1-1.8-2.4c-1.5,0.8-3,1.6-4.6,2.5c0.7,0.7,1.4,1.4,2.1,2.1c0.5-0.6,1.1-1.2,1.6-1.8
				c1.3-1.1-0.4-3.2-1.8-2.4c-1.1,0.7-2.3,1.4-3.4,2c0.7,0.7,1.4,1.4,2.1,2.1c0.3-0.3,0.5-0.6,0.8-0.9c-0.7-0.7-1.4-1.4-2.1-2.1
				c-0.2,0.5-0.5,1.1-0.7,1.7c0.6-0.2,1.1-0.5,1.7-0.7c0.2,0.2,0.4,0.4,0.5,0.6c-0.4-1.7-3-1.3-2.9,0.4c0.1,1,0,2-0.2,3c1,0,2,0,3,0
				c-0.2-1.9-0.2-3.7,0-5.5c0.3-2.7-0.1-2.2,2.5-2.8c3.9-0.9,9.9,0.2,13.9,0.3c4.6,0.1,9.3,0.2,13.9,0.3c1.9,0,4.4-0.6,5.6,1.3
				c0.8,1.3,0.3,5,0.3,6.5c0.1,1.9,3.1,1.9,3,0c-0.2-3,1.1-9.5-2.5-10.7c-2.5-0.8-6.7-0.2-9.3-0.2c-4-0.1-8-0.2-11.9-0.3
				c-3.6-0.1-7.3-0.2-10.9-0.2c-1.9,0-5-0.7-6.9,0.4c-1.2,0.7-1.9,1.7-1.9,3.2c0,0.7,0.4,1.3,0.6,2c0.6,2,0.5,3.7,0.7,5.8
				c0.2,2,2.7,1.9,3,0c0.2-1,0.3-2,0.2-3c-1,0.1-2,0.3-2.9,0.4c0,0.1,0.1,0.2,0.1,0.4c0.1,0.5,0.6,1,1,1c0.1,0,0.3,0,0.4,0.1
				c0.6,0.1,1.4,0,1.7-0.7c0.2-0.6,0.5-1.1,0.7-1.7c0.5-1.2-0.7-3.1-2.1-2.1c-1,0.7-1.3,1-1.9,2c-0.8,1.3,0.8,2.8,2.1,2.1
				c1.1-0.7,2.3-1.4,3.4-2c-0.6-0.8-1.2-1.6-1.8-2.4c-1.2,1.1-1.2,1.1-2,2.5c-0.8,1.3,0.8,2.7,2.1,2.1c1.5-0.8,3-1.6,4.6-2.5
				c-0.6-0.8-1.2-1.6-1.8-2.4c-1.4,1.2-2.7,2.4-4.1,3.6c-1.4,1.2,0.4,3,1.8,2.4c1.9-0.9,3.7-1.8,5.5-2.9c-0.5-0.9-1-1.7-1.5-2.6
				c-1.7,1.1-3.3,2.2-4.9,3.5c-1.4,1.2,0.4,3,1.8,2.4c2.3-1,4.6-2.1,6.9-3.1c-0.5-0.9-1-1.7-1.5-2.6c-2.9,1.7-5.8,3.4-8.7,5.1
				c-1.7,1-0.2,3.5,1.5,2.6c3-1.6,6-3.2,9-4.9c-0.5-0.9-1-1.7-1.5-2.6c-2.5,1.6-4.9,3.4-7.2,5.2c0.7,0.7,1.4,1.4,2.1,2.1
				c2.5-2.4,5.1-4.1,8.2-5.5c-0.7-0.7-1.4-1.4-2.1-2.1c-2,2.8-5.2,4.2-6.1,7.8c-0.4,1.5,1.4,2.5,2.5,1.5c2.2-2,4.4-4.1,6.6-6.1
				c-0.8-0.6-1.6-1.2-2.4-1.8c-1.9,2.9-4.2,5-7.2,6.6c0.7,0.7,1.4,1.4,2.1,2.1c2.3-3,4.9-5.5,8-7.7c-0.6-0.8-1.2-1.6-1.8-2.4
				c-2.7,2.5-5.6,4.8-8.7,6.8c-1.6,1-0.1,3.6,1.5,2.6c4.5-2.8,9-5.5,13.6-8c-0.7-0.7-1.4-1.4-2.1-2.1c-1.4,3.1-5.7,5.8-8.3,8
				c0.7,0.7,1.4,1.4,2.1,2.1c3.2-3.1,6.7-5.6,10.6-7.7c-0.6-0.8-1.2-1.6-1.8-2.4c-3.1,3-6.2,6-9.3,8.9c0.7,0.7,1.4,1.4,2.1,2.1
				c3.5-3.5,7.3-6.5,11.4-9.2c-0.6-0.8-1.2-1.6-1.8-2.4c-2.7,3.1-5.3,6.3-8,9.4c0.8,0.6,1.6,1.2,2.4,1.8c2.6-3.6,5.8-6.2,9.7-8.1
				c-0.7-0.7-1.4-1.4-2.1-2.1c-2.2,2.9-4.3,5.7-6.5,8.6c-1,1.3,1.3,3.2,2.4,1.8c2.6-3.3,5.1-6.6,7.7-9.9c1.2-1.5-0.9-3.6-2.1-2.1
				c-2.7,3.4-5.6,6.3-8.9,9.1c0.7,0.7,1.4,1.4,2.1,2.1c3.4-3.3,7.1-6.2,11.2-8.6c-0.6-0.8-1.2-1.6-1.8-2.4c-2.7,2.8-5.2,5.7-7.7,8.7
				c-1.3,1.5,0.6,3.3,2.1,2.1c3.1-2.4,5.9-5,8.6-7.9c-0.8-0.6-1.6-1.2-2.4-1.8c-2.3,3.2-4.9,6-7.8,8.6c0.7,0.7,1.4,1.4,2.1,2.1
				c3.6-3.6,7.6-6.6,12.1-9.1c-0.7-0.7-1.4-1.4-2.1-2.1c-2.3,3.5-5.2,6.3-8.2,9.1c-1.4,1.4,0.6,3.3,2.1,2.1c3.7-2.9,7.4-5.8,11-8.7
				c-0.8-0.6-1.6-1.2-2.4-1.8c-2.3,3.1-4.8,5.8-7.7,8.4c-1.2,1.1,0.4,3.4,1.8,2.4c3-2.3,6-4.6,9.1-6.9c-0.7-0.7-1.4-1.4-2.1-2.1
				c-1.7,2.3-3.3,4.5-5,6.8c-1,1.4,1.2,3,2.4,1.8c1.8-1.8,3.7-3.7,5.5-5.5c-0.8-0.6-1.6-1.2-2.4-1.8c-0.9,1.8-1.9,3.6-2.8,5.4
				c-0.8,1.5,1.2,3.1,2.4,1.8c1.6-1.7,3.2-3.5,4.8-5.2c-0.8-0.6-1.6-1.2-2.4-1.8c-0.9,1.9-1.6,3.8-2.3,5.8c-0.4,1.2,1.1,2.5,2.2,1.7
				c2.1-1.6,3.2-3,3.7-5.6c-0.8,0.2-1.7,0.4-2.5,0.7c0.1,1,0.2,2.1,0.3,3.1c0.6,0.7,1.1,1.5,1.7,2.2c1-1.9,1.6-3.7,2.1-5.7
				c-0.9,0.1-1.8,0.2-2.7,0.4c1.5,1.4,1.2,2.4-0.8,3c-0.9,1.4-2,1.7-3.4,0.9c-1.5-0.1-2.5-0.4-4-0.4c-3.3-0.1-6.7,0.1-10.1,0.1
				c-3.4,0-6.8-0.1-10.1-0.2c-3.4-0.1-8.3,0.4-11.3-1.5c-0.4,0.9-0.8,1.8-1.2,2.7c1,0.3,1.2,0.3,2.2,0.3c1.2-0.1,2.1-1.7,1.1-2.6
				c-1.7-1.5-3.1-1.6-3.7-4.1c-0.5-1.2-0.4-2.4,0.1-3.6c0.6,0,1.3,0.1,1.9,0.1c1.6-0.4,4,0.1,5.8,0.1c7.8,0,15.5-0.7,23.3-0.1
				c3.4,0.3,5.2,2,8.2,3.5c2.1,1.1,2.8-0.7,4.9,2.5c1.5,2.2,1.1,4.9-1.7,5.7c-3.6,1-8-0.4-11.7-0.5c-3.8-0.1-7.7,0-11.5,0
				c-3.6,0-7.3,0.1-10.9-0.1c-5.6-0.3-9.7-1-10.6-7.4c-0.1-1-0.6-4.4-0.1-5c1-1.2,3.4-0.5,4.7-0.5c3.9,0.1,7.9,0,11.8-0.2
				c3.9-0.1,7.8-0.3,11.8-0.3c3.6,0,8.4-0.5,11.3,2c1.3,1.1,1.5,1.9,3.4,2.4c1.7,0.4,2.3,0.3,3.9,1.4c2.3,1.5,3.4,3.9,4.8,6.2
				c0.1-0.6,0.2-1.2,0.2-1.8c-1.4,1.3-3.2,3.7-4.9,4.5c-2.4,1.2-5.6,1-8.2,1c-4.3,0.1-8.7,0.2-13,0.2c-4.3,0.1-8.7,0.1-13,0.1
				c-1.8,0-4.2,0.4-6,0c-2.3-0.6-3.7-2.9-5.2-4.6C13.3,42.8,11.1,45,12.4,46.4L12.4,46.4z"/>
		</g>
	</g>
	<g>
		<g>
			<path fill="#373737" d="M26.5,31c-0.2-3,0-5,2.5-6.8c2.5-1.8,5.2-1.3,8.1-1.2c2.8,0.1,5.5-0.6,6.1,2.7c0.3,1.8,0.1,1.5-1.5,1.7
				c-1.4,0.2-3.1,0-4.6,0c-0.9,0-7.4,0.5-7.7-0.2c-0.7-1.8,5.2-2,6.5-1.9c1.5,0.1,3,0.3,4.5,0.2c2.9-0.1-1.9-0.1-2-0.1
				c-3,0-6,0-9-0.1c0.3,0.9,0.5,1.9,0.8,2.8c2.4-1.4,5.4-1.1,8.1-1.6c1.9-0.4,1.1-3.2-0.8-2.9c-3.1,0.6-6.1,0.2-8.8,1.9
				c-1.3,0.8-0.7,2.8,0.8,2.8c3.7,0.1,7.5,0.2,11.2,0c1.4,0,2.9,0,3.7-1.4c2.5-4.3-4.9-4.5-6.9-4.6c-4.3-0.2-9-0.6-11.7,3.9
				c-2.4,4,2.9,4.2,5.3,4.2c3.6,0,7.1,0.1,10.7,0c1.4,0,3,0.2,3.9-1.1c0.8-1.1,0.8-4.5,0.6-5.7c-0.2-1.4-0.8-2.4-2.1-3
				c-2.2-1-5.3-0.5-7.7-0.6c-2.2-0.1-4.9-0.7-7,0.2c-4.9,2.1-6.2,5.8-6,10.7C23.6,32.9,26.6,32.9,26.5,31L26.5,31z"/>
		</g>
	</g>
	<g>
		<g>
			<path fill="#373737" d="M43,25.3c3.9,0,7.8,0.1,11.6,0.3c1.7,0.1,5,0.9,6.2-1c0.8-1.3,0.1-2.8-1.1-3.5c-0.8-0.5-1.6-0.4-2.5-0.3
				c-1.4,0.1-3.1-0.2-4.4,0.1c-2.9,0.6-2.9,5.3-0.1,6.1c1.1,0.3,2.6,0.1,3.7,0.1c1.1,0,2.8,0.3,3.9-0.2c1.8-0.9,1.5-3.4,1.3-5
				c-0.2-1.9-3.2-1.9-3,0C59,24,58.8,24,56.5,24c-1.5,0-3.1,0.7-2.5-1.1c-0.3,0.3-0.7,0.7-1,1c0.9-0.4,2.1,0.2,3.1,0
				c0.8-0.2,0.8,0.1,1.4-0.7c0.9-1.1-1.2-0.7-2.2-0.7c-4.1-0.2-8.2-0.3-12.3-0.3C41.1,22.3,41.1,25.3,43,25.3L43,25.3z"/>
		</g>
	</g>
	<g>
		<g>
			<path fill="#373737" d="M15.1,42.8c-5.2,1.2-11.4,6-5.9,11.3c2.7,2.6,6.6,2.5,10,2.5c5.8,0,11.5,0,17.3,0c5.5,0,10.9,0,16.4,0
				c4,0,8.5,0.3,12-2c6.1-4,3.8-8.4-2-10.4c-1.8-0.6-2.6,2.3-0.8,2.9c6.5,2.3-0.5,6.1-4,6.5c-2.3,0.2-4.7,0.1-7.1,0.1
				c-4.5,0-9,0-13.5,0c-4.5,0-9,0-13.5,0c-2.5,0-5,0.1-7.4,0c-3.8,0.4-5.3-1.8-4.6-6.7c1.2-0.6,2.5-1,3.9-1.2
				C17.8,45.3,17,42.4,15.1,42.8L15.1,42.8z"/>
		</g>
	</g>
	<g>
		<g>
			<path fill="#242424" d="M17.1,45.6c-1.8-0.5-3.7-0.3-5,1.1c-1.1,1.2-1.2,3-0.3,4.4c1.6,2.5,6.8,3.9,8.8,1.3
				c2.3-2.8-0.3-6.3-3.4-6.7c-1.5-0.2-3.5,0-4.3,1.5c-0.8,1.3-0.2,3.1,1.1,3.9c1.3,0.8,3.9,1,4.9-0.5c1.2-1.8-1.1-3.5-2.7-3.9
				c-1.9-0.4-2.7,2.5-0.8,2.9c0.1,0,0.8,0.1,0.9,0.4c0.1-0.4,0.1-0.8,0.2-1.2c0.2-0.5,0.4-0.1-0.3-0.2c-0.2,0-0.5-0.2-0.6-0.2
				c0,0.1-0.1,0.2-0.1,0.3c0.1,0,0.2-0.1,0.3-0.1c0.3,0.1,0.6-0.1,0.9,0c0.7,0.1,2.4,0.9,1.7,1.9c-0.6,0.8-2.7,0-3.3-0.4
				c-0.4-0.2-1-0.7-0.8-1.2c0.3-0.8,1.5-0.6,2.1-0.4C18.2,49,19,46.1,17.1,45.6L17.1,45.6z"/>
		</g>
	</g>
	<g>
		<g>
			<path fill="#242424" d="M30.8,45.8c-2-0.4-5.1-0.9-6.5,1.1c-1.2,1.7-0.8,4.2,0.6,5.7c1.5,1.6,4.1,2.1,6.2,1.4
				c2-0.7,3.3-2.7,2.7-4.7c-0.6-2-2.9-3.3-4.8-3.4c-2.1-0.2-4.2,1.4-3.5,3.7c0.5,1.8,2.9,3.2,4.7,2.4c0.9-0.4,1.3-1.5,1-2.4
				c-0.3-1.1-1.2-1.5-2.2-1.9c-1.7-0.8-3.3,1.8-1.5,2.6c0.1,0.1,0.6,0.3,0.7,0.3c0.2-0.4,0.5-0.9,0.7-1.3c-0.1-0.1-0.3-0.2-0.4-0.2
				c0.3-0.2,1.1,0.2,1.5,0.4c1.4,0.8,0.8,1.9-0.7,2c-1.1,0.1-2.5-0.4-2.8-1.6c-0.4-1.7,2.3-1.2,3.3-1C31.8,49,32.7,46.1,30.8,45.8
				L30.8,45.8z"/>
		</g>
	</g>
	<g>
		<g>
			<path fill="#242424" d="M43.6,46.9c-2.3-2.7-6.7-1.4-7.3,2.1c-0.3,1.6,0,3.3,1.3,4.4c1.2,1,3.1,1.4,4.6,1.1
				c3.3-0.7,4.7-4.9,2-7.2c-1.3-1.1-3.2-1.8-4.7-0.9c-1.4,0.8-2,2.7-1.2,4.1c0.8,1.5,3,2.4,4.4,1c1.3-1.4,0.2-3.6-1.6-3.7
				c-1.9,0-1.9,3,0,3c0.6,0-1-2.5,0.7-1.7c0.4,0.2,0.9,0.5,1,0.9c0.3,1.1-1.2,1.6-2,1.5c-1.1-0.2-1.6-0.8-1.4-1.9
				c0.2-1.3,1.4-1.5,2.2-0.6C42.8,50.5,44.9,48.3,43.6,46.9L43.6,46.9z"/>
		</g>
	</g>
	<g>
		<g>
			<path fill="#242424" d="M55.4,46.1c-1.6-0.5-3.4-0.7-4.8,0.5c-1.1,1.1-1.8,3.2-1.7,4.7c0.1,1.7,1.4,2.9,3.1,3
				c1.7,0.2,4.1,0.4,5.6-0.8c1.3-1,1.4-2.8,1.3-4.4c-0.2-1.8-1.3-3.1-3.1-3.4c-1.6-0.3-3.5,0-4.6,1.3c-1.1,1.3-0.9,3.2,0.4,4.2
				c1.2,0.9,3.5,1.2,4.6,0c1.6-1.6-0.1-3.6-1.9-3.9c-1.9-0.3-2.7,2.6-0.8,2.9c0.7,0.1,1.1-0.9,0.6-1.3c-0.1-0.1-0.8,0.1-0.7-0.1
				c0-0.2,1.4-0.3,1.6-0.3c0.7,0.1,0.9,0.4,0.9,1.1c0,0.6,0.1,1.4-0.5,1.6c-0.6,0.2-1.5,0-2.2,0c-0.8,0-1.3,0.2-1.2-0.7
				c0.1-0.5,0.3-1.6,0.8-1.9c0.5-0.3,1.4,0.1,1.8,0.3C56.4,49.6,57.2,46.7,55.4,46.1L55.4,46.1z"/>
		</g>
	</g>
</g>
<g id="Calque_3">
	<g>
		<g>
			<path fill="#373737" d="M84.4,46.9c2.8,3.2,4.1,5.4,8.3,5.5c6.3,0.1,12.7,0,19-0.1c5.9-0.1,12.1,0.1,18-0.4
				c4-0.3,6.4-3.7,9.2-6.3c0.5-0.4,0.6-1.3,0.2-1.8c-1.5-2.4-3.2-6.8-5.7-8.3c-1-0.6-2.2-0.2-3.3-0.5c-6.4-1.6-1.5-1.3-4.2-3
				c-2.6-1.7-5.9-1.4-8.9-1.6c-4.9-0.2-9.8,0-14.7,0.2c-4.9,0.2-9.8,0.3-14.7,0.2c-2.3-0.1-4.4-0.5-5.5,1.8C81,34.9,81.8,38.6,82,41
				c0.2,3.1,0.7,4.8,3.5,6.4c6.6,4,16.4,2.4,23.7,2.4c4.7,0,9.4-0.1,14.1,0.4c3.4,0.3,6.7,0.7,9.7-1.2c1.4-0.9,3.1-2.3,3.2-4.1
				c0.1-1.9-2.9-6.5-4.4-7.5c-0.8-0.5-1.6-0.5-2.4-0.7c-2.9-0.7-3.3-1.5-5.5-2.7c-2.8-1.7-6.5-1.5-9.7-1.5
				c-5.8-0.1-11.6,0.2-17.5,0.3c-3.3,0-9.4-1.5-12.2,0.4c-2.2,1.5-1,4.6-0.5,6.8c0.9,4.1,1.7,3,4.5,5.4c0.4-0.9,0.7-1.7,1.1-2.6
				c-0.5,0-0.9-0.1-1.4-0.1c-1.7-0.4-2.6,1.8-1.2,2.7c3.6,2.3,8.7,1.8,12.8,2c6.4,0.2,12.9-0.1,19.3,0.1c3.4,0.1,9.7,2.9,12.8,0
				c2.7-2.5,0.3-5.5-1.1-8.1c-0.6-1.1-2.5-0.9-2.7,0.4c-0.4,1.9-0.8,3.2-1.8,5c-0.6,1.2,0.4,2.4,1.7,2.2c4.7-0.8,3.2-5.5,1-8.1
				c-0.7-0.8-2.3-0.4-2.5,0.7c-0.8,1.3-1.6,2.6-2.3,3.9c0.7,0.6,1.5,1.1,2.2,1.7c0.6-1.8,1.2-3.4,2-5.1c0.7-1.4-1.1-3.2-2.4-1.8
				c-1.6,1.7-3.2,3.5-4.8,5.2c0.8,0.6,1.6,1.2,2.4,1.8c0.9-1.8,1.9-3.6,2.8-5.4c0.8-1.5-1.1-3.1-2.4-1.8c-1.8,1.8-3.7,3.7-5.5,5.5
				c0.8,0.6,1.6,1.2,2.4,1.8c1.7-2.3,3.3-4.5,5-6.8c0.9-1.2-0.9-2.9-2.1-2.1c-3,2.3-6,4.6-9.1,6.9c0.6,0.8,1.2,1.6,1.8,2.4
				c3-2.7,5.7-5.7,8.1-9c1.1-1.5-1.1-2.8-2.4-1.8c-3.7,2.9-7.4,5.8-11,8.7c0.7,0.7,1.4,1.4,2.1,2.1c3.2-3,6.2-6.1,8.7-9.7
				c0.9-1.3-0.8-2.7-2.1-2.1c-4.7,2.6-8.9,5.7-12.7,9.5c-1.4,1.4,0.7,3.4,2.1,2.1c3.1-2.8,5.8-5.8,8.3-9.2c1-1.4-1.2-3-2.4-1.8
				c-2.7,2.9-5.5,5.4-8.6,7.9c0.7,0.7,1.4,1.4,2.1,2.1c2.5-3,5.1-5.9,7.7-8.7c1.2-1.2-0.3-3.2-1.8-2.4c-4.3,2.5-8.2,5.5-11.8,9.1
				c-1.4,1.4,0.7,3.3,2.1,2.1c3.3-2.7,6.2-5.7,8.9-9.1c-0.7-0.7-1.4-1.4-2.1-2.1c-2.6,3.3-5.1,6.6-7.7,9.9c0.8,0.6,1.6,1.2,2.4,1.8
				c2.2-2.9,4.3-5.7,6.5-8.6c1-1.3-0.9-2.7-2.1-2.1c-4.4,2.2-7.9,5.2-10.8,9.2c-1,1.4,1.3,3.1,2.4,1.8c2.7-3.1,5.3-6.3,8-9.4
				c1-1.2-0.3-3.3-1.8-2.4c-4.4,2.8-8.3,6-12,9.7c-1.4,1.4,0.7,3.5,2.1,2.1c3.1-3,6.2-6,9.3-8.9c1.3-1.2-0.3-3.1-1.8-2.4
				c-4.1,2.2-7.8,4.9-11.2,8.1c-1.4,1.4,0.7,3.4,2.1,2.1c2.9-2.5,7.1-5,8.7-8.6c0.6-1.3-0.6-2.8-2.1-2.1c-4.6,2.6-9.1,5.2-13.6,8
				c0.5,0.9,1,1.7,1.5,2.6c3.3-2.2,6.4-4.6,9.3-7.3c1.2-1.1-0.4-3.4-1.8-2.4c-3.5,2.5-6.4,5.4-9,8.8c-1,1.3,0.9,2.7,2.1,2.1
				c3.5-1.8,6.2-4.3,8.3-7.6c0.9-1.5-1.1-2.9-2.4-1.8c-2.2,2-4.4,4.1-6.6,6.1c0.8,0.5,1.7,1,2.5,1.5c0.7-2.9,4.1-4.7,5.8-7.1
				c1-1.4-0.9-2.6-2.1-2.1c-3.3,1.5-6.2,3.4-8.8,5.9c-1.4,1.4,0.7,3.3,2.1,2.1c2.1-1.7,4.3-3.3,6.6-4.8c1.6-1,0.2-3.5-1.5-2.6
				c-3,1.6-6,3.2-9,4.9c0.5,0.9,1,1.7,1.5,2.6c2.9-1.7,5.8-3.4,8.7-5.1c1.7-1,0.2-3.4-1.5-2.6c-2.3,1-4.6,2.1-6.9,3.1
				c0.6,0.8,1.2,1.6,1.8,2.4c1.4-1.1,2.8-2.1,4.3-3c1.6-1,0.2-3.6-1.5-2.6c-1.8,1.1-3.6,2-5.5,2.9c0.6,0.8,1.2,1.6,1.8,2.4
				c1.4-1.2,2.7-2.4,4.1-3.6c1.3-1.2-0.4-3.1-1.8-2.4c-1.5,0.8-3,1.6-4.6,2.5c0.7,0.7,1.4,1.4,2.1,2.1c0.5-0.6,1.1-1.2,1.6-1.8
				c1.3-1.1-0.4-3.2-1.8-2.4c-1.1,0.7-2.3,1.4-3.4,2c0.7,0.7,1.4,1.4,2.1,2.1c0.3-0.3,0.5-0.6,0.8-0.9c-0.7-0.7-1.4-1.4-2.1-2.1
				c-0.2,0.5-0.5,1.1-0.7,1.7c0.6-0.2,1.1-0.5,1.7-0.7c0.2,0.2,0.4,0.4,0.5,0.6c-0.4-1.7-3-1.3-2.9,0.4c0.1,1,0,2-0.2,3c1,0,2,0,3,0
				c-0.2-1.9-0.2-3.7,0-5.5c0.3-2.7-0.1-2.2,2.5-2.8c3.9-0.9,9.9,0.2,13.9,0.3c4.6,0.1,9.3,0.2,13.9,0.3c1.9,0,4.4-0.6,5.6,1.3
				c0.8,1.3,0.3,5,0.3,6.5c0.1,1.9,3.1,1.9,3,0c-0.2-3,1.1-9.5-2.5-10.7c-2.5-0.8-6.7-0.2-9.3-0.2c-4-0.1-8-0.2-11.9-0.3
				c-3.6-0.1-7.3-0.2-10.9-0.2c-1.9,0-5-0.7-6.9,0.4c-1.2,0.7-1.9,1.7-1.9,3.2c0,0.7,0.4,1.3,0.6,2c0.6,2,0.5,3.7,0.7,5.8
				c0.2,2,2.7,1.9,3,0c0.2-1,0.3-2,0.2-3c-1,0.1-2,0.3-2.9,0.4c0,0.1,0.1,0.2,0.1,0.4c0.1,0.5,0.6,1,1,1c0.1,0,0.3,0,0.4,0.1
				c0.6,0.1,1.4,0,1.7-0.7c0.2-0.6,0.5-1.1,0.7-1.7c0.5-1.2-0.7-3.1-2.1-2.1c-1,0.7-1.3,1-1.9,2c-0.8,1.3,0.8,2.8,2.1,2.1
				c1.1-0.7,2.3-1.4,3.4-2c-0.6-0.8-1.2-1.6-1.8-2.4C88,36,88,36,87.2,37.4c-0.8,1.3,0.8,2.7,2.1,2.1c1.5-0.8,3-1.6,4.6-2.5
				c-0.6-0.8-1.2-1.6-1.8-2.4c-1.4,1.2-2.7,2.4-4.1,3.6c-1.4,1.2,0.4,3,1.8,2.4c1.9-0.9,3.7-1.8,5.5-2.9c-0.5-0.9-1-1.7-1.5-2.6
				c-1.7,1.1-3.3,2.2-4.9,3.5c-1.4,1.2,0.4,3,1.8,2.4c2.3-1,4.6-2.1,6.9-3.1c-0.5-0.9-1-1.7-1.5-2.6c-2.9,1.7-5.8,3.4-8.7,5.1
				c-1.7,1-0.2,3.5,1.5,2.6c3-1.6,6-3.2,9-4.9c-0.5-0.9-1-1.7-1.5-2.6c-2.5,1.6-4.9,3.4-7.2,5.2c0.7,0.7,1.4,1.4,2.1,2.1
				c2.5-2.4,5.1-4.1,8.2-5.5c-0.7-0.7-1.4-1.4-2.1-2.1c-2,2.8-5.2,4.2-6.1,7.8c-0.4,1.5,1.4,2.5,2.5,1.5c2.2-2,4.4-4.1,6.6-6.1
				c-0.8-0.6-1.6-1.2-2.4-1.8c-1.9,2.9-4.2,5-7.2,6.6c0.7,0.7,1.4,1.4,2.1,2.1c2.3-3,4.9-5.5,8-7.7c-0.6-0.8-1.2-1.6-1.8-2.4
				c-2.7,2.5-5.6,4.8-8.7,6.8c-1.6,1-0.1,3.6,1.5,2.6c4.5-2.8,9-5.5,13.6-8c-0.7-0.7-1.4-1.4-2.1-2.1c-1.4,3.1-5.7,5.8-8.3,8
				c0.7,0.7,1.4,1.4,2.1,2.1c3.2-3.1,6.7-5.6,10.6-7.7c-0.6-0.8-1.2-1.6-1.8-2.4c-3.1,3-6.2,6-9.3,8.9c0.7,0.7,1.4,1.4,2.1,2.1
				c3.5-3.5,7.3-6.5,11.4-9.2c-0.6-0.8-1.2-1.6-1.8-2.4c-2.7,3.1-5.3,6.3-8,9.4c0.8,0.6,1.6,1.2,2.4,1.8c2.6-3.6,5.8-6.2,9.7-8.1
				c-0.7-0.7-1.4-1.4-2.1-2.1c-2.2,2.9-4.3,5.7-6.5,8.6c-1,1.3,1.3,3.2,2.4,1.8c2.6-3.3,5.1-6.6,7.7-9.9c1.2-1.5-0.9-3.6-2.1-2.1
				c-2.7,3.4-5.6,6.3-8.9,9.1c0.7,0.7,1.4,1.4,2.1,2.1c3.4-3.3,7.1-6.2,11.2-8.6c-0.6-0.8-1.2-1.6-1.8-2.4c-2.7,2.8-5.2,5.7-7.7,8.7
				c-1.3,1.5,0.6,3.3,2.1,2.1c3.1-2.4,5.9-5,8.6-7.9c-0.8-0.6-1.6-1.2-2.4-1.8c-2.3,3.2-4.9,6-7.8,8.6c0.7,0.7,1.4,1.4,2.1,2.1
				c3.6-3.6,7.6-6.6,12.1-9.1c-0.7-0.7-1.4-1.4-2.1-2.1c-2.3,3.5-5.2,6.3-8.2,9.1c-1.4,1.4,0.6,3.3,2.1,2.1c3.7-2.9,7.4-5.8,11-8.7
				c-0.8-0.6-1.6-1.2-2.4-1.8c-2.3,3.1-4.8,5.8-7.7,8.4c-1.2,1.1,0.4,3.4,1.8,2.4c3-2.3,6-4.6,9.1-6.9c-0.7-0.7-1.4-1.4-2.1-2.1
				c-1.7,2.3-3.3,4.5-5,6.8c-1,1.4,1.2,3,2.4,1.8c1.8-1.8,3.7-3.7,5.5-5.5c-0.8-0.6-1.6-1.2-2.4-1.8c-0.9,1.8-1.9,3.6-2.8,5.4
				c-0.8,1.5,1.2,3.1,2.4,1.8c1.6-1.7,3.2-3.5,4.8-5.2c-0.8-0.6-1.6-1.2-2.4-1.8c-0.9,1.9-1.6,3.8-2.3,5.8c-0.4,1.2,1.1,2.5,2.2,1.7
				c2.1-1.6,3.2-3,3.7-5.6c-0.8,0.2-1.7,0.4-2.5,0.7c0.1,1,0.2,2.1,0.3,3.1c0.6,0.7,1.1,1.5,1.7,2.2c1-1.9,1.6-3.7,2.1-5.7
				c-0.9,0.1-1.8,0.2-2.7,0.4c1.5,1.4,1.2,2.4-0.8,3c-0.9,1.4-2,1.7-3.4,0.9c-1.5-0.1-2.5-0.4-4-0.4c-3.3-0.1-6.7,0.1-10.1,0.1
				c-3.4,0-6.8-0.1-10.1-0.2c-3.4-0.1-8.3,0.4-11.3-1.5c-0.4,0.9-0.8,1.8-1.2,2.7c1,0.3,1.2,0.3,2.2,0.3c1.2-0.1,2.1-1.7,1.1-2.6
				c-1.7-1.5-3.1-1.6-3.7-4.1c-0.5-1.2-0.4-2.4,0.1-3.6c0.6,0,1.3,0.1,1.9,0.1c1.6-0.4,4,0.1,5.8,0.1c7.8,0,15.5-0.7,23.3-0.1
				c3.4,0.3,5.2,2,8.2,3.5c2.1,1.1,2.8-0.7,4.9,2.5c1.5,2.2,1.1,4.9-1.7,5.7c-3.6,1-8-0.4-11.7-0.5c-3.8-0.1-7.7,0-11.5,0
				c-3.6,0-7.3,0.1-10.9-0.1c-5.6-0.3-9.7-1-10.6-7.4c-0.1-1-0.6-4.4-0.1-5c1-1.2,3.4-0.5,4.7-0.5c3.9,0.1,7.9,0,11.8-0.2
				c3.9-0.1,7.8-0.3,11.8-0.3c3.6,0,8.4-0.5,11.3,2c1.3,1.1,1.5,1.9,3.4,2.4c1.7,0.4,2.3,0.3,3.9,1.4c2.3,1.5,3.4,3.9,4.8,6.2
				c0.1-0.6,0.2-1.2,0.2-1.8c-1.4,1.3-3.2,3.7-4.9,4.5c-2.4,1.2-5.6,1-8.2,1c-4.3,0.1-8.7,0.2-13,0.2c-4.3,0.1-8.7,0.1-13,0.1
				c-1.8,0-4.2,0.4-6,0c-2.3-0.6-3.7-2.9-5.2-4.6C85.3,43.3,83.1,45.5,84.4,46.9L84.4,46.9z"/>
		</g>
	</g>
	<g>
		<g>
			<path fill="#373737" d="M98.5,31.5c-0.2-3,0-5,2.5-6.8c2.5-1.8,5.2-1.3,8.1-1.2c2.8,0.1,5.5-0.6,6.1,2.7c0.3,1.8,0.1,1.5-1.5,1.7
				c-1.4,0.2-3.1,0-4.6,0c-0.9,0-7.4,0.5-7.7-0.2c-0.7-1.8,5.2-2,6.5-1.9c1.5,0.1,3,0.3,4.5,0.2c2.9-0.1-1.9-0.1-2-0.1
				c-3,0-6,0-9-0.1c0.3,0.9,0.5,1.9,0.8,2.8c2.4-1.4,5.4-1.1,8.1-1.6c1.9-0.4,1.1-3.2-0.8-2.9c-3.1,0.6-6.1,0.2-8.8,1.9
				c-1.3,0.8-0.7,2.8,0.8,2.8c3.7,0.1,7.5,0.2,11.2,0c1.4,0,2.9,0,3.7-1.4c2.5-4.3-4.9-4.5-6.9-4.6c-4.3-0.2-9-0.6-11.7,3.9
				c-2.4,4,2.9,4.2,5.3,4.2c3.6,0,7.1,0.1,10.7,0c1.4,0,3,0.2,3.9-1.1c0.8-1.1,0.8-4.5,0.6-5.7c-0.2-1.4-0.8-2.4-2.1-3
				c-2.2-1-5.3-0.5-7.7-0.6c-2.2-0.1-4.9-0.7-7,0.2c-4.9,2.1-6.2,5.8-6,10.7C95.6,33.4,98.6,33.4,98.5,31.5L98.5,31.5z"/>
		</g>
	</g>
	<g>
		<g>
			<path fill="#373737" d="M115,25.8c3.9,0,7.8,0.1,11.6,0.3c1.7,0.1,5,0.9,6.2-1c0.8-1.3,0.1-2.8-1.1-3.5c-0.8-0.5-1.6-0.4-2.5-0.3
				c-1.4,0.1-3.1-0.2-4.4,0.1c-2.9,0.6-2.9,5.3-0.1,6.1c1.1,0.3,2.6,0.1,3.7,0.1c1.1,0,2.8,0.3,3.9-0.2c1.8-0.9,1.5-3.4,1.3-5
				c-0.2-1.9-3.2-1.9-3,0c0.2,2.2,0.1,2.2-2.2,2.2c-1.5,0-3.1,0.7-2.5-1.1c-0.3,0.3-0.7,0.7-1,1c0.9-0.4,2.1,0.2,3.1,0
				c0.8-0.2,0.8,0.1,1.4-0.7c0.9-1.1-1.2-0.7-2.2-0.7c-4.1-0.2-8.2-0.3-12.3-0.3C113.1,22.8,113.1,25.8,115,25.8L115,25.8z"/>
		</g>
	</g>
	<g>
		<g>
			<path fill="#373737" d="M87.1,43.3c-5.2,1.2-11.4,6-5.9,11.3c2.7,2.6,6.6,2.5,10,2.5c5.8,0,11.5,0,17.3,0c5.5,0,10.9,0,16.4,0
				c4,0,8.5,0.3,12-2c6.1-4,3.8-8.4-2-10.4c-1.8-0.6-2.6,2.3-0.8,2.9c6.5,2.3-0.5,6.1-4,6.5c-2.3,0.2-4.7,0.1-7.1,0.1
				c-4.5,0-9,0-13.5,0c-4.5,0-9,0-13.5,0c-2.5,0-5,0.1-7.4,0c-3.8,0.4-5.3-1.8-4.6-6.7c1.2-0.6,2.5-1,3.9-1.2
				C89.8,45.8,89,42.9,87.1,43.3L87.1,43.3z"/>
		</g>
	</g>
	<g>
		<g>
			<path fill="#242424" d="M89.1,46.1c-1.8-0.5-3.7-0.3-5,1.1c-1.1,1.2-1.2,3-0.3,4.4c1.6,2.5,6.8,3.9,8.8,1.3
				c2.3-2.8-0.3-6.3-3.4-6.7c-1.5-0.2-3.5,0-4.3,1.5c-0.8,1.3-0.2,3.1,1.1,3.9c1.3,0.8,3.9,1,4.9-0.5c1.2-1.8-1.1-3.5-2.7-3.9
				c-1.9-0.4-2.7,2.5-0.8,2.9c0.1,0,0.8,0.1,0.9,0.4c0.1-0.4,0.1-0.8,0.2-1.2c0.2-0.5,0.4-0.1-0.3-0.2c-0.2,0-0.5-0.2-0.6-0.2
				c0,0.1-0.1,0.2-0.1,0.3c0.1,0,0.2-0.1,0.3-0.1c0.3,0.1,0.6-0.1,0.9,0c0.7,0.1,2.4,0.9,1.7,1.9c-0.6,0.8-2.7,0-3.3-0.4
				c-0.4-0.2-1-0.7-0.8-1.2c0.3-0.8,1.5-0.6,2.1-0.4C90.2,49.5,91,46.6,89.1,46.1L89.1,46.1z"/>
		</g>
	</g>
	<g>
		<g>
			<path fill="#242424" d="M102.8,46.3c-2-0.4-5.1-0.9-6.5,1.1c-1.2,1.7-0.8,4.2,0.6,5.7c1.5,1.6,4.1,2.1,6.2,1.4
				c2-0.7,3.3-2.7,2.7-4.7c-0.6-2-2.9-3.3-4.8-3.4c-2.1-0.2-4.2,1.4-3.5,3.7c0.5,1.8,2.9,3.2,4.7,2.4c0.9-0.4,1.3-1.5,1-2.4
				c-0.3-1.1-1.2-1.5-2.2-1.9c-1.7-0.8-3.3,1.8-1.5,2.6c0.1,0.1,0.6,0.3,0.7,0.3c0.2-0.4,0.5-0.9,0.7-1.3c-0.1-0.1-0.3-0.2-0.4-0.2
				c0.3-0.2,1.1,0.2,1.5,0.4c1.4,0.8,0.8,1.9-0.7,2c-1.1,0.1-2.5-0.4-2.8-1.6c-0.4-1.7,2.3-1.2,3.3-1
				C103.8,49.5,104.7,46.6,102.8,46.3L102.8,46.3z"/>
		</g>
	</g>
	<g>
		<g>
			<path fill="#242424" d="M115.6,47.4c-2.3-2.7-6.7-1.4-7.3,2.1c-0.3,1.6,0,3.3,1.3,4.4c1.2,1,3.1,1.4,4.6,1.1
				c3.3-0.7,4.7-4.9,2-7.2c-1.3-1.1-3.2-1.8-4.7-0.9c-1.4,0.8-2,2.7-1.2,4.1c0.8,1.5,3,2.4,4.4,1c1.3-1.4,0.2-3.6-1.6-3.7
				c-1.9,0-1.9,3,0,3c0.6,0-1-2.5,0.7-1.7c0.4,0.2,0.9,0.5,1,0.9c0.3,1.1-1.2,1.6-2,1.5c-1.1-0.2-1.6-0.8-1.4-1.9
				c0.2-1.3,1.4-1.5,2.2-0.6C114.8,51,116.9,48.8,115.6,47.4L115.6,47.4z"/>
		</g>
	</g>
	<g>
		<g>
			<path fill="#242424" d="M127.4,46.6c-1.6-0.5-3.4-0.7-4.8,0.5c-1.1,1.1-1.8,3.2-1.7,4.7c0.1,1.7,1.4,2.9,3.1,3
				c1.7,0.2,4.1,0.4,5.6-0.8c1.3-1,1.4-2.8,1.3-4.4c-0.2-1.8-1.3-3.1-3.1-3.4c-1.6-0.3-3.5,0-4.6,1.3c-1.1,1.3-0.9,3.2,0.4,4.2
				c1.2,0.9,3.5,1.2,4.6,0c1.6-1.6-0.1-3.6-1.9-3.9c-1.9-0.3-2.7,2.6-0.8,2.9c0.7,0.1,1.1-0.9,0.6-1.3c-0.1-0.1-0.8,0.1-0.7-0.1
				c0-0.2,1.4-0.3,1.6-0.3c0.7,0.1,0.9,0.4,0.9,1.1c0,0.6,0.1,1.4-0.5,1.6c-0.6,0.2-1.5,0-2.2,0c-0.8,0-1.3,0.2-1.2-0.7
				c0.1-0.5,0.3-1.6,0.8-1.9c0.5-0.3,1.4,0.1,1.8,0.3C128.4,50.1,129.2,47.2,127.4,46.6L127.4,46.6z"/>
		</g>
	</g>
	<g>
		<g>
			<path fill="#FFFF00" d="M133,22.3c0.1,1,0.1,2.1-0.2,3.1c-0.3,1.6,1.9,2.8,2.7,1.2c0.7-1.3,1-2.8,0.6-4.3
				c-0.3-1.3-1.2-2.5-2.6-2.4c-1,0.1-1.7,0.9-1.4,1.9c0.3,1.3,0.3,2.6,0,4c-0.4,1.9,2.5,2.7,2.9,0.8c0.4-1.9,0.4-3.7,0-5.6
				c-0.5,0.6-1,1.3-1.4,1.9c-0.8,0-0.3-0.6-0.3,0c0,0.2,0.1,0.4,0.1,0.7c0,0.5-0.1,1-0.4,1.5c0.9,0.4,1.8,0.8,2.7,1.2
				c0.3-1.3,0.4-2.6,0.3-3.9C135.8,20.4,132.8,20.4,133,22.3L133,22.3z"/>
		</g>
	</g>
</g>
<g id="Calque_5">
	<g>
		<g>
			<path fill="#373737" d="M156.4,46.9c2.8,3.2,4.1,5.4,8.3,5.5c6.3,0.1,12.7,0,19-0.1c5.9-0.1,12.1,0.1,18-0.4
				c4-0.3,6.4-3.7,9.2-6.3c0.5-0.4,0.6-1.3,0.2-1.8c-1.5-2.4-3.2-6.8-5.7-8.3c-1-0.6-2.2-0.2-3.3-0.5c-6.4-1.6-1.5-1.3-4.2-3
				c-2.6-1.7-5.9-1.4-8.9-1.6c-4.9-0.2-9.8,0-14.7,0.2c-4.9,0.2-9.8,0.3-14.7,0.2c-2.3-0.1-4.4-0.5-5.5,1.8
				c-1.1,2.2-0.3,5.9-0.1,8.3c0.2,3.1,0.7,4.8,3.5,6.4c6.6,4,16.4,2.4,23.7,2.4c4.7,0,9.4-0.1,14.1,0.4c3.4,0.3,6.7,0.7,9.7-1.2
				c1.4-0.9,3.1-2.3,3.2-4.1c0.1-1.9-2.9-6.5-4.4-7.5c-0.8-0.5-1.6-0.5-2.4-0.7c-2.9-0.7-3.3-1.5-5.5-2.7c-2.8-1.7-6.5-1.5-9.7-1.5
				c-5.8-0.1-11.6,0.2-17.5,0.3c-3.3,0-9.4-1.5-12.2,0.4c-2.2,1.5-1,4.6-0.5,6.8c0.9,4.1,1.7,3,4.5,5.4c0.4-0.9,0.7-1.7,1.1-2.6
				c-0.5,0-0.9-0.1-1.4-0.1c-1.7-0.4-2.6,1.8-1.2,2.7c3.6,2.3,8.7,1.8,12.8,2c6.4,0.2,12.9-0.1,19.3,0.1c3.4,0.1,9.7,2.9,12.8,0
				c2.7-2.5,0.3-5.5-1.1-8.1c-0.6-1.1-2.5-0.9-2.7,0.4c-0.4,1.9-0.8,3.2-1.8,5c-0.6,1.2,0.4,2.4,1.7,2.2c4.7-0.8,3.2-5.5,1-8.1
				c-0.7-0.8-2.3-0.4-2.5,0.7c-0.8,1.3-1.6,2.6-2.3,3.9c0.7,0.6,1.5,1.1,2.2,1.7c0.6-1.8,1.2-3.4,2-5.1c0.7-1.4-1.1-3.2-2.4-1.8
				c-1.6,1.7-3.2,3.5-4.8,5.2c0.8,0.6,1.6,1.2,2.4,1.8c0.9-1.8,1.9-3.6,2.8-5.4c0.8-1.5-1.1-3.1-2.4-1.8c-1.8,1.8-3.7,3.7-5.5,5.5
				c0.8,0.6,1.6,1.2,2.4,1.8c1.7-2.3,3.3-4.5,5-6.8c0.9-1.2-0.9-2.9-2.1-2.1c-3,2.3-6,4.6-9.1,6.9c0.6,0.8,1.2,1.6,1.8,2.4
				c3-2.7,5.7-5.7,8.1-9c1.1-1.5-1.1-2.8-2.4-1.8c-3.7,2.9-7.4,5.8-11,8.7c0.7,0.7,1.4,1.4,2.1,2.1c3.2-3,6.2-6.1,8.7-9.7
				c0.9-1.3-0.8-2.7-2.1-2.1c-4.7,2.6-8.9,5.7-12.7,9.5c-1.4,1.4,0.7,3.4,2.1,2.1c3.1-2.8,5.8-5.8,8.3-9.2c1-1.4-1.2-3-2.4-1.8
				c-2.7,2.9-5.5,5.4-8.6,7.9c0.7,0.7,1.4,1.4,2.1,2.1c2.5-3,5.1-5.9,7.7-8.7c1.2-1.2-0.3-3.2-1.8-2.4c-4.3,2.5-8.2,5.5-11.8,9.1
				c-1.4,1.4,0.7,3.3,2.1,2.1c3.3-2.7,6.2-5.7,8.9-9.1c-0.7-0.7-1.4-1.4-2.1-2.1c-2.6,3.3-5.1,6.6-7.7,9.9c0.8,0.6,1.6,1.2,2.4,1.8
				c2.2-2.9,4.3-5.7,6.5-8.6c1-1.3-0.9-2.7-2.1-2.1c-4.4,2.2-7.9,5.2-10.8,9.2c-1,1.4,1.3,3.1,2.4,1.8c2.7-3.1,5.3-6.3,8-9.4
				c1-1.2-0.3-3.3-1.8-2.4c-4.4,2.8-8.3,6-12,9.7c-1.4,1.4,0.7,3.5,2.1,2.1c3.1-3,6.2-6,9.3-8.9c1.3-1.2-0.3-3.1-1.8-2.4
				c-4.1,2.2-7.8,4.9-11.2,8.1c-1.4,1.4,0.7,3.4,2.1,2.1c2.9-2.5,7.1-5,8.7-8.6c0.6-1.3-0.6-2.8-2.1-2.1c-4.6,2.6-9.1,5.2-13.6,8
				c0.5,0.9,1,1.7,1.5,2.6c3.3-2.2,6.4-4.6,9.3-7.3c1.2-1.1-0.4-3.4-1.8-2.4c-3.5,2.5-6.4,5.4-9,8.8c-1,1.3,0.9,2.7,2.1,2.1
				c3.5-1.8,6.2-4.3,8.3-7.6c0.9-1.5-1.1-2.9-2.4-1.8c-2.2,2-4.4,4.1-6.6,6.1c0.8,0.5,1.7,1,2.5,1.5c0.7-2.9,4.1-4.7,5.8-7.1
				c1-1.4-0.9-2.6-2.1-2.1c-3.3,1.5-6.2,3.4-8.8,5.9c-1.4,1.4,0.7,3.3,2.1,2.1c2.1-1.7,4.3-3.3,6.6-4.8c1.6-1,0.2-3.5-1.5-2.6
				c-3,1.6-6,3.2-9,4.9c0.5,0.9,1,1.7,1.5,2.6c2.9-1.7,5.8-3.4,8.7-5.1c1.7-1,0.2-3.4-1.5-2.6c-2.3,1-4.6,2.1-6.9,3.1
				c0.6,0.8,1.2,1.6,1.8,2.4c1.4-1.1,2.8-2.1,4.3-3c1.6-1,0.2-3.6-1.5-2.6c-1.8,1.1-3.6,2-5.5,2.9c0.6,0.8,1.2,1.6,1.8,2.4
				c1.4-1.2,2.7-2.4,4.1-3.6c1.3-1.2-0.4-3.1-1.8-2.4c-1.5,0.8-3,1.6-4.6,2.5c0.7,0.7,1.4,1.4,2.1,2.1c0.5-0.6,1.1-1.2,1.6-1.8
				c1.3-1.1-0.4-3.2-1.8-2.4c-1.1,0.7-2.3,1.4-3.4,2c0.7,0.7,1.4,1.4,2.1,2.1c0.3-0.3,0.5-0.6,0.8-0.9c-0.7-0.7-1.4-1.4-2.1-2.1
				c-0.2,0.5-0.5,1.1-0.7,1.7c0.6-0.2,1.1-0.5,1.7-0.7c0.2,0.2,0.4,0.4,0.5,0.6c-0.4-1.7-3-1.3-2.9,0.4c0.1,1,0,2-0.2,3c1,0,2,0,3,0
				c-0.2-1.9-0.2-3.7,0-5.5c0.3-2.7-0.1-2.2,2.5-2.8c3.9-0.9,9.9,0.2,13.9,0.3c4.6,0.1,9.3,0.2,13.9,0.3c1.9,0,4.4-0.6,5.6,1.3
				c0.8,1.3,0.3,5,0.3,6.5c0.1,1.9,3.1,1.9,3,0c-0.2-3,1.1-9.5-2.5-10.7c-2.5-0.8-6.7-0.2-9.3-0.2c-4-0.1-8-0.2-11.9-0.3
				c-3.6-0.1-7.3-0.2-10.9-0.2c-1.9,0-5-0.7-6.9,0.4c-1.2,0.7-1.9,1.7-1.9,3.2c0,0.7,0.4,1.3,0.6,2c0.6,2,0.5,3.7,0.7,5.8
				c0.2,2,2.7,1.9,3,0c0.2-1,0.3-2,0.2-3c-1,0.1-2,0.3-2.9,0.4c0,0.1,0.1,0.2,0.1,0.4c0.1,0.5,0.6,1,1,1c0.1,0,0.3,0,0.4,0.1
				c0.6,0.1,1.4,0,1.7-0.7c0.2-0.6,0.5-1.1,0.7-1.7c0.5-1.2-0.7-3.1-2.1-2.1c-1,0.7-1.3,1-1.9,2c-0.8,1.3,0.8,2.8,2.1,2.1
				c1.1-0.7,2.3-1.4,3.4-2c-0.6-0.8-1.2-1.6-1.8-2.4c-1.2,1.1-1.2,1.1-2,2.5c-0.8,1.3,0.8,2.7,2.1,2.1c1.5-0.8,3-1.6,4.6-2.5
				c-0.6-0.8-1.2-1.6-1.8-2.4c-1.4,1.2-2.7,2.4-4.1,3.6c-1.4,1.2,0.4,3,1.8,2.4c1.9-0.9,3.7-1.8,5.5-2.9c-0.5-0.9-1-1.7-1.5-2.6
				c-1.7,1.1-3.3,2.2-4.9,3.5c-1.4,1.2,0.4,3,1.8,2.4c2.3-1,4.6-2.1,6.9-3.1c-0.5-0.9-1-1.7-1.5-2.6c-2.9,1.7-5.8,3.4-8.7,5.1
				c-1.7,1-0.2,3.5,1.5,2.6c3-1.6,6-3.2,9-4.9c-0.5-0.9-1-1.7-1.5-2.6c-2.5,1.6-4.9,3.4-7.2,5.2c0.7,0.7,1.4,1.4,2.1,2.1
				c2.5-2.4,5.1-4.1,8.2-5.5c-0.7-0.7-1.4-1.4-2.1-2.1c-2,2.8-5.2,4.2-6.1,7.8c-0.4,1.5,1.4,2.5,2.5,1.5c2.2-2,4.4-4.1,6.6-6.1
				c-0.8-0.6-1.6-1.2-2.4-1.8c-1.9,2.9-4.2,5-7.2,6.6c0.7,0.7,1.4,1.4,2.1,2.1c2.3-3,4.9-5.5,8-7.7c-0.6-0.8-1.2-1.6-1.8-2.4
				c-2.7,2.5-5.6,4.8-8.7,6.8c-1.6,1-0.1,3.6,1.5,2.6c4.5-2.8,9-5.5,13.6-8c-0.7-0.7-1.4-1.4-2.1-2.1c-1.4,3.1-5.7,5.8-8.3,8
				c0.7,0.7,1.4,1.4,2.1,2.1c3.2-3.1,6.7-5.6,10.6-7.7c-0.6-0.8-1.2-1.6-1.8-2.4c-3.1,3-6.2,6-9.3,8.9c0.7,0.7,1.4,1.4,2.1,2.1
				c3.5-3.5,7.3-6.5,11.4-9.2c-0.6-0.8-1.2-1.6-1.8-2.4c-2.7,3.1-5.3,6.3-8,9.4c0.8,0.6,1.6,1.2,2.4,1.8c2.6-3.6,5.8-6.2,9.7-8.1
				c-0.7-0.7-1.4-1.4-2.1-2.1c-2.2,2.9-4.3,5.7-6.5,8.6c-1,1.3,1.3,3.2,2.4,1.8c2.6-3.3,5.1-6.6,7.7-9.9c1.2-1.5-0.9-3.6-2.1-2.1
				c-2.7,3.4-5.6,6.3-8.9,9.1c0.7,0.7,1.4,1.4,2.1,2.1c3.4-3.3,7.1-6.2,11.2-8.6c-0.6-0.8-1.2-1.6-1.8-2.4c-2.7,2.8-5.2,5.7-7.7,8.7
				c-1.3,1.5,0.6,3.3,2.1,2.1c3.1-2.4,5.9-5,8.6-7.9c-0.8-0.6-1.6-1.2-2.4-1.8c-2.3,3.2-4.9,6-7.8,8.6c0.7,0.7,1.4,1.4,2.1,2.1
				c3.6-3.6,7.6-6.6,12.1-9.1c-0.7-0.7-1.4-1.4-2.1-2.1c-2.3,3.5-5.2,6.3-8.2,9.1c-1.4,1.4,0.6,3.3,2.1,2.1c3.7-2.9,7.4-5.8,11-8.7
				c-0.8-0.6-1.6-1.2-2.4-1.8c-2.3,3.1-4.8,5.8-7.7,8.4c-1.2,1.1,0.4,3.4,1.8,2.4c3-2.3,6-4.6,9.1-6.9c-0.7-0.7-1.4-1.4-2.1-2.1
				c-1.7,2.3-3.3,4.5-5,6.8c-1,1.4,1.2,3,2.4,1.8c1.8-1.8,3.7-3.7,5.5-5.5c-0.8-0.6-1.6-1.2-2.4-1.8c-0.9,1.8-1.9,3.6-2.8,5.4
				c-0.8,1.5,1.2,3.1,2.4,1.8c1.6-1.7,3.2-3.5,4.8-5.2c-0.8-0.6-1.6-1.2-2.4-1.8c-0.9,1.9-1.6,3.8-2.3,5.8c-0.4,1.2,1.1,2.5,2.2,1.7
				c2.1-1.6,3.2-3,3.7-5.6c-0.8,0.2-1.7,0.4-2.5,0.7c0.1,1,0.2,2.1,0.3,3.1c0.6,0.7,1.1,1.5,1.7,2.2c1-1.9,1.6-3.7,2.1-5.7
				c-0.9,0.1-1.8,0.2-2.7,0.4c1.5,1.4,1.2,2.4-0.8,3c-0.9,1.4-2,1.7-3.4,0.9c-1.5-0.1-2.5-0.4-4-0.4c-3.3-0.1-6.7,0.1-10.1,0.1
				c-3.4,0-6.8-0.1-10.1-0.2c-3.4-0.1-8.3,0.4-11.3-1.5c-0.4,0.9-0.8,1.8-1.2,2.7c1,0.3,1.2,0.3,2.2,0.3c1.2-0.1,2.1-1.7,1.1-2.6
				c-1.7-1.5-3.1-1.6-3.7-4.1c-0.5-1.2-0.4-2.4,0.1-3.6c0.6,0,1.3,0.1,1.9,0.1c1.6-0.4,4,0.1,5.8,0.1c7.8,0,15.5-0.7,23.3-0.1
				c3.4,0.3,5.2,2,8.2,3.5c2.1,1.1,2.8-0.7,4.9,2.5c1.5,2.2,1.1,4.9-1.7,5.7c-3.6,1-8-0.4-11.7-0.5c-3.8-0.1-7.7,0-11.5,0
				c-3.6,0-7.3,0.1-10.9-0.1c-5.6-0.3-9.7-1-10.6-7.4c-0.1-1-0.6-4.4-0.1-5c1-1.2,3.4-0.5,4.7-0.5c3.9,0.1,7.9,0,11.8-0.2
				c3.9-0.1,7.8-0.3,11.8-0.3c3.6,0,8.4-0.5,11.3,2c1.3,1.1,1.5,1.9,3.4,2.4c1.7,0.4,2.3,0.3,3.9,1.4c2.3,1.5,3.4,3.9,4.8,6.2
				c0.1-0.6,0.2-1.2,0.2-1.8c-1.4,1.3-3.2,3.7-4.9,4.5c-2.4,1.2-5.6,1-8.2,1c-4.3,0.1-8.7,0.2-13,0.2c-4.3,0.1-8.7,0.1-13,0.1
				c-1.8,0-4.2,0.4-6,0c-2.3-0.6-3.7-2.9-5.2-4.6C157.3,43.3,155.1,45.5,156.4,46.9L156.4,46.9z"/>
		</g>
	</g>
	<g>
		<g>
			<path fill="#373737" d="M170.5,31.5c-0.2-3,0-5,2.5-6.8c2.5-1.8,5.2-1.3,8.1-1.2c2.8,0.1,5.5-0.6,6.1,2.7
				c0.3,1.8,0.1,1.5-1.5,1.7c-1.4,0.2-3.1,0-4.6,0c-0.9,0-7.4,0.5-7.7-0.2c-0.7-1.8,5.2-2,6.5-1.9c1.5,0.1,3,0.3,4.5,0.2
				c2.9-0.1-1.9-0.1-2-0.1c-3,0-6,0-9-0.1c0.3,0.9,0.5,1.9,0.8,2.8c2.4-1.4,5.4-1.1,8.1-1.6c1.9-0.4,1.1-3.2-0.8-2.9
				c-3.1,0.6-6.1,0.2-8.8,1.9c-1.3,0.8-0.7,2.8,0.8,2.8c3.7,0.1,7.5,0.2,11.2,0c1.4,0,2.9,0,3.7-1.4c2.5-4.3-4.9-4.5-6.9-4.6
				c-4.3-0.2-9-0.6-11.7,3.9c-2.4,4,2.9,4.2,5.3,4.2c3.6,0,7.1,0.1,10.7,0c1.4,0,3,0.2,3.9-1.1c0.8-1.1,0.8-4.5,0.6-5.7
				c-0.2-1.4-0.8-2.4-2.1-3c-2.2-1-5.3-0.5-7.7-0.6c-2.2-0.1-4.9-0.7-7,0.2c-4.9,2.1-6.2,5.8-6,10.7
				C167.6,33.4,170.6,33.4,170.5,31.5L170.5,31.5z"/>
		</g>
	</g>
	<g>
		<g>
			<path fill="#373737" d="M187,25.8c3.9,0,7.8,0.1,11.6,0.3c1.7,0.1,5,0.9,6.2-1c0.8-1.3,0.1-2.8-1.1-3.5c-0.8-0.5-1.6-0.4-2.5-0.3
				c-1.4,0.1-3.1-0.2-4.4,0.1c-2.9,0.6-2.9,5.3-0.1,6.1c1.1,0.3,2.6,0.1,3.7,0.1c1.1,0,2.8,0.3,3.9-0.2c1.8-0.9,1.5-3.4,1.3-5
				c-0.2-1.9-3.2-1.9-3,0c0.2,2.2,0.1,2.2-2.2,2.2c-1.5,0-3.1,0.7-2.5-1.1c-0.3,0.3-0.7,0.7-1,1c0.9-0.4,2.1,0.2,3.1,0
				c0.8-0.2,0.8,0.1,1.4-0.7c0.9-1.1-1.2-0.7-2.2-0.7c-4.1-0.2-8.2-0.3-12.3-0.3C185.1,22.8,185.1,25.8,187,25.8L187,25.8z"/>
		</g>
	</g>
	<g>
		<g>
			<path fill="#373737" d="M159.1,43.3c-5.2,1.2-11.4,6-5.9,11.3c2.7,2.6,6.6,2.5,10,2.5c5.8,0,11.5,0,17.3,0c5.5,0,10.9,0,16.4,0
				c4,0,8.5,0.3,12-2c6.1-4,3.8-8.4-2-10.4c-1.8-0.6-2.6,2.3-0.8,2.9c6.5,2.3-0.5,6.1-4,6.5c-2.3,0.2-4.7,0.1-7.1,0.1
				c-4.5,0-9,0-13.5,0c-4.5,0-9,0-13.5,0c-2.5,0-5,0.1-7.4,0c-3.8,0.4-5.3-1.8-4.6-6.7c1.2-0.6,2.5-1,3.9-1.2
				C161.8,45.8,161,42.9,159.1,43.3L159.1,43.3z"/>
		</g>
	</g>
	<g>
		<g>
			<path fill="#242424" d="M161.1,46.1c-1.8-0.5-3.7-0.3-5,1.1c-1.1,1.2-1.2,3-0.3,4.4c1.6,2.5,6.8,3.9,8.8,1.3
				c2.3-2.8-0.3-6.3-3.4-6.7c-1.5-0.2-3.5,0-4.3,1.5c-0.8,1.3-0.2,3.1,1.1,3.9c1.3,0.8,3.9,1,4.9-0.5c1.2-1.8-1.1-3.5-2.7-3.9
				c-1.9-0.4-2.7,2.5-0.8,2.9c0.1,0,0.8,0.1,0.9,0.4c0.1-0.4,0.1-0.8,0.2-1.2c0.2-0.5,0.4-0.1-0.3-0.2c-0.2,0-0.5-0.2-0.6-0.2
				c0,0.1-0.1,0.2-0.1,0.3c0.1,0,0.2-0.1,0.3-0.1c0.3,0.1,0.6-0.1,0.9,0c0.7,0.1,2.4,0.9,1.7,1.9c-0.6,0.8-2.7,0-3.3-0.4
				c-0.4-0.2-1-0.7-0.8-1.2c0.3-0.8,1.5-0.6,2.1-0.4C162.2,49.5,163,46.6,161.1,46.1L161.1,46.1z"/>
		</g>
	</g>
	<g>
		<g>
			<path fill="#242424" d="M174.8,46.3c-2-0.4-5.1-0.9-6.5,1.1c-1.2,1.7-0.8,4.2,0.6,5.7c1.5,1.6,4.1,2.1,6.2,1.4
				c2-0.7,3.3-2.7,2.7-4.7c-0.6-2-2.9-3.3-4.8-3.4c-2.1-0.2-4.2,1.4-3.5,3.7c0.5,1.8,2.9,3.2,4.7,2.4c0.9-0.4,1.3-1.5,1-2.4
				c-0.3-1.1-1.2-1.5-2.2-1.9c-1.7-0.8-3.3,1.8-1.5,2.6c0.1,0.1,0.6,0.3,0.7,0.3c0.2-0.4,0.5-0.9,0.7-1.3c-0.1-0.1-0.3-0.2-0.4-0.2
				c0.3-0.2,1.1,0.2,1.5,0.4c1.4,0.8,0.8,1.9-0.7,2c-1.1,0.1-2.5-0.4-2.8-1.6c-0.4-1.7,2.3-1.2,3.3-1
				C175.8,49.5,176.7,46.6,174.8,46.3L174.8,46.3z"/>
		</g>
	</g>
	<g>
		<g>
			<path fill="#242424" d="M187.6,47.4c-2.3-2.7-6.7-1.4-7.3,2.1c-0.3,1.6,0,3.3,1.3,4.4c1.2,1,3.1,1.4,4.6,1.1
				c3.3-0.7,4.7-4.9,2-7.2c-1.3-1.1-3.2-1.8-4.7-0.9c-1.4,0.8-2,2.7-1.2,4.1c0.8,1.5,3,2.4,4.4,1c1.3-1.4,0.2-3.6-1.6-3.7
				c-1.9,0-1.9,3,0,3c0.6,0-1-2.5,0.7-1.7c0.4,0.2,0.9,0.5,1,0.9c0.3,1.1-1.2,1.6-2,1.5c-1.1-0.2-1.6-0.8-1.4-1.9
				c0.2-1.3,1.4-1.5,2.2-0.6C186.8,51,188.9,48.8,187.6,47.4L187.6,47.4z"/>
		</g>
	</g>
	<g>
		<g>
			<path fill="#242424" d="M199.4,46.6c-1.6-0.5-3.4-0.7-4.8,0.5c-1.1,1.1-1.8,3.2-1.7,4.7c0.1,1.7,1.4,2.9,3.1,3
				c1.7,0.2,4.1,0.4,5.6-0.8c1.3-1,1.4-2.8,1.3-4.4c-0.2-1.8-1.3-3.1-3.1-3.4c-1.6-0.3-3.5,0-4.6,1.3c-1.1,1.3-0.9,3.2,0.4,4.2
				c1.2,0.9,3.5,1.2,4.6,0c1.6-1.6-0.1-3.6-1.9-3.9c-1.9-0.3-2.7,2.6-0.8,2.9c0.7,0.1,1.1-0.9,0.6-1.3c-0.1-0.1-0.8,0.1-0.7-0.1
				c0-0.2,1.4-0.3,1.6-0.3c0.7,0.1,0.9,0.4,0.9,1.1c0,0.6,0.1,1.4-0.5,1.6c-0.6,0.2-1.5,0-2.2,0c-0.8,0-1.3,0.2-1.2-0.7
				c0.1-0.5,0.3-1.6,0.8-1.9c0.5-0.3,1.4,0.1,1.8,0.3C200.4,50.1,201.2,47.2,199.4,46.6L199.4,46.6z"/>
		</g>
	</g>
	<g>
		<g>
			<path fill="#FFFF00" d="M202.5,20.7c1.1,0.8,2.9,1.3,3.3,2.8c0.5,1.9-1.6,3.1-3,3.9c-1.6,1-0.1,3.6,1.5,2.6
				c2.3-1.4,4.8-3.4,4.5-6.4c-0.3-3-2.8-3.9-4.8-5.5C202.5,16.9,201,19.5,202.5,20.7L202.5,20.7z"/>
		</g>
	</g>
	<g>
		<g>
			<path fill="#888888" d="M205.3,24.1C205.2,24.1,205.3,24.1,205.3,24.1c0,0-0.1,0-0.1-0.1c-0.1-0.1,0-0.1-0.1-0.2
				c0.1,0.2,0.1,0.1,0-0.1c0-0.1-0.1,0.1,0,0c0,0,0.2-0.2,0.1-0.1c-0.1,0.1,0.1-0.1,0.1-0.1c0.3-0.2,0.5,0,0.7,0.5
				c1,0.5,0.8,1-0.5,1.6c0.8,0.1,1.5-0.8,1.5-1.5c0-0.9-0.7-1.4-1.5-1.5c-1.3-0.2-2.1,1.4-1.8,2.5c0.4,1.4,2.3,1.6,3.3,0.8
				c0.9-0.7,1.3-1.9,1-2.9c-0.4-1.2-1.5-2-2.7-2c-0.8,0-1.5,0.7-1.5,1.5C203.9,23.5,204.5,24.1,205.3,24.1L205.3,24.1z"/>
		</g>
	</g>
</g>
<g id="Calque_4">
	<g>
		<g>
			<path fill="#373737" d="M228.4,46.9c2.8,3.2,4.1,5.4,8.3,5.5c6.3,0.1,12.7,0,19-0.1c5.9-0.1,12.1,0.1,18-0.4
				c4-0.3,6.4-3.7,9.2-6.3c0.5-0.4,0.6-1.3,0.2-1.8c-1.5-2.4-3.2-6.8-5.7-8.3c-1-0.6-2.2-0.2-3.3-0.5c-6.4-1.6-1.5-1.3-4.2-3
				c-2.6-1.7-5.9-1.4-8.9-1.6c-4.9-0.2-9.8,0-14.7,0.2c-4.9,0.2-9.8,0.3-14.7,0.2c-2.3-0.1-4.4-0.5-5.5,1.8
				c-1.1,2.2-0.3,5.9-0.1,8.3c0.2,3.1,0.7,4.8,3.5,6.4c6.6,4,16.4,2.4,23.7,2.4c4.7,0,9.4-0.1,14.1,0.4c3.4,0.3,6.7,0.7,9.7-1.2
				c1.4-0.9,3.1-2.3,3.2-4.1c0.1-1.9-2.9-6.5-4.4-7.5c-0.8-0.5-1.6-0.5-2.4-0.7c-2.9-0.7-3.3-1.5-5.5-2.7c-2.8-1.7-6.5-1.5-9.7-1.5
				c-5.8-0.1-11.6,0.2-17.5,0.3c-3.3,0-9.4-1.5-12.2,0.4c-2.2,1.5-1,4.6-0.5,6.8c0.9,4.1,1.7,3,4.5,5.4c0.4-0.9,0.7-1.7,1.1-2.6
				c-0.5,0-0.9-0.1-1.4-0.1c-1.7-0.4-2.6,1.8-1.2,2.7c3.6,2.3,8.7,1.8,12.8,2c6.4,0.2,12.9-0.1,19.3,0.1c3.4,0.1,9.7,2.9,12.8,0
				c2.7-2.5,0.3-5.5-1.1-8.1c-0.6-1.1-2.5-0.9-2.7,0.4c-0.4,1.9-0.8,3.2-1.8,5c-0.6,1.2,0.4,2.4,1.7,2.2c4.7-0.8,3.2-5.5,1-8.1
				c-0.7-0.8-2.3-0.4-2.5,0.7c-0.8,1.3-1.6,2.6-2.3,3.9c0.7,0.6,1.5,1.1,2.2,1.7c0.6-1.8,1.2-3.4,2-5.1c0.7-1.4-1.1-3.2-2.4-1.8
				c-1.6,1.7-3.2,3.5-4.8,5.2c0.8,0.6,1.6,1.2,2.4,1.8c0.9-1.8,1.9-3.6,2.8-5.4c0.8-1.5-1.1-3.1-2.4-1.8c-1.8,1.8-3.7,3.7-5.5,5.5
				c0.8,0.6,1.6,1.2,2.4,1.8c1.7-2.3,3.3-4.5,5-6.8c0.9-1.2-0.9-2.9-2.1-2.1c-3,2.3-6,4.6-9.1,6.9c0.6,0.8,1.2,1.6,1.8,2.4
				c3-2.7,5.7-5.7,8.1-9c1.1-1.5-1.1-2.8-2.4-1.8c-3.7,2.9-7.4,5.8-11,8.7c0.7,0.7,1.4,1.4,2.1,2.1c3.2-3,6.2-6.1,8.7-9.7
				c0.9-1.3-0.8-2.7-2.1-2.1c-4.7,2.6-8.9,5.7-12.7,9.5c-1.4,1.4,0.7,3.4,2.1,2.1c3.1-2.8,5.8-5.8,8.3-9.2c1-1.4-1.2-3-2.4-1.8
				c-2.7,2.9-5.5,5.4-8.6,7.9c0.7,0.7,1.4,1.4,2.1,2.1c2.5-3,5.1-5.9,7.7-8.7c1.2-1.2-0.3-3.2-1.8-2.4c-4.3,2.5-8.2,5.5-11.8,9.1
				c-1.4,1.4,0.7,3.3,2.1,2.1c3.3-2.7,6.2-5.7,8.9-9.1c-0.7-0.7-1.4-1.4-2.1-2.1c-2.6,3.3-5.1,6.6-7.7,9.9c0.8,0.6,1.6,1.2,2.4,1.8
				c2.2-2.9,4.3-5.7,6.5-8.6c1-1.3-0.9-2.7-2.1-2.1c-4.4,2.2-7.9,5.2-10.8,9.2c-1,1.4,1.3,3.1,2.4,1.8c2.7-3.1,5.3-6.3,8-9.4
				c1-1.2-0.3-3.3-1.8-2.4c-4.4,2.8-8.3,6-12,9.7c-1.4,1.4,0.7,3.5,2.1,2.1c3.1-3,6.2-6,9.3-8.9c1.3-1.2-0.3-3.1-1.8-2.4
				c-4.1,2.2-7.8,4.9-11.2,8.1c-1.4,1.4,0.7,3.4,2.1,2.1c2.9-2.5,7.1-5,8.7-8.6c0.6-1.3-0.6-2.8-2.1-2.1c-4.6,2.6-9.1,5.2-13.6,8
				c0.5,0.9,1,1.7,1.5,2.6c3.3-2.2,6.4-4.6,9.3-7.3c1.2-1.1-0.4-3.4-1.8-2.4c-3.5,2.5-6.4,5.4-9,8.8c-1,1.3,0.9,2.7,2.1,2.1
				c3.5-1.8,6.2-4.3,8.3-7.6c0.9-1.5-1.1-2.9-2.4-1.8c-2.2,2-4.4,4.1-6.6,6.1c0.8,0.5,1.7,1,2.5,1.5c0.7-2.9,4.1-4.7,5.8-7.1
				c1-1.4-0.9-2.6-2.1-2.1c-3.3,1.5-6.2,3.4-8.8,5.9c-1.4,1.4,0.7,3.3,2.1,2.1c2.1-1.7,4.3-3.3,6.6-4.8c1.6-1,0.2-3.5-1.5-2.6
				c-3,1.6-6,3.2-9,4.9c0.5,0.9,1,1.7,1.5,2.6c2.9-1.7,5.8-3.4,8.7-5.1c1.7-1,0.2-3.4-1.5-2.6c-2.3,1-4.6,2.1-6.9,3.1
				c0.6,0.8,1.2,1.6,1.8,2.4c1.4-1.1,2.8-2.1,4.3-3c1.6-1,0.2-3.6-1.5-2.6c-1.8,1.1-3.6,2-5.5,2.9c0.6,0.8,1.2,1.6,1.8,2.4
				c1.4-1.2,2.7-2.4,4.1-3.6c1.3-1.2-0.4-3.1-1.8-2.4c-1.5,0.8-3,1.6-4.6,2.5c0.7,0.7,1.4,1.4,2.1,2.1c0.5-0.6,1.1-1.2,1.6-1.8
				c1.3-1.1-0.4-3.2-1.8-2.4c-1.1,0.7-2.3,1.4-3.4,2c0.7,0.7,1.4,1.4,2.1,2.1c0.3-0.3,0.5-0.6,0.8-0.9c-0.7-0.7-1.4-1.4-2.1-2.1
				c-0.2,0.5-0.5,1.1-0.7,1.7c0.6-0.2,1.1-0.5,1.7-0.7c0.2,0.2,0.4,0.4,0.5,0.6c-0.4-1.7-3-1.3-2.9,0.4c0.1,1,0,2-0.2,3c1,0,2,0,3,0
				c-0.2-1.9-0.2-3.7,0-5.5c0.3-2.7-0.1-2.2,2.5-2.8c3.9-0.9,9.9,0.2,13.9,0.3c4.6,0.1,9.3,0.2,13.9,0.3c1.9,0,4.4-0.6,5.6,1.3
				c0.8,1.3,0.3,5,0.3,6.5c0.1,1.9,3.1,1.9,3,0c-0.2-3,1.1-9.5-2.5-10.7c-2.5-0.8-6.7-0.2-9.3-0.2c-4-0.1-8-0.2-11.9-0.3
				c-3.6-0.1-7.3-0.2-10.9-0.2c-1.9,0-5-0.7-6.9,0.4c-1.2,0.7-1.9,1.7-1.9,3.2c0,0.7,0.4,1.3,0.6,2c0.6,2,0.5,3.7,0.7,5.8
				c0.2,2,2.7,1.9,3,0c0.2-1,0.3-2,0.2-3c-1,0.1-2,0.3-2.9,0.4c0,0.1,0.1,0.2,0.1,0.4c0.1,0.5,0.6,1,1,1c0.1,0,0.3,0,0.4,0.1
				c0.6,0.1,1.4,0,1.7-0.7c0.2-0.6,0.5-1.1,0.7-1.7c0.5-1.2-0.7-3.1-2.1-2.1c-1,0.7-1.3,1-1.9,2c-0.8,1.3,0.8,2.8,2.1,2.1
				c1.1-0.7,2.3-1.4,3.4-2c-0.6-0.8-1.2-1.6-1.8-2.4c-1.2,1.1-1.2,1.1-2,2.5c-0.8,1.3,0.8,2.7,2.1,2.1c1.5-0.8,3-1.6,4.6-2.5
				c-0.6-0.8-1.2-1.6-1.8-2.4c-1.4,1.2-2.7,2.4-4.1,3.6c-1.4,1.2,0.4,3,1.8,2.4c1.9-0.9,3.7-1.8,5.5-2.9c-0.5-0.9-1-1.7-1.5-2.6
				c-1.7,1.1-3.3,2.2-4.9,3.5c-1.4,1.2,0.4,3,1.8,2.4c2.3-1,4.6-2.1,6.9-3.1c-0.5-0.9-1-1.7-1.5-2.6c-2.9,1.7-5.8,3.4-8.7,5.1
				c-1.7,1-0.2,3.5,1.5,2.6c3-1.6,6-3.2,9-4.9c-0.5-0.9-1-1.7-1.5-2.6c-2.5,1.6-4.9,3.4-7.2,5.2c0.7,0.7,1.4,1.4,2.1,2.1
				c2.5-2.4,5.1-4.1,8.2-5.5c-0.7-0.7-1.4-1.4-2.1-2.1c-2,2.8-5.2,4.2-6.1,7.8c-0.4,1.5,1.4,2.5,2.5,1.5c2.2-2,4.4-4.1,6.6-6.1
				c-0.8-0.6-1.6-1.2-2.4-1.8c-1.9,2.9-4.2,5-7.2,6.6c0.7,0.7,1.4,1.4,2.1,2.1c2.3-3,4.9-5.5,8-7.7c-0.6-0.8-1.2-1.6-1.8-2.4
				c-2.7,2.5-5.6,4.8-8.7,6.8c-1.6,1-0.1,3.6,1.5,2.6c4.5-2.8,9-5.5,13.6-8c-0.7-0.7-1.4-1.4-2.1-2.1c-1.4,3.1-5.7,5.8-8.3,8
				c0.7,0.7,1.4,1.4,2.1,2.1c3.2-3.1,6.7-5.6,10.6-7.7c-0.6-0.8-1.2-1.6-1.8-2.4c-3.1,3-6.2,6-9.3,8.9c0.7,0.7,1.4,1.4,2.1,2.1
				c3.5-3.5,7.3-6.5,11.4-9.2c-0.6-0.8-1.2-1.6-1.8-2.4c-2.7,3.1-5.3,6.3-8,9.4c0.8,0.6,1.6,1.2,2.4,1.8c2.6-3.6,5.8-6.2,9.7-8.1
				c-0.7-0.7-1.4-1.4-2.1-2.1c-2.2,2.9-4.3,5.7-6.5,8.6c-1,1.3,1.3,3.2,2.4,1.8c2.6-3.3,5.1-6.6,7.7-9.9c1.2-1.5-0.9-3.6-2.1-2.1
				c-2.7,3.4-5.6,6.3-8.9,9.1c0.7,0.7,1.4,1.4,2.1,2.1c3.4-3.3,7.1-6.2,11.2-8.6c-0.6-0.8-1.2-1.6-1.8-2.4c-2.7,2.8-5.2,5.7-7.7,8.7
				c-1.3,1.5,0.6,3.3,2.1,2.1c3.1-2.4,5.9-5,8.6-7.9c-0.8-0.6-1.6-1.2-2.4-1.8c-2.3,3.2-4.9,6-7.8,8.6c0.7,0.7,1.4,1.4,2.1,2.1
				c3.6-3.6,7.6-6.6,12.1-9.1c-0.7-0.7-1.4-1.4-2.1-2.1c-2.3,3.5-5.2,6.3-8.2,9.1c-1.4,1.4,0.6,3.3,2.1,2.1c3.7-2.9,7.4-5.8,11-8.7
				c-0.8-0.6-1.6-1.2-2.4-1.8c-2.3,3.1-4.8,5.8-7.7,8.4c-1.2,1.1,0.4,3.4,1.8,2.4c3-2.3,6-4.6,9.1-6.9c-0.7-0.7-1.4-1.4-2.1-2.1
				c-1.7,2.3-3.3,4.5-5,6.8c-1,1.4,1.2,3,2.4,1.8c1.8-1.8,3.7-3.7,5.5-5.5c-0.8-0.6-1.6-1.2-2.4-1.8c-0.9,1.8-1.9,3.6-2.8,5.4
				c-0.8,1.5,1.2,3.1,2.4,1.8c1.6-1.7,3.2-3.5,4.8-5.2c-0.8-0.6-1.6-1.2-2.4-1.8c-0.9,1.9-1.6,3.8-2.3,5.8c-0.4,1.2,1.1,2.5,2.2,1.7
				c2.1-1.6,3.2-3,3.7-5.6c-0.8,0.2-1.7,0.4-2.5,0.7c0.1,1,0.2,2.1,0.3,3.1c0.6,0.7,1.1,1.5,1.7,2.2c1-1.9,1.6-3.7,2.1-5.7
				c-0.9,0.1-1.8,0.2-2.7,0.4c1.5,1.4,1.2,2.4-0.8,3c-0.9,1.4-2,1.7-3.4,0.9c-1.5-0.1-2.5-0.4-4-0.4c-3.3-0.1-6.7,0.1-10.1,0.1
				c-3.4,0-6.8-0.1-10.1-0.2c-3.4-0.1-8.3,0.4-11.3-1.5c-0.4,0.9-0.8,1.8-1.2,2.7c1,0.3,1.2,0.3,2.2,0.3c1.2-0.1,2.1-1.7,1.1-2.6
				c-1.7-1.5-3.1-1.6-3.7-4.1c-0.5-1.2-0.4-2.4,0.1-3.6c0.6,0,1.3,0.1,1.9,0.1c1.6-0.4,4,0.1,5.8,0.1c7.8,0,15.5-0.7,23.3-0.1
				c3.4,0.3,5.2,2,8.2,3.5c2.1,1.1,2.8-0.7,4.9,2.5c1.5,2.2,1.1,4.9-1.7,5.7c-3.6,1-8-0.4-11.7-0.5c-3.8-0.1-7.7,0-11.5,0
				c-3.6,0-7.3,0.1-10.9-0.1c-5.6-0.3-9.7-1-10.6-7.4c-0.1-1-0.6-4.4-0.1-5c1-1.2,3.4-0.5,4.7-0.5c3.9,0.1,7.9,0,11.8-0.2
				c3.9-0.1,7.8-0.3,11.8-0.3c3.6,0,8.4-0.5,11.3,2c1.3,1.1,1.5,1.9,3.4,2.4c1.7,0.4,2.3,0.3,3.9,1.4c2.3,1.5,3.4,3.9,4.8,6.2
				c0.1-0.6,0.2-1.2,0.2-1.8c-1.4,1.3-3.2,3.7-4.9,4.5c-2.4,1.2-5.6,1-8.2,1c-4.3,0.1-8.7,0.2-13,0.2c-4.3,0.1-8.7,0.1-13,0.1
				c-1.8,0-4.2,0.4-6,0c-2.3-0.6-3.7-2.9-5.2-4.6C229.3,43.3,227.1,45.5,228.4,46.9L228.4,46.9z"/>
		</g>
	</g>
	<g>
		<g>
			<path fill="#373737" d="M242.5,31.5c-0.2-3,0-5,2.5-6.8c2.5-1.8,5.2-1.3,8.1-1.2c2.8,0.1,5.5-0.6,6.1,2.7
				c0.3,1.8,0.1,1.5-1.5,1.7c-1.4,0.2-3.1,0-4.6,0c-0.9,0-7.4,0.5-7.7-0.2c-0.7-1.8,5.2-2,6.5-1.9c1.5,0.1,3,0.3,4.5,0.2
				c2.9-0.1-1.9-0.1-2-0.1c-3,0-6,0-9-0.1c0.3,0.9,0.5,1.9,0.8,2.8c2.4-1.4,5.4-1.1,8.1-1.6c1.9-0.4,1.1-3.2-0.8-2.9
				c-3.1,0.6-6.1,0.2-8.8,1.9c-1.3,0.8-0.7,2.8,0.8,2.8c3.7,0.1,7.5,0.2,11.2,0c1.4,0,2.9,0,3.7-1.4c2.5-4.3-4.9-4.5-6.9-4.6
				c-4.3-0.2-9-0.6-11.7,3.9c-2.4,4,2.9,4.2,5.3,4.2c3.6,0,7.1,0.1,10.7,0c1.4,0,3,0.2,3.9-1.1c0.8-1.1,0.8-4.5,0.6-5.7
				c-0.2-1.4-0.8-2.4-2.1-3c-2.2-1-5.3-0.5-7.7-0.6c-2.2-0.1-4.9-0.7-7,0.2c-4.9,2.1-6.2,5.8-6,10.7
				C239.6,33.4,242.6,33.4,242.5,31.5L242.5,31.5z"/>
		</g>
	</g>
	<g>
		<g>
			<path fill="#373737" d="M259,25.8c3.9,0,7.8,0.1,11.6,0.3c1.7,0.1,5,0.9,6.2-1c0.8-1.3,0.1-2.8-1.1-3.5c-0.8-0.5-1.6-0.4-2.5-0.3
				c-1.4,0.1-3.1-0.2-4.4,0.1c-2.9,0.6-2.9,5.3-0.1,6.1c1.1,0.3,2.6,0.1,3.7,0.1c1.1,0,2.8,0.3,3.9-0.2c1.8-0.9,1.5-3.4,1.3-5
				c-0.2-1.9-3.2-1.9-3,0c0.2,2.2,0.1,2.2-2.2,2.2c-1.5,0-3.1,0.7-2.5-1.1c-0.3,0.3-0.7,0.7-1,1c0.9-0.4,2.1,0.2,3.1,0
				c0.8-0.2,0.8,0.1,1.4-0.7c0.9-1.1-1.2-0.7-2.2-0.7c-4.1-0.2-8.2-0.3-12.3-0.3C257.1,22.8,257.1,25.8,259,25.8L259,25.8z"/>
		</g>
	</g>
	<g>
		<g>
			<path fill="#373737" d="M231.1,43.3c-5.2,1.2-11.4,6-5.9,11.3c2.7,2.6,6.6,2.5,10,2.5c5.8,0,11.5,0,17.3,0c5.5,0,10.9,0,16.4,0
				c4,0,8.5,0.3,12-2c6.1-4,3.8-8.4-2-10.4c-1.8-0.6-2.6,2.3-0.8,2.9c6.5,2.3-0.5,6.1-4,6.5c-2.3,0.2-4.7,0.1-7.1,0.1
				c-4.5,0-9,0-13.5,0c-4.5,0-9,0-13.5,0c-2.5,0-5,0.1-7.4,0c-3.8,0.4-5.3-1.8-4.6-6.7c1.2-0.6,2.5-1,3.9-1.2
				C233.8,45.8,233,42.9,231.1,43.3L231.1,43.3z"/>
		</g>
	</g>
	<g>
		<g>
			<path fill="#242424" d="M233.1,46.1c-1.8-0.5-3.7-0.3-5,1.1c-1.1,1.2-1.2,3-0.3,4.4c1.6,2.5,6.8,3.9,8.8,1.3
				c2.3-2.8-0.3-6.3-3.4-6.7c-1.5-0.2-3.5,0-4.3,1.5c-0.8,1.3-0.2,3.1,1.1,3.9c1.3,0.8,3.9,1,4.9-0.5c1.2-1.8-1.1-3.5-2.7-3.9
				c-1.9-0.4-2.7,2.5-0.8,2.9c0.1,0,0.8,0.1,0.9,0.4c0.1-0.4,0.1-0.8,0.2-1.2c0.2-0.5,0.4-0.1-0.3-0.2c-0.2,0-0.5-0.2-0.6-0.2
				c0,0.1-0.1,0.2-0.1,0.3c0.1,0,0.2-0.1,0.3-0.1c0.3,0.1,0.6-0.1,0.9,0c0.7,0.1,2.4,0.9,1.7,1.9c-0.6,0.8-2.7,0-3.3-0.4
				c-0.4-0.2-1-0.7-0.8-1.2c0.3-0.8,1.5-0.6,2.1-0.4C234.2,49.5,235,46.6,233.1,46.1L233.1,46.1z"/>
		</g>
	</g>
	<g>
		<g>
			<path fill="#242424" d="M246.8,46.3c-2-0.4-5.1-0.9-6.5,1.1c-1.2,1.7-0.8,4.2,0.6,5.7c1.5,1.6,4.1,2.1,6.2,1.4
				c2-0.7,3.3-2.7,2.7-4.7c-0.6-2-2.9-3.3-4.8-3.4c-2.1-0.2-4.2,1.4-3.5,3.7c0.5,1.8,2.9,3.2,4.7,2.4c0.9-0.4,1.3-1.5,1-2.4
				c-0.3-1.1-1.2-1.5-2.2-1.9c-1.7-0.8-3.3,1.8-1.5,2.6c0.1,0.1,0.6,0.3,0.7,0.3c0.2-0.4,0.5-0.9,0.7-1.3c-0.1-0.1-0.3-0.2-0.4-0.2
				c0.3-0.2,1.1,0.2,1.5,0.4c1.4,0.8,0.8,1.9-0.7,2c-1.1,0.1-2.5-0.4-2.8-1.6c-0.4-1.7,2.3-1.2,3.3-1
				C247.8,49.5,248.7,46.6,246.8,46.3L246.8,46.3z"/>
		</g>
	</g>
	<g>
		<g>
			<path fill="#242424" d="M259.6,47.4c-2.3-2.7-6.7-1.4-7.3,2.1c-0.3,1.6,0,3.3,1.3,4.4c1.2,1,3.1,1.4,4.6,1.1
				c3.3-0.7,4.7-4.9,2-7.2c-1.3-1.1-3.2-1.8-4.7-0.9c-1.4,0.8-2,2.7-1.2,4.1c0.8,1.5,3,2.4,4.4,1c1.3-1.4,0.2-3.6-1.6-3.7
				c-1.9,0-1.9,3,0,3c0.6,0-1-2.5,0.7-1.7c0.4,0.2,0.9,0.5,1,0.9c0.3,1.1-1.2,1.6-2,1.5c-1.1-0.2-1.6-0.8-1.4-1.9
				c0.2-1.3,1.4-1.5,2.2-0.6C258.8,51,260.9,48.8,259.6,47.4L259.6,47.4z"/>
		</g>
	</g>
	<g>
		<g>
			<path fill="#242424" d="M271.4,46.6c-1.6-0.5-3.4-0.7-4.8,0.5c-1.1,1.1-1.8,3.2-1.7,4.7c0.1,1.7,1.4,2.9,3.1,3
				c1.7,0.2,4.1,0.4,5.6-0.8c1.3-1,1.4-2.8,1.3-4.4c-0.2-1.8-1.3-3.1-3.1-3.4c-1.6-0.3-3.5,0-4.6,1.3c-1.1,1.3-0.9,3.2,0.4,4.2
				c1.2,0.9,3.5,1.2,4.6,0c1.6-1.6-0.1-3.6-1.9-3.9c-1.9-0.3-2.7,2.6-0.8,2.9c0.7,0.1,1.1-0.9,0.6-1.3c-0.1-0.1-0.8,0.1-0.7-0.1
				c0-0.2,1.4-0.3,1.6-0.3c0.7,0.1,0.9,0.4,0.9,1.1c0,0.6,0.1,1.4-0.5,1.6c-0.6,0.2-1.5,0-2.2,0c-0.8,0-1.3,0.2-1.2-0.7
				c0.1-0.5,0.3-1.6,0.8-1.9c0.5-0.3,1.4,0.1,1.8,0.3C272.4,50.1,273.2,47.2,271.4,46.6L271.4,46.6z"/>
		</g>
	</g>
	<g>
		<g>
			<path fill="#FFFF00" d="M271.6,18.7c1.5,0.5,2.8,1.4,3.9,2.6c1.3,1.5,3.4-0.7,2.1-2.1c-1.4-1.6-3.2-2.7-5.2-3.3
				C270.5,15.2,269.8,18.1,271.6,18.7L271.6,18.7z"/>
		</g>
	</g>
	<g>
		<g>
			<path fill="#FFFF00" d="M276.3,26.6c-1.2,0.7-2.4,1.3-3.6,1.7c-1.8,0.6-1,3.5,0.8,2.9c1.5-0.5,3-1.2,4.4-2
				C279.4,28.2,277.9,25.6,276.3,26.6L276.3,26.6z"/>
		</g>
	</g>
	<g>
		<g>
			<path fill="#888888" d="M278.6,24.1c1.7-0.4,3.3-0.4,5-0.2c0.1,0,0.9,0.3,0.2,0c-0.4-0.3-0.8-0.2-1.3-0.2c-0.4,0-0.8,0-1.1,0
				c-0.3,0-0.6,0-0.8,0c-0.5-0.1-0.6,0.2-0.4,0.9c1-1.6-1.6-3.1-2.6-1.5c-1.3,2.1,0.8,3.5,2.7,3.6c2,0,4.9,0.4,6.2-1.5
				c1.1-1.6,0.1-3.4-1.6-4.1c-2.2-0.8-4.9-0.4-7.1,0.1C275.9,21.7,276.7,24.6,278.6,24.1L278.6,24.1z"/>
		</g>
	</g>
	<g>
		<g>
			<path fill="#AAAAAA" d="M276.3,17.6c-1.4,0.7-2,2.3-1.4,3.8c0.2-0.6,0.5-1.1,0.7-1.7c-2.9,1.7-2.8,5.3-0.1,7.2
				c-0.2-0.7-0.4-1.4-0.5-2.1c-0.9,2.1-0.5,5.2,2.5,5c1.9-0.1,1.9-3.1,0-3c0-0.2,0.1-0.3,0.1-0.5c0.4-0.8,0.2-1.5-0.5-2.1
				c-0.9-0.7-0.6-1.5,0.1-2c0.5-0.3,0.9-1.1,0.7-1.7c0-0.1,0-0.3,0-0.4C279.5,19.2,277.9,16.6,276.3,17.6L276.3,17.6z"/>
		</g>
	</g>
</g>
<g id="Calque_6">
	<g>
		<g>
			<path fill="#373737" d="M300.4,46.9c2.8,3.2,4.1,5.4,8.3,5.5c6.3,0.1,12.7,0,19-0.1c5.9-0.1,12.1,0.1,18-0.4
				c4-0.3,6.4-3.7,9.2-6.3c0.5-0.4,0.6-1.3,0.2-1.8c-1.5-2.4-3.2-6.8-5.7-8.3c-1-0.6-2.2-0.2-3.3-0.5c-6.4-1.6-1.5-1.3-4.2-3
				c-2.6-1.7-5.9-1.4-8.9-1.6c-4.9-0.2-9.8,0-14.7,0.2c-4.9,0.2-9.8,0.3-14.7,0.2c-2.3-0.1-4.4-0.5-5.5,1.8
				c-1.1,2.2-0.3,5.9-0.1,8.3c0.2,3.1,0.7,4.8,3.5,6.4c6.6,4,16.4,2.4,23.7,2.4c4.7,0,9.4-0.1,14.1,0.4c3.4,0.3,6.7,0.7,9.7-1.2
				c1.4-0.9,3.1-2.3,3.2-4.1c0.1-1.9-2.9-6.5-4.4-7.5c-0.8-0.5-1.6-0.5-2.4-0.7c-2.9-0.7-3.3-1.5-5.5-2.7c-2.8-1.7-6.5-1.5-9.7-1.5
				c-5.8-0.1-11.6,0.2-17.5,0.3c-3.3,0-9.4-1.5-12.2,0.4c-2.2,1.5-1,4.6-0.5,6.8c0.9,4.1,1.7,3,4.5,5.4c0.4-0.9,0.7-1.7,1.1-2.6
				c-0.5,0-0.9-0.1-1.4-0.1c-1.7-0.4-2.6,1.8-1.2,2.7c3.6,2.3,8.7,1.8,12.8,2c6.4,0.2,12.9-0.1,19.3,0.1c3.4,0.1,9.7,2.9,12.8,0
				c2.7-2.5,0.3-5.5-1.1-8.1c-0.6-1.1-2.5-0.9-2.7,0.4c-0.4,1.9-0.8,3.2-1.8,5c-0.6,1.2,0.4,2.4,1.7,2.2c4.7-0.8,3.2-5.5,1-8.1
				c-0.7-0.8-2.3-0.4-2.5,0.7c-0.8,1.3-1.6,2.6-2.3,3.9c0.7,0.6,1.5,1.1,2.2,1.7c0.6-1.8,1.2-3.4,2-5.1c0.7-1.4-1.1-3.2-2.4-1.8
				c-1.6,1.7-3.2,3.5-4.8,5.2c0.8,0.6,1.6,1.2,2.4,1.8c0.9-1.8,1.9-3.6,2.8-5.4c0.8-1.5-1.1-3.1-2.4-1.8c-1.8,1.8-3.7,3.7-5.5,5.5
				c0.8,0.6,1.6,1.2,2.4,1.8c1.7-2.3,3.3-4.5,5-6.8c0.9-1.2-0.9-2.9-2.1-2.1c-3,2.3-6,4.6-9.1,6.9c0.6,0.8,1.2,1.6,1.8,2.4
				c3-2.7,5.7-5.7,8.1-9c1.1-1.5-1.1-2.8-2.4-1.8c-3.7,2.9-7.4,5.8-11,8.7c0.7,0.7,1.4,1.4,2.1,2.1c3.2-3,6.2-6.1,8.7-9.7
				c0.9-1.3-0.8-2.7-2.1-2.1c-4.7,2.6-8.9,5.7-12.7,9.5c-1.4,1.4,0.7,3.4,2.1,2.1c3.1-2.8,5.8-5.8,8.3-9.2c1-1.4-1.2-3-2.4-1.8
				c-2.7,2.9-5.5,5.4-8.6,7.9c0.7,0.7,1.4,1.4,2.1,2.1c2.5-3,5.1-5.9,7.7-8.7c1.2-1.2-0.3-3.2-1.8-2.4c-4.3,2.5-8.2,5.5-11.8,9.1
				c-1.4,1.4,0.7,3.3,2.1,2.1c3.3-2.7,6.2-5.7,8.9-9.1c-0.7-0.7-1.4-1.4-2.1-2.1c-2.6,3.3-5.1,6.6-7.7,9.9c0.8,0.6,1.6,1.2,2.4,1.8
				c2.2-2.9,4.3-5.7,6.5-8.6c1-1.3-0.9-2.7-2.1-2.1c-4.4,2.2-7.9,5.2-10.8,9.2c-1,1.4,1.3,3.1,2.4,1.8c2.7-3.1,5.3-6.3,8-9.4
				c1-1.2-0.3-3.3-1.8-2.4c-4.4,2.8-8.3,6-12,9.7c-1.4,1.4,0.7,3.5,2.1,2.1c3.1-3,6.2-6,9.3-8.9c1.3-1.2-0.3-3.1-1.8-2.4
				c-4.1,2.2-7.8,4.9-11.2,8.1c-1.4,1.4,0.7,3.4,2.1,2.1c2.9-2.5,7.1-5,8.7-8.6c0.6-1.3-0.6-2.8-2.1-2.1c-4.6,2.6-9.1,5.2-13.6,8
				c0.5,0.9,1,1.7,1.5,2.6c3.3-2.2,6.4-4.6,9.3-7.3c1.2-1.1-0.4-3.4-1.8-2.4c-3.5,2.5-6.4,5.4-9,8.8c-1,1.3,0.9,2.7,2.1,2.1
				c3.5-1.8,6.2-4.3,8.3-7.6c0.9-1.5-1.1-2.9-2.4-1.8c-2.2,2-4.4,4.1-6.6,6.1c0.8,0.5,1.7,1,2.5,1.5c0.7-2.9,4.1-4.7,5.8-7.1
				c1-1.4-0.9-2.6-2.1-2.1c-3.3,1.5-6.2,3.4-8.8,5.9c-1.4,1.4,0.7,3.3,2.1,2.1c2.1-1.7,4.3-3.3,6.6-4.8c1.6-1,0.2-3.5-1.5-2.6
				c-3,1.6-6,3.2-9,4.9c0.5,0.9,1,1.7,1.5,2.6c2.9-1.7,5.8-3.4,8.7-5.1c1.7-1,0.2-3.4-1.5-2.6c-2.3,1-4.6,2.1-6.9,3.1
				c0.6,0.8,1.2,1.6,1.8,2.4c1.4-1.1,2.8-2.1,4.3-3c1.6-1,0.2-3.6-1.5-2.6c-1.8,1.1-3.6,2-5.5,2.9c0.6,0.8,1.2,1.6,1.8,2.4
				c1.4-1.2,2.7-2.4,4.1-3.6c1.3-1.2-0.4-3.1-1.8-2.4c-1.5,0.8-3,1.6-4.6,2.5c0.7,0.7,1.4,1.4,2.1,2.1c0.5-0.6,1.1-1.2,1.6-1.8
				c1.3-1.1-0.4-3.2-1.8-2.4c-1.1,0.7-2.3,1.4-3.4,2c0.7,0.7,1.4,1.4,2.1,2.1c0.3-0.3,0.5-0.6,0.8-0.9c-0.7-0.7-1.4-1.4-2.1-2.1
				c-0.2,0.5-0.5,1.1-0.7,1.7c0.6-0.2,1.1-0.5,1.7-0.7c0.2,0.2,0.4,0.4,0.5,0.6c-0.4-1.7-3-1.3-2.9,0.4c0.1,1,0,2-0.2,3c1,0,2,0,3,0
				c-0.2-1.9-0.2-3.7,0-5.5c0.3-2.7-0.1-2.2,2.5-2.8c3.9-0.9,9.9,0.2,13.9,0.3c4.6,0.1,9.3,0.2,13.9,0.3c1.9,0,4.4-0.6,5.6,1.3
				c0.8,1.3,0.3,5,0.3,6.5c0.1,1.9,3.1,1.9,3,0c-0.2-3,1.1-9.5-2.5-10.7c-2.5-0.8-6.7-0.2-9.3-0.2c-4-0.1-8-0.2-11.9-0.3
				c-3.6-0.1-7.3-0.2-10.9-0.2c-1.9,0-5-0.7-6.9,0.4c-1.2,0.7-1.9,1.7-1.9,3.2c0,0.7,0.4,1.3,0.6,2c0.6,2,0.5,3.7,0.7,5.8
				c0.2,2,2.7,1.9,3,0c0.2-1,0.3-2,0.2-3c-1,0.1-2,0.3-2.9,0.4c0,0.1,0.1,0.2,0.1,0.4c0.1,0.5,0.6,1,1,1c0.1,0,0.3,0,0.4,0.1
				c0.6,0.1,1.4,0,1.7-0.7c0.2-0.6,0.5-1.1,0.7-1.7c0.5-1.2-0.7-3.1-2.1-2.1c-1,0.7-1.3,1-1.9,2c-0.8,1.3,0.8,2.8,2.1,2.1
				c1.1-0.7,2.3-1.4,3.4-2c-0.6-0.8-1.2-1.6-1.8-2.4c-1.2,1.1-1.2,1.1-2,2.5c-0.8,1.3,0.8,2.7,2.1,2.1c1.5-0.8,3-1.6,4.6-2.5
				c-0.6-0.8-1.2-1.6-1.8-2.4c-1.4,1.2-2.7,2.4-4.1,3.6c-1.4,1.2,0.4,3,1.8,2.4c1.9-0.9,3.7-1.8,5.5-2.9c-0.5-0.9-1-1.7-1.5-2.6
				c-1.7,1.1-3.3,2.2-4.9,3.5c-1.4,1.2,0.4,3,1.8,2.4c2.3-1,4.6-2.1,6.9-3.1c-0.5-0.9-1-1.7-1.5-2.6c-2.9,1.7-5.8,3.4-8.7,5.1
				c-1.7,1-0.2,3.5,1.5,2.6c3-1.6,6-3.2,9-4.9c-0.5-0.9-1-1.7-1.5-2.6c-2.5,1.6-4.9,3.4-7.2,5.2c0.7,0.7,1.4,1.4,2.1,2.1
				c2.5-2.4,5.1-4.1,8.2-5.5c-0.7-0.7-1.4-1.4-2.1-2.1c-2,2.8-5.2,4.2-6.1,7.8c-0.4,1.5,1.4,2.5,2.5,1.5c2.2-2,4.4-4.1,6.6-6.1
				c-0.8-0.6-1.6-1.2-2.4-1.8c-1.9,2.9-4.2,5-7.2,6.6c0.7,0.7,1.4,1.4,2.1,2.1c2.3-3,4.9-5.5,8-7.7c-0.6-0.8-1.2-1.6-1.8-2.4
				c-2.7,2.5-5.6,4.8-8.7,6.8c-1.6,1-0.1,3.6,1.5,2.6c4.5-2.8,9-5.5,13.6-8c-0.7-0.7-1.4-1.4-2.1-2.1c-1.4,3.1-5.7,5.8-8.3,8
				c0.7,0.7,1.4,1.4,2.1,2.1c3.2-3.1,6.7-5.6,10.6-7.7c-0.6-0.8-1.2-1.6-1.8-2.4c-3.1,3-6.2,6-9.3,8.9c0.7,0.7,1.4,1.4,2.1,2.1
				c3.5-3.5,7.3-6.5,11.4-9.2c-0.6-0.8-1.2-1.6-1.8-2.4c-2.7,3.1-5.3,6.3-8,9.4c0.8,0.6,1.6,1.2,2.4,1.8c2.6-3.6,5.8-6.2,9.7-8.1
				c-0.7-0.7-1.4-1.4-2.1-2.1c-2.2,2.9-4.3,5.7-6.5,8.6c-1,1.3,1.3,3.2,2.4,1.8c2.6-3.3,5.1-6.6,7.7-9.9c1.2-1.5-0.9-3.6-2.1-2.1
				c-2.7,3.4-5.6,6.3-8.9,9.1c0.7,0.7,1.4,1.4,2.1,2.1c3.4-3.3,7.1-6.2,11.2-8.6c-0.6-0.8-1.2-1.6-1.8-2.4c-2.7,2.8-5.2,5.7-7.7,8.7
				c-1.3,1.5,0.6,3.3,2.1,2.1c3.1-2.4,5.9-5,8.6-7.9c-0.8-0.6-1.6-1.2-2.4-1.8c-2.3,3.2-4.9,6-7.8,8.6c0.7,0.7,1.4,1.4,2.1,2.1
				c3.6-3.6,7.6-6.6,12.1-9.1c-0.7-0.7-1.4-1.4-2.1-2.1c-2.3,3.5-5.2,6.3-8.2,9.1c-1.4,1.4,0.6,3.3,2.1,2.1c3.7-2.9,7.4-5.8,11-8.7
				c-0.8-0.6-1.6-1.2-2.4-1.8c-2.3,3.1-4.8,5.8-7.7,8.4c-1.2,1.1,0.4,3.4,1.8,2.4c3-2.3,6-4.6,9.1-6.9c-0.7-0.7-1.4-1.4-2.1-2.1
				c-1.7,2.3-3.3,4.5-5,6.8c-1,1.4,1.2,3,2.4,1.8c1.8-1.8,3.7-3.7,5.5-5.5c-0.8-0.6-1.6-1.2-2.4-1.8c-0.9,1.8-1.9,3.6-2.8,5.4
				c-0.8,1.5,1.2,3.1,2.4,1.8c1.6-1.7,3.2-3.5,4.8-5.2c-0.8-0.6-1.6-1.2-2.4-1.8c-0.9,1.9-1.6,3.8-2.3,5.8c-0.4,1.2,1.1,2.5,2.2,1.7
				c2.1-1.6,3.2-3,3.7-5.6c-0.8,0.2-1.7,0.4-2.5,0.7c0.1,1,0.2,2.1,0.3,3.1c0.6,0.7,1.1,1.5,1.7,2.2c1-1.9,1.6-3.7,2.1-5.7
				c-0.9,0.1-1.8,0.2-2.7,0.4c1.5,1.4,1.2,2.4-0.8,3c-0.9,1.4-2,1.7-3.4,0.9c-1.5-0.1-2.5-0.4-4-0.4c-3.3-0.1-6.7,0.1-10.1,0.1
				c-3.4,0-6.8-0.1-10.1-0.2c-3.4-0.1-8.3,0.4-11.3-1.5c-0.4,0.9-0.8,1.8-1.2,2.7c1,0.3,1.2,0.3,2.2,0.3c1.2-0.1,2.1-1.7,1.1-2.6
				c-1.7-1.5-3.1-1.6-3.7-4.1c-0.5-1.2-0.4-2.4,0.1-3.6c0.6,0,1.3,0.1,1.9,0.1c1.6-0.4,4,0.1,5.8,0.1c7.8,0,15.5-0.7,23.3-0.1
				c3.4,0.3,5.2,2,8.2,3.5c2.1,1.1,2.8-0.7,4.9,2.5c1.5,2.2,1.1,4.9-1.7,5.7c-3.6,1-8-0.4-11.7-0.5c-3.8-0.1-7.7,0-11.5,0
				c-3.6,0-7.3,0.1-10.9-0.1c-5.6-0.3-9.7-1-10.6-7.4c-0.1-1-0.6-4.4-0.1-5c1-1.2,3.4-0.5,4.7-0.5c3.9,0.1,7.9,0,11.8-0.2
				c3.9-0.1,7.8-0.3,11.8-0.3c3.6,0,8.4-0.5,11.3,2c1.3,1.1,1.5,1.9,3.4,2.4c1.7,0.4,2.3,0.3,3.9,1.4c2.3,1.5,3.4,3.9,4.8,6.2
				c0.1-0.6,0.2-1.2,0.2-1.8c-1.4,1.3-3.2,3.7-4.9,4.5c-2.4,1.2-5.6,1-8.2,1c-4.3,0.1-8.7,0.2-13,0.2c-4.3,0.1-8.7,0.1-13,0.1
				c-1.8,0-4.2,0.4-6,0c-2.3-0.6-3.7-2.9-5.2-4.6C301.3,43.3,299.1,45.5,300.4,46.9L300.4,46.9z"/>
		</g>
	</g>
	<g>
		<g>
			<path fill="#373737" d="M314.5,31.5c-0.2-3,0-5,2.5-6.8c2.5-1.8,5.2-1.3,8.1-1.2c2.8,0.1,5.5-0.6,6.1,2.7
				c0.3,1.8,0.1,1.5-1.5,1.7c-1.4,0.2-3.1,0-4.6,0c-0.9,0-7.4,0.5-7.7-0.2c-0.7-1.8,5.2-2,6.5-1.9c1.5,0.1,3,0.3,4.5,0.2
				c2.9-0.1-1.9-0.1-2-0.1c-3,0-6,0-9-0.1c0.3,0.9,0.5,1.9,0.8,2.8c2.4-1.4,5.4-1.1,8.1-1.6c1.9-0.4,1.1-3.2-0.8-2.9
				c-3.1,0.6-6.1,0.2-8.8,1.9c-1.3,0.8-0.7,2.8,0.8,2.8c3.7,0.1,7.5,0.2,11.2,0c1.4,0,2.9,0,3.7-1.4c2.5-4.3-4.9-4.5-6.9-4.6
				c-4.3-0.2-9-0.6-11.7,3.9c-2.4,4,2.9,4.2,5.3,4.2c3.6,0,7.1,0.1,10.7,0c1.4,0,3,0.2,3.9-1.1c0.8-1.1,0.8-4.5,0.6-5.7
				c-0.2-1.4-0.8-2.4-2.1-3c-2.2-1-5.3-0.5-7.7-0.6c-2.2-0.1-4.9-0.7-7,0.2c-4.9,2.1-6.2,5.8-6,10.7
				C311.6,33.4,314.6,33.4,314.5,31.5L314.5,31.5z"/>
		</g>
	</g>
	<g>
		<g>
			<path fill="#373737" d="M331,25.8c3.9,0,7.8,0.1,11.6,0.3c1.7,0.1,5,0.9,6.2-1c0.8-1.3,0.1-2.8-1.1-3.5c-0.8-0.5-1.6-0.4-2.5-0.3
				c-1.4,0.1-3.1-0.2-4.4,0.1c-2.9,0.6-2.9,5.3-0.1,6.1c1.1,0.3,2.6,0.1,3.7,0.1c1.1,0,2.8,0.3,3.9-0.2c1.8-0.9,1.5-3.4,1.3-5
				c-0.2-1.9-3.2-1.9-3,0c0.2,2.2,0.1,2.2-2.2,2.2c-1.5,0-3.1,0.7-2.5-1.1c-0.3,0.3-0.7,0.7-1,1c0.9-0.4,2.1,0.2,3.1,0
				c0.8-0.2,0.8,0.1,1.4-0.7c0.9-1.1-1.2-0.7-2.2-0.7c-4.1-0.2-8.2-0.3-12.3-0.3C329.1,22.8,329.1,25.8,331,25.8L331,25.8z"/>
		</g>
	</g>
	<g>
		<g>
			<path fill="#373737" d="M303.1,43.3c-5.2,1.2-11.4,6-5.9,11.3c2.7,2.6,6.6,2.5,10,2.5c5.8,0,11.5,0,17.3,0c5.5,0,10.9,0,16.4,0
				c4,0,8.5,0.3,12-2c6.1-4,3.8-8.4-2-10.4c-1.8-0.6-2.6,2.3-0.8,2.9c6.5,2.3-0.5,6.1-4,6.5c-2.3,0.2-4.7,0.1-7.1,0.1
				c-4.5,0-9,0-13.5,0c-4.5,0-9,0-13.5,0c-2.5,0-5,0.1-7.4,0c-3.8,0.4-5.3-1.8-4.6-6.7c1.2-0.6,2.5-1,3.9-1.2
				C305.8,45.8,305,42.9,303.1,43.3L303.1,43.3z"/>
		</g>
	</g>
	<g>
		<g>
			<path fill="#242424" d="M305.1,46.1c-1.8-0.5-3.7-0.3-5,1.1c-1.1,1.2-1.2,3-0.3,4.4c1.6,2.5,6.8,3.9,8.8,1.3
				c2.3-2.8-0.3-6.3-3.4-6.7c-1.5-0.2-3.5,0-4.3,1.5c-0.8,1.3-0.2,3.1,1.1,3.9c1.3,0.8,3.9,1,4.9-0.5c1.2-1.8-1.1-3.5-2.7-3.9
				c-1.9-0.4-2.7,2.5-0.8,2.9c0.1,0,0.8,0.1,0.9,0.4c0.1-0.4,0.1-0.8,0.2-1.2c0.2-0.5,0.4-0.1-0.3-0.2c-0.2,0-0.5-0.2-0.6-0.2
				c0,0.1-0.1,0.2-0.1,0.3c0.1,0,0.2-0.1,0.3-0.1c0.3,0.1,0.6-0.1,0.9,0c0.7,0.1,2.4,0.9,1.7,1.9c-0.6,0.8-2.7,0-3.3-0.4
				c-0.4-0.2-1-0.7-0.8-1.2c0.3-0.8,1.5-0.6,2.1-0.4C306.2,49.5,307,46.6,305.1,46.1L305.1,46.1z"/>
		</g>
	</g>
	<g>
		<g>
			<path fill="#242424" d="M318.8,46.3c-2-0.4-5.1-0.9-6.5,1.1c-1.2,1.7-0.8,4.2,0.6,5.7c1.5,1.6,4.1,2.1,6.2,1.4
				c2-0.7,3.3-2.7,2.7-4.7c-0.6-2-2.9-3.3-4.8-3.4c-2.1-0.2-4.2,1.4-3.5,3.7c0.5,1.8,2.9,3.2,4.7,2.4c0.9-0.4,1.3-1.5,1-2.4
				c-0.3-1.1-1.2-1.5-2.2-1.9c-1.7-0.8-3.3,1.8-1.5,2.6c0.1,0.1,0.6,0.3,0.7,0.3c0.2-0.4,0.5-0.9,0.7-1.3c-0.1-0.1-0.3-0.2-0.4-0.2
				c0.3-0.2,1.1,0.2,1.5,0.4c1.4,0.8,0.8,1.9-0.7,2c-1.1,0.1-2.5-0.4-2.8-1.6c-0.4-1.7,2.3-1.2,3.3-1
				C319.8,49.5,320.7,46.6,318.8,46.3L318.8,46.3z"/>
		</g>
	</g>
	<g>
		<g>
			<path fill="#242424" d="M331.6,47.4c-2.3-2.7-6.7-1.4-7.3,2.1c-0.3,1.6,0,3.3,1.3,4.4c1.2,1,3.1,1.4,4.6,1.1
				c3.3-0.7,4.7-4.9,2-7.2c-1.3-1.1-3.2-1.8-4.7-0.9c-1.4,0.8-2,2.7-1.2,4.1c0.8,1.5,3,2.4,4.4,1c1.3-1.4,0.2-3.6-1.6-3.7
				c-1.9,0-1.9,3,0,3c0.6,0-1-2.5,0.7-1.7c0.4,0.2,0.9,0.5,1,0.9c0.3,1.1-1.2,1.6-2,1.5c-1.1-0.2-1.6-0.8-1.4-1.9
				c0.2-1.3,1.4-1.5,2.2-0.6C330.8,51,332.9,48.8,331.6,47.4L331.6,47.4z"/>
		</g>
	</g>
	<g>
		<g>
			<path fill="#242424" d="M343.4,46.6c-1.6-0.5-3.4-0.7-4.8,0.5c-1.1,1.1-1.8,3.2-1.7,4.7c0.1,1.7,1.4,2.9,3.1,3
				c1.7,0.2,4.1,0.4,5.6-0.8c1.3-1,1.4-2.8,1.3-4.4c-0.2-1.8-1.3-3.1-3.1-3.4c-1.6-0.3-3.5,0-4.6,1.3c-1.1,1.3-0.9,3.2,0.4,4.2
				c1.2,0.9,3.5,1.2,4.6,0c1.6-1.6-0.1-3.6-1.9-3.9c-1.9-0.3-2.7,2.6-0.8,2.9c0.7,0.1,1.1-0.9,0.6-1.3c-0.1-0.1-0.8,0.1-0.7-0.1
				c0-0.2,1.4-0.3,1.6-0.3c0.7,0.1,0.9,0.4,0.9,1.1c0,0.6,0.1,1.4-0.5,1.6c-0.6,0.2-1.5,0-2.2,0c-0.8,0-1.3,0.2-1.2-0.7
				c0.1-0.5,0.3-1.6,0.8-1.9c0.5-0.3,1.4,0.1,1.8,0.3C344.4,50.1,345.2,47.2,343.4,46.6L343.4,46.6z"/>
		</g>
	</g>
	<g>
		<g>
			<path fill="#FFFF00" d="M342.4,14.6c0,0-0.4-0.4-0.3-0.2c-0.1-0.2-0.2-0.3-0.3-0.5c-0.3-0.7-1.4-0.9-2.1-0.5
				c-0.8,0.5-0.9,1.3-0.5,2.1c0.2,0.5,0.6,1,1,1.3c0.6,0.5,1.5,0.6,2.1,0C342.9,16.2,343,15.1,342.4,14.6L342.4,14.6z"/>
		</g>
	</g>
	<g>
		<g>
			<path fill="#AAAAAA" d="M344.6,15.3c-1.4,0.6-2.5,1.7-3.4,2.9c-0.4,0.7-0.1,1.7,0.5,2.1c0.7,0.4,1.6,0.1,2.1-0.5
				c0.5-0.8,1.3-1.4,2.3-1.8c0.7-0.3,0.9-1.4,0.5-2.1C346.2,15.1,345.3,15,344.6,15.3L344.6,15.3z"/>
		</g>
	</g>
	<g>
		<g>
			<path fill="#AAAAAA" d="M340.9,28.1c-0.7,1.2-0.4,2.7,0.5,3.7c0.9,1,2.2,1.3,3.4,1.4c0.8,0.1,1.5-0.7,1.5-1.5
				c0-0.9-0.7-1.4-1.5-1.5c-0.3,0-0.8-0.2-1.1-0.3c-0.1-0.1-0.2-0.2-0.2-0.3c0,0.1,0-0.3,0,0c0,0.2,0.1-0.1,0,0
				C344.5,28,341.9,26.5,340.9,28.1L340.9,28.1z"/>
		</g>
	</g>
</g>
<g id="Calque_7">
	<g>
		<g>
			<path fill="#373737" d="M372.4,46.9c2.8,3.2,4.1,5.4,8.3,5.5c6.3,0.1,12.7,0,19-0.1c5.9-0.1,12.1,0.1,18-0.4
				c4-0.3,6.4-3.7,9.2-6.3c0.5-0.4,0.6-1.3,0.2-1.8c-1.5-2.4-3.2-6.8-5.7-8.3c-1-0.6-2.2-0.2-3.3-0.5c-6.4-1.6-1.5-1.3-4.2-3
				c-2.6-1.7-5.9-1.4-8.9-1.6c-4.9-0.2-9.8,0-14.7,0.2c-4.9,0.2-9.8,0.3-14.7,0.2c-2.3-0.1-4.4-0.5-5.5,1.8
				c-1.1,2.2-0.3,5.9-0.1,8.3c0.2,3.1,0.7,4.8,3.5,6.4c6.6,4,16.4,2.4,23.7,2.4c4.7,0,9.4-0.1,14.1,0.4c3.4,0.3,6.7,0.7,9.7-1.2
				c1.4-0.9,3.1-2.3,3.2-4.1c0.1-1.9-2.9-6.5-4.4-7.5c-0.8-0.5-1.6-0.5-2.4-0.7c-2.9-0.7-3.3-1.5-5.5-2.7c-2.8-1.7-6.5-1.5-9.7-1.5
				c-5.8-0.1-11.6,0.2-17.5,0.3c-3.3,0-9.4-1.5-12.2,0.4c-2.2,1.5-1,4.6-0.5,6.8c0.9,4.1,1.7,3,4.5,5.4c0.4-0.9,0.7-1.7,1.1-2.6
				c-0.5,0-0.9-0.1-1.4-0.1c-1.7-0.4-2.6,1.8-1.2,2.7c3.6,2.3,8.7,1.8,12.8,2c6.4,0.2,12.9-0.1,19.3,0.1c3.4,0.1,9.7,2.9,12.8,0
				c2.7-2.5,0.3-5.5-1.1-8.1c-0.6-1.1-2.5-0.9-2.7,0.4c-0.4,1.9-0.8,3.2-1.8,5c-0.6,1.2,0.4,2.4,1.7,2.2c4.7-0.8,3.2-5.5,1-8.1
				c-0.7-0.8-2.3-0.4-2.5,0.7c-0.8,1.3-1.6,2.6-2.3,3.9c0.7,0.6,1.5,1.1,2.2,1.7c0.6-1.8,1.2-3.4,2-5.1c0.7-1.4-1.1-3.2-2.4-1.8
				c-1.6,1.7-3.2,3.5-4.8,5.2c0.8,0.6,1.6,1.2,2.4,1.8c0.9-1.8,1.9-3.6,2.8-5.4c0.8-1.5-1.1-3.1-2.4-1.8c-1.8,1.8-3.7,3.7-5.5,5.5
				c0.8,0.6,1.6,1.2,2.4,1.8c1.7-2.3,3.3-4.5,5-6.8c0.9-1.2-0.9-2.9-2.1-2.1c-3,2.3-6,4.6-9.1,6.9c0.6,0.8,1.2,1.6,1.8,2.4
				c3-2.7,5.7-5.7,8.1-9c1.1-1.5-1.1-2.8-2.4-1.8c-3.7,2.9-7.4,5.8-11,8.7c0.7,0.7,1.4,1.4,2.1,2.1c3.2-3,6.2-6.1,8.7-9.7
				c0.9-1.3-0.8-2.7-2.1-2.1c-4.7,2.6-8.9,5.7-12.7,9.5c-1.4,1.4,0.7,3.4,2.1,2.1c3.1-2.8,5.8-5.8,8.3-9.2c1-1.4-1.2-3-2.4-1.8
				c-2.7,2.9-5.5,5.4-8.6,7.9c0.7,0.7,1.4,1.4,2.1,2.1c2.5-3,5.1-5.9,7.7-8.7c1.2-1.2-0.3-3.2-1.8-2.4c-4.3,2.5-8.2,5.5-11.8,9.1
				c-1.4,1.4,0.7,3.3,2.1,2.1c3.3-2.7,6.2-5.7,8.9-9.1c-0.7-0.7-1.4-1.4-2.1-2.1c-2.6,3.3-5.1,6.6-7.7,9.9c0.8,0.6,1.6,1.2,2.4,1.8
				c2.2-2.9,4.3-5.7,6.5-8.6c1-1.3-0.9-2.7-2.1-2.1c-4.4,2.2-7.9,5.2-10.8,9.2c-1,1.4,1.3,3.1,2.4,1.8c2.7-3.1,5.3-6.3,8-9.4
				c1-1.2-0.3-3.3-1.8-2.4c-4.4,2.8-8.3,6-12,9.7c-1.4,1.4,0.7,3.5,2.1,2.1c3.1-3,6.2-6,9.3-8.9c1.3-1.2-0.3-3.1-1.8-2.4
				c-4.1,2.2-7.8,4.9-11.2,8.1c-1.4,1.4,0.7,3.4,2.1,2.1c2.9-2.5,7.1-5,8.7-8.6c0.6-1.3-0.6-2.8-2.1-2.1c-4.6,2.6-9.1,5.2-13.6,8
				c0.5,0.9,1,1.7,1.5,2.6c3.3-2.2,6.4-4.6,9.3-7.3c1.2-1.1-0.4-3.4-1.8-2.4c-3.5,2.5-6.4,5.4-9,8.8c-1,1.3,0.9,2.7,2.1,2.1
				c3.5-1.8,6.2-4.3,8.3-7.6c0.9-1.5-1.1-2.9-2.4-1.8c-2.2,2-4.4,4.1-6.6,6.1c0.8,0.5,1.7,1,2.5,1.5c0.7-2.9,4.1-4.7,5.8-7.1
				c1-1.4-0.9-2.6-2.1-2.1c-3.3,1.5-6.2,3.4-8.8,5.9c-1.4,1.4,0.7,3.3,2.1,2.1c2.1-1.7,4.3-3.3,6.6-4.8c1.6-1,0.2-3.5-1.5-2.6
				c-3,1.6-6,3.2-9,4.9c0.5,0.9,1,1.7,1.5,2.6c2.9-1.7,5.8-3.4,8.7-5.1c1.7-1,0.2-3.4-1.5-2.6c-2.3,1-4.6,2.1-6.9,3.1
				c0.6,0.8,1.2,1.6,1.8,2.4c1.4-1.1,2.8-2.1,4.3-3c1.6-1,0.2-3.6-1.5-2.6c-1.8,1.1-3.6,2-5.5,2.9c0.6,0.8,1.2,1.6,1.8,2.4
				c1.4-1.2,2.7-2.4,4.1-3.6c1.3-1.2-0.4-3.1-1.8-2.4c-1.5,0.8-3,1.6-4.6,2.5c0.7,0.7,1.4,1.4,2.1,2.1c0.5-0.6,1.1-1.2,1.6-1.8
				c1.3-1.1-0.4-3.2-1.8-2.4c-1.1,0.7-2.3,1.4-3.4,2c0.7,0.7,1.4,1.4,2.1,2.1c0.3-0.3,0.5-0.6,0.8-0.9c-0.7-0.7-1.4-1.4-2.1-2.1
				c-0.2,0.5-0.5,1.1-0.7,1.7c0.6-0.2,1.1-0.5,1.7-0.7c0.2,0.2,0.4,0.4,0.5,0.6c-0.4-1.7-3-1.3-2.9,0.4c0.1,1,0,2-0.2,3c1,0,2,0,3,0
				c-0.2-1.9-0.2-3.7,0-5.5c0.3-2.7-0.1-2.2,2.5-2.8c3.9-0.9,9.9,0.2,13.9,0.3c4.6,0.1,9.3,0.2,13.9,0.3c1.9,0,4.4-0.6,5.6,1.3
				c0.8,1.3,0.3,5,0.3,6.5c0.1,1.9,3.1,1.9,3,0c-0.2-3,1.1-9.5-2.5-10.7c-2.5-0.8-6.7-0.2-9.3-0.2c-4-0.1-8-0.2-11.9-0.3
				c-3.6-0.1-7.3-0.2-10.9-0.2c-1.9,0-5-0.7-6.9,0.4c-1.2,0.7-1.9,1.7-1.9,3.2c0,0.7,0.4,1.3,0.6,2c0.6,2,0.5,3.7,0.7,5.8
				c0.2,2,2.7,1.9,3,0c0.2-1,0.3-2,0.2-3c-1,0.1-2,0.3-2.9,0.4c0,0.1,0.1,0.2,0.1,0.4c0.1,0.5,0.6,1,1,1c0.1,0,0.3,0,0.4,0.1
				c0.6,0.1,1.4,0,1.7-0.7c0.2-0.6,0.5-1.1,0.7-1.7c0.5-1.2-0.7-3.1-2.1-2.1c-1,0.7-1.3,1-1.9,2c-0.8,1.3,0.8,2.8,2.1,2.1
				c1.1-0.7,2.3-1.4,3.4-2c-0.6-0.8-1.2-1.6-1.8-2.4c-1.2,1.1-1.2,1.1-2,2.5c-0.8,1.3,0.8,2.7,2.1,2.1c1.5-0.8,3-1.6,4.6-2.5
				c-0.6-0.8-1.2-1.6-1.8-2.4c-1.4,1.2-2.7,2.4-4.1,3.6c-1.4,1.2,0.4,3,1.8,2.4c1.9-0.9,3.7-1.8,5.5-2.9c-0.5-0.9-1-1.7-1.5-2.6
				c-1.7,1.1-3.3,2.2-4.9,3.5c-1.4,1.2,0.4,3,1.8,2.4c2.3-1,4.6-2.1,6.9-3.1c-0.5-0.9-1-1.7-1.5-2.6c-2.9,1.7-5.8,3.4-8.7,5.1
				c-1.7,1-0.2,3.5,1.5,2.6c3-1.6,6-3.2,9-4.9c-0.5-0.9-1-1.7-1.5-2.6c-2.5,1.6-4.9,3.4-7.2,5.2c0.7,0.7,1.4,1.4,2.1,2.1
				c2.5-2.4,5.1-4.1,8.2-5.5c-0.7-0.7-1.4-1.4-2.1-2.1c-2,2.8-5.2,4.2-6.1,7.8c-0.4,1.5,1.4,2.5,2.5,1.5c2.2-2,4.4-4.1,6.6-6.1
				c-0.8-0.6-1.6-1.2-2.4-1.8c-1.9,2.9-4.2,5-7.2,6.6c0.7,0.7,1.4,1.4,2.1,2.1c2.3-3,4.9-5.5,8-7.7c-0.6-0.8-1.2-1.6-1.8-2.4
				c-2.7,2.5-5.6,4.8-8.7,6.8c-1.6,1-0.1,3.6,1.5,2.6c4.5-2.8,9-5.5,13.6-8c-0.7-0.7-1.4-1.4-2.1-2.1c-1.4,3.1-5.7,5.8-8.3,8
				c0.7,0.7,1.4,1.4,2.1,2.1c3.2-3.1,6.7-5.6,10.6-7.7c-0.6-0.8-1.2-1.6-1.8-2.4c-3.1,3-6.2,6-9.3,8.9c0.7,0.7,1.4,1.4,2.1,2.1
				c3.5-3.5,7.3-6.5,11.4-9.2c-0.6-0.8-1.2-1.6-1.8-2.4c-2.7,3.1-5.3,6.3-8,9.4c0.8,0.6,1.6,1.2,2.4,1.8c2.6-3.6,5.8-6.2,9.7-8.1
				c-0.7-0.7-1.4-1.4-2.1-2.1c-2.2,2.9-4.3,5.7-6.5,8.6c-1,1.3,1.3,3.2,2.4,1.8c2.6-3.3,5.1-6.6,7.7-9.9c1.2-1.5-0.9-3.6-2.1-2.1
				c-2.7,3.4-5.6,6.3-8.9,9.1c0.7,0.7,1.4,1.4,2.1,2.1c3.4-3.3,7.1-6.2,11.2-8.6c-0.6-0.8-1.2-1.6-1.8-2.4c-2.7,2.8-5.2,5.7-7.7,8.7
				c-1.3,1.5,0.6,3.3,2.1,2.1c3.1-2.4,5.9-5,8.6-7.9c-0.8-0.6-1.6-1.2-2.4-1.8c-2.3,3.2-4.9,6-7.8,8.6c0.7,0.7,1.4,1.4,2.1,2.1
				c3.6-3.6,7.6-6.6,12.1-9.1c-0.7-0.7-1.4-1.4-2.1-2.1c-2.3,3.5-5.2,6.3-8.2,9.1c-1.4,1.4,0.6,3.3,2.1,2.1c3.7-2.9,7.4-5.8,11-8.7
				c-0.8-0.6-1.6-1.2-2.4-1.8c-2.3,3.1-4.8,5.8-7.7,8.4c-1.2,1.1,0.4,3.4,1.8,2.4c3-2.3,6-4.6,9.1-6.9c-0.7-0.7-1.4-1.4-2.1-2.1
				c-1.7,2.3-3.3,4.5-5,6.8c-1,1.4,1.2,3,2.4,1.8c1.8-1.8,3.7-3.7,5.5-5.5c-0.8-0.6-1.6-1.2-2.4-1.8c-0.9,1.8-1.9,3.6-2.8,5.4
				c-0.8,1.5,1.2,3.1,2.4,1.8c1.6-1.7,3.2-3.5,4.8-5.2c-0.8-0.6-1.6-1.2-2.4-1.8c-0.9,1.9-1.6,3.8-2.3,5.8c-0.4,1.2,1.1,2.5,2.2,1.7
				c2.1-1.6,3.2-3,3.7-5.6c-0.8,0.2-1.7,0.4-2.5,0.7c0.1,1,0.2,2.1,0.3,3.1c0.6,0.7,1.1,1.5,1.7,2.2c1-1.9,1.6-3.7,2.1-5.7
				c-0.9,0.1-1.8,0.2-2.7,0.4c1.5,1.4,1.2,2.4-0.8,3c-0.9,1.4-2,1.7-3.4,0.9c-1.5-0.1-2.5-0.4-4-0.4c-3.3-0.1-6.7,0.1-10.1,0.1
				c-3.4,0-6.8-0.1-10.1-0.2c-3.4-0.1-8.3,0.4-11.3-1.5c-0.4,0.9-0.8,1.8-1.2,2.7c1,0.3,1.2,0.3,2.2,0.3c1.2-0.1,2.1-1.7,1.1-2.6
				c-1.7-1.5-3.1-1.6-3.7-4.1c-0.5-1.2-0.4-2.4,0.1-3.6c0.6,0,1.3,0.1,1.9,0.1c1.6-0.4,4,0.1,5.8,0.1c7.8,0,15.5-0.7,23.3-0.1
				c3.4,0.3,5.2,2,8.2,3.5c2.1,1.1,2.8-0.7,4.9,2.5c1.5,2.2,1.1,4.9-1.7,5.7c-3.6,1-8-0.4-11.7-0.5c-3.8-0.1-7.7,0-11.5,0
				c-3.6,0-7.3,0.1-10.9-0.1c-5.6-0.3-9.7-1-10.6-7.4c-0.1-1-0.6-4.4-0.1-5c1-1.2,3.4-0.5,4.7-0.5c3.9,0.1,7.9,0,11.8-0.2
				c3.9-0.1,7.8-0.3,11.8-0.3c3.6,0,8.4-0.5,11.3,2c1.3,1.1,1.5,1.9,3.4,2.4c1.7,0.4,2.3,0.3,3.9,1.4c2.3,1.5,3.4,3.9,4.8,6.2
				c0.1-0.6,0.2-1.2,0.2-1.8c-1.4,1.3-3.2,3.7-4.9,4.5c-2.4,1.2-5.6,1-8.2,1c-4.3,0.1-8.7,0.2-13,0.2c-4.3,0.1-8.7,0.1-13,0.1
				c-1.8,0-4.2,0.4-6,0c-2.3-0.6-3.7-2.9-5.2-4.6C373.3,43.3,371.1,45.5,372.4,46.9L372.4,46.9z"/>
		</g>
	</g>
	<g>
		<g>
			<path fill="#373737" d="M386.5,31.5c-0.2-3,0-5,2.5-6.8c2.5-1.8,5.2-1.3,8.1-1.2c2.8,0.1,5.5-0.6,6.1,2.7
				c0.3,1.8,0.1,1.5-1.5,1.7c-1.4,0.2-3.1,0-4.6,0c-0.9,0-7.4,0.5-7.7-0.2c-0.7-1.8,5.2-2,6.5-1.9c1.5,0.1,3,0.3,4.5,0.2
				c2.9-0.1-1.9-0.1-2-0.1c-3,0-6,0-9-0.1c0.3,0.9,0.5,1.9,0.8,2.8c2.4-1.4,5.4-1.1,8.1-1.6c1.9-0.4,1.1-3.2-0.8-2.9
				c-3.1,0.6-6.1,0.2-8.8,1.9c-1.3,0.8-0.7,2.8,0.8,2.8c3.7,0.1,7.5,0.2,11.2,0c1.4,0,2.9,0,3.7-1.4c2.5-4.3-4.9-4.5-6.9-4.6
				c-4.3-0.2-9-0.6-11.7,3.9c-2.4,4,2.9,4.2,5.3,4.2c3.6,0,7.1,0.1,10.7,0c1.4,0,3,0.2,3.9-1.1c0.8-1.1,0.8-4.5,0.6-5.7
				c-0.2-1.4-0.8-2.4-2.1-3c-2.2-1-5.3-0.5-7.7-0.6c-2.2-0.1-4.9-0.7-7,0.2c-4.9,2.1-6.2,5.8-6,10.7
				C383.6,33.4,386.6,33.4,386.5,31.5L386.5,31.5z"/>
		</g>
	</g>
	<g>
		<g>
			<path fill="#373737" d="M403,25.8c3.9,0,7.8,0.1,11.6,0.3c1.7,0.1,5,0.9,6.2-1c0.8-1.3,0.1-2.8-1.1-3.5c-0.8-0.5-1.6-0.4-2.5-0.3
				c-1.4,0.1-3.1-0.2-4.4,0.1c-2.9,0.6-2.9,5.3-0.1,6.1c1.1,0.3,2.6,0.1,3.7,0.1c1.1,0,2.8,0.3,3.9-0.2c1.8-0.9,1.5-3.4,1.3-5
				c-0.2-1.9-3.2-1.9-3,0c0.2,2.2,0.1,2.2-2.2,2.2c-1.5,0-3.1,0.7-2.5-1.1c-0.3,0.3-0.7,0.7-1,1c0.9-0.4,2.1,0.2,3.1,0
				c0.8-0.2,0.8,0.1,1.4-0.7c0.9-1.1-1.2-0.7-2.2-0.7c-4.1-0.2-8.2-0.3-12.3-0.3C401.1,22.8,401.1,25.8,403,25.8L403,25.8z"/>
		</g>
	</g>
	<g>
		<g>
			<path fill="#373737" d="M375.1,43.3c-5.2,1.2-11.4,6-5.9,11.3c2.7,2.6,6.6,2.5,10,2.5c5.8,0,11.5,0,17.3,0c5.5,0,10.9,0,16.4,0
				c4,0,8.5,0.3,12-2c6.1-4,3.8-8.4-2-10.4c-1.8-0.6-2.6,2.3-0.8,2.9c6.5,2.3-0.5,6.1-4,6.5c-2.3,0.2-4.7,0.1-7.1,0.1
				c-4.5,0-9,0-13.5,0c-4.5,0-9,0-13.5,0c-2.5,0-5,0.1-7.4,0c-3.8,0.4-5.3-1.8-4.6-6.7c1.2-0.6,2.5-1,3.9-1.2
				C377.8,45.8,377,42.9,375.1,43.3L375.1,43.3z"/>
		</g>
	</g>
	<g>
		<g>
			<path fill="#242424" d="M377.1,46.1c-1.8-0.5-3.7-0.3-5,1.1c-1.1,1.2-1.2,3-0.3,4.4c1.6,2.5,6.8,3.9,8.8,1.3
				c2.3-2.8-0.3-6.3-3.4-6.7c-1.5-0.2-3.5,0-4.3,1.5c-0.8,1.3-0.2,3.1,1.1,3.9c1.3,0.8,3.9,1,4.9-0.5c1.2-1.8-1.1-3.5-2.7-3.9
				c-1.9-0.4-2.7,2.5-0.8,2.9c0.1,0,0.8,0.1,0.9,0.4c0.1-0.4,0.1-0.8,0.2-1.2c0.2-0.5,0.4-0.1-0.3-0.2c-0.2,0-0.5-0.2-0.6-0.2
				c0,0.1-0.1,0.2-0.1,0.3c0.1,0,0.2-0.1,0.3-0.1c0.3,0.1,0.6-0.1,0.9,0c0.7,0.1,2.4,0.9,1.7,1.9c-0.6,0.8-2.7,0-3.3-0.4
				c-0.4-0.2-1-0.7-0.8-1.2c0.3-0.8,1.5-0.6,2.1-0.4C378.2,49.5,379,46.6,377.1,46.1L377.1,46.1z"/>
		</g>
	</g>
	<g>
		<g>
			<path fill="#242424" d="M390.8,46.3c-2-0.4-5.1-0.9-6.5,1.1c-1.2,1.7-0.8,4.2,0.6,5.7c1.5,1.6,4.1,2.1,6.2,1.4
				c2-0.7,3.3-2.7,2.7-4.7c-0.6-2-2.9-3.3-4.8-3.4c-2.1-0.2-4.2,1.4-3.5,3.7c0.5,1.8,2.9,3.2,4.7,2.4c0.9-0.4,1.3-1.5,1-2.4
				c-0.3-1.1-1.2-1.5-2.2-1.9c-1.7-0.8-3.3,1.8-1.5,2.6c0.1,0.1,0.6,0.3,0.7,0.3c0.2-0.4,0.5-0.9,0.7-1.3c-0.1-0.1-0.3-0.2-0.4-0.2
				c0.3-0.2,1.1,0.2,1.5,0.4c1.4,0.8,0.8,1.9-0.7,2c-1.1,0.1-2.5-0.4-2.8-1.6c-0.4-1.7,2.3-1.2,3.3-1
				C391.8,49.5,392.7,46.6,390.8,46.3L390.8,46.3z"/>
		</g>
	</g>
	<g>
		<g>
			<path fill="#242424" d="M403.6,47.4c-2.3-2.7-6.7-1.4-7.3,2.1c-0.3,1.6,0,3.3,1.3,4.4c1.2,1,3.1,1.4,4.6,1.1
				c3.3-0.7,4.7-4.9,2-7.2c-1.3-1.1-3.2-1.8-4.7-0.9c-1.4,0.8-2,2.7-1.2,4.1c0.8,1.5,3,2.4,4.4,1c1.3-1.4,0.2-3.6-1.6-3.7
				c-1.9,0-1.9,3,0,3c0.6,0-1-2.5,0.7-1.7c0.4,0.2,0.9,0.5,1,0.9c0.3,1.1-1.2,1.6-2,1.5c-1.1-0.2-1.6-0.8-1.4-1.9
				c0.2-1.3,1.4-1.5,2.2-0.6C402.8,51,404.9,48.8,403.6,47.4L403.6,47.4z"/>
		</g>
	</g>
	<g>
		<g>
			<path fill="#242424" d="M415.4,46.6c-1.6-0.5-3.4-0.7-4.8,0.5c-1.1,1.1-1.8,3.2-1.7,4.7c0.1,1.7,1.4,2.9,3.1,3
				c1.7,0.2,4.1,0.4,5.6-0.8c1.3-1,1.4-2.8,1.3-4.4c-0.2-1.8-1.3-3.1-3.1-3.4c-1.6-0.3-3.5,0-4.6,1.3c-1.1,1.3-0.9,3.2,0.4,4.2
				c1.2,0.9,3.5,1.2,4.6,0c1.6-1.6-0.1-3.6-1.9-3.9c-1.9-0.3-2.7,2.6-0.8,2.9c0.7,0.1,1.1-0.9,0.6-1.3c-0.1-0.1-0.8,0.1-0.7-0.1
				c0-0.2,1.4-0.3,1.6-0.3c0.7,0.1,0.9,0.4,0.9,1.1c0,0.6,0.1,1.4-0.5,1.6c-0.6,0.2-1.5,0-2.2,0c-0.8,0-1.3,0.2-1.2-0.7
				c0.1-0.5,0.3-1.6,0.8-1.9c0.5-0.3,1.4,0.1,1.8,0.3C416.4,50.1,417.2,47.2,415.4,46.6L415.4,46.6z"/>
		</g>
	</g>
</g>
</svg>
