<?xml version="1.0" encoding="utf-8"?>
<!-- Generator: Adobe Illustrator 22.1.0, SVG Export Plug-In . SVG Version: 6.00 Build 0)  -->
<svg version="1.1" xmlns="http://www.w3.org/2000/svg" xmlns:xlink="http://www.w3.org/1999/xlink" x="0px" y="0px" width="576px"
	 height="72px" viewBox="0 0 576 72" enable-background="new 0 0 576 72" xml:space="preserve">
<g id="Calque_1">
</g>
<g id="Calque_2">
	<g>
		<g>
			<path fill="#B3B3B3" d="M62.2,23.4c-1.4-0.6-2.9-0.4-4.4-0.3c-1.8,0.1-3.6,0.2-5.4,0.4c-1.2,0.1-1.8,1.2-1.3,2.3
				c0.5,1,1.2,1.7,2.2,2.1c0.5,0.2,2.9,0.8,2.6,0.3c-0.1-0.4-0.1-0.8-0.2-1.2c0-0.1-1.1,0.1-1.1,0.1c-0.3-0.1-0.7-0.3-1-0.4
				c0.1-0.2,0.1-0.4,0.1-0.6c-0.1-0.7,0-1-0.4-1.7c-0.8-1.3-2.7-0.7-2.8,0.8c-0.1,2-0.1,4-0.1,6c0,1.9,3,1.9,3,0c0-2,0-4,0.1-6
				c-0.9,0.3-1.9,0.5-2.8,0.8c0,0-0.3,1.3-0.2,1.7c0.2,0.8,0.8,1.5,1.5,1.9c1.5,0.9,3.8,0.6,5.3-0.3c1.1-0.7,1.6-2.2,0.6-3.2
				c-1.3-1.3-3.6,0.1-4.4-1.8c-0.4,0.8-0.9,1.5-1.3,2.3c1.5-0.1,3.1-0.2,4.6-0.3c1.4-0.1,3-0.4,4.3,0.2C63.2,27.1,64,24.2,62.2,23.4
				L62.2,23.4z"/>
		</g>
	</g>
	<g>
		<g>
			<path fill="#373737" d="M36.7,10.5c-3.4-0.9-7.6,0.1-8.3,4.1c-0.7,3.7,3.3,5.9,6.3,6.7c3.4,0.9,7.3-0.4,7.9-4.3
				c0.2-1.8-0.3-3.6-1-5.2c-0.7-1.7-2-2.5-3.6-3.1c-3.3-1.4-7.2-0.9-8.7,2.8c-1.3,3.4,0.9,6.6,4,7.8c3.1,1.2,6.8,0.3,7.6-3.3
				c0.3-1.3,0.2-3.1-0.9-4.1c-1.3-1.1-3.7-0.9-5.3-0.6c-1.6,0.3-3.5,1.1-3.4,3c0.1,1.7,1.6,2.4,3,2.7c1.6,0.4,3.8,0.6,4.5-1.3
				c0.7-1.7-0.6-3.2-2.3-3.1c-1.9,0-1.9,3,0,3c0.2,0,0.3,0,0.5,0c-0.4-0.1-0.7-0.3-1.1-0.4c0,0.1,0.1,0.1,0.1,0.2
				c0.1-0.4,0.1-0.8,0.2-1.2c-0.4,0.1-0.8,0.1-1.1-0.1c-0.5-0.3-0.6-0.2-0.3,0.2c0.6,0,1.8-0.5,2.5-0.2c0.9,0.4,1,1.6,0.1,2.4
				c-0.7,0.6-1.8,0.4-2.6,0.2c-1.6-0.5-3.3-1.8-2.9-3.6c0.5-2.6,3.2-2.3,5.1-1.5c1.7,0.7,2.3,2.2,2.6,4c0.3,2.5-1.5,3.4-3.7,2.9
				c-1.4-0.3-3.6-1-4.2-2.3c-1.4-2.7,2.6-3.2,4.3-2.7C37.8,13.9,38.6,11,36.7,10.5L36.7,10.5z"/>
		</g>
	</g>
	<g>
		<g>
			<path fill="#373737" d="M33.6,20.3c3.3,8.5,2.3,19.6-1.2,27.7c-0.7,1.8,1.8,3.3,2.6,1.5c3.8-9,5.1-20.7,1.5-30
				C35.8,17.7,32.9,18.5,33.6,20.3L33.6,20.3z"/>
		</g>
	</g>
	<g>
		<g>
			<path fill="#373737" d="M33.8,49.5c1.1,2.9,2.5,5.8,3.4,8.8c1.1,3.5,0.6,6.9,0.3,10.5c-0.2,1.9,2.8,1.9,3,0
				c0.3-3.3,0.9-6.7,0.1-10c-0.9-3.4-2.6-6.8-3.9-10.1C36,47,33.1,47.7,33.8,49.5L33.8,49.5z"/>
		</g>
	</g>
	<g>
		<g>
			<path fill="#373737" d="M32.1,49.1c0.7,6.2-1,12.7-2.2,18.8c-0.4,1.9,2.5,2.7,2.9,0.8c1.3-6.3,3.1-13.1,2.3-19.6
				C34.9,47.3,31.9,47.2,32.1,49.1L32.1,49.1z"/>
		</g>
	</g>
	<g>
		<g>
			<path fill="#373737" d="M37,30.3c5.9-0.5,11.9-0.8,17.8-0.9c1.9,0,1.9-3,0-3c-6,0-11.9,0.3-17.8,0.9C35.1,27.5,35.1,30.5,37,30.3
				L37,30.3z"/>
		</g>
	</g>
	<g>
		<g>
			<path fill="#373737" d="M37.1,32.3c2.2,1.1,5.2-0.3,7.6-0.6c3.3-0.4,6.6-1,9.9-1.8c1.9-0.4,1.1-3.3-0.8-2.9
				c-2.7,0.6-5.5,1.1-8.3,1.5c-1.4,0.2-2.9,0.3-4.3,0.5c-0.6,0.1-2,0.8-2.5,0.6C36.8,28.9,35.3,31.5,37.1,32.3L37.1,32.3z"/>
		</g>
	</g>
</g>
<g id="Calque_3">
	<g>
		<g>
			<path fill="#B3B3B3" d="M134.2,23.4c-1.4-0.6-2.9-0.4-4.4-0.3c-1.8,0.1-3.6,0.2-5.4,0.4c-1.2,0.1-1.8,1.2-1.3,2.3
				c0.5,1,1.2,1.7,2.2,2.1c0.5,0.2,2.9,0.8,2.6,0.3c-0.1-0.4-0.1-0.8-0.2-1.2c0-0.1-1.1,0.1-1.1,0.1c-0.3-0.1-0.7-0.3-1-0.4
				c0.1-0.2,0.1-0.4,0.1-0.6c-0.1-0.7,0-1-0.4-1.7c-0.8-1.3-2.7-0.7-2.8,0.8c-0.1,2-0.1,4-0.1,6c0,1.9,3,1.9,3,0c0-2,0-4,0.1-6
				c-0.9,0.3-1.9,0.5-2.8,0.8c0,0-0.3,1.3-0.2,1.7c0.2,0.8,0.8,1.5,1.5,1.9c1.5,0.9,3.8,0.6,5.3-0.3c1.1-0.7,1.6-2.2,0.6-3.2
				c-1.3-1.3-3.6,0.1-4.4-1.8c-0.4,0.8-0.9,1.5-1.3,2.3c1.5-0.1,3.1-0.2,4.6-0.3c1.4-0.1,3-0.4,4.3,0.2
				C135.2,27.1,136,24.2,134.2,23.4L134.2,23.4z"/>
		</g>
	</g>
	<g>
		<g>
			<path fill="#373737" d="M108.7,10.5c-3.4-0.9-7.6,0.1-8.3,4.1c-0.7,3.7,3.3,5.9,6.3,6.7c3.4,0.9,7.3-0.4,7.9-4.3
				c0.2-1.8-0.3-3.6-1-5.2c-0.7-1.7-2-2.5-3.6-3.1c-3.3-1.4-7.2-0.9-8.7,2.8c-1.3,3.4,0.9,6.6,4,7.8c3.1,1.2,6.8,0.3,7.6-3.3
				c0.3-1.3,0.2-3.1-0.9-4.1c-1.3-1.1-3.7-0.9-5.3-0.6c-1.6,0.3-3.5,1.1-3.4,3c0.1,1.7,1.6,2.4,3,2.7c1.6,0.4,3.8,0.6,4.5-1.3
				c0.7-1.7-0.6-3.2-2.3-3.1c-1.9,0-1.9,3,0,3c0.2,0,0.3,0,0.5,0c-0.4-0.1-0.7-0.3-1.1-0.4c0,0.1,0.1,0.1,0.1,0.2
				c0.1-0.4,0.1-0.8,0.2-1.2c-0.4,0.1-0.8,0.1-1.1-0.1c-0.5-0.3-0.6-0.2-0.3,0.2c0.6,0,1.8-0.5,2.5-0.2c0.9,0.4,1,1.6,0.1,2.4
				c-0.7,0.6-1.8,0.4-2.6,0.2c-1.6-0.5-3.3-1.8-2.9-3.6c0.5-2.6,3.2-2.3,5.1-1.5c1.7,0.7,2.3,2.2,2.6,4c0.3,2.5-1.5,3.4-3.7,2.9
				c-1.4-0.3-3.6-1-4.2-2.3c-1.4-2.7,2.6-3.2,4.3-2.7C109.8,13.9,110.6,11,108.7,10.5L108.7,10.5z"/>
		</g>
	</g>
	<g>
		<g>
			<path fill="#373737" d="M105.6,20.3c3.3,8.5,2.3,19.6-1.2,27.7c-0.7,1.8,1.8,3.3,2.6,1.5c3.8-9,5.1-20.7,1.5-30
				C107.8,17.7,104.9,18.5,105.6,20.3L105.6,20.3z"/>
		</g>
	</g>
	<g>
		<g>
			<path fill="#373737" d="M105.8,49.5c1.1,2.9,2.5,5.8,3.4,8.8c1.1,3.5,0.6,6.9,0.3,10.5c-0.2,1.9,2.8,1.9,3,0
				c0.3-3.3,0.9-6.7,0.1-10c-0.9-3.4-2.6-6.8-3.9-10.1C108,47,105.1,47.7,105.8,49.5L105.8,49.5z"/>
		</g>
	</g>
	<g>
		<g>
			<path fill="#373737" d="M104.1,49.1c0.7,6.2-1,12.7-2.2,18.8c-0.4,1.9,2.5,2.7,2.9,0.8c1.3-6.3,3.1-13.1,2.3-19.6
				C106.9,47.3,103.9,47.2,104.1,49.1L104.1,49.1z"/>
		</g>
	</g>
	<g>
		<g>
			<path fill="#373737" d="M109,30.3c5.9-0.5,11.9-0.8,17.8-0.9c1.9,0,1.9-3,0-3c-6,0-11.9,0.3-17.8,0.9
				C107.1,27.5,107.1,30.5,109,30.3L109,30.3z"/>
		</g>
	</g>
	<g>
		<g>
			<path fill="#373737" d="M109.1,32.3c2.2,1.1,5.2-0.3,7.6-0.6c3.3-0.4,6.6-1,9.9-1.8c1.9-0.4,1.1-3.3-0.8-2.9
				c-2.7,0.6-5.5,1.1-8.3,1.5c-1.4,0.2-2.9,0.3-4.3,0.5c-0.6,0.1-2,0.8-2.5,0.6C108.8,28.9,107.3,31.5,109.1,32.3L109.1,32.3z"/>
		</g>
	</g>
	<g>
		<g>
			<path fill="#B3B3B3" d="M127.8,22.1c-2.2,0.2-4.4,0.3-6.7,0.5c-1.9,0.1-1.9,3.1,0,3c2.2-0.2,4.4-0.3,6.7-0.5
				C129.7,24.9,129.8,21.9,127.8,22.1L127.8,22.1z"/>
		</g>
	</g>
	<g>
		<g>
			<path fill="#FFFF00" d="M135.1,24.4c-0.3-0.1-0.3-0.3-0.4-0.5c0,0.2,0,0.2,0,0c0,0.1-0.1,0.2-0.1,0.4c-0.2,0.6-0.4,1.1-0.4,1.7
				c-0.1,0.8,0.7,1.5,1.5,1.5c0.9,0,1.4-0.7,1.5-1.5c0-0.2,0.3-0.7,0.4-1c0.1-0.4,0.2-0.8,0.2-1.3c-0.1-1-0.7-2-1.8-2.2
				c-0.8-0.2-1.6,0.2-1.8,1C133.8,23.3,134.3,24.3,135.1,24.4L135.1,24.4z"/>
		</g>
	</g>
</g>
<g id="Calque_4">
	<g>
		<g>
			<path fill="#373737" d="M180.7,10.5c-3.4-0.9-7.6,0.1-8.3,4.1c-0.7,3.7,3.3,5.9,6.3,6.7c3.4,0.9,7.3-0.4,7.9-4.3
				c0.2-1.8-0.3-3.6-1-5.2c-0.7-1.7-2-2.5-3.6-3.1c-3.3-1.4-7.2-0.9-8.7,2.8c-1.3,3.4,0.9,6.6,4,7.8c3.1,1.2,6.8,0.3,7.6-3.3
				c0.3-1.3,0.2-3.1-0.9-4.1c-1.3-1.1-3.7-0.9-5.3-0.6c-1.6,0.3-3.5,1.1-3.4,3c0.1,1.7,1.6,2.4,3,2.7c1.6,0.4,3.8,0.6,4.5-1.3
				c0.7-1.7-0.6-3.2-2.3-3.1c-1.9,0-1.9,3,0,3c0.2,0,0.3,0,0.5,0c-0.4-0.1-0.7-0.3-1.1-0.4c0,0.1,0.1,0.1,0.1,0.2
				c0.1-0.4,0.1-0.8,0.2-1.2c-0.4,0.1-0.8,0.1-1.1-0.1c-0.5-0.3-0.6-0.2-0.3,0.2c0.6,0,1.8-0.5,2.5-0.2c0.9,0.4,1,1.6,0.1,2.4
				c-0.7,0.6-1.8,0.4-2.6,0.2c-1.6-0.5-3.3-1.8-2.9-3.6c0.5-2.6,3.2-2.3,5.1-1.5c1.7,0.7,2.3,2.2,2.6,4c0.3,2.5-1.5,3.4-3.7,2.9
				c-1.4-0.3-3.6-1-4.2-2.3c-1.4-2.7,2.6-3.2,4.3-2.7C181.8,13.9,182.6,11,180.7,10.5L180.7,10.5z"/>
		</g>
	</g>
	<g>
		<g>
			<path fill="#373737" d="M177.6,20.3c3.3,8.5,2.3,19.6-1.2,27.7c-0.7,1.8,1.8,3.3,2.6,1.5c3.8-9,5.1-20.7,1.5-30
				C179.8,17.7,176.9,18.5,177.6,20.3L177.6,20.3z"/>
		</g>
	</g>
	<g>
		<g>
			<path fill="#373737" d="M177.8,49.5c1.1,2.9,2.5,5.8,3.4,8.8c1.1,3.5,0.6,6.9,0.3,10.5c-0.2,1.9,2.8,1.9,3,0
				c0.3-3.3,0.9-6.7,0.1-10c-0.9-3.4-2.6-6.8-3.9-10.1C180,47,177.1,47.7,177.8,49.5L177.8,49.5z"/>
		</g>
	</g>
	<g>
		<g>
			<path fill="#373737" d="M176.1,49.1c0.7,6.2-1,12.7-2.2,18.8c-0.4,1.9,2.5,2.7,2.9,0.8c1.3-6.3,3.1-13.1,2.3-19.6
				C178.9,47.3,175.9,47.2,176.1,49.1L176.1,49.1z"/>
		</g>
	</g>
	<g>
		<g>
			<path fill="#FFFF00" d="M207.1,24.4c-0.3-0.1-0.3-0.3-0.4-0.5c0,0.2,0,0.2,0,0c0,0.1-0.1,0.2-0.1,0.4c-0.2,0.6-0.4,1.1-0.4,1.7
				c-0.1,0.8,0.7,1.5,1.5,1.5c0.9,0,1.4-0.7,1.5-1.5c0-0.2,0.3-0.7,0.4-1c0.1-0.4,0.2-0.8,0.2-1.3c-0.1-1-0.7-2-1.8-2.2
				c-0.8-0.2-1.6,0.2-1.8,1C205.8,23.3,206.3,24.3,207.1,24.4L207.1,24.4z"/>
		</g>
	</g>
	<g>
		<g>
			<path fill="#FFFF00" d="M207.4,23.8c1.4,0.7,2.9,1.1,4.5,1.3c0.8,0.1,1.5-0.8,1.5-1.5c0-0.9-0.7-1.4-1.5-1.5
				c-1-0.1-2-0.4-2.9-0.8c-0.7-0.3-1.6-0.2-2.1,0.5C206.5,22.5,206.6,23.5,207.4,23.8L207.4,23.8z"/>
		</g>
	</g>
	<g>
		<g>
			<path fill="#FFFF00" d="M208.9,27.4c1.9-0.7,3.7-1.4,5.6-2.2c0.8-0.3,1.3-1,1-1.8c-0.2-0.7-1.1-1.3-1.8-1
				c-1.9,0.7-3.7,1.5-5.6,2.2C206.4,25.2,207.1,28.1,208.9,27.4L208.9,27.4z"/>
		</g>
	</g>
	<g>
		<g>
			<path fill="#373737" d="M180.5,29.5c2.9,0.8,6.4,1.7,9.4,0.9c3.1-0.8,6.2-2.7,9.1-4.1c1.7-0.8,0.2-3.4-1.5-2.6
				c-2.4,1.1-4.8,2.5-7.3,3.4c-2.9,1-6,0.2-8.9-0.5C179.5,26.1,178.7,29,180.5,29.5L180.5,29.5z"/>
		</g>
	</g>
	<g>
		<g>
			<path fill="#373737" d="M182.7,29.7c2.1-0.1,4-1.4,6-1.9c2.8-0.6,5.6-1.5,8.3-2.4c1.8-0.6,1-3.5-0.8-2.9
				c-2.4,0.9-4.8,1.6-7.3,2.2c-1.1,0.3-2.2,0.4-3.3,0.7c-0.9,0.3-2.1,1.2-2.9,1.2C180.8,26.7,180.7,29.7,182.7,29.7L182.7,29.7z"/>
		</g>
	</g>
	<g>
		<g>
			<path fill="#B3B3B3" d="M191.8,24.2c2.1-0.9,4.1-2.1,5.9-3.5c1.5-1.2-0.6-3.3-2.1-2.1c-1.6,1.3-3.4,2.3-5.3,3.1
				c-0.8,0.3-0.9,1.4-0.5,2.1C190.2,24.5,191,24.5,191.8,24.2L191.8,24.2z"/>
		</g>
	</g>
	<g>
		<g>
			<path fill="#B3B3B3" d="M196.7,23.2c1.5-1.5,3.3-2.8,5.2-3.8c1.7-0.9,0.2-3.5-1.5-2.6c-2.2,1.1-4.1,2.5-5.8,4.2
				C193.2,22.4,195.3,24.6,196.7,23.2L196.7,23.2z"/>
		</g>
	</g>
	<g>
		<g>
			<path fill="#B3B3B3" d="M197,22.6c0.1,0.2,0.2,0.3,0.3,0.5c0.4,0.7,1.3,1,2.1,0.5c0.7-0.4,1-1.4,0.5-2.1
				c-0.1-0.2-0.2-0.3-0.3-0.5c-0.4-0.7-1.3-1-2.1-0.5C196.9,20.9,196.6,21.9,197,22.6L197,22.6z"/>
		</g>
	</g>
</g>
<g id="Calque_5">
	<g>
		<g>
			<path fill="#373737" d="M252.7,10.5c-3.4-0.9-7.6,0.1-8.3,4.1c-0.7,3.7,3.3,5.9,6.3,6.7c3.4,0.9,7.3-0.4,7.9-4.3
				c0.2-1.8-0.3-3.6-1-5.2c-0.7-1.7-2-2.5-3.6-3.1c-3.3-1.4-7.2-0.9-8.7,2.8c-1.3,3.4,0.9,6.6,4,7.8c3.1,1.2,6.8,0.3,7.6-3.3
				c0.3-1.3,0.2-3.1-0.9-4.1c-1.3-1.1-3.7-0.9-5.3-0.6c-1.6,0.3-3.5,1.1-3.4,3c0.1,1.7,1.6,2.4,3,2.7c1.6,0.4,3.8,0.6,4.5-1.3
				c0.7-1.7-0.6-3.2-2.3-3.1c-1.9,0-1.9,3,0,3c0.2,0,0.3,0,0.5,0c-0.4-0.1-0.7-0.3-1.1-0.4c0,0.1,0.1,0.1,0.1,0.2
				c0.1-0.4,0.1-0.8,0.2-1.2c-0.4,0.1-0.8,0.1-1.1-0.1c-0.5-0.3-0.6-0.2-0.3,0.2c0.6,0,1.8-0.5,2.5-0.2c0.9,0.4,1,1.6,0.1,2.4
				c-0.7,0.6-1.8,0.4-2.6,0.2c-1.6-0.5-3.3-1.8-2.9-3.6c0.5-2.6,3.2-2.3,5.1-1.5c1.7,0.7,2.3,2.2,2.6,4c0.3,2.5-1.5,3.4-3.7,2.9
				c-1.4-0.3-3.6-1-4.2-2.3c-1.4-2.7,2.6-3.2,4.3-2.7C253.8,13.9,254.6,11,252.7,10.5L252.7,10.5z"/>
		</g>
	</g>
	<g>
		<g>
			<path fill="#373737" d="M249.6,20.3c3.3,8.5,2.3,19.6-1.2,27.7c-0.7,1.8,1.8,3.3,2.6,1.5c3.8-9,5.1-20.7,1.5-30
				C251.8,17.7,248.9,18.5,249.6,20.3L249.6,20.3z"/>
		</g>
	</g>
	<g>
		<g>
			<path fill="#373737" d="M249.8,49.5c1.1,2.9,2.5,5.8,3.4,8.8c1.1,3.5,0.6,6.9,0.3,10.5c-0.2,1.9,2.8,1.9,3,0
				c0.3-3.3,0.9-6.7,0.1-10c-0.9-3.4-2.6-6.8-3.9-10.1C252,47,249.1,47.7,249.8,49.5L249.8,49.5z"/>
		</g>
	</g>
	<g>
		<g>
			<path fill="#373737" d="M248.1,49.1c0.7,6.2-1,12.7-2.2,18.8c-0.4,1.9,2.5,2.7,2.9,0.8c1.3-6.3,3.1-13.1,2.3-19.6
				C250.9,47.3,247.9,47.2,248.1,49.1L248.1,49.1z"/>
		</g>
	</g>
	<g>
		<g>
			<path fill="#373737" d="M252.8,30.8c3.8,0.5,8.5-0.3,11.9-2.1c2.5-1.3,3.1-5.5,4.1-7.9c0.7-1.8-2.2-2.6-2.9-0.8
				c-0.5,1.2-0.9,2.5-1.4,3.7c-0.6,1.7-0.8,2.1-2.4,2.8c-2.9,1.2-6.2,1.7-9.3,1.3C250.9,27.5,251,30.5,252.8,30.8L252.8,30.8z"/>
		</g>
	</g>
	<g>
		<g>
			<path fill="#373737" d="M255.6,30.1c4.5-2.5,8.6-5.4,12.5-8.6c1.5-1.2-0.6-3.4-2.1-2.1c-3.7,3.1-7.7,5.8-11.9,8.2
				C252.4,28.4,253.9,31,255.6,30.1L255.6,30.1z"/>
		</g>
	</g>
	<g>
		<g>
			<path fill="#B3B3B3" d="M263.8,21.2c2.4-1.7,4.9-3.4,7.3-5.1c1.3-0.9,0.6-3.2-1.2-2.7c-1.5,0.4-2.9,1.4-3.7,2.8
				c-0.4,0.7-0.6,1.5-0.2,2.2c0.1,0.3,0.3,0.5,0.5,0.7c0.2,0.2,1,0.3,1.1,0.6c0.7,1.8,3.6,1,2.9-0.8c-0.2-0.6-0.4-1-0.9-1.4
				c-0.2-0.2-1.2-0.8-1.1-0.5c0.1,0.4,0.1,0.8,0.2,1.2c0.2-1,1.1-1.5,2-1.8c-0.4-0.9-0.8-1.8-1.2-2.7c-2.4,1.7-4.9,3.4-7.3,5.1
				C260.7,19.7,262.2,22.3,263.8,21.2L263.8,21.2z"/>
		</g>
	</g>
	<g>
		<g>
			<path fill="#FFFF00" d="M280.1,26.1c1.3-0.5,2.6-1.1,3.9-1.6c0.4-0.2,0.7-0.3,1.1-0.5c0.5-0.1,0.5-0.2,0-0.4
				c-0.9-0.8,0,1.1-0.3,1.3c0.4-0.4-0.3-0.4-0.7-0.5c-0.7-0.3-1.4-0.5-2.2-0.7c-1.2-0.3-2.5-0.4-3.8-0.5c0,1,0,2,0,3
				c2-0.1,4.1-0.3,6.1-0.4c1.9-0.1,1.9-3.1,0-3c-2,0.1-4.1,0.3-6.1,0.4c-1.9,0.1-1.9,2.9,0,3c1.3,0.1,2.5,0.3,3.8,0.6
				c0.9,0.3,1.9,0.8,2.8,0.9c1.9,0.3,3-1,3-2.9c0-1.6,0-3.8-2-4c-0.9-0.1-1.7,0.3-2.6,0.7c-1.3,0.5-2.6,1.1-3.9,1.6
				C277.6,24,278.4,26.9,280.1,26.1L280.1,26.1z"/>
		</g>
	</g>
</g>
<g id="Calque_6">
	<g>
		<g>
			<path fill="#373737" d="M324.7,10.5c-3.4-0.9-7.6,0.1-8.3,4.1c-0.7,3.7,3.3,5.9,6.3,6.7c3.4,0.9,7.3-0.4,7.9-4.3
				c0.2-1.8-0.3-3.6-1-5.2c-0.7-1.7-2-2.5-3.6-3.1c-3.3-1.4-7.2-0.9-8.7,2.8c-1.3,3.4,0.9,6.6,4,7.8c3.1,1.2,6.8,0.3,7.6-3.3
				c0.3-1.3,0.2-3.1-0.9-4.1c-1.3-1.1-3.7-0.9-5.3-0.6c-1.6,0.3-3.5,1.1-3.4,3c0.1,1.7,1.6,2.4,3,2.7c1.6,0.4,3.8,0.6,4.5-1.3
				c0.7-1.7-0.6-3.2-2.3-3.1c-1.9,0-1.9,3,0,3c0.2,0,0.3,0,0.5,0c-0.4-0.1-0.7-0.3-1.1-0.4c0,0.1,0.1,0.1,0.1,0.2
				c0.1-0.4,0.1-0.8,0.2-1.2c-0.4,0.1-0.8,0.1-1.1-0.1c-0.5-0.3-0.6-0.2-0.3,0.2c0.6,0,1.8-0.5,2.5-0.2c0.9,0.4,1,1.6,0.1,2.4
				c-0.7,0.6-1.8,0.4-2.6,0.2c-1.6-0.5-3.3-1.8-2.9-3.6c0.5-2.6,3.2-2.3,5.1-1.5c1.7,0.7,2.3,2.2,2.6,4c0.3,2.5-1.5,3.4-3.7,2.9
				c-1.4-0.3-3.6-1-4.2-2.3c-1.4-2.7,2.6-3.2,4.3-2.7C325.8,13.9,326.6,11,324.7,10.5L324.7,10.5z"/>
		</g>
	</g>
	<g>
		<g>
			<path fill="#373737" d="M321.6,20.3c3.3,8.5,2.3,19.6-1.2,27.7c-0.7,1.8,1.8,3.3,2.6,1.5c3.8-9,5.1-20.7,1.5-30
				C323.8,17.7,320.9,18.5,321.6,20.3L321.6,20.3z"/>
		</g>
	</g>
	<g>
		<g>
			<path fill="#373737" d="M321.8,49.5c1.1,2.9,2.5,5.8,3.4,8.8c1.1,3.5,0.6,6.9,0.3,10.5c-0.2,1.9,2.8,1.9,3,0
				c0.3-3.3,0.9-6.7,0.1-10c-0.9-3.4-2.6-6.8-3.9-10.1C324,47,321.1,47.7,321.8,49.5L321.8,49.5z"/>
		</g>
	</g>
	<g>
		<g>
			<path fill="#373737" d="M320.1,49.1c0.7,6.2-1,12.7-2.2,18.8c-0.4,1.9,2.5,2.7,2.9,0.8c1.3-6.3,3.1-13.1,2.3-19.6
				C322.9,47.3,319.9,47.2,320.1,49.1L320.1,49.1z"/>
		</g>
	</g>
	<g>
		<g>
			<path fill="#373737" d="M325.2,31c2,0.7,5-0.4,7-0.8c2.8-0.5,5.5-1.1,8-2.3c1.7-0.8,0.2-3.4-1.5-2.6c-2,0.9-4.2,1.4-6.3,1.8
				c-1.5,0.3-4.9,1.5-6.4,0.9C324.2,27.5,323.4,30.3,325.2,31L325.2,31z"/>
		</g>
	</g>
	<g>
		<g>
			<path fill="#373737" d="M326.2,29.3c4.4-1.6,9.2-1.5,13.5-3.2c1.8-0.7,1-3.6-0.8-2.9c-4.4,1.7-9.1,1.6-13.5,3.2
				C323.6,27.1,324.4,30,326.2,29.3L326.2,29.3z"/>
		</g>
	</g>
	<g>
		<g>
			<path fill="#B3B3B3" d="M338.8,24c2.9,0,5.8,0,8.8,0c1.9,0,1.9-2.9,0-3c-2.1-0.1-4.5,0.2-6.4,1c-0.6,0.3-1.2,0.6-1.4,1.3
				c-0.4,0.9,0,1.6-0.2,2.5c-0.4,1.9,2.5,2.7,2.9,0.8c0.1-0.6,0.2-1.1,0.1-1.7c0-0.2,0-0.3-0.1-0.5c-0.2,0.5-0.1,0.5,0.5,0.2
				c1.5-0.1,3-0.7,4.6-0.6c0-1,0-2,0-3c-2.9,0-5.8,0-8.8,0C336.9,21,336.9,24,338.8,24L338.8,24z"/>
		</g>
	</g>
	<g>
		<g>
			<path fill="#FFFF00" d="M355,26c1.1,0,2.2,0,3.3,0c1.9,0,1.9-3,0-3c-1.1,0-2.2,0-3.3,0C353.1,23,353.1,26,355,26L355,26z"/>
		</g>
	</g>
</g>
<g id="Calque_7">
	<g>
		<g>
			<path fill="#373737" d="M396.7,10.5c-3.4-0.9-7.6,0.1-8.3,4.1c-0.7,3.7,3.3,5.9,6.3,6.7c3.4,0.9,7.3-0.4,7.9-4.3
				c0.2-1.8-0.3-3.6-1-5.2c-0.7-1.7-2-2.5-3.6-3.1c-3.3-1.4-7.2-0.9-8.7,2.8c-1.3,3.4,0.9,6.6,4,7.8c3.1,1.2,6.8,0.3,7.6-3.3
				c0.3-1.3,0.2-3.1-0.9-4.1c-1.3-1.1-3.7-0.9-5.3-0.6c-1.6,0.3-3.5,1.1-3.4,3c0.1,1.7,1.6,2.4,3,2.7c1.6,0.4,3.8,0.6,4.5-1.3
				c0.7-1.7-0.6-3.2-2.3-3.1c-1.9,0-1.9,3,0,3c0.2,0,0.3,0,0.5,0c-0.4-0.1-0.7-0.3-1.1-0.4c0,0.1,0.1,0.1,0.1,0.2
				c0.1-0.4,0.1-0.8,0.2-1.2c-0.4,0.1-0.8,0.1-1.1-0.1c-0.5-0.3-0.6-0.2-0.3,0.2c0.6,0,1.8-0.5,2.5-0.2c0.9,0.4,1,1.6,0.1,2.4
				c-0.7,0.6-1.8,0.4-2.6,0.2c-1.6-0.5-3.3-1.8-2.9-3.6c0.5-2.6,3.2-2.3,5.1-1.5c1.7,0.7,2.3,2.2,2.6,4c0.3,2.5-1.5,3.4-3.7,2.9
				c-1.4-0.3-3.6-1-4.2-2.3c-1.4-2.7,2.6-3.2,4.3-2.7C397.8,13.9,398.6,11,396.7,10.5L396.7,10.5z"/>
		</g>
	</g>
	<g>
		<g>
			<path fill="#373737" d="M393.6,20.3c3.3,8.5,2.3,19.6-1.2,27.7c-0.7,1.8,1.8,3.3,2.6,1.5c3.8-9,5.1-20.7,1.5-30
				C395.8,17.7,392.9,18.5,393.6,20.3L393.6,20.3z"/>
		</g>
	</g>
	<g>
		<g>
			<path fill="#373737" d="M393.8,49.5c1.1,2.9,2.5,5.8,3.4,8.8c1.1,3.5,0.6,6.9,0.3,10.5c-0.2,1.9,2.8,1.9,3,0
				c0.3-3.3,0.9-6.7,0.1-10c-0.9-3.4-2.6-6.8-3.9-10.1C396,47,393.1,47.7,393.8,49.5L393.8,49.5z"/>
		</g>
	</g>
	<g>
		<g>
			<path fill="#373737" d="M392.1,49.1c0.7,6.2-1,12.7-2.2,18.8c-0.4,1.9,2.5,2.7,2.9,0.8c1.3-6.3,3.1-13.1,2.3-19.6
				C394.9,47.3,391.9,47.2,392.1,49.1L392.1,49.1z"/>
		</g>
	</g>
	<g>
		<g>
			<path fill="#373737" d="M397.2,31c2,0.7,5-0.4,7-0.8c2.8-0.5,5.5-1.1,8-2.3c1.7-0.8,0.2-3.4-1.5-2.6c-2,0.9-4.2,1.4-6.3,1.8
				c-1.5,0.3-4.9,1.5-6.4,0.9C396.2,27.5,395.4,30.3,397.2,31L397.2,31z"/>
		</g>
	</g>
	<g>
		<g>
			<path fill="#373737" d="M398.2,29.3c4.4-1.6,9.2-1.5,13.5-3.2c1.8-0.7,1-3.6-0.8-2.9c-4.4,1.7-9.1,1.6-13.5,3.2
				C395.6,27.1,396.4,30,398.2,29.3L398.2,29.3z"/>
		</g>
	</g>
	<g>
		<g>
			<path fill="#B3B3B3" d="M410.8,24c2.9,0,5.8,0,8.8,0c1.9,0,1.9-2.9,0-3c-2.1-0.1-4.5,0.2-6.4,1c-0.6,0.3-1.2,0.6-1.4,1.3
				c-0.4,0.9,0,1.6-0.2,2.5c-0.4,1.9,2.5,2.7,2.9,0.8c0.1-0.6,0.2-1.1,0.1-1.7c0-0.2,0-0.3-0.1-0.5c-0.2,0.5-0.1,0.5,0.5,0.2
				c1.5-0.1,3-0.7,4.6-0.6c0-1,0-2,0-3c-2.9,0-5.8,0-8.8,0C408.9,21,408.9,24,410.8,24L410.8,24z"/>
		</g>
	</g>
	<g opacity="0.21">
		<g>
			<path fill="#FFFF00" d="M427,26c1.1,0,2.2,0,3.3,0c1.9,0,1.9-3,0-3c-1.1,0-2.2,0-3.3,0C425.1,23,425.1,26,427,26L427,26z"/>
		</g>
	</g>
	<g>
		<g>
			<path fill="#FFFF00" d="M430.3,25.8c1.9,0,1.9-3,0-3C428.4,22.8,428.4,25.8,430.3,25.8L430.3,25.8z"/>
		</g>
	</g>
</g>
<g id="Calque_8">
	<g>
		<g>
			<path fill="#B3B3B3" d="M494.2,23.4c-1.4-0.6-2.9-0.4-4.4-0.3c-1.8,0.1-3.6,0.2-5.4,0.4c-1.2,0.1-1.8,1.2-1.3,2.3
				c0.5,1,1.2,1.7,2.2,2.1c0.5,0.2,2.9,0.8,2.6,0.3c-0.1-0.4-0.1-0.8-0.2-1.2c0-0.1-1.1,0.1-1.1,0.1c-0.3-0.1-0.7-0.3-1-0.4
				c0.1-0.2,0.1-0.4,0.1-0.6c-0.1-0.7,0-1-0.4-1.7c-0.8-1.3-2.7-0.7-2.8,0.8c-0.1,2-0.1,4-0.1,6c0,1.9,3,1.9,3,0c0-2,0-4,0.1-6
				c-0.9,0.3-1.9,0.5-2.8,0.8c0,0-0.3,1.3-0.2,1.7c0.2,0.8,0.8,1.5,1.5,1.9c1.5,0.9,3.8,0.6,5.3-0.3c1.1-0.7,1.6-2.2,0.6-3.2
				c-1.3-1.3-3.6,0.1-4.4-1.8c-0.4,0.8-0.9,1.5-1.3,2.3c1.5-0.1,3.1-0.2,4.6-0.3c1.4-0.1,3-0.4,4.3,0.2
				C495.2,27.1,496,24.2,494.2,23.4L494.2,23.4z"/>
		</g>
	</g>
	<g>
		<g>
			<path fill="#373737" d="M468.7,10.5c-3.4-0.9-7.6,0.1-8.3,4.1c-0.7,3.7,3.3,5.9,6.3,6.7c3.4,0.9,7.3-0.4,7.9-4.3
				c0.2-1.8-0.3-3.6-1-5.2c-0.7-1.7-2-2.5-3.6-3.1c-3.3-1.4-7.2-0.9-8.7,2.8c-1.3,3.4,0.9,6.6,4,7.8c3.1,1.2,6.8,0.3,7.6-3.3
				c0.3-1.3,0.2-3.1-0.9-4.1c-1.3-1.1-3.7-0.9-5.3-0.6c-1.6,0.3-3.5,1.1-3.4,3c0.1,1.7,1.6,2.4,3,2.7c1.6,0.4,3.8,0.6,4.5-1.3
				c0.7-1.7-0.6-3.2-2.3-3.1c-1.9,0-1.9,3,0,3c0.2,0,0.3,0,0.5,0c-0.4-0.1-0.7-0.3-1.1-0.4c0,0.1,0.1,0.1,0.1,0.2
				c0.1-0.4,0.1-0.8,0.2-1.2c-0.4,0.1-0.8,0.1-1.1-0.1c-0.5-0.3-0.6-0.2-0.3,0.2c0.6,0,1.8-0.5,2.5-0.2c0.9,0.4,1,1.6,0.1,2.4
				c-0.7,0.6-1.8,0.4-2.6,0.2c-1.6-0.5-3.3-1.8-2.9-3.6c0.5-2.6,3.2-2.3,5.1-1.5c1.7,0.7,2.3,2.2,2.6,4c0.3,2.5-1.5,3.4-3.7,2.9
				c-1.4-0.3-3.6-1-4.2-2.3c-1.4-2.7,2.6-3.2,4.3-2.7C469.8,13.9,470.6,11,468.7,10.5L468.7,10.5z"/>
		</g>
	</g>
	<g>
		<g>
			<path fill="#373737" d="M465.6,20.3c3.3,8.5,2.3,19.6-1.2,27.7c-0.7,1.8,1.8,3.3,2.6,1.5c3.8-9,5.1-20.7,1.5-30
				C467.8,17.7,464.9,18.5,465.6,20.3L465.6,20.3z"/>
		</g>
	</g>
	<g>
		<g>
			<path fill="#373737" d="M465.8,49.5c1.1,2.9,2.5,5.8,3.4,8.8c1.1,3.5,0.6,6.9,0.3,10.5c-0.2,1.9,2.8,1.9,3,0
				c0.3-3.3,0.9-6.7,0.1-10c-0.9-3.4-2.6-6.8-3.9-10.1C468,47,465.1,47.7,465.8,49.5L465.8,49.5z"/>
		</g>
	</g>
	<g>
		<g>
			<path fill="#373737" d="M464.1,49.1c0.7,6.2-1,12.7-2.2,18.8c-0.4,1.9,2.5,2.7,2.9,0.8c1.3-6.3,3.1-13.1,2.3-19.6
				C466.9,47.3,463.9,47.2,464.1,49.1L464.1,49.1z"/>
		</g>
	</g>
	<g>
		<g>
			<path fill="#373737" d="M469,30.3c5.9-0.5,11.9-0.8,17.8-0.9c1.9,0,1.9-3,0-3c-6,0-11.9,0.3-17.8,0.9
				C467.1,27.5,467.1,30.5,469,30.3L469,30.3z"/>
		</g>
	</g>
	<g>
		<g>
			<path fill="#373737" d="M469.1,32.3c2.2,1.1,5.2-0.3,7.6-0.6c3.3-0.4,6.6-1,9.9-1.8c1.9-0.4,1.1-3.3-0.8-2.9
				c-2.7,0.6-5.5,1.1-8.3,1.5c-1.4,0.2-2.9,0.3-4.3,0.5c-0.6,0.1-2,0.8-2.5,0.6C468.8,28.9,467.3,31.5,469.1,32.3L469.1,32.3z"/>
		</g>
	</g>
</g>
<g id="Calque_9">
	<g>
		<g>
			<path fill="#B3B3B3" d="M566.2,23.4c-1.4-0.6-2.9-0.4-4.4-0.3c-1.8,0.1-3.6,0.2-5.4,0.4c-1.2,0.1-1.8,1.2-1.3,2.3
				c0.5,1,1.2,1.7,2.2,2.1c0.5,0.2,2.9,0.8,2.6,0.3c-0.1-0.4-0.1-0.8-0.2-1.2c0-0.1-1.1,0.1-1.1,0.1c-0.3-0.1-0.7-0.3-1-0.4
				c0.1-0.2,0.1-0.4,0.1-0.6c-0.1-0.7,0-1-0.4-1.7c-0.8-1.3-2.7-0.7-2.8,0.8c-0.1,2-0.1,4-0.1,6c0,1.9,3,1.9,3,0c0-2,0-4,0.1-6
				c-0.9,0.3-1.9,0.5-2.8,0.8c0,0-0.3,1.3-0.2,1.7c0.2,0.8,0.8,1.5,1.5,1.9c1.5,0.9,3.8,0.6,5.3-0.3c1.1-0.7,1.6-2.2,0.6-3.2
				c-1.3-1.3-3.6,0.1-4.4-1.8c-0.4,0.8-0.9,1.5-1.3,2.3c1.5-0.1,3.1-0.2,4.6-0.3c1.4-0.1,3-0.4,4.3,0.2
				C567.2,27.1,568,24.2,566.2,23.4L566.2,23.4z"/>
		</g>
	</g>
	<g>
		<g>
			<path fill="#373737" d="M540.7,10.5c-3.4-0.9-7.6,0.1-8.3,4.1c-0.7,3.7,3.3,5.9,6.3,6.7c3.4,0.9,7.3-0.4,7.9-4.3
				c0.2-1.8-0.3-3.6-1-5.2c-0.7-1.7-2-2.5-3.6-3.1c-3.3-1.4-7.2-0.9-8.7,2.8c-1.3,3.4,0.9,6.6,4,7.8c3.1,1.2,6.8,0.3,7.6-3.3
				c0.3-1.3,0.2-3.1-0.9-4.1c-1.3-1.1-3.7-0.9-5.3-0.6c-1.6,0.3-3.5,1.1-3.4,3c0.1,1.7,1.6,2.4,3,2.7c1.6,0.4,3.8,0.6,4.5-1.3
				c0.7-1.7-0.6-3.2-2.3-3.1c-1.9,0-1.9,3,0,3c0.2,0,0.3,0,0.5,0c-0.4-0.1-0.7-0.3-1.1-0.4c0,0.1,0.1,0.1,0.1,0.2
				c0.1-0.4,0.1-0.8,0.2-1.2c-0.4,0.1-0.8,0.1-1.1-0.1c-0.5-0.3-0.6-0.2-0.3,0.2c0.6,0,1.8-0.5,2.5-0.2c0.9,0.4,1,1.6,0.1,2.4
				c-0.7,0.6-1.8,0.4-2.6,0.2c-1.6-0.5-3.3-1.8-2.9-3.6c0.5-2.6,3.2-2.3,5.1-1.5c1.7,0.7,2.3,2.2,2.6,4c0.3,2.5-1.5,3.4-3.7,2.9
				c-1.4-0.3-3.6-1-4.2-2.3c-1.4-2.7,2.6-3.2,4.3-2.7C541.8,13.9,542.6,11,540.7,10.5L540.7,10.5z"/>
		</g>
	</g>
	<g>
		<g>
			<path fill="#373737" d="M537.6,20.3c3.3,8.5,2.3,19.6-1.2,27.7c-0.7,1.8,1.8,3.3,2.6,1.5c3.8-9,5.1-20.7,1.5-30
				C539.8,17.7,536.9,18.5,537.6,20.3L537.6,20.3z"/>
		</g>
	</g>
	<g>
		<g>
			<path fill="#373737" d="M537.8,49.5c1.1,2.9,2.5,5.8,3.4,8.8c1.1,3.5,0.6,6.9,0.3,10.5c-0.2,1.9,2.8,1.9,3,0
				c0.3-3.3,0.9-6.7,0.1-10c-0.9-3.4-2.6-6.8-3.9-10.1C540,47,537.1,47.7,537.8,49.5L537.8,49.5z"/>
		</g>
	</g>
	<g>
		<g>
			<path fill="#373737" d="M536.1,49.1c0.7,6.2-1,12.7-2.2,18.8c-0.4,1.9,2.5,2.7,2.9,0.8c1.3-6.3,3.1-13.1,2.3-19.6
				C538.9,47.3,535.9,47.2,536.1,49.1L536.1,49.1z"/>
		</g>
	</g>
	<g>
		<g>
			<path fill="#373737" d="M541,30.3c5.9-0.5,11.9-0.8,17.8-0.9c1.9,0,1.9-3,0-3c-6,0-11.9,0.3-17.8,0.9
				C539.1,27.5,539.1,30.5,541,30.3L541,30.3z"/>
		</g>
	</g>
	<g>
		<g>
			<path fill="#373737" d="M541.1,32.3c2.2,1.1,5.2-0.3,7.6-0.6c3.3-0.4,6.6-1,9.9-1.8c1.9-0.4,1.1-3.3-0.8-2.9
				c-2.7,0.6-5.5,1.1-8.3,1.5c-1.4,0.2-2.9,0.3-4.3,0.5c-0.6,0.1-2,0.8-2.5,0.6C540.8,28.9,539.3,31.5,541.1,32.3L541.1,32.3z"/>
		</g>
	</g>
</g>
</svg>
