<?xml version="1.0" encoding="utf-8"?>
<!-- Generator: Adobe Illustrator 22.1.0, SVG Export Plug-In . SVG Version: 6.00 Build 0)  -->
<svg version="1.1" xmlns="http://www.w3.org/2000/svg" xmlns:xlink="http://www.w3.org/1999/xlink" x="0px" y="0px" width="648px"
	 height="72px" viewBox="0 0 648 72" enable-background="new 0 0 648 72" xml:space="preserve">
<g id="Calque_1">
	<g>
		<g>
			<path fill="#373737" d="M44.7,14.5C37.9,22,34.2,31.2,33.9,41.3c-0.1,1.9,2.9,1.9,3,0c0.3-9.3,3.6-17.8,9.9-24.7
				C48.1,15.2,46,13.1,44.7,14.5L44.7,14.5z"/>
		</g>
	</g>
	<g>
		<g>
			<path fill="#373737" d="M34.5,42.5c5.3,7,10.6,13.2,9.2,22.6c-0.3,1.9,2.6,2.7,2.9,0.8C48.1,55.5,43,48.8,37.1,41
				C35.9,39.5,33.3,41,34.5,42.5L34.5,42.5z"/>
		</g>
	</g>
	<g>
		<g>
			<path fill="#373737" d="M34,41.5c1.1,4.5,2.2,9.3-0.5,13.3c-2.3,3.4-4.8,6.5-7.5,9.6c-1.3,1.5,0.9,3.6,2.1,2.1
				c3.2-3.7,7.5-8.1,9.4-12.7c1.7-3.9,0.3-9.2-0.7-13.2C36.4,38.9,33.5,39.7,34,41.5L34,41.5z"/>
		</g>
	</g>
	<g>
		<g>
			<path fill="#373737" d="M49.3,5c-4.2,0.4-7.6,3.8-7,8.2c0.6,4.3,4.9,7.3,9,5.5c3.9-1.7,6.4-6,4.1-10c-1-1.7-2.8-3.1-4.8-3.3
				c-2.2-0.2-3.7,1.1-4.9,2.7c-2.1,2.8-2.6,8,2.1,8.3c3.5,0.2,8.4-4.2,5.2-7.6c-2.5-2.6-8.4-0.4-7.2,3.5c1.1,3.5,7.6,0.9,5.3-2.2
				c-1.4-1.8-3.3-0.3-3.9,1.3c-0.7,2,0.2,4.3,2.4,4.7c4.8,1,5.3-7,0.2-6.6c-1.9,0.1-1.9,3.1,0,3c0.2-0.1,0.3-0.3,0.5-0.4
				c-0.5,0-1,0-1.5,0c-0.4-1.2-0.3-1.5,0-1.1c0.5,0.5,1.1,0.8,1.9,0.9c0,0.4-0.9,1-1.2,1.1c-1,0.4-2.4,0.2-2.5-1c0-0.7,0.6-1.5,1-2
				c1-1.3,2.3-2.1,3.8-1c1.3,0.9,1.9,2.6,1.4,4.1c-1,3.1-5.5,4.4-7.3,1.4c-1.7-2.8,0.4-6.2,3.5-6.5C51.2,7.9,51.3,4.9,49.3,5L49.3,5
				z"/>
		</g>
	</g>
	<g>
		<g>
			<path fill="#373737" d="M38.5,23.2c-0.2,2.8-0.3,7.5,1.7,9.8c2,2.2,6.5,1.4,9.1,1.4c1.9,0,1.9-3,0-3c-1.2,0-2.4,0-3.6,0
				c-1.2,0-2.8,0.3-3.5-1c-1.1-2-0.9-5.1-0.7-7.2C41.7,21.2,38.7,21.3,38.5,23.2L38.5,23.2z"/>
		</g>
	</g>
	<g>
		<g>
			<path fill="#373737" d="M39.6,24.8c1.6,2,3.3,5.6,6.2,5.8c2.9,0.2,6.5-2,9.1-3.1c1.8-0.7,1-3.6-0.8-2.9c-2.2,0.9-4.6,2.3-6.9,2.7
				c-2.6,0.5-4.1-2.9-5.5-4.7C40.5,21.2,38.4,23.3,39.6,24.8L39.6,24.8z"/>
		</g>
	</g>
	<g>
		<g>
			<path fill="#B3B3B3" d="M50.3,34.7c3.3,0,6.7,0,10,0c1.9,0,1.9-3,0-3c-3.3,0-6.7,0-10,0C48.4,31.7,48.4,34.7,50.3,34.7L50.3,34.7
				z"/>
		</g>
	</g>
</g>
<g id="Calque_2">
	<g>
		<g>
			<path fill="#373737" d="M121,5.4c-4.2,0.4-7.6,3.8-7,8.2c0.6,4.3,4.9,7.3,9,5.5c3.9-1.7,6.4-6,4.1-10c-1-1.7-2.8-3.1-4.8-3.3
				c-2.2-0.2-3.7,1.1-4.9,2.7c-2.1,2.8-2.6,8,2.1,8.3c3.5,0.2,8.4-4.2,5.2-7.6c-2.5-2.6-8.4-0.4-7.2,3.5c1.1,3.5,7.6,0.9,5.3-2.2
				c-1.4-1.8-3.3-0.3-3.9,1.3c-0.7,2,0.2,4.3,2.4,4.7c4.8,1,5.3-7,0.2-6.6c-1.9,0.1-1.9,3.1,0,3c0.2-0.1,0.3-0.3,0.5-0.4
				c-0.5,0-1,0-1.5,0c-0.4-1.2-0.3-1.5,0-1.1c0.5,0.5,1.1,0.8,1.9,0.9c0,0.4-0.9,1-1.2,1.1c-1,0.4-2.4,0.2-2.5-1c0-0.7,0.6-1.5,1-2
				c1-1.3,2.3-2.1,3.8-1c1.3,0.9,1.9,2.6,1.4,4.1c-1,3.1-5.5,4.4-7.3,1.4c-1.7-2.8,0.4-6.2,3.5-6.5C122.9,8.2,122.9,5.2,121,5.4
				L121,5.4z"/>
		</g>
	</g>
	<g>
		<g>
			<path fill="#B3B3B3" d="M127.3,25.2c2.9-1.6,5.9-3.1,8.8-4.7c1.7-0.9,0.2-3.5-1.5-2.6c-2.9,1.6-5.9,3.1-8.8,4.7
				C124.1,23.5,125.6,26.1,127.3,25.2L127.3,25.2z"/>
		</g>
	</g>
	<g>
		<g>
			<path fill="#373737" d="M114.5,14.3c-6.6,6.7-9.1,18.3-8.8,27.4c0.1,1.9,3.1,1.9,3,0c-0.3-8.1,2-19.3,7.9-25.3
				C117.9,15,115.8,12.9,114.5,14.3L114.5,14.3z"/>
		</g>
	</g>
	<g>
		<g>
			<path fill="#373737" d="M107,43c2.2,3.1,5.4,6.5,7.1,10c2,4.1,1.3,10,1.3,14.3c0,1.9,3,1.9,3,0c0-4.4,0.7-9.9-0.8-14.1
				c-1.5-4.2-5.3-8.1-7.9-11.7C108.4,39.9,105.8,41.4,107,43L107,43z"/>
		</g>
	</g>
	<g>
		<g>
			<path fill="#373737" d="M105.4,43.2c1.2,4.5,2.5,9.2,0.8,13.7c-1.3,3.4-4.2,6.2-6.5,8.9c-1.2,1.5,0.9,3.6,2.1,2.1
				c2.8-3.3,6.3-6.6,7.5-10.8c1.5-4.9,0.2-10-1.1-14.7C107.8,40.6,104.9,41.4,105.4,43.2L105.4,43.2z"/>
		</g>
	</g>
	<g>
		<g>
			<path fill="#373737" d="M109.8,22.5c1.3,2.9,2.6,7.2,5.4,9c1.4,1,3.3,1.3,4.9,1.8c2,0.6,4,1.3,6,2c1.8,0.7,2.6-2.2,0.8-2.9
				c-2.9-1-6.1-1.7-8.9-2.8c-3-1.3-4.4-5.8-5.6-8.6C111.6,19.2,109,20.7,109.8,22.5L109.8,22.5z"/>
		</g>
	</g>
	<g>
		<g>
			<path fill="#373737" d="M109.2,22.6c0.4,2.8,0.1,9.6,4.5,9.5c1.7-0.1,3.6-1.4,5-2.2c2.6-1.4,5.1-2.8,7.5-4.3
				c1.6-1,0.1-3.6-1.5-2.6c-2.8,1.7-5.6,3.3-8.5,4.8c-0.5,0.2-1.4,1-1.9,1c-1,0-1-0.6-1.3-1.2c-0.7-1.5-0.6-4.1-0.9-5.7
				C111.8,19.9,108.9,20.7,109.2,22.6L109.2,22.6z"/>
		</g>
	</g>
</g>
<g id="Calque_3">
	<g>
		<g>
			<path fill="#373737" d="M187,2.4c-4.2,0.4-7.6,3.8-7,8.2c0.6,4.3,4.9,7.3,9,5.5c3.9-1.7,6.4-6,4.1-10c-1-1.7-2.8-3.1-4.8-3.3
				c-2.2-0.2-3.7,1.1-4.9,2.7c-2.1,2.8-2.6,8,2.1,8.3c3.5,0.2,8.4-4.2,5.2-7.6c-2.5-2.6-8.4-0.4-7.2,3.5c1.1,3.5,7.6,0.9,5.3-2.2
				c-1.4-1.8-3.3-0.3-3.9,1.3c-0.7,2,0.2,4.3,2.4,4.7c4.8,1,5.3-7,0.2-6.6c-1.9,0.1-1.9,3.1,0,3c0.2-0.1,0.3-0.3,0.5-0.4
				c-0.5,0-1,0-1.5,0c-0.4-1.2-0.3-1.5,0-1.1c0.5,0.5,1.1,0.8,1.9,0.9c0,0.4-0.9,1-1.2,1.1c-1,0.4-2.4,0.2-2.5-1c0-0.7,0.6-1.5,1-2
				c1-1.3,2.3-2.1,3.8-1c1.3,0.9,1.9,2.6,1.4,4.1c-1,3.1-5.5,4.4-7.3,1.4c-1.7-2.8,0.4-6.2,3.5-6.5C188.9,5.2,188.9,2.2,187,2.4
				L187,2.4z"/>
		</g>
	</g>
	<g>
		<g>
			<path fill="#B3B3B3" d="M205.3,21.7c-2-2.6-4.1-5.3-6.1-7.9c-1.2-1.5-3.8,0-2.6,1.5c2,2.6,4.1,5.3,6.1,7.9
				C203.9,24.7,206.5,23.2,205.3,21.7L205.3,21.7z"/>
		</g>
	</g>
	<g>
		<g>
			<path fill="#373737" d="M182.7,14.4c-5.6,8.4-5.3,18.6-5.9,28.4c-0.1,1.9,2.9,1.9,3,0c0.6-9.2,0.2-18.9,5.5-26.9
				C186.3,14.3,183.8,12.8,182.7,14.4L182.7,14.4z"/>
		</g>
	</g>
	<g>
		<g>
			<path fill="#373737" d="M178,44.5c7.1,5.2,9.3,16.6,9.2,24.8c0,1.9,3,1.9,3,0c0.1-9.4-2.6-21.5-10.6-27.4
				C177.9,40.8,176.4,43.4,178,44.5L178,44.5z"/>
		</g>
	</g>
	<g>
		<g>
			<path fill="#373737" d="M176.9,42.6c-1.9,9.3-8,16.9-13.1,24.6c-1.1,1.6,1.5,3.1,2.6,1.5c5.3-7.9,11.5-15.8,13.4-25.3
				C180.2,41.5,177.3,40.7,176.9,42.6L176.9,42.6z"/>
		</g>
	</g>
	<g>
		<g>
			<path fill="#373737" d="M179.9,23.1c3.6,2,6.1,8.3,10.8,7.8c5-0.6,11.1-4.2,14.8-7.4c1.5-1.3-0.7-3.4-2.1-2.1
				c-2.9,2.5-9.6,7-13.6,6.1c-3-0.7-5.4-5.3-8.3-7C179.7,19.6,178.2,22.2,179.9,23.1L179.9,23.1z"/>
		</g>
	</g>
	<g>
		<g>
			<path fill="#373737" d="M180,23.3c1.6,0,2.7,0.5,3.9,1.4c0.6,0.5,1.3,0.9,2.1,0.9c2,0.1,4.1-2.1,5.5-3.2c1.6-1.1,0.1-3.7-1.5-2.6
				c-0.9,0.6-1.8,1.3-2.7,1.9c-1.2,0.8-1.3,0.7-2.4,0c-1.5-1-3.1-1.5-5-1.5C178.1,20.3,178.1,23.3,180,23.3L180,23.3z"/>
		</g>
	</g>
</g>
<g id="Calque_4">
	<g>
		<g>
			<path fill="#373737" d="M259,2.4c-4.2,0.4-7.6,3.8-7,8.2c0.6,4.3,4.9,7.3,9,5.5c3.9-1.7,6.4-6,4.1-10c-1-1.7-2.8-3.1-4.8-3.3
				c-2.2-0.2-3.7,1.1-4.9,2.7c-2.1,2.8-2.6,8,2.1,8.3c3.5,0.2,8.4-4.2,5.2-7.6c-2.5-2.6-8.4-0.4-7.2,3.5c1.1,3.5,7.6,0.9,5.3-2.2
				c-1.4-1.8-3.3-0.3-3.9,1.3c-0.7,2,0.2,4.3,2.4,4.7c4.8,1,5.3-7,0.2-6.6c-1.9,0.1-1.9,3.1,0,3c0.2-0.1,0.3-0.3,0.5-0.4
				c-0.5,0-1,0-1.5,0c-0.4-1.2-0.3-1.5,0-1.1c0.5,0.5,1.1,0.8,1.9,0.9c0,0.4-0.9,1-1.2,1.1c-1,0.4-2.4,0.2-2.5-1c0-0.7,0.6-1.5,1-2
				c1-1.3,2.3-2.1,3.8-1c1.3,0.9,1.9,2.6,1.4,4.1c-1,3.1-5.5,4.4-7.3,1.4c-1.7-2.8,0.4-6.2,3.5-6.5C260.9,5.2,260.9,2.2,259,2.4
				L259,2.4z"/>
		</g>
	</g>
	<g>
		<g>
			<path fill="#B3B3B3" d="M276,29.5c3.3-0.3,6.6-0.7,9.9-1c1.9-0.2,1.9-3.2,0-3c-3.3,0.3-6.6,0.7-9.9,1
				C274.1,26.7,274.1,29.7,276,29.5L276,29.5z"/>
		</g>
	</g>
	<g>
		<g>
			<path fill="#373737" d="M256.8,14.9c-7.4,6.8-9.1,19.3-8.3,28.7c0.2,1.9,3.2,1.9,3,0c-0.8-8.6,0.6-20.4,7.4-26.6
				C260.3,15.7,258.2,13.6,256.8,14.9L256.8,14.9z"/>
		</g>
	</g>
	<g>
		<g>
			<path fill="#373737" d="M249.5,45c2.4,3.6,5.3,7.1,7,11c1.6,3.7,1.8,8,2.3,12c0.3,1.9,3.2,1.1,2.9-0.8c-0.6-4.1-0.7-8.6-2.4-12.4
				c-1.8-4-4.8-7.7-7.2-11.3C251.1,41.9,248.5,43.4,249.5,45L249.5,45z"/>
		</g>
	</g>
	<g>
		<g>
			<path fill="#373737" d="M248.6,43.1c-0.9,4.2-1.2,9.1-3.1,13c-1.7,3.6-4.5,7-6.7,10.4c-1.1,1.6,1.5,3.1,2.6,1.5
				c2.4-3.7,5.5-7.5,7.2-11.6c1.6-3.9,2-8.4,2.8-12.5C251.9,42,249,41.2,248.6,43.1L248.6,43.1z"/>
		</g>
	</g>
	<g>
		<g>
			<path fill="#373737" d="M253.7,21.8c2.8,2.7,5.8,6.4,9.8,7.2c5.4,1.1,11.6,0.7,17.1,1c1.9,0.1,1.9-2.9,0-3
				c-4.2-0.2-8.5-0.5-12.7-0.7c-5.6-0.3-8.2-3-12-6.6C254.4,18.4,252.3,20.5,253.7,21.8L253.7,21.8z"/>
		</g>
	</g>
	<g>
		<g>
			<path fill="#373737" d="M262.5,19.1c-0.1,0.9-1.4,1.8-2,2.4c-0.7,0.8-1.5,1.5-2.2,2.3c-0.5,0.5-1.6,2.1-2.4,1.2
				c-0.4-0.4,0-2.6-0.1-3.2c-0.1-1.9-3.1-1.9-3,0c0.1,1.8-0.3,3.7,0.8,5.3c0.9,1.3,2.5,1.8,3.9,1.2c1.6-0.7,2.9-2.4,4.1-3.7
				c1.2-1.3,3.5-2.9,3.8-4.7C265.7,18,262.8,17.2,262.5,19.1L262.5,19.1z"/>
		</g>
	</g>
</g>
<g id="Calque_5">
	<g>
		<g>
			<path fill="#373737" d="M327,2.4c-4.2,0.4-7.6,3.8-7,8.2c0.6,4.3,4.9,7.3,9,5.5c3.9-1.7,6.4-6,4.1-10c-1-1.7-2.8-3.1-4.8-3.3
				c-2.2-0.2-3.7,1.1-4.9,2.7c-2.1,2.8-2.6,8,2.1,8.3c3.5,0.2,8.4-4.2,5.2-7.6c-2.5-2.6-8.4-0.4-7.2,3.5c1.1,3.5,7.6,0.9,5.3-2.2
				c-1.4-1.8-3.3-0.3-3.9,1.3c-0.7,2,0.2,4.3,2.4,4.7c4.8,1,5.3-7,0.2-6.6c-1.9,0.1-1.9,3.1,0,3c0.2-0.1,0.3-0.3,0.5-0.4
				c-0.5,0-1,0-1.5,0c-0.4-1.2-0.3-1.5,0-1.1c0.5,0.5,1.1,0.8,1.9,0.9c0,0.4-0.9,1-1.2,1.1c-1,0.4-2.4,0.2-2.5-1c0-0.7,0.6-1.5,1-2
				c1-1.3,2.3-2.1,3.8-1c1.3,0.9,1.9,2.6,1.4,4.1c-1,3.1-5.5,4.4-7.3,1.4c-1.7-2.8,0.4-6.2,3.5-6.5C328.9,5.2,328.9,2.2,327,2.4
				L327,2.4z"/>
		</g>
	</g>
	<g>
		<g>
			<path fill="#B3B3B3" d="M314.4,21.1c2.4,2.3,4.8,4.7,7.1,7c1.4,1.4,3.5-0.8,2.1-2.1c-2.4-2.3-4.8-4.7-7.1-7
				C315.1,17.6,313,19.7,314.4,21.1L314.4,21.1z"/>
		</g>
	</g>
	<g>
		<g>
			<path fill="#373737" d="M324.1,14.8c-3.4,9.8-4.3,19.9-2.7,30.2c0.3,1.9,3.2,1.1,2.9-0.8c-1.5-9.7-0.6-19.3,2.7-28.6
				C327.7,13.8,324.8,13,324.1,14.8L324.1,14.8z"/>
		</g>
	</g>
	<g>
		<g>
			<path fill="#373737" d="M322.4,46.5c3.6,2.3,10.1,5,11,9.7c0.7,3.8,0,8.3,0,12.2c0,1.9,3,1.9,3,0c0-3.2,0-6.4,0-9.5
				c0-1.8,0.3-4-0.4-5.7c-1.6-4.2-8.5-6.9-12.1-9.2C322.3,42.9,320.8,45.5,322.4,46.5L322.4,46.5z"/>
		</g>
	</g>
	<g>
		<g>
			<path fill="#373737" d="M321.4,44.7c1.1,2.8-1.2,9.4-2.2,12c-1.4,4-3.4,7.3-6.6,10.1c-1.5,1.3,0.7,3.4,2.1,2.1
				c3.6-3.1,5.9-6.9,7.4-11.4c1.2-3.6,3.6-9.9,2.2-13.6C323.6,42.1,320.7,42.9,321.4,44.7L321.4,44.7z"/>
		</g>
	</g>
	<g>
		<g>
			<path fill="#373737" d="M323.5,18.7c0.8,2.2,1.5,4.3,2.1,6.6c0.3,1,0.5,2.1,0.7,3.1c0.1,0.7,0.9,2.7,0.6,3.3
				c0.4-0.2,0.9-0.5,1.3-0.7c-0.9,0.1-5-4.6-5.4-5.3c-1-1.7-3.6-0.1-2.6,1.5c1.3,2.1,3.9,4.5,5.9,6.1c1,0.8,2.5,1.3,3.4,0
				c1-1.4,0-4.1-0.3-5.6c-0.7-3.3-1.6-6.5-2.8-9.7C325.7,16.1,322.8,16.9,323.5,18.7L323.5,18.7z"/>
		</g>
	</g>
	<g>
		<g>
			<path fill="#373737" d="M323.9,18.5c-0.2,2.3-0.6,4.7-0.4,7c0.1,1.5,1.3,2.8,2.9,2.4c1.6-0.4,2.7-2.4,3.7-3.6
				c1.2-1.6,2.5-3.2,4.3-4.1c1.7-0.9,0.2-3.5-1.5-2.6c-2.5,1.3-4,3.5-5.7,5.6c-0.3,0.4-1.2,1.1-1.3,1.5c-0.3,0.2-0.2,0.3,0.2,0.4
				c0.3,0.3,0.4,0.3,0.4,0c0.1-0.2,0.1-0.9,0.1-1.1c0.1-1.8,0.3-3.6,0.4-5.5C327.1,16.6,324.1,16.6,323.9,18.5L323.9,18.5z"/>
		</g>
	</g>
</g>
<g id="Calque_6">
	<g>
		<g>
			<path fill="#373737" d="M410,4.4c-4.2,0.4-7.6,3.8-7,8.2c0.6,4.3,4.9,7.3,9,5.5c3.9-1.7,6.4-6,4.1-10c-1-1.7-2.8-3.1-4.8-3.3
				c-2.2-0.2-3.7,1.1-4.9,2.7c-2.1,2.8-2.6,8,2.1,8.3c3.5,0.2,8.4-4.2,5.2-7.6c-2.5-2.6-8.4-0.4-7.2,3.5c1.1,3.5,7.6,0.9,5.3-2.2
				c-1.4-1.8-3.3-0.3-3.9,1.3c-0.7,2,0.2,4.3,2.4,4.7c4.8,1,5.3-7,0.2-6.6c-1.9,0.1-1.9,3.1,0,3c0.2-0.1,0.3-0.3,0.5-0.4
				c-0.5,0-1,0-1.5,0c-0.4-1.2-0.3-1.5,0-1.1c0.5,0.5,1.1,0.8,1.9,0.9c0,0.4-0.9,1-1.2,1.1c-1,0.4-2.4,0.2-2.5-1c0-0.7,0.6-1.5,1-2
				c1-1.3,2.3-2.1,3.8-1c1.3,0.9,1.9,2.6,1.4,4.1c-1,3.1-5.5,4.4-7.3,1.4c-1.7-2.8,0.4-6.2,3.5-6.5C411.9,7.2,411.9,4.2,410,4.4
				L410,4.4z"/>
		</g>
	</g>
	<g>
		<g>
			<path fill="#B3B3B3" d="M425.7,18.9c-3,1.6-5.9,3.1-8.9,4.7c-1.7,0.9-0.2,3.5,1.5,2.6c3-1.6,5.9-3.1,8.9-4.7
				C428.9,20.6,427.4,18,425.7,18.9L425.7,18.9z"/>
		</g>
	</g>
	<g>
		<g>
			<path fill="#373737" d="M404.2,16.1c-3,4.7-6.5,8.4-8.4,13.7c-1.8,5-2.6,10.2-3.3,15.4c-0.2,1.9,2.8,1.9,3,0
				c0.6-4.9,1.4-10,3.2-14.7c1.9-5,5.4-8.6,8.1-13C407.8,16,405.2,14.5,404.2,16.1L404.2,16.1z"/>
		</g>
	</g>
	<g>
		<g>
			<path fill="#373737" d="M394,47.2c10.6,3.1,18.8,11.2,21.9,21.8c0.5,1.8,3.4,1.1,2.9-0.8c-3.4-11.6-12.4-20.5-24-23.9
				C392.9,43.8,392.1,46.7,394,47.2L394,47.2z"/>
		</g>
	</g>
	<g>
		<g>
			<path fill="#373737" d="M392.2,45.3c-0.2,9.6-10.4,14.8-15.1,22.2c-1,1.6,1.6,3.2,2.6,1.5c5.1-8.2,15.3-13.1,15.5-23.7
				C395.2,43.4,392.2,43.4,392.2,45.3L392.2,45.3z"/>
		</g>
	</g>
	<g>
		<g>
			<path fill="#373737" d="M401,24c2.1,1.5,3.5,3.5,5.2,5.5c1.1,1.2,2.1,2.6,3.8,3c3.8,0.8,6.5-4,8.5-6.4c1.2-1.5-0.9-3.6-2.1-2.1
				c-1.1,1.3-2.2,2.8-3.4,4c-1.7,1.9-3.2,1.1-4.7-0.7c-1.8-2.1-3.5-4.2-5.8-5.9C401,20.3,399.5,22.9,401,24L401,24z"/>
		</g>
	</g>
	<g>
		<g>
			<path fill="#373737" d="M400,21.1c-2.6,1-5.2,2.1-7.7,3.4c-1.9,1-4.7,2.1-5.6,4.2c-2.2,5,5.9,4.8,8.7,5c1.9,0.2,1.9-2.8,0-3
				c-1.3-0.1-2.9-0.1-4.2-0.4c-0.8-0.2-1.8-0.1-1-1.1c0.4-0.5,1.5-0.9,2-1.2c2.8-1.5,5.6-2.8,8.6-3.9
				C402.6,23.3,401.8,20.4,400,21.1L400,21.1z"/>
		</g>
	</g>
</g>
<g id="Calque_7">
	<g>
		<g>
			<path fill="#373737" d="M472,0.4c-4.2,0.4-7.6,3.8-7,8.2c0.6,4.3,4.9,7.3,9,5.5c3.9-1.7,6.4-6,4.1-10c-1-1.7-2.8-3.1-4.8-3.3
				c-2.2-0.2-3.7,1.1-4.9,2.7c-2.1,2.8-2.6,8,2.1,8.3c3.5,0.2,8.4-4.2,5.2-7.6c-2.5-2.6-8.4-0.4-7.2,3.5c1.1,3.5,7.6,0.9,5.3-2.2
				c-1.4-1.8-3.3-0.3-3.9,1.3c-0.7,2,0.2,4.3,2.4,4.7c4.8,1,5.3-7,0.2-6.6c-1.9,0.1-1.9,3.1,0,3c0.2-0.1,0.3-0.3,0.5-0.4
				c-0.5,0-1,0-1.5,0c-0.4-1.2-0.3-1.5,0-1.1c0.5,0.5,1.1,0.8,1.9,0.9c0,0.4-0.9,1-1.2,1.1c-1,0.4-2.4,0.2-2.5-1c0-0.7,0.6-1.5,1-2
				c1-1.3,2.3-2.1,3.8-1c1.3,0.9,1.9,2.6,1.4,4.1c-1,3.1-5.5,4.4-7.3,1.4c-1.7-2.8,0.4-6.2,3.5-6.5C473.9,3.2,473.9,0.2,472,0.4
				L472,0.4z"/>
		</g>
	</g>
	<g>
		<g>
			<path fill="#B3B3B3" d="M500.5,15.9c-3.2,0.8-6.5,1.6-9.7,2.4c-1.9,0.5-1.1,3.4,0.8,2.9c3.2-0.8,6.5-1.6,9.7-2.4
				C503.1,18.3,502.3,15.4,500.5,15.9L500.5,15.9z"/>
		</g>
	</g>
	<g>
		<g>
			<path fill="#373737" d="M469.5,13.3c-4.2,10.5-5.7,21.6-4.4,32.8c0.2,1.9,3.2,1.9,3,0c-1.3-11,0.1-21.7,4.3-32
				C473.1,12.3,470.2,11.6,469.5,13.3L469.5,13.3z"/>
		</g>
	</g>
	<g>
		<g>
			<path fill="#373737" d="M466,46.5c7.9,7.7,18,13.3,24,22.8c1,1.6,3.6,0.1,2.6-1.5c-6.1-9.8-16.3-15.5-24.4-23.4
				C466.7,43,464.6,45.1,466,46.5L466,46.5z"/>
		</g>
	</g>
	<g>
		<g>
			<path fill="#373737" d="M464.4,46.4c0.1,1.8-4.5,5-5.7,6c-1.8,1.6-3.7,3.2-5.4,5c-3,3-5.5,6.3-7.1,10.2c-0.8,1.8,1.8,3.3,2.6,1.5
				c2.3-5.3,6.2-9.3,10.4-13.1c2.6-2.3,8.5-5.7,8.2-9.6C467.2,44.5,464.2,44.4,464.4,46.4L464.4,46.4z"/>
		</g>
	</g>
	<g>
		<g>
			<path fill="#373737" d="M469,23.1c4.2-0.4,8.1,1.9,12.5,1.5c4.1-0.4,7.9-2,11.6-3.6c1.8-0.8,0.2-3.3-1.5-2.6
				c-4.2,1.8-8.6,3.6-13.3,3.2c-3.2-0.3-6-1.8-9.3-1.5C467.1,20.2,467.1,23.2,469,23.1L469,23.1z"/>
		</g>
	</g>
	<g>
		<g>
			<path fill="#373737" d="M466.7,19c-3.7,2.7-8.8,6.3-10.7,10.6c-2.2,5.1,3.3,5.7,7,6c1.9,0.2,1.9-2.8,0-3c-1.1-0.1-3.8,0-4.3-1
				c-0.6-1.1,1.9-3.3,2.7-4.1c2.1-2.2,4.4-4.2,6.8-5.9C469.8,20.5,468.3,17.9,466.7,19L466.7,19z"/>
		</g>
	</g>
</g>
<g id="Calque_8">
	<g>
		<g>
			<path fill="#373737" d="M538,1.4c-4.2,0.4-7.6,3.8-7,8.2c0.6,4.3,4.9,7.3,9,5.5c3.9-1.7,6.4-6,4.1-10c-1-1.7-2.8-3.1-4.8-3.3
				c-2.2-0.2-3.7,1.1-4.9,2.7c-2.1,2.8-2.6,8,2.1,8.3c3.5,0.2,8.4-4.2,5.2-7.6c-2.5-2.6-8.4-0.4-7.2,3.5c1.1,3.5,7.6,0.9,5.3-2.2
				c-1.4-1.8-3.3-0.3-3.9,1.3c-0.7,2,0.2,4.3,2.4,4.7c4.8,1,5.3-7,0.2-6.6c-1.9,0.1-1.9,3.1,0,3c0.2-0.1,0.3-0.3,0.5-0.4
				c-0.5,0-1,0-1.5,0c-0.4-1.2-0.3-1.5,0-1.1c0.5,0.5,1.1,0.8,1.9,0.9c0,0.4-0.9,1-1.2,1.1c-1,0.4-2.4,0.2-2.5-1c0-0.7,0.6-1.5,1-2
				c1-1.3,2.3-2.1,3.8-1c1.3,0.9,1.9,2.6,1.4,4.1c-1,3.1-5.5,4.4-7.3,1.4c-1.7-2.8,0.4-6.2,3.5-6.5C539.9,4.2,539.9,1.2,538,1.4
				L538,1.4z"/>
		</g>
	</g>
	<g>
		<g>
			<path fill="#B3B3B3" d="M554.2,14.4c-1.7,2.9-3.3,5.8-5,8.7c-1,1.7,1.6,3.2,2.6,1.5c1.7-2.9,3.3-5.8,5-8.7
				C557.8,14.2,555.2,12.7,554.2,14.4L554.2,14.4z"/>
		</g>
	</g>
	<g>
		<g>
			<path fill="#373737" d="M535.6,15.4c-1.3,10.5-2.4,21.1,0.8,31.3c0.6,1.8,3.5,1.1,2.9-0.8c-3.1-10-1.9-20.3-0.7-30.5
				C538.8,13.5,535.8,13.5,535.6,15.4L535.6,15.4z"/>
		</g>
	</g>
	<g>
		<g>
			<path fill="#373737" d="M536.9,47.2c1.5,3.1,3.9,6,5.2,9.2c1.4,3.5-0.3,8.1-1,11.7c-0.4,1.9,2.5,2.7,2.9,0.8
				c0.7-3.5,2.4-7.9,1.7-11.5c-0.8-4.1-4.3-8-6.1-11.7C538.7,43.9,536.1,45.5,536.9,47.2L536.9,47.2z"/>
		</g>
	</g>
	<g>
		<g>
			<path fill="#373737" d="M536.5,45.1c-1.7,5.7-7.3,7.8-11.5,11.2c-3.7,3-5.4,6.8-7,11.2c-0.7,1.8,2.2,2.6,2.9,0.8
				c1.1-3.2,2.3-6.2,4.7-8.6c2-1.9,4.4-3.3,6.6-4.8c3.3-2.3,6-5,7.1-9C539.9,44,537.1,43.2,536.5,45.1L536.5,45.1z"/>
		</g>
	</g>
	<g>
		<g>
			<path fill="#373737" d="M534.9,21.9c1.2,3.1,3.3,7.9,6.7,9.2c1.5,0.6,2.9,0.1,4.1-0.8c2-1.5,3.6-3.5,5.7-4.9
				c1.6-1.1,0.1-3.7-1.5-2.6c-1.1,0.7-2.1,1.5-3.1,2.3c-0.8,0.7-2.2,2.7-3.2,3c-2.6,0.8-5.1-5.4-5.7-7.1
				C537.1,19.3,534.2,20.1,534.9,21.9L534.9,21.9z"/>
		</g>
	</g>
	<g>
		<g>
			<path fill="#373737" d="M534,21.1c-1.1,3.3-3.2,7.3-1.4,10.7c1.7,3.2,5.2,5.2,8.1,7.1c1.6,1,3.2-1.6,1.5-2.6
				c-2.2-1.3-4.5-2.7-6.2-4.7c-2.3-2.8-0.2-6.7,0.8-9.6C537.5,20.1,534.6,19.3,534,21.1L534,21.1z"/>
		</g>
	</g>
</g>
<g id="Calque_9">
	<g>
		<g>
			<path fill="#373737" d="M613.3,14.8c-6.8,7.5-10.5,16.7-10.7,26.8c-0.1,1.9,2.9,1.9,3,0c0.3-9.3,3.6-17.8,9.9-24.7
				C616.7,15.5,614.6,13.4,613.3,14.8L613.3,14.8z"/>
		</g>
	</g>
	<g>
		<g>
			<path fill="#373737" d="M603.2,42.8c5.3,7,10.6,13.2,9.2,22.6c-0.3,1.9,2.6,2.7,2.9,0.8c1.5-10.3-3.6-17.1-9.5-24.9
				C604.6,39.8,602,41.3,603.2,42.8L603.2,42.8z"/>
		</g>
	</g>
	<g>
		<g>
			<path fill="#373737" d="M602.6,41.9c1.1,4.5,2.2,9.3-0.5,13.3c-2.3,3.4-4.8,6.5-7.5,9.6c-1.3,1.5,0.9,3.6,2.1,2.1
				c3.2-3.7,7.5-8.1,9.4-12.7c1.7-3.9,0.3-9.2-0.7-13.2C605,39.2,602.2,40,602.6,41.9L602.6,41.9z"/>
		</g>
	</g>
	<g>
		<g>
			<path fill="#373737" d="M618,5.4c-4.2,0.4-7.6,3.8-7,8.2c0.6,4.3,4.9,7.3,9,5.5c3.9-1.7,6.4-6,4.1-10c-1-1.7-2.8-3.1-4.8-3.3
				c-2.2-0.2-3.7,1.1-4.9,2.7c-2.1,2.8-2.6,8,2.1,8.3c3.5,0.2,8.4-4.2,5.2-7.6c-2.5-2.6-8.4-0.4-7.2,3.5c1.1,3.5,7.6,0.9,5.3-2.2
				c-1.4-1.8-3.3-0.3-3.9,1.3c-0.7,2,0.2,4.3,2.4,4.7c4.8,1,5.3-7,0.2-6.6c-1.9,0.1-1.9,3.1,0,3c0.2-0.1,0.3-0.3,0.5-0.4
				c-0.5,0-1,0-1.5,0c-0.4-1.2-0.3-1.5,0-1.1c0.5,0.5,1.1,0.8,1.9,0.9c0,0.4-0.9,1-1.2,1.1c-1,0.4-2.4,0.2-2.5-1c0-0.7,0.6-1.5,1-2
				c1-1.3,2.3-2.1,3.8-1c1.3,0.9,1.9,2.6,1.4,4.1c-1,3.1-5.5,4.4-7.3,1.4c-1.7-2.8,0.4-6.2,3.5-6.5C619.9,8.2,619.9,5.2,618,5.4
				L618,5.4z"/>
		</g>
	</g>
	<g>
		<g>
			<path fill="#373737" d="M607.2,23.5c-0.2,2.8-0.3,7.5,1.7,9.8c2,2.2,6.5,1.4,9.1,1.4c1.9,0,1.9-3,0-3c-1.2,0-2.4,0-3.6,0
				c-1.2,0-2.8,0.3-3.5-1c-1.1-2-0.9-5.1-0.7-7.2C610.3,21.6,607.3,21.6,607.2,23.5L607.2,23.5z"/>
		</g>
	</g>
	<g>
		<g>
			<path fill="#373737" d="M608.2,25.1c1.6,2,3.3,5.6,6.2,5.8c2.9,0.2,6.5-2,9.1-3.1c1.8-0.7,1-3.6-0.8-2.9
				c-2.2,0.9-4.6,2.3-6.9,2.7c-2.6,0.5-4.1-2.9-5.5-4.7C609.2,21.5,607.1,23.6,608.2,25.1L608.2,25.1z"/>
		</g>
	</g>
	<g>
		<g>
			<path fill="#B3B3B3" d="M619,35c3.3,0,6.7,0,10,0c1.9,0,1.9-3,0-3c-3.3,0-6.7,0-10,0C617.1,32,617.1,35,619,35L619,35z"/>
		</g>
	</g>
</g>
</svg>
