<?xml version="1.0" encoding="utf-8"?>
<!-- Generator: Adobe Illustrator 22.1.0, SVG Export Plug-In . SVG Version: 6.00 Build 0)  -->
<svg version="1.1" xmlns="http://www.w3.org/2000/svg" xmlns:xlink="http://www.w3.org/1999/xlink" x="0px" y="0px" width="648px"
	 height="72px" viewBox="0 0 648 72" enable-background="new 0 0 648 72" xml:space="preserve">
<g id="reperes">
</g>
<g id="Calque_2">
	<g>
		<g>
			<path fill="#373737" d="M38.4,9c-2.8-0.9-5.1,1.2-5.9,3.7c-0.8,2.7,0.3,5,2.8,6.1c2,0.9,4.7,1.1,6.5-0.4c1.9-1.6,2.2-4.9,1.4-7.2
				c-0.8-2.2-3.1-3.5-5.4-2.9c-2.3,0.6-4.7,3.2-4.2,5.7c0.5,2.5,3.8,3.5,5.9,2.3c2.1-1.2,2.6-4.4,0.4-5.8c-2.3-1.5-5.1,0.7-4.4,3.2
				c0.6,2.3,4,5.1,6.1,2.8c1.3-1.4-0.8-3.6-2.1-2.1c0.1-0.2-0.3-0.4-0.6-0.7c-0.8-0.8-0.1-0.4-0.9,0c-0.7,0.3-1.5,0.1-1.3-0.9
				c0.1-0.4,0.5-0.8,0.8-1c0.6-0.5,1.6-0.9,2.3-0.3c0.8,0.6,0.8,1.9,0.7,2.7c-0.1,2.2-1.7,2.7-3.6,2.1c-1.1-0.4-1.9-1-1.7-2.3
				c0.2-1.1,1-2.5,2.3-2.1C39.4,12.5,40.2,9.6,38.4,9L38.4,9z"/>
		</g>
	</g>
	<g>
		<g>
			<path fill="#373737" d="M35.5,16.7c-2.1,3.7-3.3,7.7-3,12c0.4,5.1,2.9,9.7,2.2,15c-0.2,1.9,2.8,1.9,3,0c0.5-3.7-0.5-7-1.4-10.6
				c-1.3-5.3-1-10,1.7-14.8C39.1,16.5,36.5,15,35.5,16.7L35.5,16.7z"/>
		</g>
	</g>
	<g>
		<g>
			<path fill="#373737" d="M36.5,44.8c7.4,5,10.6,13.3,13.4,21.4c0.6,1.8,3.5,1,2.9-0.8c-3.1-8.9-6.7-17.8-14.8-23.2
				C36.4,41.1,34.9,43.7,36.5,44.8L36.5,44.8z"/>
		</g>
	</g>
	<g>
		<g>
			<path fill="#373737" d="M33.8,43.4c-1.4,4.3-2.9,8.5-5.9,12c-2.6,3.1-5.3,6.1-7.7,9.4c-1.2,1.5,1.4,3,2.6,1.5
				c2.9-3.8,6.5-7.3,9.2-11.2c2.3-3.3,3.5-7.1,4.8-10.9C37.3,42.4,34.4,41.6,33.8,43.4L33.8,43.4z"/>
		</g>
	</g>
	<g>
		<g>
			<path fill="#373737" d="M34.5,25.5c2.1,1.8,4.2,4.4,7,4.9c4,0.7,8.5,0.4,12.6,0.5c1.9,0.1,1.9-2.9,0-3c-3.1-0.1-6.2-0.2-9.3-0.3
				c-3.8-0.1-5.5-1.8-8.2-4.2C35.2,22.1,33.1,24.2,34.5,25.5L34.5,25.5z"/>
		</g>
	</g>
	<g>
		<g>
			<path fill="#373737" d="M34.1,21.5c-2.7,0.9-5.1,3-7.4,4.7c-2.5,2-5,4-7.3,6.2c-1.4,1.3,0.7,3.4,2.1,2.1c2.1-2,4.2-3.8,6.5-5.6
				c2-1.6,4.4-3.8,6.9-4.6C36.7,23.8,35.9,20.9,34.1,21.5L34.1,21.5z"/>
		</g>
	</g>
	<g>
		<g>
			<path fill="#B3B3B3" d="M18.4,33.1c-4.2,4-8.4,8-12.7,11.9c-1.4,1.3,0.7,3.4,2.1,2.1c4.3-3.9,8.5-8,12.7-11.9
				C21.9,33.9,19.8,31.7,18.4,33.1L18.4,33.1z"/>
		</g>
	</g>
</g>
<g id="Calque_3">
	<g>
		<g>
			<path fill="#373737" d="M107.4,9c-2.8-0.9-5.1,1.2-5.9,3.7c-0.8,2.7,0.3,5,2.8,6.1c2,0.9,4.7,1.1,6.5-0.4
				c1.9-1.6,2.2-4.9,1.4-7.2c-0.8-2.2-3.1-3.5-5.4-2.9c-2.3,0.6-4.7,3.2-4.2,5.7c0.5,2.5,3.8,3.5,5.9,2.3c2.1-1.2,2.6-4.4,0.4-5.8
				c-2.3-1.5-5.1,0.7-4.4,3.2c0.6,2.3,4,5.1,6.1,2.8c1.3-1.4-0.8-3.6-2.1-2.1c0.1-0.2-0.3-0.4-0.6-0.7c-0.8-0.8-0.1-0.4-0.9,0
				c-0.7,0.3-1.5,0.1-1.3-0.9c0.1-0.4,0.5-0.8,0.8-1c0.6-0.5,1.6-0.9,2.3-0.3c0.8,0.6,0.8,1.9,0.7,2.7c-0.1,2.2-1.7,2.7-3.6,2.1
				c-1.1-0.4-1.9-1-1.7-2.3c0.2-1.1,1-2.5,2.3-2.1C108.4,12.5,109.2,9.6,107.4,9L107.4,9z"/>
		</g>
	</g>
	<g>
		<g>
			<path fill="#B3B3B3" d="M88.1,27.2c-2.5-5.3-5-10.5-7.4-15.8c-0.8-1.8-3.4-0.2-2.6,1.5c2.4,5.3,4.9,10.6,7.4,15.8
				C86.3,30.5,88.9,29,88.1,27.2L88.1,27.2z"/>
		</g>
	</g>
	<g>
		<g>
			<path fill="#373737" d="M103.3,18.6c-0.7,4-0.7,7.8,0.4,11.8c1.3,4.8,4,9,3.1,14.2c-0.3,1.9,2.5,2.7,2.9,0.8
				c0.6-3.5,0.1-6.6-1-9.9c-1.9-5.5-3.4-10.1-2.4-16C106.5,17.5,103.6,16.7,103.3,18.6L103.3,18.6z"/>
		</g>
	</g>
	<g>
		<g>
			<path fill="#373737" d="M107.4,46.1c6,6.5,11.4,13.5,16.1,21c1,1.6,3.6,0.1,2.6-1.5c-4.8-7.8-10.4-15-16.6-21.7
				C108.2,42.5,106.1,44.6,107.4,46.1L107.4,46.1z"/>
		</g>
	</g>
	<g>
		<g>
			<path fill="#373737" d="M106,44.2c-3.8,8.6-10.4,14-17.4,19.8c-1.5,1.2,0.6,3.3,2.1,2.1c7.3-6,14-11.6,17.9-20.4
				C109.4,44,106.8,42.5,106,44.2L106,44.2z"/>
		</g>
	</g>
	<g>
		<g>
			<path fill="#373737" d="M105.2,24.3c3.5,1.4,7,2.7,10.4,4.1c-0.3-0.7-0.6-1.5-0.9-2.2c-0.4,0.6-1.7,1-2.3,1.3
				c-1,0.5-2.1,1-3.1,1.5c-1.7,0.8-0.2,3.4,1.5,2.6c2.1-1,5.3-1.8,6.6-3.8c0.6-0.9,0-1.9-0.9-2.2c-3.5-1.4-7-2.7-10.4-4.1
				C104.2,20.7,103.4,23.6,105.2,24.3L105.2,24.3z"/>
		</g>
	</g>
	<g>
		<g>
			<path fill="#373737" d="M103.2,23.1c-2.7,1.5-5.3,2.9-8.4,3.4c-2.7,0.4-5.5,0.2-8.3,0.1c-1.9-0.1-1.9,2.9,0,3
				c6.9,0.4,12.2-0.5,18.2-3.9C106.3,24.7,104.8,22.1,103.2,23.1L103.2,23.1z"/>
		</g>
	</g>
</g>
<g id="Calque_4">
	<g>
		<g>
			<path fill="#373737" d="M193.4,13c-2.8-0.9-5.1,1.2-5.9,3.7c-0.8,2.7,0.3,5,2.8,6.1c2,0.9,4.7,1.1,6.5-0.4
				c1.9-1.6,2.2-4.9,1.4-7.2c-0.8-2.2-3.1-3.5-5.4-2.9c-2.3,0.6-4.7,3.2-4.2,5.7c0.5,2.5,3.8,3.5,5.9,2.3c2.1-1.2,2.6-4.4,0.4-5.8
				c-2.3-1.5-5.1,0.7-4.4,3.2c0.6,2.3,4,5.1,6.1,2.8c1.3-1.4-0.8-3.6-2.1-2.1c0.1-0.2-0.3-0.4-0.6-0.7c-0.8-0.8-0.1-0.4-0.9,0
				c-0.7,0.3-1.5,0.1-1.3-0.9c0.1-0.4,0.5-0.8,0.8-1c0.6-0.5,1.6-0.9,2.3-0.3c0.8,0.6,0.8,1.9,0.7,2.7c-0.1,2.2-1.7,2.7-3.6,2.1
				c-1.1-0.4-1.9-1-1.7-2.3c0.2-1.1,1-2.5,2.3-2.1C194.4,16.5,195.2,13.6,193.4,13L193.4,13z"/>
		</g>
	</g>
	<g>
		<g>
			<path fill="#373737" d="M188.5,20.1c-8,5.3-8.6,17.2-12.8,25c-0.9,1.7,1.7,3.2,2.6,1.5c1.8-3.4,2.5-7.3,4-10.9
				c1.6-4.1,3.9-10.5,7.7-13.1C191.6,21.6,190.1,19,188.5,20.1L188.5,20.1z"/>
		</g>
	</g>
	<g>
		<g>
			<path fill="#373737" d="M177.8,47.7c2.5,0.2,5,0.3,7.5,0.5c1.1,0.1,2.5-0.1,3.6,0.3c2.2,0.7,2.2,2.1,1.9,4.2
				c-0.6,4.7-2.7,9.5-4.1,14c-0.6,1.8,2.3,2.6,2.9,0.8c1.3-4.1,2.5-8.3,3.7-12.5c0.5-2,2-4.9,1.2-6.9c-0.7-1.8-3.3-2.4-5-2.6
				c-3.8-0.6-7.8-0.6-11.6-0.8C175.9,44.6,175.9,47.6,177.8,47.7L177.8,47.7z"/>
		</g>
	</g>
	<g>
		<g>
			<path fill="#373737" d="M175.9,45.4c-0.7,1.4-1.2,2.8-1.5,4.4c-0.4,2.1,0.1,4.3-0.9,6.2c-1.9,3.8-7.4,6.1-11,8.2
				c-1.6,1-0.1,3.6,1.5,2.6c3.6-2.2,8.2-4.2,10.9-7.6c3-3.7,1.6-8.2,3.5-12.3C179.3,45.2,176.8,43.6,175.9,45.4L175.9,45.4z"/>
		</g>
	</g>
	<g>
		<g>
			<path fill="#373737" d="M184.6,24.2c-2.8,0.8-5.5,1.6-8.3,2.5c-2.6,0.8-4.5,1.7-7.4-0.2c-1.1-0.7-2-2-2.8-3
				c-1.2-1.5-3.3,0.6-2.1,2.1c2.2,2.7,4.8,5.7,8.6,5.2c4.3-0.5,8.7-2.5,12.8-3.7C187.3,26.6,186.5,23.7,184.6,24.2L184.6,24.2z"/>
		</g>
	</g>
	<g>
		<g>
			<path fill="#373737" d="M185.4,27.6c2.6,0.4,5.3,2.4,7.6,3.7c2.6,1.4,5.2,2.9,7.7,4.4c1.7,1,3.2-1.6,1.5-2.6
				c-2.9-1.7-5.8-3.4-8.8-5c-2.3-1.2-4.7-3-7.3-3.4C184.4,24.4,183.5,27.3,185.4,27.6L185.4,27.6z"/>
		</g>
	</g>
	<g>
		<g>
			<path fill="#B3B3B3" d="M201.8,32.3c-5.6-1.7-11.1-3.4-16.7-5.3c-1.8-0.6-2.6,2.3-0.8,2.9c5.5,1.8,11.1,3.5,16.7,5.3
				C202.9,35.7,203.7,32.8,201.8,32.3L201.8,32.3z"/>
		</g>
	</g>
</g>
<g id="Calque_5">
	<g>
		<g>
			<path fill="#373737" d="M258.4,10c-2.8-0.9-5.1,1.2-5.9,3.7c-0.8,2.7,0.3,5,2.8,6.1c2,0.9,4.7,1.1,6.5-0.4
				c1.9-1.6,2.2-4.9,1.4-7.2c-0.8-2.2-3.1-3.5-5.4-2.9c-2.3,0.6-4.7,3.2-4.2,5.7c0.5,2.5,3.8,3.5,5.9,2.3c2.1-1.2,2.6-4.4,0.4-5.8
				c-2.3-1.5-5.1,0.7-4.4,3.2c0.6,2.3,4,5.1,6.1,2.8c1.3-1.4-0.8-3.6-2.1-2.1c0.1-0.2-0.3-0.4-0.6-0.7c-0.8-0.8-0.1-0.4-0.9,0
				c-0.7,0.3-1.5,0.1-1.3-0.9c0.1-0.4,0.5-0.8,0.8-1c0.6-0.5,1.6-0.9,2.3-0.3c0.8,0.6,0.8,1.9,0.7,2.7c-0.1,2.2-1.7,2.7-3.6,2.1
				c-1.1-0.4-1.9-1-1.7-2.3c0.2-1.1,1-2.5,2.3-2.1C259.4,13.5,260.2,10.6,258.4,10L258.4,10z"/>
		</g>
	</g>
	<g>
		<g>
			<path fill="#B3B3B3" d="M281.8,35.3c-5.6-1.7-11.1-3.4-16.7-5.3c-1.8-0.6-2.6,2.3-0.8,2.9c5.5,1.8,11.1,3.5,16.7,5.3
				C282.9,38.7,283.7,35.8,281.8,35.3L281.8,35.3z"/>
		</g>
	</g>
	<g>
		<g>
			<path fill="#373737" d="M254.2,18.9c-2.7,3.8-5.3,7.7-6.2,12.4c-0.9,4.7-0.7,9.5-0.8,14.2c0,1.9,3,1.9,3,0
				c0.1-4.2-0.1-8.6,0.6-12.8c0.8-4.7,3.3-8.5,6-12.3C257.9,18.8,255.3,17.3,254.2,18.9L254.2,18.9z"/>
		</g>
	</g>
	<g>
		<g>
			<path fill="#373737" d="M249.7,48c2.6-0.2,5.2-0.4,7.8-0.5c1.6-0.1,2.9-0.5,4.4,0.4c1.6,0.9,1.4,1.2,1.5,3
				c0.2,5.3,0.3,10.5,1,15.8c0.2,1.9,3.2,1.9,3,0c-0.5-4.2-0.9-8.4-1-12.6c-0.1-2.3,0.4-5.3-0.8-7.4c-0.8-1.5-2-2.2-3.8-2.4
				c-3.8-0.4-8.3,0.5-12.2,0.8C247.8,45.2,247.8,48.2,249.7,48L249.7,48z"/>
		</g>
	</g>
	<g>
		<g>
			<path fill="#373737" d="M247.5,46c-0.7,3.8-0.7,9.9-4,12.4c-3.2,2.4-7.3,4.1-10.8,6.1c-1.7,0.9-0.2,3.5,1.5,2.6
				c4-2.2,9.8-4.2,12.8-7.8c2.7-3.2,2.7-8.6,3.4-12.5C250.8,44.9,247.9,44.1,247.5,46L247.5,46z"/>
		</g>
	</g>
	<g>
		<g>
			<path fill="#373737" d="M251.7,28.1c2.3,0.2,4.8,2,6.9,2.9c2.3,0.9,4.7,1.6,7.1,2.2c1.9,0.4,2.7-2.4,0.8-2.9
				c-3-0.7-5.9-1.6-8.6-2.8c-2-0.9-3.9-2.1-6.1-2.3C249.7,25,249.7,28,251.7,28.1L251.7,28.1z"/>
		</g>
	</g>
	<g>
		<g>
			<path fill="#373737" d="M251.4,24.3c-3.3-1.2-6.7-2.3-10.3-2c-3.6,0.3-7.2,1.3-10.8,2c-1.9,0.4-1.1,3.3,0.8,2.9
				c3.2-0.6,6.4-1.5,9.7-1.8c3.5-0.4,6.6,0.7,9.9,1.8C252.4,27.8,253.2,24.9,251.4,24.3L251.4,24.3z"/>
		</g>
	</g>
</g>
<g id="Calque_6">
	<g>
		<g>
			<path fill="#373737" d="M334.4,12c-2.8-0.9-5.1,1.2-5.9,3.7c-0.8,2.7,0.3,5,2.8,6.1c2,0.9,4.7,1.1,6.5-0.4
				c1.9-1.6,2.2-4.9,1.4-7.2c-0.8-2.2-3.1-3.5-5.4-2.9c-2.3,0.6-4.7,3.2-4.2,5.7c0.5,2.5,3.8,3.5,5.9,2.3c2.1-1.2,2.6-4.4,0.4-5.8
				c-2.3-1.5-5.1,0.7-4.4,3.2c0.6,2.3,4,5.1,6.1,2.8c1.3-1.4-0.8-3.6-2.1-2.1c0.1-0.2-0.3-0.4-0.6-0.7c-0.8-0.8-0.1-0.4-0.9,0
				c-0.7,0.3-1.5,0.1-1.3-0.9c0.1-0.4,0.5-0.8,0.8-1c0.6-0.5,1.6-0.9,2.3-0.3c0.8,0.6,0.8,1.9,0.7,2.7c-0.1,2.2-1.7,2.7-3.6,2.1
				c-1.1-0.4-1.9-1-1.7-2.3c0.2-1.1,1-2.5,2.3-2.1C335.4,15.5,336.2,12.6,334.4,12L334.4,12z"/>
		</g>
	</g>
	<g>
		<g>
			<path fill="#B3B3B3" d="M313.2,29.5c-5.6,1.4-11.3,2.9-16.9,4.2c-1.9,0.4-1.1,3.3,0.8,2.9c5.7-1.3,11.3-2.8,16.9-4.2
				C315.8,31.9,315,29.1,313.2,29.5L313.2,29.5z"/>
		</g>
	</g>
	<g>
		<g>
			<path fill="#373737" d="M321.7,48c2.6-0.2,5.2-0.4,7.8-0.5c1.6-0.1,2.9-0.5,4.4,0.4c1.6,0.9,1.4,1.2,1.5,3
				c0.2,5.3,0.3,10.5,1,15.8c0.2,1.9,3.2,1.9,3,0c-0.5-4.2-0.9-8.4-1-12.6c-0.1-2.3,0.4-5.3-0.8-7.4c-0.8-1.5-2-2.2-3.8-2.4
				c-3.8-0.4-8.3,0.5-12.2,0.8C319.8,45.2,319.8,48.2,321.7,48L321.7,48z"/>
		</g>
	</g>
	<g>
		<g>
			<path fill="#373737" d="M328.8,20.6c-0.9,4.8-4,8.4-6.2,12.7c-1.9,3.7-2.7,7.7-2.6,11.9c0,1.9,3,1.9,3,0
				c-0.1-9.5,7-15.1,8.7-23.8C332,19.5,329.2,18.7,328.8,20.6L328.8,20.6z"/>
		</g>
	</g>
	<g>
		<g>
			<path fill="#373737" d="M319.9,46.1c-3,8-10.8,13.2-16.9,18.9c-1.4,1.3,0.7,3.4,2.1,2.1c6.6-6.1,14.4-11.5,17.7-20.2
				C323.4,45.1,320.5,44.3,319.9,46.1L319.9,46.1z"/>
		</g>
	</g>
	<g>
		<g>
			<path fill="#373737" d="M326.9,25.9c-6.6-0.6-13.2-1.3-18.9-5c-1.6-1.1-3.1,1.5-1.5,2.6c6.1,4,13.3,4.8,20.4,5.4
				C328.8,29.1,328.8,26.1,326.9,25.9L326.9,25.9z"/>
		</g>
	</g>
	<g>
		<g>
			<path fill="#373737" d="M326.8,27.2c-4.7,0.5-9.4,1.1-14.1,1.9c-1.9,0.3-1.1,3.2,0.8,2.9c4.4-0.7,8.8-1.3,13.3-1.8
				C328.7,30,328.7,27,326.8,27.2L326.8,27.2z"/>
		</g>
	</g>
</g>
<g id="Calque_7">
	<g>
		<g>
			<path fill="#373737" d="M403.4,10c-2.8-0.9-5.1,1.2-5.9,3.7c-0.8,2.7,0.3,5,2.8,6.1c2,0.9,4.7,1.1,6.5-0.4
				c1.9-1.6,2.2-4.9,1.4-7.2c-0.8-2.2-3.1-3.5-5.4-2.9c-2.3,0.6-4.7,3.2-4.2,5.7c0.5,2.5,3.8,3.5,5.9,2.3c2.1-1.2,2.6-4.4,0.4-5.8
				c-2.3-1.5-5.1,0.7-4.4,3.2c0.6,2.3,4,5.1,6.1,2.8c1.3-1.4-0.8-3.6-2.1-2.1c0.1-0.2-0.3-0.4-0.6-0.7c-0.8-0.8-0.1-0.4-0.9,0
				c-0.7,0.3-1.5,0.1-1.3-0.9c0.1-0.4,0.5-0.8,0.8-1c0.6-0.5,1.6-0.9,2.3-0.3c0.8,0.6,0.8,1.9,0.7,2.7c-0.1,2.2-1.7,2.7-3.6,2.1
				c-1.1-0.4-1.9-1-1.7-2.3c0.2-1.1,1-2.5,2.3-2.1C404.4,13.5,405.2,10.6,403.4,10L403.4,10z"/>
		</g>
	</g>
	<g>
		<g>
			<path fill="#B3B3B3" d="M413.8,32.6c-4.5-3.7-9-7.4-13.4-11.2c-1.5-1.3-3.6,0.9-2.1,2.1c4.4,3.8,8.9,7.5,13.4,11.2
				C413.2,36,415.3,33.9,413.8,32.6L413.8,32.6z"/>
		</g>
	</g>
	<g>
		<g>
			<path fill="#373737" d="M399.5,19c-3.6,3.4-5.2,7.6-5.9,12.4c-0.7,4.7-1.9,11.6-0.3,16.1c0.6,1.8,3.5,1,2.9-0.8
				c-1.3-3.5-0.2-8.9,0.1-12.6c0.5-4.9,1.6-9.4,5.3-12.9C403,19.8,400.9,17.7,399.5,19L399.5,19z"/>
		</g>
	</g>
	<g>
		<g>
			<path fill="#373737" d="M394.8,48.2c2,0.8,4.1,1.5,6.3,1.9c2.2,0.4,5.1,0,6.2,2.6c0.8,1.8,0.6,4.7,0.9,6.7c0.3,2.6,0.7,5.1,1,7.7
				c0.2,1.9,3.2,1.9,3,0c-0.5-3.6-0.9-7.2-1.4-10.8c-0.2-2-0.2-4.7-1.4-6.4c-1-1.5-2.6-1.9-4.3-2.2c-3.3-0.6-6.3-1-9.4-2.3
				C393.8,44.6,393,47.5,394.8,48.2L394.8,48.2z"/>
		</g>
	</g>
	<g>
		<g>
			<path fill="#373737" d="M392.2,46.2c0.1,3.8,0.3,8-1.7,11.4c-2.1,3.4-6,5.5-9.2,7.7c-1.6,1.1-0.1,3.7,1.5,2.6
				c3.6-2.5,7.9-4.9,10.2-8.8c2.3-3.9,2.3-8.5,2.1-12.9C395.1,44.3,392.1,44.3,392.2,46.2L392.2,46.2z"/>
		</g>
	</g>
	<g>
		<g>
			<path fill="#373737" d="M396.7,24.4c-5.9-2.2-11.8-4.6-17.5-7.2c-1.7-0.8-3.3,1.8-1.5,2.6c6,2.7,12.1,5.3,18.2,7.5
				C397.7,28,398.5,25.1,396.7,24.4L396.7,24.4z"/>
		</g>
	</g>
	<g>
		<g>
			<path fill="#373737" d="M396.1,28.4c3.3,1.9,6.7,3.6,10.2,5.1c2.4,1,4.6,2.3,7.1,1.3c1.8-0.8,0.2-3.3-1.5-2.6
				c-0.9,0.4-2.5-0.6-3.3-1c-1.5-0.6-2.9-1.2-4.3-1.9c-2.2-1.1-4.4-2.2-6.6-3.5C396,24.8,394.5,27.4,396.1,28.4L396.1,28.4z"/>
		</g>
	</g>
</g>
<g id="Calque_8">
	<g>
		<g>
			<path fill="#373737" d="M471.4,8c-2.8-0.9-5.1,1.2-5.9,3.7c-0.8,2.7,0.3,5,2.8,6.1c2,0.9,4.7,1.1,6.5-0.4
				c1.9-1.6,2.2-4.9,1.4-7.2c-0.8-2.2-3.1-3.5-5.4-2.9c-2.3,0.6-4.7,3.2-4.2,5.7c0.5,2.5,3.8,3.5,5.9,2.3c2.1-1.2,2.6-4.4,0.4-5.8
				c-2.3-1.5-5.1,0.7-4.4,3.2c0.6,2.3,4,5.1,6.1,2.8c1.3-1.4-0.8-3.6-2.1-2.1c0.1-0.2-0.3-0.4-0.6-0.7c-0.8-0.8-0.1-0.4-0.9,0
				c-0.7,0.3-1.5,0.1-1.3-0.9c0.1-0.4,0.5-0.8,0.8-1c0.6-0.5,1.6-0.9,2.3-0.3c0.8,0.6,0.8,1.9,0.7,2.7c-0.1,2.2-1.7,2.7-3.6,2.1
				c-1.1-0.4-1.9-1-1.7-2.3c0.2-1.1,1-2.5,2.3-2.1C472.4,11.5,473.2,8.6,471.4,8L471.4,8z"/>
		</g>
	</g>
	<g>
		<g>
			<path fill="#B3B3B3" d="M475.4,34c4.9-3.1,9.8-6.2,14.8-9.2c1.6-1,0.1-3.6-1.5-2.6c-5,3-9.9,6.2-14.8,9.2
				C472.3,32.4,473.8,35,475.4,34L475.4,34z"/>
		</g>
	</g>
	<g>
		<g>
			<path fill="#373737" d="M468,18.2c-2.1,9.7-4.1,19.5-2.8,29.5c0.2,1.9,3.2,1.9,3,0c-1.3-9.8,0.6-19.2,2.7-28.7
				C471.3,17.2,468.4,16.4,468,18.2L468,18.2z"/>
		</g>
	</g>
	<g>
		<g>
			<path fill="#373737" d="M467.3,49.6c4.5,1,9.2,2.2,10.6,7.2c1,3.7,1.3,7.7,1.9,11.4c0.3,1.9,3.2,1.1,2.9-0.8
				c-0.7-4.7-0.7-10.9-3.5-15c-2.5-3.7-7-4.9-11.1-5.8C466.2,46.3,465.4,49.2,467.3,49.6L467.3,49.6z"/>
		</g>
	</g>
	<g>
		<g>
			<path fill="#373737" d="M464.5,47.8c0,3.7-1.7,9.3-4.5,11.7c-2.7,2.4-6,4.3-9,6.4c-1.6,1.1-0.1,3.7,1.5,2.6
				c3.5-2.5,8.7-5,11.3-8.5c2.2-3,3.7-8.5,3.7-12.2C467.5,45.9,464.5,45.9,464.5,47.8L464.5,47.8z"/>
		</g>
	</g>
	<g>
		<g>
			<path fill="#373737" d="M466.4,24.5c0.5,3.6-0.3,8.7,1.5,11.9c0.7,1.3,1.9,2.1,3,2.9c2.2,1.7,4,3.3,5.8,5.4
				c1.3,1.5,3.4-0.7,2.1-2.1c-2-2.4-4.6-4-6.7-6.1c-2.9-2.8-2.2-8.2-2.7-12C469.1,22.6,466.1,22.6,466.4,24.5L466.4,24.5z"/>
		</g>
	</g>
	<g>
		<g>
			<path fill="#373737" d="M466.9,22.9c-1.1,2-2.3,4.1-3.3,6.2c-0.6,1.2-1.5,2.7-0.6,4.1c0.8,1.2,2.7,1.2,4,1.4
				c2.3,0.3,4.7,0.4,7.1,0.3c1.9-0.1,1.9-3.1,0-3c-1.4,0.1-2.8,0.1-4.2,0c-0.7,0-1.4-0.1-2.1-0.2c-0.4,0-2-0.1-2.4-0.4
				c0.1,0.1,0.2,0.3,0.3,0.4c0.2-0.4,0.4-0.9,0.7-1.3c0.3-0.7,0.7-1.3,1-2c0.7-1.3,1.4-2.6,2.1-3.9
				C470.5,22.8,467.9,21.3,466.9,22.9L466.9,22.9z"/>
		</g>
	</g>
</g>
<g id="Calque_9">
	<g>
		<g>
			<path fill="#373737" d="M543.4,8c-2.8-0.9-5.1,1.2-5.9,3.7c-0.8,2.7,0.3,5,2.8,6.1c2,0.9,4.7,1.1,6.5-0.4
				c1.9-1.6,2.2-4.9,1.4-7.2c-0.8-2.2-3.1-3.5-5.4-2.9c-2.3,0.6-4.7,3.2-4.2,5.7c0.5,2.5,3.8,3.5,5.9,2.3c2.1-1.2,2.6-4.4,0.4-5.8
				c-2.3-1.5-5.1,0.7-4.4,3.2c0.6,2.3,4,5.1,6.1,2.8c1.3-1.4-0.8-3.6-2.1-2.1c0.1-0.2-0.3-0.4-0.6-0.7c-0.8-0.8-0.1-0.4-0.9,0
				c-0.7,0.3-1.5,0.1-1.3-0.9c0.1-0.4,0.5-0.8,0.8-1c0.6-0.5,1.6-0.9,2.3-0.3c0.8,0.6,0.8,1.9,0.7,2.7c-0.1,2.2-1.7,2.7-3.6,2.1
				c-1.1-0.4-1.9-1-1.7-2.3c0.2-1.1,1-2.5,2.3-2.1C544.4,11.5,545.2,8.6,543.4,8L543.4,8z"/>
		</g>
	</g>
	<g>
		<g>
			<path fill="#B3B3B3" d="M523.9,37.2c1.9,5.5,3.8,11,5.5,16.6c0.6,1.8,3.5,1,2.9-0.8c-1.8-5.5-3.7-11-5.5-16.6
				C526.2,34.6,523.3,35.4,523.9,37.2L523.9,37.2z"/>
		</g>
	</g>
	<g>
		<g>
			<path fill="#373737" d="M540.8,18.8c0.6,9.6-5.4,18.2-4,27.9c0.3,1.9,3.2,1.1,2.9-0.8c-1.3-9.3,4.7-17.8,4.1-27.1
				C543.7,16.9,540.7,16.9,540.8,18.8L540.8,18.8z"/>
		</g>
	</g>
	<g>
		<g>
			<path fill="#373737" d="M538.4,48.6c1.6,1.2,3.3,2.4,5,3.5c2,1.2,4.7,2.1,6.3,3.8c1.5,1.7,1.8,4.1,2.5,6.2
				c0.7,2.2,1.6,4.4,2.5,6.6c0.7,1.8,3.6,1,2.9-0.8c-1.2-2.9-2.3-5.8-3.2-8.8c-0.5-1.6-0.7-3.6-1.7-5c-1.2-1.6-3.4-2.2-5-3.1
				c-2.7-1.5-5.2-3.1-7.7-5C538.3,44.8,536.8,47.4,538.4,48.6L538.4,48.6z"/>
		</g>
	</g>
	<g>
		<g>
			<path fill="#373737" d="M537,46.3c-1,3.3-1.9,6.7-3,10c-1.4,4.1-4.2,7.1-7,10.3c-1.2,1.5,0.9,3.6,2.1,2.1
				c2.4-2.9,5.4-5.7,6.9-9.2c1.7-4,2.7-8.3,3.9-12.5C540.4,45.2,537.5,44.5,537,46.3L537,46.3z"/>
		</g>
	</g>
	<g>
		<g>
			<path fill="#373737" d="M541.9,27c2,0.9,3.6,2.6,5.4,3.9c2.1,1.6,4.3,3,6.5,4.5c1.6,1.1,3.1-1.5,1.5-2.6
				c-2.3-1.5-4.7-3.1-6.9-4.8c-1.6-1.3-3.1-2.8-5-3.6C541.7,23.6,540.1,26.2,541.9,27L541.9,27z"/>
		</g>
	</g>
	<g>
		<g>
			<path fill="#373737" d="M541,22.4c-3.7,1.4-6.8,3.6-9.9,6c-2.7,2.1-5.2,4.2-6.7,7.3c-0.8,1.7,1.8,3.3,2.6,1.5
				c1.4-3,3.9-4.9,6.4-6.9c2.6-2,5.3-3.9,8.4-5.1C543.6,24.6,542.8,21.7,541,22.4L541,22.4z"/>
		</g>
	</g>
</g>
<g id="Calque_10">
	<g>
		<g>
			<path fill="#373737" d="M614.4,9c-2.8-0.9-5.1,1.2-5.9,3.7c-0.8,2.7,0.3,5,2.8,6.1c2,0.9,4.7,1.1,6.5-0.4
				c1.9-1.6,2.2-4.9,1.4-7.2c-0.8-2.2-3.1-3.5-5.4-2.9c-2.3,0.6-4.7,3.2-4.2,5.7c0.5,2.5,3.8,3.5,5.9,2.3c2.1-1.2,2.6-4.4,0.4-5.8
				c-2.3-1.5-5.1,0.7-4.4,3.2c0.6,2.3,4,5.1,6.1,2.8c1.3-1.4-0.8-3.6-2.1-2.1c0.1-0.2-0.3-0.4-0.6-0.7c-0.8-0.8-0.1-0.4-0.9,0
				c-0.7,0.3-1.5,0.1-1.3-0.9c0.1-0.4,0.5-0.8,0.8-1c0.6-0.5,1.6-0.9,2.3-0.3c0.8,0.6,0.8,1.9,0.7,2.7c-0.1,2.2-1.7,2.7-3.6,2.1
				c-1.1-0.4-1.9-1-1.7-2.3c0.2-1.1,1-2.5,2.3-2.1C615.4,12.5,616.2,9.6,614.4,9L614.4,9z"/>
		</g>
	</g>
	<g>
		<g>
			<path fill="#373737" d="M611.5,16.7c-2.1,3.7-3.3,7.7-3,12c0.4,5.1,2.9,9.7,2.2,15c-0.2,1.9,2.8,1.9,3,0c0.5-3.7-0.5-7-1.4-10.6
				c-1.3-5.3-1-10,1.7-14.8C615.1,16.5,612.5,15,611.5,16.7L611.5,16.7z"/>
		</g>
	</g>
	<g>
		<g>
			<path fill="#373737" d="M612.5,44.8c7.4,5,10.6,13.3,13.4,21.4c0.6,1.8,3.5,1,2.9-0.8c-3.1-8.9-6.7-17.8-14.8-23.2
				C612.4,41.1,610.9,43.7,612.5,44.8L612.5,44.8z"/>
		</g>
	</g>
	<g>
		<g>
			<path fill="#373737" d="M609.8,43.4c-1.4,4.3-2.9,8.5-5.9,12c-2.6,3.1-5.3,6.1-7.7,9.4c-1.2,1.5,1.4,3,2.6,1.5
				c2.9-3.8,6.5-7.3,9.2-11.2c2.3-3.3,3.5-7.1,4.8-10.9C613.3,42.4,610.4,41.6,609.8,43.4L609.8,43.4z"/>
		</g>
	</g>
	<g>
		<g>
			<path fill="#373737" d="M610.5,25.5c2.1,1.8,4.2,4.4,7,4.9c4,0.7,8.5,0.4,12.6,0.5c1.9,0.1,1.9-2.9,0-3c-3.1-0.1-6.2-0.2-9.3-0.3
				c-3.8-0.1-5.5-1.8-8.2-4.2C611.2,22.1,609.1,24.2,610.5,25.5L610.5,25.5z"/>
		</g>
	</g>
	<g>
		<g>
			<path fill="#373737" d="M610.1,21.5c-2.7,0.9-5.1,3-7.4,4.7c-2.5,2-5,4-7.3,6.2c-1.4,1.3,0.7,3.4,2.1,2.1c2.1-2,4.2-3.8,6.5-5.6
				c2-1.6,4.4-3.8,6.9-4.6C612.7,23.8,611.9,20.9,610.1,21.5L610.1,21.5z"/>
		</g>
	</g>
	<g>
		<g>
			<path fill="#B3B3B3" d="M594.4,33.1c-4.2,4-8.4,8-12.7,11.9c-1.4,1.3,0.7,3.4,2.1,2.1c4.3-3.9,8.5-8,12.7-11.9
				C597.9,33.9,595.8,31.7,594.4,33.1L594.4,33.1z"/>
		</g>
	</g>
</g>
</svg>
