<?xml version="1.0" encoding="utf-8"?>
<!-- Generator: Adobe Illustrator 22.1.0, SVG Export Plug-In . SVG Version: 6.00 Build 0)  -->
<svg version="1.1" xmlns="http://www.w3.org/2000/svg" xmlns:xlink="http://www.w3.org/1999/xlink" x="0px" y="0px" width="648px"
	 height="72px" viewBox="0 0 648 72" enable-background="new 0 0 648 72" xml:space="preserve">
<g id="repères">
</g>
<g id="Calque_2">
	<g>
		<g>
			<path fill="#373737" d="M30.6,27.1c1.7,0.4,3.3,2,4.9,2.7c1.6,0.7,3.3,1.4,5,1.9c3.4,1,6.1-2.3,8.5-4.3c1.5-1.2-0.6-3.3-2.1-2.1
				c-1.4,1.1-3.7,3.5-5.6,3.5c-1,0-2.5-0.9-3.4-1.3c-2.3-0.9-4.1-2.8-6.5-3.4C29.5,23.8,28.7,26.7,30.6,27.1L30.6,27.1z"/>
		</g>
	</g>
	<g>
		<g>
			<path fill="#B3B3B3" d="M31.9,22.3c-0.5,2.6-0.8,5.2-0.8,7.9c0,1.4,1.6,1.9,2.6,1.1c2.2-1.8,5.9-4,7.3-6.5
				c0.4-0.7,0.2-1.6-0.5-2.1c-1.6-1-3.9-1.2-5.7-1.7c-1.9-0.5-2.6,2.2-0.8,2.9c3.7,1.4,7.8,1.1,11.7,1.2c4.6,0.1,9.1,0.1,13.7-0.2
				c1.9-0.1,2-3,0-3c-2.7,0-5.3,0-8-0.1c-3.9,0-2,0-2.6-2.4c-0.8-3.3-4.2-1.7-6.6-1.6c-1.9,0.1-1.9,3,0,3c3.2,0,6.4,0,9.7-0.1
				c1.6,0,2.1-2.7,0.4-2.9c-2.4-0.4-5.4-0.7-6.8,1.8c-1.8,3.2,1.8,7.8,2.6,10.8c1-0.3,1.9-0.5,2.9-0.8c-2-5.1-2-8-7.9-7.2
				c-4.7,0.7-3.4,4.4-3.4,8.6c0,1.4,2.1,2.1,2.8,0.8c0.7-1.4,0.5-4.4,1.5-5.4c-0.8-0.2-1.7-0.4-2.5-0.7c0.5,1.2,0.7,1.5,2,1.9
				c1.4,0.4,2.6-1.5,1.5-2.5c-0.6-0.5-1.1-1-1.7-1.5c-0.2,0.8-0.4,1.7-0.7,2.5c2.3-0.5,5.7-1.6,8.1-1.1c4.3,0.9,0.9,0.9,2.9,2.1
				c1.3,0.8,1.7,1.1,3.1,0.5c1.8-0.8,0.2-3.4-1.5-2.6c2.1-1-2.2-2.9-2.6-3c-3.2-0.7-7.7,0.5-10.9,1.2c-1.1,0.2-1.5,1.8-0.7,2.5
				c0.6,0.5,1.1,1,1.7,1.5c0.5-0.8,1-1.7,1.5-2.5c0,0.1,0.1,0.1,0.1,0.2c-0.4-1-1.6-1.5-2.5-0.7c-1.9,1.8-0.8,3.7-2,6
				c0.9,0.3,1.9,0.5,2.8,0.8c0-1.3,0-2.6,0-3.8c-0.6-1.7-0.2-2.3,1.2-1.8c3-0.7,3.3,2.9,4.2,5.1c0.7,1.8,3.4,1.1,2.9-0.8
				c-0.4-1.7-0.9-3.3-1.6-5c-0.5-1.2-2.9-4.8,2.1-4c0.1-1,0.3-2,0.4-2.9c-3.2,0.1-6.4,0.1-9.7,0.1c0,1,0,2,0,3
				c1.9-0.1,2.4-0.2,3.3,1.2c0.7,1.2,0.1,1.5,1.3,2.3c2.8,1.8,9.4,0.5,12.6,0.6c0-1,0-2,0-3c-4,0.3-7.9,0.3-11.9,0.2
				c-4.1-0.1-8.9,0.3-12.7-1.2c-0.3,1-0.5,1.9-0.8,2.9c1.3,0.3,3.8,0.6,4.9,1.4c-0.2-0.7-0.4-1.4-0.5-2.1c-1.2,2.2-4.9,4.3-6.8,5.9
				c0.9,0.4,1.7,0.7,2.6,1.1c0-2.5,0.1-4.6,0.7-7.1C35.1,21.2,32.2,20.4,31.9,22.3L31.9,22.3z"/>
		</g>
	</g>
	<g>
		<g>
			<path fill="#373737" d="M29.5,12.2c1.4-1.4,3.5-1.8,5-0.4c1.9,1.6,1.2,3.7-1,4.4c-1.5,0.5-4.4,0.4-4.7-1.7
				c-0.1-1.1,0.8-1.8,1.7-2c0.6-0.2,1.4-0.3,2,0c0.7,0,0.9,0.3,0.4,0.9c-0.1,1.2-0.7,1.1-1.9-0.1c0.1-0.4,0.3-0.7,0.4-1.1
				c0.2,0,0.4-0.1,0.5-0.1c-1.8-0.7-2.6,2.2-0.8,2.9c2.1,0.9,3.8-2,2.1-3.5c-1.8-1.5-4.5-0.3-5,1.8c-0.6,2.6,1.9,4.6,4.4,4.1
				c2.5-0.5,4.6-3.1,3.5-5.6c-2.4-5.2-12-1.6-10.1,4c1.7,5.1,9.8,4.7,12.1,0.3c1.4-2.6-0.3-5.8-2.7-7.3c-2.7-1.6-6.1-0.9-8.2,1.2
				C26,11.4,28.1,13.5,29.5,12.2L29.5,12.2z"/>
		</g>
	</g>
	<g>
		<g>
			<path fill="#373737" d="M32.3,15.7c-2.1,3.6-2.9,7.5-3.3,11.7c-0.6,5.6,1.7,11.4,0.7,16.9c-0.3,1.9,2.5,2.7,2.9,0.8
				c0.8-4.4-0.7-8.2-0.9-12.5c-0.2-5.1,0.7-10.9,3.3-15.3C35.8,15.6,33.2,14.1,32.3,15.7L32.3,15.7z"/>
		</g>
	</g>
	<g>
		<g>
			<path fill="#373737" d="M31.3,47.3c6.7,3.9,8.6,14.3,7.8,21.3c-0.2,1.9,2.8,1.9,3,0c0.9-8.1-1.6-19.5-9.2-23.9
				C31.1,43.7,29.6,46.3,31.3,47.3L31.3,47.3z"/>
		</g>
	</g>
	<g>
		<g>
			<path fill="#373737" d="M29.5,46c0.8,3.7,1.8,8.9,0.6,12.5c-1,3.1-3.4,5.5-4.9,8.4c-0.9,1.7,1.7,3.2,2.6,1.5
				c1.9-3.6,5-6.6,5.7-10.7c0.6-3.9-0.2-8.6-1-12.5C32,43.3,29.1,44.1,29.5,46L29.5,46z"/>
		</g>
	</g>
	<g>
		<g>
			<path fill="#373737" d="M29.3,26.8c1.6,1.8,3.1,3.6,4.8,5.4c0.8,0.9,1.5,1.6,2.7,1.2c2.8-0.9,3.8-4.5,5.9-6.2
				c1.5-1.2-0.6-3.3-2.1-2.1c-0.9,0.7-1.6,1.6-2.2,2.6c-0.6,0.9-1.5,2.6-2.7,3c0.4,0.1,0.8,0.1,1.2,0.2c-1-0.7-1.9-2.1-2.7-3
				c-0.9-1-1.8-2-2.7-3C30.2,23.3,28.1,25.4,29.3,26.8L29.3,26.8z"/>
		</g>
	</g>
</g>
<g id="Calque_3">
	<g>
		<g>
			<path fill="#373737" d="M101.2,27.4c1.6,0.1,3.4,1.5,5,1.9c1.7,0.4,3.5,0.8,5.3,1c3.5,0.4,5.5-3,7.6-5.4c1.3-1.4-0.8-3.6-2.1-2.1
				c-1,1.1-2.3,3.1-3.5,3.9c-1.7,1-3.7,0.3-5.5-0.1c-2.4-0.5-4.4-2.1-6.8-2.2C99.3,24.3,99.3,27.3,101.2,27.4L101.2,27.4z"/>
		</g>
	</g>
	<g>
		<g>
			<path fill="#B3B3B3" d="M101.5,22.6c-0.1,2.7,0.1,5.3,0.6,7.9c0.2,1.1,1.8,1.5,2.5,0.7c2-2.3,5.3-4.9,6.3-7.9
				c0.2-0.6-0.1-1.4-0.7-1.7c-1.9-0.8-4.2-0.7-6.2-0.9c-1.7-0.1-2.1,2.6-0.4,2.9c3.7,0.8,7.5,0,11.2-0.5c4.8-0.6,9.6-1.4,14.4-2.5
				c1.9-0.4,1.1-3.2-0.8-2.9c-2.6,0.4-5.3,1.2-7.9,1.2c-1.4,0-1.9-0.1-2.7-1c-0.2-0.3,0.1-1-0.2-1.3c-2-2.5-4-0.7-6.8-0.1
				c-1.9,0.4-1.1,3.2,0.8,2.9c3.2-0.5,6.4-1,9.5-1.6c1.7-0.3,1.3-3-0.4-2.9c-2.5,0-5.7,0.4-6.3,3.4c-0.7,3.2,3.2,7.1,4.4,9.9
				c0.9-0.5,1.7-1,2.6-1.5c-2.8-4.8-3.3-7.6-9.1-5.6c-4.4,1.5-2.4,5.2-1.8,9.1c0.2,1.6,2.5,1.3,2.9,0c0.5-1.5-0.3-4.3,0.6-5.5
				c-0.9,0-1.7,0-2.6,0c0.6,0.9,0.9,1.2,2,1.4c1.6,0.2,2.7-1.8,1.2-2.7c-0.6-0.4-1.3-0.8-1.9-1.2c-0.1,0.9-0.2,1.8-0.4,2.7
				c2-0.8,4.4-1.9,6.6-2.1c2.1-0.2,2.7,0.2,4.4,1c1.3,0.6,1.9,1.3,3.3,0.4c1.6-1.1,0.1-3.7-1.5-2.6c1.5-1-2.7-2.4-3.2-2.4
				c-3.4,0-7.3,1.7-10.3,2.9c-1.2,0.4-1.5,2-0.4,2.7c0.6,0.4,1.3,0.8,1.9,1.2c0.4-0.9,0.8-1.8,1.2-2.7c-0.1,0-0.1,0-0.2,0
				c-0.6-1-1.9-0.9-2.6,0c-1.5,2-0.2,3.9-0.9,6.2c1,0,1.9,0,2.9,0c-0.3-1.8-1.6-5.5,1.4-5.9c2-0.2,3.1,3.1,4,4.7
				c1,1.7,3.3,0.2,2.6-1.5c-0.7-1.6-6-8.8-0.7-8.8c-0.1-1-0.3-2-0.4-2.9c-3.2,0.6-6.3,1.1-9.5,1.6c0.3,1,0.5,1.9,0.8,2.9
				c0,0,3.4-0.9,3.4-0.9c0.1,0.1-0.3,1.2-0.1,1.6c0.5,1,0.5,1.5,1.5,2c1,0.6,2.2,0.2,3.3,0.1c3.2-0.4,6.5-1,9.7-1.5
				c-0.3-1-0.5-1.9-0.8-2.9c-3.6,0.8-7.1,1.5-10.8,2c-4.1,0.6-9.1,1.9-13.2,1c-0.1,1-0.3,2-0.4,2.9c1.2,0.1,3.6,0,4.7,0.5
				c-0.2-0.6-0.5-1.1-0.7-1.7c-0.7,2.2-4,4.8-5.6,6.6c0.8,0.2,1.7,0.4,2.5,0.7c-0.4-2.5-0.6-4.6-0.5-7.1
				C104.6,20.7,101.6,20.7,101.5,22.6L101.5,22.6z"/>
		</g>
	</g>
	<g>
		<g>
			<path fill="#373737" d="M101.5,12.2c1.4-1.4,3.5-1.8,5-0.4c1.9,1.6,1.2,3.7-1,4.4c-1.5,0.5-4.4,0.4-4.7-1.7
				c-0.1-1.1,0.8-1.8,1.7-2c0.6-0.2,1.4-0.3,2,0c0.7,0,0.9,0.3,0.4,0.9c-0.1,1.2-0.7,1.1-1.9-0.1c0.1-0.4,0.3-0.7,0.4-1.1
				c0.2,0,0.4-0.1,0.5-0.1c-1.8-0.7-2.6,2.2-0.8,2.9c2.1,0.9,3.8-2,2.1-3.5c-1.8-1.5-4.5-0.3-5,1.8c-0.6,2.6,1.9,4.6,4.4,4.1
				c2.5-0.5,4.6-3.1,3.5-5.6c-2.4-5.2-12-1.6-10.1,4c1.7,5.1,9.8,4.7,12.1,0.3c1.4-2.6-0.3-5.8-2.7-7.3c-2.7-1.6-6.1-0.9-8.2,1.2
				C98,11.4,100.1,13.5,101.5,12.2L101.5,12.2z"/>
		</g>
	</g>
	<g>
		<g>
			<path fill="#373737" d="M101.3,15.7c-2.5,4.3-3.2,9.2-3.6,14.2c-0.1,2-0.1,3.7,0.6,5.6c1,2.8,3.8,5.5,3.3,8.7
				c-0.3,1.9,2.6,2.7,2.9,0.8c0.5-3.6-1.1-5.9-2.6-9c-2.6-5.4-0.9-13.8,2-18.8C104.8,15.6,102.2,14.1,101.3,15.7L101.3,15.7z"/>
		</g>
	</g>
	<g>
		<g>
			<path fill="#373737" d="M103.3,47.3c6.7,3.9,8.6,14.3,7.8,21.3c-0.2,1.9,2.8,1.9,3,0c0.9-8.1-1.6-19.5-9.2-23.9
				C103.1,43.7,101.6,46.3,103.3,47.3L103.3,47.3z"/>
		</g>
	</g>
	<g>
		<g>
			<path fill="#373737" d="M101.5,46c0.8,3.7,1.8,8.9,0.6,12.5c-1,3.1-3.4,5.5-4.9,8.4c-0.9,1.7,1.7,3.2,2.6,1.5
				c1.9-3.6,5-6.6,5.7-10.7c0.6-3.9-0.2-8.6-1-12.5C104,43.3,101.1,44.1,101.5,46L101.5,46z"/>
		</g>
	</g>
	<g>
		<g>
			<path fill="#373737" d="M99.6,27.2c1.9,1.5,3.8,3.1,5.6,4.6c1,0.8,2.3,1.7,3.5,0.5c0.5-0.5,0.6-1.2,0.9-1.8
				c0.8-1.8,2-3.4,3.3-4.8c1.3-1.4-0.8-3.5-2.1-2.1c-1.3,1.4-2.5,2.8-3.4,4.5c-0.2,0.5-0.5,1-0.7,1.4c-0.1,0.2-0.3,0.5-0.3,0.7
				c0,0.2-0.2,0,0.1-0.1c0.5,0,1,0,1.5,0c-2.3-1.1-4.4-3.5-6.4-5.1C100.2,23.8,98.1,26,99.6,27.2L99.6,27.2z"/>
		</g>
	</g>
	<g>
		<g>
			<path fill="#FFFF00" d="M129.9,18.5c-0.5-0.2-0.7-0.2-0.4,0c-0.1,0,0,0,0.1,0.1c0.1,0.1,0.2,0.2,0.3,0.3c0,0.1,0,0.1,0.1,0.1
				c0.1,0.2,0.1,0.2,0,0.1c0-0.1,0-0.1,0-0.2c0.1-0.1,0.2-0.2,0.3-0.3c-1.9,0.4-1.1,3.3,0.8,2.9c1.6-0.4,2.2-2.3,1.6-3.7
				c-0.6-1.3-2.2-2.8-3.7-2.3c-0.8,0.3-1.3,1-1,1.8C128.3,18.2,129.1,18.7,129.9,18.5L129.9,18.5z"/>
		</g>
	</g>
</g>
<g id="Calque_4">
	<g>
		<g>
			<path fill="#373737" d="M175.7,27.7c1.6,0.4,3.1,2.1,4.6,2.8c1.5,0.7,3.1,1.4,4.6,1.9c3.6,1.3,6-1.5,8.8-3.6
				c1.5-1.1,0-3.7-1.5-2.6c-1.3,0.9-2.8,2.5-4.2,3.1c-1.8,0.8-3.1-0.1-4.7-0.8c-2.4-1-4.3-3.1-6.8-3.8
				C174.6,24.3,173.8,27.2,175.7,27.7L175.7,27.7z"/>
		</g>
	</g>
	<g>
		<g>
			<path fill="#B3B3B3" d="M177,22.9c-0.6,2.6-1,5.1-1,7.9c0,1,1.3,2,2.3,1.3c2.4-1.9,6.3-3.8,7.8-6.5c0.4-0.8,0.1-1.6-0.5-2.1
				c-1.5-1.1-3.8-1.4-5.6-1.9c-1.9-0.6-2.5,2.2-0.8,2.9c3.6,1.5,7.8,1.4,11.6,1.7c4.6,0.3,9.1,0.4,13.7,0.3c1.9-0.1,1.9-2.9,0-3
				c-2.7-0.1-5.3-0.2-8-0.4c-3.8-0.2-1.9-0.1-2.5-2.6c-0.7-3.3-4.3-1.8-6.6-1.8c-1.9,0-1.9,2.9,0,3c3.2,0.1,6.4,0.2,9.7,0.3
				c1.7,0,2.1-2.6,0.4-2.9c-2.5-0.5-5.6-0.8-7,1.9c-1.5,3,1.7,7.7,2.3,10.6c1-0.3,1.9-0.5,2.9-0.8c-1.8-5.2-1.7-8.1-7.7-7.4
				c-4.7,0.5-3.5,4.4-3.7,8.5c-0.1,1.5,2.1,2,2.8,0.8c0.8-1.4,0.6-4.3,1.7-5.3c-0.8-0.2-1.7-0.4-2.5-0.7c0.5,1.2,0.7,1.5,2,2
				c1.4,0.5,2.5-1.5,1.5-2.5c-0.6-0.5-1.1-1-1.7-1.5c-0.2,0.8-0.4,1.7-0.7,2.5c2.1-0.3,6-1.3,8.2-0.7c1.5,0.4,1.7,1.4,2.7,2.1
				c1,0.7,1.6,1.4,2.9,0.8c1.8-0.7,1-3.6-0.8-2.9c1.6-0.7-2.5-2.9-2.8-3c-3.2-0.8-7.6,0.3-10.9,0.8c-1.1,0.2-1.4,1.8-0.7,2.5
				c0.6,0.5,1.1,1,1.7,1.5c0.5-0.8,1-1.7,1.5-2.5c0,0,0.1,0.1,0.1,0.1c-0.4-1.1-1.6-1.4-2.5-0.7c-2,1.7-1,3.7-2.2,5.9
				c0.9,0.3,1.9,0.5,2.8,0.8c0.1-1.3,0.1-2.6,0.2-3.8c-0.6-1.8-0.1-2.4,1.4-1.7c3-0.5,3.2,3,3.9,5.3c0.6,1.8,3.3,1.1,2.9-0.8
				c-0.2-0.7-3.6-9.8,0.9-8.9c0.1-1,0.3-2,0.4-2.9c-3.2-0.1-6.4-0.2-9.7-0.3c0,1,0,2,0,3c-1.3,0,3-0.1,2.9-0.2c1,0.6,0,0.2,0.3,1.4
				c0.3,1,0.2,1.6,1,2.3c0.9,0.8,2.1,0.7,3.2,0.8c3.2,0.2,6.5,0.3,9.8,0.4c0-1,0-2,0-3c-4,0.1-7.9,0-11.9-0.2
				c-4.1-0.2-8.9-0.1-12.7-1.7c-0.3,1-0.5,1.9-0.8,2.9c1.3,0.4,3.7,0.8,4.9,1.6c-0.2-0.7-0.4-1.4-0.5-2.1c-1.2,2.1-4.9,4-6.7,5.4
				c0.8,0.4,1.5,0.9,2.3,1.3c0.1-2.4,0.4-4.7,0.9-7.1C180.4,21.8,177.5,21,177,22.9L177,22.9z"/>
		</g>
	</g>
	<g>
		<g>
			<path fill="#373737" d="M174.5,12.2c1.4-1.4,3.5-1.8,5-0.4c1.9,1.6,1.2,3.7-1,4.4c-1.5,0.5-4.4,0.4-4.7-1.7
				c-0.1-1.1,0.8-1.8,1.7-2c0.6-0.2,1.4-0.3,2,0c0.7,0,0.9,0.3,0.4,0.9c-0.1,1.2-0.7,1.1-1.9-0.1c0.1-0.4,0.3-0.7,0.4-1.1
				c0.2,0,0.4-0.1,0.5-0.1c-1.8-0.7-2.6,2.2-0.8,2.9c2.1,0.9,3.8-2,2.1-3.5c-1.8-1.5-4.5-0.3-5,1.8c-0.6,2.6,1.9,4.6,4.4,4.1
				c2.5-0.5,4.6-3.1,3.5-5.6c-2.4-5.2-12-1.6-10.1,4c1.7,5.1,9.8,4.7,12.1,0.3c1.4-2.6-0.3-5.8-2.7-7.3c-2.7-1.6-6.1-0.9-8.2,1.2
				C171,11.4,173.1,13.5,174.5,12.2L174.5,12.2z"/>
		</g>
	</g>
	<g>
		<g>
			<path fill="#373737" d="M176.3,15.7c-2.1,3.6-2.9,7.5-3.3,11.7c-0.6,5.6,1.7,11.4,0.7,16.9c-0.3,1.9,2.5,2.7,2.9,0.8
				c0.8-4.4-0.7-8.2-0.9-12.5c-0.2-5.1,0.7-10.9,3.3-15.3C179.8,15.6,177.2,14.1,176.3,15.7L176.3,15.7z"/>
		</g>
	</g>
	<g>
		<g>
			<path fill="#373737" d="M175.3,47.3c6.7,3.9,8.6,14.3,7.8,21.3c-0.2,1.9,2.8,1.9,3,0c0.9-8.1-1.6-19.5-9.2-23.9
				C175.1,43.7,173.6,46.3,175.3,47.3L175.3,47.3z"/>
		</g>
	</g>
	<g>
		<g>
			<path fill="#373737" d="M173.5,46c0.8,3.7,1.8,8.9,0.6,12.5c-1,3.1-3.4,5.5-4.9,8.4c-0.9,1.7,1.7,3.2,2.6,1.5
				c1.9-3.6,5-6.6,5.7-10.7c0.6-3.9-0.2-8.6-1-12.5C176,43.3,173.1,44.1,173.5,46L173.5,46z"/>
		</g>
	</g>
	<g>
		<g>
			<path fill="#373737" d="M174.4,27.4c1.6,1.9,3.1,4.1,4.9,5.9c0.8,0.8,1.7,1.4,2.9,0.7c0.6-0.4,0.9-1.1,1.3-1.6
				c1.1-1.6,2.5-2.8,4.1-4c1.6-1.1,0.1-3.7-1.5-2.6c-1.5,1.1-3,2.3-4.2,3.8c-0.3,0.4-0.6,0.8-0.9,1.3c-0.1,0.2-0.3,0.4-0.4,0.6
				c-0.1,0.4-0.5,0.1,0.1-0.1c0.4,0.1,0.8,0.1,1.2,0.2c-1-0.7-1.8-2.2-2.6-3.1c-0.9-1-1.7-2.1-2.6-3.1
				C175.3,23.8,173.2,25.9,174.4,27.4L174.4,27.4z"/>
		</g>
	</g>
	<g>
		<g>
			<path fill="#FFFF00" d="M203.9,20.9c1.3,1,1.7,2.5,1.5,4.1c-0.1,0.8,0.8,1.5,1.5,1.5c0.9,0,1.4-0.7,1.5-1.5
				c0.3-2.6-0.9-5.1-3-6.7C203.9,17.2,202.4,19.8,203.9,20.9L203.9,20.9z"/>
		</g>
	</g>
</g>
<g id="Calque_5">
	<g>
		<g>
			<path fill="#373737" d="M244.9,27.7c1.9-0.2,3.8,0.9,5.7,1c1.9,0.1,4.4,0.5,6.3,0c2.8-0.7,4.2-4.5,5.6-6.6c1-1.6-1.6-3.1-2.6-1.5
				c-0.7,1.2-1.4,2.4-2.2,3.5c-1.3,1.8-2.3,1.7-4.5,1.7c-1.6,0-3.1,0-4.6-0.5c-1.3-0.4-2.3-0.8-3.6-0.6C243.1,25,243,28,244.9,27.7
				L244.9,27.7z"/>
		</g>
	</g>
	<g>
		<g>
			<path fill="#B3B3B3" d="M244.7,22.6c0.3,2.7,0.9,5.2,1.8,7.7c0.4,1.2,2,1.5,2.7,0.4c1.5-2.4,4.4-5.7,4.8-8.5
				c0.1-0.8-0.2-1.6-1-1.8c-1.8-0.5-4.1,0-5.9,0.2c-1.9,0.1-2,2.9,0,3c3.9,0.1,7.7-1.4,11.5-2.6c4.4-1.4,8.7-2.8,12.9-4.6
				c1.7-0.7,1.1-3.5-0.8-2.9c-2.5,0.8-5.1,1.7-7.6,2.5c-3.6,1.2-2,0.8-3.3-1.3c-1.9-2.9-4.4-0.4-6.8,0.5c-1.8,0.7-1.1,3.5,0.8,2.9
				c3.1-1,6.1-2.1,9.1-3.2c1.8-0.7,1.1-3.2-0.8-2.9c-2.3,0.4-5.1,1.3-5.5,4c-0.5,3.5,4.2,6.7,5.9,9.2c0.8-0.6,1.6-1.2,2.4-1.8
				c-3.3-3.9-4.2-6.6-9.1-4.3c-4.7,2.2-2.5,4.8-1,9.4c0.4,1.3,2.7,1.6,2.9,0c0.2-1.5-0.9-4.4-0.3-5.6c-0.8,0.1-1.6,0.2-2.4,0.3
				c0.7,0.8,1.1,1,2.2,1c1.8,0,1.9-2.3,0.4-2.9c-0.7-0.3-1.4-0.6-2.1-0.8c0.1,0.9,0.2,1.8,0.4,2.7c2.1-1.2,5-3.2,7.4-3.7
				c2.8-0.5,1.1,0,2.9,0.7c1.5,0.5,2.2,1.2,3.6-0.1c1.4-1.3-0.7-3.5-2.1-2.1c1.2-1.1-2.5-2.1-3.1-2c-3.3,0.2-7.4,3-10.2,4.6
				c-1.2,0.7-0.8,2.3,0.4,2.7c0.7,0.3,1.4,0.6,2.1,0.8c0.1-1,0.3-2,0.4-2.9c0,0-0.1-0.1-0.1-0.1c-0.6-0.7-1.9-0.5-2.4,0.3
				c-1.2,2.4,0.4,3.9,0,6.3c1,0,1.9,0,2.9,0c-0.4-1.2-0.7-2.5-1.2-3.6c-0.7-1.8-0.8-1.2,0-2c2.7-2.6,4.7,1.6,6.3,3.4
				c1.1,1.3,3.3-0.4,2.4-1.8c-1.5-2.3-7.5-7.9-2.1-8.8c-0.3-1-0.5-1.9-0.8-2.9c-3,1.1-6.1,2.2-9.1,3.2c0.3,1,0.5,1.9,0.8,2.9
				c-1,0.4,3-1.2,2.8-1.2c1.8,0-0.1-0.2,0.7,1.1c0.5,0.8,0.7,1.5,1.6,1.9c1.1,0.5,2.2,0,3.3-0.3c3.1-0.9,6.2-2.1,9.3-3.1
				c-0.3-1-0.5-1.9-0.8-2.9c-3.7,1.5-7.4,2.8-11.1,4c-3.9,1.2-8.3,3.1-12.4,3c0,1,0,2,0,3c1.3-0.1,3.8-0.6,5.1-0.3
				c-0.3-0.6-0.7-1.2-1-1.8c-0.4,2.5-3.2,5.6-4.5,7.8c0.9,0.1,1.8,0.2,2.7,0.4c-0.8-2.3-1.4-4.5-1.7-6.9
				C247.4,20.7,244.4,20.7,244.7,22.6L244.7,22.6z"/>
		</g>
	</g>
	<g>
		<g>
			<path fill="#373737" d="M242.5,10.2c1.4-1.4,3.5-1.8,5-0.4c1.9,1.6,1.2,3.7-1,4.4c-1.5,0.5-4.4,0.4-4.7-1.7
				c-0.1-1.1,0.8-1.8,1.7-2c0.6-0.2,1.4-0.3,2,0c0.7,0,0.9,0.3,0.4,0.9c-0.1,1.2-0.7,1.1-1.9-0.1c0.1-0.4,0.3-0.7,0.4-1.1
				c0.2,0,0.4-0.1,0.5-0.1c-1.8-0.7-2.6,2.2-0.8,2.9c2.1,0.9,3.8-2,2.1-3.5c-1.8-1.5-4.5-0.3-5,1.8c-0.6,2.6,1.9,4.6,4.4,4.1
				c2.5-0.5,4.6-3.1,3.5-5.6c-2.4-5.2-12-1.6-10.1,4c1.7,5.1,9.8,4.7,12.1,0.3c1.4-2.6-0.3-5.8-2.7-7.3c-2.7-1.6-6.1-0.9-8.2,1.2
				C239,9.4,241.1,11.5,242.5,10.2L242.5,10.2z"/>
		</g>
	</g>
	<g>
		<g>
			<path fill="#373737" d="M245.3,14.7c-2.6,4.5-3.5,9.9-3.6,15.1c-0.1,5.1,4.7,9.7,4,14.5c-0.3,1.9,2.6,2.7,2.9,0.8
				c0.5-3.6-1.1-6.4-2.6-9.5c-2.6-5.7-1.1-14,1.9-19.3C248.8,14.6,246.2,13.1,245.3,14.7L245.3,14.7z"/>
		</g>
	</g>
	<g>
		<g>
			<path fill="#373737" d="M247.3,47.3c6.7,3.9,8.6,14.3,7.8,21.3c-0.2,1.9,2.8,1.9,3,0c0.9-8.1-1.6-19.5-9.2-23.9
				C247.1,43.7,245.6,46.3,247.3,47.3L247.3,47.3z"/>
		</g>
	</g>
	<g>
		<g>
			<path fill="#373737" d="M245.5,46c0.8,3.7,1.8,8.9,0.6,12.5c-1,3.1-3.4,5.5-4.9,8.4c-0.9,1.7,1.7,3.2,2.6,1.5
				c1.9-3.6,5-6.6,5.7-10.7c0.6-3.9-0.2-8.6-1-12.5C248,43.3,245.1,44.1,245.5,46L245.5,46z"/>
		</g>
	</g>
	<g>
		<g>
			<path fill="#373737" d="M243.7,27.8c2.1,1.2,4.2,2.4,6.3,3.6c1.2,0.6,2.6,1.2,3.5-0.3c0.4-0.6,0.4-1.4,0.5-2.1
				c0.5-1.9,1.4-3.5,2.4-5.1c1.1-1.6-1.5-3.1-2.6-1.5c-1,1.6-2,3.2-2.5,5.1c-0.2,0.5-0.3,1-0.4,1.5c-0.1,0.8-0.4,0.7,0.2,0.3
				c0.4-0.1,0.8-0.1,1.2-0.2c-1.2-0.3-2.5-1.3-3.6-1.9c-1.2-0.7-2.4-1.3-3.5-2C243.5,24.3,242,26.9,243.7,27.8L243.7,27.8z"/>
		</g>
	</g>
	<g>
		<g>
			<path fill="#FFFF00" d="M273.1,13.7c0.1-0.1,0.2-0.1,0.2-0.2c-0.4,0.1-0.7,0.3-1.1,0.4c-0.4-0.2-0.5-0.2-0.3,0.2
				c0.1,0.3,0.2,0.6,0.2,0.9c0.1,0.4,0.2,0.8,0.3,1.2c0.3,0.9,0.4,2,0.8,2.9c0.6,1.4,2.3,2,3.6,2.7c1.7,0.9,3.2-1.7,1.5-2.6
				c-1-0.6-2.2-0.9-2.6-2c-0.4-1.3-0.7-2.7-1.1-4c-0.6-1.8-2.2-2.8-3.8-1.5C269.5,12.8,271.6,14.9,273.1,13.7L273.1,13.7z"/>
		</g>
	</g>
</g>
<g id="Calque_6">
	<g>
		<g>
			<path fill="#373737" d="M322.1,28.1c1.4,0.5,2.5,2.3,3.8,3.1c1.5,1,3.2,2,4.9,2.8c3.3,1.6,6.3-1.1,9.1-2.7
				c1.7-0.9,0.2-3.5-1.5-2.6c-1.3,0.7-3.1,2.2-4.6,2.6c-1.8,0.4-4.1-1.2-5.6-2.1c-1.9-1.2-3.1-3.2-5.3-4
				C321,24.6,320.3,27.5,322.1,28.1L322.1,28.1z"/>
		</g>
	</g>
	<g>
		<g>
			<path fill="#B3B3B3" d="M323.8,23.7c-0.9,2.4-1.6,4.7-1.9,7.3c-0.2,1.2,1,2.4,2.2,1.7c2.7-1.6,6.6-3,8.5-5.5
				c0.4-0.5,0.2-1.4-0.2-1.8c-1.4-1.3-3.6-1.9-5.3-2.6c-1.7-0.8-3.2,1.6-1.5,2.6c3.7,2.1,8.1,2.6,12.2,3.3c4.3,0.8,8.7,1.5,13,1.9
				c1.7,0.2,2.1-2.7,0.4-2.9c-2.8-0.5-6.1-0.6-8.8-1.5c-3-1-1.1-0.5-1.4-2.7c-0.6-3.4-3.9-2.3-6.5-2.6c-1.7-0.2-2.1,2.7-0.4,2.9
				c3.2,0.5,6.4,1.1,9.6,1.5c1.9,0.3,2.7-2.3,0.8-2.9c-2.2-0.7-5.1-1.4-6.8,0.8c-2.1,2.7,0.6,7.9,0.8,10.9c1-0.1,2-0.3,2.9-0.4
				c-1-5-0.6-7.8-6-8.1c-5.2-0.3-4.5,3-5.3,7.7c-0.3,1.7,1.7,2.6,2.7,1.2c0.8-1.2,1-4,2.1-4.8c-0.7-0.3-1.5-0.6-2.2-0.9
				c0.3,1.1,0.5,1.4,1.5,1.9c1.6,0.8,2.9-1.1,1.8-2.4c-0.5-0.6-1-1.1-1.5-1.7c-0.4,0.9-0.7,1.7-1.1,2.6c2.3-0.1,4.6-0.1,6.9,0.1
				c5.4,0.5,1.8,0.1,3.6,2.1c1.1,1.1,1.3,2.2,3.2,1.7c1.9-0.5,1.1-3.4-0.8-2.9c1.5-0.4-1.2-3-1.8-3.2c-3.1-1.4-7.9-0.9-11.2-0.7
				c-1.4,0-1.9,1.6-1.1,2.6c0.5,0.6,1,1.1,1.5,1.7c0.6-0.8,1.2-1.6,1.8-2.4c0,0-0.1-0.1-0.1-0.1c-0.2-0.9-1.4-1.4-2.2-0.9
				c-2.3,1.5-1.7,3.8-3.2,5.9c0.9,0.4,1.8,0.8,2.7,1.2c0.2-1.2,0.5-2.5,0.6-3.8c0.2-1.9-0.1-1.5,0.9-1.8c3.6-1.1,3.5,3.6,3.9,5.9
				c0.3,1.6,3.1,1.3,2.9-0.4c-0.2-2.2-2.9-10.5,2.2-8.8c0.3-1,0.5-1.9,0.8-2.9c-3.2-0.5-6.4-1-9.6-1.5c-0.1,1-0.3,2-0.4,2.9
				c0.6,0.1,1.2,0.1,1.8,0.2c1.7-0.5,2.2-0.4,1.5,0.4c0,0.1-0.5,0.7-0.4,1c0.2,1.3-0.1,1.6,0.8,2.5c2.4,2.3,9.2,2.1,12.3,2.7
				c0.1-1,0.3-2,0.4-2.9c-4.1-0.4-8.2-1-12.2-1.8c-3.7-0.7-8.1-1.1-11.5-3c-0.5,0.9-1,1.7-1.5,2.6c1.2,0.5,3.7,1.3,4.7,2.2
				c-0.1-0.6-0.2-1.2-0.2-1.8c-1.4,1.8-5.4,3.3-7.4,4.4c0.7,0.6,1.5,1.1,2.2,1.7c0.4-2.5,1-4.9,1.9-7.3
				C327.4,22.7,324.5,21.9,323.8,23.7L323.8,23.7z"/>
		</g>
	</g>
	<g>
		<g>
			<path fill="#373737" d="M324.5,11.2c1.4-1.4,3.5-1.8,5-0.4c1.9,1.6,1.2,3.7-1,4.4c-1.5,0.5-4.4,0.4-4.7-1.7
				c-0.1-1.1,0.8-1.8,1.7-2c0.6-0.2,1.4-0.3,2,0c0.7,0,0.9,0.3,0.4,0.9c-0.1,1.2-0.7,1.1-1.9-0.1c0.1-0.4,0.3-0.7,0.4-1.1
				c0.2,0,0.4-0.1,0.5-0.1c-1.8-0.7-2.6,2.2-0.8,2.9c2.1,0.9,3.8-2,2.1-3.5c-1.8-1.5-4.5-0.3-5,1.8c-0.6,2.6,1.9,4.6,4.4,4.1
				c2.5-0.5,4.6-3.1,3.5-5.6c-2.4-5.2-12-1.6-10.1,4c1.7,5.1,9.8,4.7,12.1,0.3c1.4-2.6-0.3-5.8-2.7-7.3c-2.7-1.6-6.1-0.9-8.2,1.2
				C321,10.4,323.1,12.5,324.5,11.2L324.5,11.2z"/>
		</g>
	</g>
	<g>
		<g>
			<path fill="#373737" d="M322.3,16.7c-5,8.6-2.3,18.4-4.7,27.6c-0.5,1.9,2.4,2.7,2.9,0.8c2.3-8.9-0.4-18.6,4.4-26.8
				C325.8,16.6,323.2,15.1,322.3,16.7L322.3,16.7z"/>
		</g>
	</g>
	<g>
		<g>
			<path fill="#373737" d="M319.3,47.3c6.7,3.9,8.6,14.3,7.8,21.3c-0.2,1.9,2.8,1.9,3,0c0.9-8.1-1.6-19.5-9.2-23.9
				C319.1,43.7,317.6,46.3,319.3,47.3L319.3,47.3z"/>
		</g>
	</g>
	<g>
		<g>
			<path fill="#373737" d="M317.5,46c0.8,3.7,1.8,8.9,0.6,12.5c-1,3.1-3.4,5.5-4.9,8.4c-0.9,1.7,1.7,3.2,2.6,1.5
				c1.9-3.6,5-6.6,5.7-10.7c0.6-3.9-0.2-8.6-1-12.5C320,43.3,317.1,44.1,317.5,46L317.5,46z"/>
		</g>
	</g>
	<g>
		<g>
			<path fill="#373737" d="M320.6,27.5c1.3,2,2.6,4.1,3.9,6.1c0.7,1.1,1.7,2.2,3.1,1.5c0.6-0.3,0.9-0.9,1.4-1.4
				c1.3-1.5,3-2.6,4.7-3.5c1.7-0.9,0.2-3.5-1.5-2.6c-2,1.1-4.5,2.5-5.7,4.5c0,0.1-0.5,0.6-0.5,0.6c0.4-0.2,0.7-0.3,1.1-0.5
				c-0.3-0.5-0.6-0.9-0.9-1.4c-1-1.6-2-3.2-3-4.8C322.1,24.3,319.5,25.8,320.6,27.5L320.6,27.5z"/>
		</g>
	</g>
	<g>
		<g>
			<path fill="#4D4D4D" d="M354.1,30.4c0.2-0.7,0.4-1.2,0.7-1.8c0.4-0.7,0.2-1.6-0.5-2.1c-0.7-0.4-1.7-0.2-2.1,0.5
				c-0.4,0.8-0.8,1.6-1,2.5c-0.2,0.8,0.2,1.7,1,1.8C353,31.6,353.9,31.2,354.1,30.4L354.1,30.4z"/>
		</g>
	</g>
</g>
<g id="Calque_7">
	<g>
		<g>
			<path fill="#373737" d="M388.8,28.3c1.1,1.1,1.1,3.2,1.8,4.6c0.9,1.7,2,3.5,3.1,5.1c2,2.8,6.1,1.8,9.1,1.8c1.9,0,1.9-3,0-3
				c-1.7,0-3.6,0.3-5.2,0.1c-1.8-0.3-2.6-2.3-3.4-3.7c-1.3-2.1-1.5-5-3.3-6.8C389.5,24.8,387.4,26.9,388.8,28.3L388.8,28.3z"/>
		</g>
	</g>
	<g>
		<g>
			<path fill="#B3B3B3" d="M392.4,25.2c-2.1,1.7-3.8,3.6-5.4,5.8c-0.7,0.9,0.2,2.3,1.3,2.3c3.1-0.1,7.2,0.5,10.1-0.8
				c0.6-0.3,0.9-1.1,0.7-1.7c-0.7-1.9-2.4-3.6-3.6-5.2c-1.1-1.4-3.2,0.4-2.4,1.8c1.9,3.4,5.4,5.7,8.4,8.2c3.6,3,7.3,5.9,11.2,8.5
				c1.4,0.9,3.2-1.3,1.8-2.4c-2.1-1.7-5.3-3.4-7-5.5c-1.3-1.6-1.1-0.5-0.6-2.4c0.1-0.4,0.7-0.6,0.8-1.1c0.7-3.1-2.6-3.6-4.6-5.1
				c-1.3-1-3.2,1.3-1.8,2.4c2.6,2.1,5.3,4.1,8,6.1c1.4,1.1,2.9-1.2,1.8-2.4c-1.6-1.7-3.8-3.7-6.4-2.6c-3.2,1.4-3.3,7.2-4.5,9.9
				c0.9,0.4,1.8,0.8,2.7,1.2c1.5-4.9,3.2-7.1-1.3-10c-4.4-2.8-5.4,0.4-8.4,4.2c-1,1.3,0.2,3.1,1.8,2.4c1.3-0.6,2.9-3.1,4.1-3.2
				c-0.5-0.6-1-1.3-1.4-1.9c-0.3,1.1-0.3,1.5,0.4,2.4c1,1.4,3.1,0.5,2.7-1.2c-0.2-0.7-0.3-1.5-0.5-2.2c-0.7,0.6-1.5,1.1-2.2,1.7
				c1.9,1,4.3,1.9,6,3.4c1.6,1.4,1.6,2.1,2.2,3.9c0.4,1.4,0.4,2.2,2,2.6c1.9,0.4,2.7-2.4,0.8-2.9c1.9,0.4,0-3.6-0.4-4
				c-2.3-2.5-6.1-4.2-9.1-5.6c-1.2-0.6-2.5,0.4-2.2,1.7c0.2,0.7,0.3,1.5,0.5,2.2c0.9-0.4,1.8-0.8,2.7-1.2c0,0,0-0.1-0.1-0.1
				c0.2-0.9-0.5-2-1.4-1.9c-2.8,0.3-3.3,2.5-5.6,3.6c0.6,0.8,1.2,1.6,1.8,2.4c0.8-1,1.6-2,2.4-3c0.6-1.7,1.4-2,2.4-0.7
				c2.8,1.3,0.7,4.3-0.1,6.6c-0.5,1.6,2,2.7,2.7,1.2c0.9-2,2.6-10.6,6.2-6.8c0.6-0.8,1.2-1.6,1.8-2.4c-2.5-1.9-4.9-3.7-7.4-5.7
				c-0.6,0.8-1.2,1.6-1.8,2.4c0.1,0.1,2.4,1.4,2.5,1.6c0.4,1.2,0-0.5-0.6,1c-0.3,0.9-1,1.4-0.8,2.4c0.2,1.2,1.2,1.8,2,2.5
				c2.5,2.1,5.1,4.1,7.7,6.1c0.6-0.8,1.2-1.6,1.8-2.4c-3.7-2.5-7.2-5.2-10.6-8c-2.7-2.2-6.2-4.5-7.9-7.6c-0.8,0.6-1.6,1.2-2.4,1.8
				c0.8,1,2.4,2.6,2.8,3.8c0.2-0.6,0.5-1.1,0.7-1.7c-2.1,0.9-6.3,0.3-8.6,0.4c0.4,0.8,0.9,1.5,1.3,2.3c1.5-2,3.1-3.6,4.9-5.2
				C396,26.1,393.9,24,392.4,25.2L392.4,25.2z"/>
		</g>
	</g>
	<g>
		<g>
			<path fill="#373737" d="M389.5,13.2c1.4-1.4,3.5-1.8,5-0.4c1.9,1.6,1.2,3.7-1,4.4c-1.5,0.5-4.4,0.4-4.7-1.7
				c-0.1-1.1,0.8-1.8,1.7-2c0.6-0.2,1.4-0.3,2,0c0.7,0,0.9,0.3,0.4,0.9c-0.1,1.2-0.7,1.1-1.9-0.1c0.1-0.4,0.3-0.7,0.4-1.1
				c0.2,0,0.4-0.1,0.5-0.1c-1.8-0.7-2.6,2.2-0.8,2.9c2.1,0.9,3.8-2,2.1-3.5c-1.8-1.5-4.5-0.3-5,1.8c-0.6,2.6,1.9,4.6,4.4,4.1
				c2.5-0.5,4.6-3.1,3.5-5.6c-2.4-5.2-12-1.6-10.1,4c1.7,5.1,9.8,4.7,12.1,0.3c1.4-2.6-0.3-5.8-2.7-7.3c-2.7-1.6-6.1-0.9-8.2,1.2
				C386,12.4,388.1,14.5,389.5,13.2L389.5,13.2z"/>
		</g>
	</g>
	<g>
		<g>
			<path fill="#373737" d="M390.2,17.7c-2,3.4-2.1,6.6-2.4,10.5c-0.1,2.1-0.4,4.1,0,6.2c0.6,3.4,2.4,6.3,1.8,9.8
				c-0.3,1.9,2.6,2.7,2.9,0.8c0.7-4.1-1-7.2-1.7-11.2c-0.7-4.4-0.3-10.8,2-14.6C393.8,17.6,391.2,16.1,390.2,17.7L390.2,17.7z"/>
		</g>
	</g>
	<g>
		<g>
			<path fill="#373737" d="M391.3,47.3c6.7,3.9,8.6,14.3,7.8,21.3c-0.2,1.9,2.8,1.9,3,0c0.9-8.1-1.6-19.5-9.2-23.9
				C391.1,43.7,389.6,46.3,391.3,47.3L391.3,47.3z"/>
		</g>
	</g>
	<g>
		<g>
			<path fill="#373737" d="M389.5,46c0.8,3.7,1.8,8.9,0.6,12.5c-1,3.1-3.4,5.5-4.9,8.4c-0.9,1.7,1.7,3.2,2.6,1.5
				c1.9-3.6,5-6.6,5.7-10.7c0.6-3.9-0.2-8.6-1-12.5C392,43.3,389.1,44.1,389.5,46L389.5,46z"/>
		</g>
	</g>
	<g>
		<g>
			<path fill="#373737" d="M387.8,26.9c0.2,2.5,0.3,4.9,0.5,7.4c0.1,1.5,0.7,3,2.5,2.7c0.7-0.1,1.3-0.5,2-0.7
				c1.7-0.5,3.5-0.7,5.2-0.7c1.9,0,1.9-3,0-3c-1.9,0-3.9,0.1-5.7,0.7c-0.5,0.2-1,0.3-1.5,0.5c-0.1,0-0.3,0.1-0.4,0.2
				c-0.3,0.3-0.3-0.2,0,0c0.3,0.3,0.7,0.7,1,1c-0.4-1.2-0.3-2.8-0.4-4c-0.1-1.3-0.2-2.7-0.3-4C390.6,25,387.6,25,387.8,26.9
				L387.8,26.9z"/>
		</g>
	</g>
	<g>
		<g>
			<path fill="#4D4D4D" d="M416.6,44.9c1-2.4,3.9-3.2,5.1-5.6c1.4-2.9,4.1-4,4.2-7.5c0.1-1.9-2.9-1.9-3,0c-0.1,1.9-1.6,2.6-2.7,3.9
				c-0.8,1-1,2.3-1.9,3.3c-1.4,1.7-3.4,2.2-4.3,4.3C413.2,45.1,415.8,46.7,416.6,44.9L416.6,44.9z"/>
		</g>
	</g>
</g>
<g id="Calque_8">
	<g>
		<g>
			<path fill="#373737" d="M461.2,28.6c1.4,0.8,2.4,2.9,3.6,4c1.3,1.2,2.8,2.5,4.3,3.5c2.8,1.9,6.3-0.3,9.1-1.3
				c1.8-0.7,1-3.6-0.8-2.9c-1.5,0.5-2.9,1.2-4.4,1.6c-2.3,0.6-3.2-0.7-4.9-2.1c-2-1.6-3.1-4.3-5.4-5.5
				C461,25.1,459.5,27.7,461.2,28.6L461.2,28.6z"/>
		</g>
	</g>
	<g>
		<g>
			<path fill="#B3B3B3" d="M463.9,24.4c-1.4,2.3-2.4,4.7-3.2,7.2c-0.3,1,0.8,2.3,1.8,1.8c2.9-1.1,7.1-1.8,9.3-4
				c0.6-0.6,0.5-1.5,0-2.1c-1.1-1.5-3.3-2.4-4.8-3.4c-1.4-0.9-3.1,1.2-1.8,2.4c2.6,2.3,6,3.3,9.3,4.5c4.8,1.8,9.7,3.5,14.7,4.9
				c1.9,0.5,2.6-2.3,0.8-2.9c-2.5-0.9-5.3-1.5-7.6-2.6c-1.3-0.7-1.8-1-2-2.1c-0.1-0.4,0.5-0.8,0.4-1.3c-0.6-3.2-3-2.5-5.9-3.4
				c-1.9-0.5-2.6,2.3-0.8,2.9c3,1.1,6.1,2.1,9.2,3.1c1.6,0.5,2.7-1.9,1.2-2.7c-2.3-1.2-5.2-2.3-7.2-0.1c-2.2,2.5-0.5,7.8-0.8,10.8
				c1,0,2,0,3,0c-0.2-5.5,0.7-8.2-5.3-9.3c-4.6-0.8-4.6,3.3-5.9,7.1c-0.5,1.5,1.5,2.5,2.5,1.5c1.2-1.2,1.7-3.9,3.2-4.6
				c-0.8-0.4-1.5-0.9-2.3-1.3c0.1,1.3,0.3,1.7,1.4,2.4c1.3,0.9,2.8-0.8,2.1-2.1c-0.4-0.6-0.8-1.3-1.2-1.9c-0.4,0.8-0.9,1.5-1.3,2.3
				c2.1,0.3,6.2,0.5,8,1.7c1.3,0.8,1.2,1.9,1.9,2.8c0.8,1,1.2,1.7,2.6,1.6c1.9-0.2,1.9-3.2,0-3c1.8-0.2-1.6-3.5-1.9-3.7
				c-2.9-1.7-7.4-1.9-10.7-2.4c-1.2-0.2-1.8,1.4-1.3,2.3c0.4,0.6,0.8,1.3,1.2,1.9c0.7-0.7,1.4-1.4,2.1-2.1c0,0.1,0.1,0.1,0.1,0.2
				c-0.1-1.2-1.2-1.8-2.3-1.3c-2.3,1.1-2,3.4-3.8,5c0.8,0.5,1.7,1,2.5,1.5c0.6-1.7,1.2-5.6,3.9-4.6c1.9,0.7,1.3,4.2,1.4,6
				c0.1,2,2.8,1.9,3,0c0.1-1.7-1.1-10.6,3.5-8.2c0.4-0.9,0.8-1.8,1.2-2.7c-3.1-1-6.1-2-9.2-3.1c-0.3,1-0.5,1.9-0.8,2.9
				c-1.1-0.3,2.8,0.8,2.8,0.7c0.8,0.9-0.1,0.2-0.1,1.4c0,1.1-0.3,1.6,0.3,2.5c0.6,1,1.8,1.2,2.8,1.6c3,1.2,6.2,2.2,9.2,3.2
				c0.3-1,0.5-1.9,0.8-2.9c-3.8-1-7.6-2.2-11.3-3.6c-3.6-1.3-8.4-2.5-11.4-5c-0.6,0.8-1.2,1.6-1.8,2.4c1.2,0.8,3.3,1.8,4.2,2.9
				c0-0.7,0-1.4,0-2.1c-1.7,1.6-5.8,2.4-8,3.2c0.6,0.6,1.2,1.2,1.8,1.8c0.7-2.3,1.7-4.4,2.9-6.5C467.4,24.3,464.9,22.8,463.9,24.4
				L463.9,24.4z"/>
		</g>
	</g>
	<g>
		<g>
			<path fill="#373737" d="M461.5,13.2c1.4-1.4,3.5-1.8,5-0.4c1.9,1.6,1.2,3.7-1,4.4c-1.5,0.5-4.4,0.4-4.7-1.7
				c-0.1-1.1,0.8-1.8,1.7-2c0.6-0.2,1.4-0.3,2,0c0.7,0,0.9,0.3,0.4,0.9c-0.1,1.2-0.7,1.1-1.9-0.1c0.1-0.4,0.3-0.7,0.4-1.1
				c0.2,0,0.4-0.1,0.5-0.1c-1.8-0.7-2.6,2.2-0.8,2.9c2.1,0.9,3.8-2,2.1-3.5c-1.8-1.5-4.5-0.3-5,1.8c-0.6,2.6,1.9,4.6,4.4,4.1
				c2.5-0.5,4.6-3.1,3.5-5.6c-2.4-5.2-12-1.6-10.1,4c1.7,5.1,9.8,4.7,12.1,0.3c1.4-2.6-0.3-5.8-2.7-7.3c-2.7-1.6-6.1-0.9-8.2,1.2
				C458,12.4,460.1,14.5,461.5,13.2L461.5,13.2z"/>
		</g>
	</g>
	<g>
		<g>
			<path fill="#373737" d="M462.2,17.7c-2,3.4-2.1,6.6-2.4,10.5c-0.1,2.1-0.4,4.1,0,6.2c0.6,3.4,2.4,6.3,1.8,9.8
				c-0.3,1.9,2.6,2.7,2.9,0.8c0.7-4.1-1-7.2-1.7-11.2c-0.7-4.4-0.3-10.8,2-14.6C465.8,17.6,463.2,16.1,462.2,17.7L462.2,17.7z"/>
		</g>
	</g>
	<g>
		<g>
			<path fill="#373737" d="M463.3,47.3c6.7,3.9,8.6,14.3,7.8,21.3c-0.2,1.9,2.8,1.9,3,0c0.9-8.1-1.6-19.5-9.2-23.9
				C463.1,43.7,461.6,46.3,463.3,47.3L463.3,47.3z"/>
		</g>
	</g>
	<g>
		<g>
			<path fill="#373737" d="M461.5,46c0.8,3.7,1.8,8.9,0.6,12.5c-1,3.1-3.4,5.5-4.9,8.4c-0.9,1.7,1.7,3.2,2.6,1.5
				c1.9-3.6,5-6.6,5.7-10.7c0.6-3.9-0.2-8.6-1-12.5C464,43.3,461.1,44.1,461.5,46L461.5,46z"/>
		</g>
	</g>
	<g>
		<g>
			<path fill="#373737" d="M460.1,28c0.9,2.2,1.8,4.5,2.9,6.7c0.6,1.2,1.4,2.3,2.9,1.7c0.6-0.3,1.1-0.9,1.7-1.3
				c1.4-1.1,3.1-1.9,4.9-2.5c1.8-0.6,1-3.5-0.8-2.9c-1.8,0.6-3.6,1.3-5.1,2.4c-0.4,0.3-0.9,0.6-1.3,1c-0.1,0.1-0.4,0.3-0.5,0.4
				c-0.2,0.3-0.2-0.1,0.2-0.1c0.4,0.2,0.9,0.5,1.3,0.7c-1.6-2.1-2.4-5.4-3.4-7.8C461.9,24.7,459.3,26.2,460.1,28L460.1,28z"/>
		</g>
	</g>
	<g>
		<g>
			<path fill="#4D4D4D" d="M492.1,35.4c0.4-0.6,0.8-1.1,1.2-1.7c0.5-0.7,0.1-1.7-0.5-2.1c-0.7-0.4-1.6-0.1-2.1,0.5
				c-0.4,0.6-0.8,1.1-1.2,1.7c-0.5,0.7-0.1,1.7,0.5,2.1C490.8,36.4,491.7,36.1,492.1,35.4L492.1,35.4z"/>
		</g>
	</g>
</g>
<g id="Calque_9">
	<g>
		<g>
			<path fill="#373737" d="M534.6,27.1c1.7,0.4,3.3,2,4.9,2.7c1.6,0.7,3.3,1.4,5,1.9c3.4,1,6.1-2.3,8.5-4.3c1.5-1.2-0.6-3.3-2.1-2.1
				c-1.4,1.1-3.7,3.5-5.6,3.5c-1,0-2.5-0.9-3.4-1.3c-2.3-0.9-4.1-2.8-6.5-3.4C533.5,23.8,532.7,26.7,534.6,27.1L534.6,27.1z"/>
		</g>
	</g>
	<g>
		<g>
			<path fill="#B3B3B3" d="M535.9,22.3c-0.5,2.6-0.8,5.2-0.8,7.9c0,1.4,1.6,1.9,2.6,1.1c2.2-1.8,5.9-4,7.3-6.5
				c0.4-0.7,0.2-1.6-0.5-2.1c-1.6-1-3.9-1.2-5.7-1.7c-1.9-0.5-2.6,2.2-0.8,2.9c3.7,1.4,7.8,1.1,11.7,1.2c4.6,0.1,9.1,0.1,13.7-0.2
				c1.9-0.1,2-3,0-3c-2.7,0-5.3,0-8-0.1c-3.9,0-2,0-2.6-2.4c-0.8-3.3-4.2-1.7-6.6-1.6c-1.9,0.1-1.9,3,0,3c3.2,0,6.4,0,9.7-0.1
				c1.6,0,2.1-2.7,0.4-2.9c-2.4-0.4-5.4-0.7-6.8,1.8c-1.8,3.2,1.8,7.8,2.6,10.8c1-0.3,1.9-0.5,2.9-0.8c-2-5.1-2-8-7.9-7.2
				c-4.7,0.7-3.4,4.4-3.4,8.6c0,1.4,2.1,2.1,2.8,0.8c0.7-1.4,0.5-4.4,1.5-5.4c-0.8-0.2-1.7-0.4-2.5-0.7c0.5,1.2,0.7,1.5,2,1.9
				c1.4,0.4,2.6-1.5,1.5-2.5c-0.6-0.5-1.1-1-1.7-1.5c-0.2,0.8-0.4,1.7-0.7,2.5c2.3-0.5,5.7-1.6,8.1-1.1c4.3,0.9,0.9,0.9,2.9,2.1
				c1.3,0.8,1.7,1.1,3.1,0.5c1.8-0.8,0.2-3.4-1.5-2.6c2.1-1-2.2-2.9-2.6-3c-3.2-0.7-7.7,0.5-10.9,1.2c-1.1,0.2-1.5,1.8-0.7,2.5
				c0.6,0.5,1.1,1,1.7,1.5c0.5-0.8,1-1.7,1.5-2.5c0,0.1,0.1,0.1,0.1,0.2c-0.4-1-1.6-1.5-2.5-0.7c-1.9,1.8-0.8,3.7-2,6
				c0.9,0.3,1.9,0.5,2.8,0.8c0-1.3,0-2.6,0-3.8c-0.6-1.7-0.2-2.3,1.2-1.8c3-0.7,3.3,2.9,4.2,5.1c0.7,1.8,3.4,1.1,2.9-0.8
				c-0.4-1.7-0.9-3.3-1.6-5c-0.5-1.2-2.9-4.8,2.1-4c0.1-1,0.3-2,0.4-2.9c-3.2,0.1-6.4,0.1-9.7,0.1c0,1,0,2,0,3
				c1.9-0.1,2.4-0.2,3.3,1.2c0.7,1.2,0.1,1.5,1.3,2.3c2.8,1.8,9.4,0.5,12.6,0.6c0-1,0-2,0-3c-4,0.3-7.9,0.3-11.9,0.2
				c-4.1-0.1-8.9,0.3-12.7-1.2c-0.3,1-0.5,1.9-0.8,2.9c1.3,0.3,3.8,0.6,4.9,1.4c-0.2-0.7-0.4-1.4-0.5-2.1c-1.2,2.2-4.9,4.3-6.8,5.9
				c0.9,0.4,1.7,0.7,2.6,1.1c0-2.5,0.1-4.6,0.7-7.1C539.1,21.2,536.2,20.4,535.9,22.3L535.9,22.3z"/>
		</g>
	</g>
	<g>
		<g>
			<path fill="#373737" d="M533.5,12.2c1.4-1.4,3.5-1.8,5-0.4c1.9,1.6,1.2,3.7-1,4.4c-1.5,0.5-4.4,0.4-4.7-1.7
				c-0.1-1.1,0.8-1.8,1.7-2c0.6-0.2,1.4-0.3,2,0c0.7,0,0.9,0.3,0.4,0.9c-0.1,1.2-0.7,1.1-1.9-0.1c0.1-0.4,0.3-0.7,0.4-1.1
				c0.2,0,0.4-0.1,0.5-0.1c-1.8-0.7-2.6,2.2-0.8,2.9c2.1,0.9,3.8-2,2.1-3.5c-1.8-1.5-4.5-0.3-5,1.8c-0.6,2.6,1.9,4.6,4.4,4.1
				c2.5-0.5,4.6-3.1,3.5-5.6c-2.4-5.2-12-1.6-10.1,4c1.7,5.1,9.8,4.7,12.1,0.3c1.4-2.6-0.3-5.8-2.7-7.3c-2.7-1.6-6.1-0.9-8.2,1.2
				C530,11.4,532.1,13.5,533.5,12.2L533.5,12.2z"/>
		</g>
	</g>
	<g>
		<g>
			<path fill="#373737" d="M536.3,15.7c-2.1,3.6-2.9,7.5-3.3,11.7c-0.6,5.6,1.7,11.4,0.7,16.9c-0.3,1.9,2.5,2.7,2.9,0.8
				c0.8-4.4-0.7-8.2-0.9-12.5c-0.2-5.1,0.7-10.9,3.3-15.3C539.8,15.6,537.2,14.1,536.3,15.7L536.3,15.7z"/>
		</g>
	</g>
	<g>
		<g>
			<path fill="#373737" d="M535.3,47.3c6.7,3.9,8.6,14.3,7.8,21.3c-0.2,1.9,2.8,1.9,3,0c0.9-8.1-1.6-19.5-9.2-23.9
				C535.1,43.7,533.6,46.3,535.3,47.3L535.3,47.3z"/>
		</g>
	</g>
	<g>
		<g>
			<path fill="#373737" d="M533.5,46c0.8,3.7,1.8,8.9,0.6,12.5c-1,3.1-3.4,5.5-4.9,8.4c-0.9,1.7,1.7,3.2,2.6,1.5
				c1.9-3.6,5-6.6,5.7-10.7c0.6-3.9-0.2-8.6-1-12.5C536,43.3,533.1,44.1,533.5,46L533.5,46z"/>
		</g>
	</g>
	<g>
		<g>
			<path fill="#373737" d="M533.3,26.8c1.6,1.8,3.1,3.6,4.8,5.4c0.8,0.9,1.5,1.6,2.7,1.2c2.8-0.9,3.8-4.5,5.9-6.2
				c1.5-1.2-0.6-3.3-2.1-2.1c-0.9,0.7-1.6,1.6-2.2,2.6c-0.6,0.9-1.5,2.6-2.7,3c0.4,0.1,0.8,0.1,1.2,0.2c-1-0.7-1.9-2.1-2.7-3
				c-0.9-1-1.8-2-2.7-3C534.2,23.3,532.1,25.4,533.3,26.8L533.3,26.8z"/>
		</g>
	</g>
</g>
<g id="Calque_10">
	<g>
		<g>
			<path fill="#373737" d="M606.6,27.1c1.7,0.4,3.3,2,4.9,2.7c1.6,0.7,3.3,1.4,5,1.9c3.4,1,6.1-2.3,8.5-4.3c1.5-1.2-0.6-3.3-2.1-2.1
				c-1.4,1.1-3.7,3.5-5.6,3.5c-1,0-2.5-0.9-3.4-1.3c-2.3-0.9-4.1-2.8-6.5-3.4C605.5,23.8,604.7,26.7,606.6,27.1L606.6,27.1z"/>
		</g>
	</g>
	<g>
		<g>
			<path fill="#B3B3B3" d="M607.9,22.3c-0.5,2.6-0.8,5.2-0.8,7.9c0,1.4,1.6,1.9,2.6,1.1c2.2-1.8,5.9-4,7.3-6.5
				c0.4-0.7,0.2-1.6-0.5-2.1c-1.6-1-3.9-1.2-5.7-1.7c-1.9-0.5-2.6,2.2-0.8,2.9c3.7,1.4,7.8,1.1,11.7,1.2c4.6,0.1,9.1,0.1,13.7-0.2
				c1.9-0.1,2-3,0-3c-2.7,0-5.3,0-8-0.1c-3.9,0-2,0-2.6-2.4c-0.8-3.3-4.2-1.7-6.6-1.6c-1.9,0.1-1.9,3,0,3c3.2,0,6.4,0,9.7-0.1
				c1.6,0,2.1-2.7,0.4-2.9c-2.4-0.4-5.4-0.7-6.8,1.8c-1.8,3.2,1.8,7.8,2.6,10.8c1-0.3,1.9-0.5,2.9-0.8c-2-5.1-2-8-7.9-7.2
				c-4.7,0.7-3.4,4.4-3.4,8.6c0,1.4,2.1,2.1,2.8,0.8c0.7-1.4,0.5-4.4,1.5-5.4c-0.8-0.2-1.7-0.4-2.5-0.7c0.5,1.2,0.7,1.5,2,1.9
				c1.4,0.4,2.6-1.5,1.5-2.5c-0.6-0.5-1.1-1-1.7-1.5c-0.2,0.8-0.4,1.7-0.7,2.5c2.3-0.5,5.7-1.6,8.1-1.1c4.3,0.9,0.9,0.9,2.9,2.1
				c1.3,0.8,1.7,1.1,3.1,0.5c1.8-0.8,0.2-3.4-1.5-2.6c2.1-1-2.2-2.9-2.6-3c-3.2-0.7-7.7,0.5-10.9,1.2c-1.1,0.2-1.5,1.8-0.7,2.5
				c0.6,0.5,1.1,1,1.7,1.5c0.5-0.8,1-1.7,1.5-2.5c0,0.1,0.1,0.1,0.1,0.2c-0.4-1-1.6-1.5-2.5-0.7c-1.9,1.8-0.8,3.7-2,6
				c0.9,0.3,1.9,0.5,2.8,0.8c0-1.3,0-2.6,0-3.8c-0.6-1.7-0.2-2.3,1.2-1.8c3-0.7,3.3,2.9,4.2,5.1c0.7,1.8,3.4,1.1,2.9-0.8
				c-0.4-1.7-0.9-3.3-1.6-5c-0.5-1.2-2.9-4.8,2.1-4c0.1-1,0.3-2,0.4-2.9c-3.2,0.1-6.4,0.1-9.7,0.1c0,1,0,2,0,3
				c1.9-0.1,2.4-0.2,3.3,1.2c0.7,1.2,0.1,1.5,1.3,2.3c2.8,1.8,9.4,0.5,12.6,0.6c0-1,0-2,0-3c-4,0.3-7.9,0.3-11.9,0.2
				c-4.1-0.1-8.9,0.3-12.7-1.2c-0.3,1-0.5,1.9-0.8,2.9c1.3,0.3,3.8,0.6,4.9,1.4c-0.2-0.7-0.4-1.4-0.5-2.1c-1.2,2.2-4.9,4.3-6.8,5.9
				c0.9,0.4,1.7,0.7,2.6,1.1c0-2.5,0.1-4.6,0.7-7.1C611.1,21.2,608.2,20.4,607.9,22.3L607.9,22.3z"/>
		</g>
	</g>
	<g>
		<g>
			<path fill="#373737" d="M605.5,12.2c1.4-1.4,3.5-1.8,5-0.4c1.9,1.6,1.2,3.7-1,4.4c-1.5,0.5-4.4,0.4-4.7-1.7
				c-0.1-1.1,0.8-1.8,1.7-2c0.6-0.2,1.4-0.3,2,0c0.7,0,0.9,0.3,0.4,0.9c-0.1,1.2-0.7,1.1-1.9-0.1c0.1-0.4,0.3-0.7,0.4-1.1
				c0.2,0,0.4-0.1,0.5-0.1c-1.8-0.7-2.6,2.2-0.8,2.9c2.1,0.9,3.8-2,2.1-3.5c-1.8-1.5-4.5-0.3-5,1.8c-0.6,2.6,1.9,4.6,4.4,4.1
				c2.5-0.5,4.6-3.1,3.5-5.6c-2.4-5.2-12-1.6-10.1,4c1.7,5.1,9.8,4.7,12.1,0.3c1.4-2.6-0.3-5.8-2.7-7.3c-2.7-1.6-6.1-0.9-8.2,1.2
				C602,11.4,604.1,13.5,605.5,12.2L605.5,12.2z"/>
		</g>
	</g>
	<g>
		<g>
			<path fill="#373737" d="M608.3,15.7c-2.1,3.6-2.9,7.5-3.3,11.7c-0.6,5.6,1.7,11.4,0.7,16.9c-0.3,1.9,2.5,2.7,2.9,0.8
				c0.8-4.4-0.7-8.2-0.9-12.5c-0.2-5.1,0.7-10.9,3.3-15.3C611.8,15.6,609.2,14.1,608.3,15.7L608.3,15.7z"/>
		</g>
	</g>
	<g>
		<g>
			<path fill="#373737" d="M607.3,47.3c6.7,3.9,8.6,14.3,7.8,21.3c-0.2,1.9,2.8,1.9,3,0c0.9-8.1-1.6-19.5-9.2-23.9
				C607.1,43.7,605.6,46.3,607.3,47.3L607.3,47.3z"/>
		</g>
	</g>
	<g>
		<g>
			<path fill="#373737" d="M605.5,46c0.8,3.7,1.8,8.9,0.6,12.5c-1,3.1-3.4,5.5-4.9,8.4c-0.9,1.7,1.7,3.2,2.6,1.5
				c1.9-3.6,5-6.6,5.7-10.7c0.6-3.9-0.2-8.6-1-12.5C608,43.3,605.1,44.1,605.5,46L605.5,46z"/>
		</g>
	</g>
	<g>
		<g>
			<path fill="#373737" d="M605.3,26.8c1.6,1.8,3.1,3.6,4.8,5.4c0.8,0.9,1.5,1.6,2.7,1.2c2.8-0.9,3.8-4.5,5.9-6.2
				c1.5-1.2-0.6-3.3-2.1-2.1c-0.9,0.7-1.6,1.6-2.2,2.6c-0.6,0.9-1.5,2.6-2.7,3c0.4,0.1,0.8,0.1,1.2,0.2c-1-0.7-1.9-2.1-2.7-3
				c-0.9-1-1.8-2-2.7-3C606.2,23.3,604.1,25.4,605.3,26.8L605.3,26.8z"/>
		</g>
	</g>
</g>
</svg>
