<?xml version="1.0" encoding="utf-8"?>
<!-- Generator: Adobe Illustrator 22.1.0, SVG Export Plug-In . SVG Version: 6.00 Build 0)  -->
<svg version="1.1" xmlns="http://www.w3.org/2000/svg" xmlns:xlink="http://www.w3.org/1999/xlink" x="0px" y="0px" width="792px"
	 height="72px" viewBox="0 0 792 72" enable-background="new 0 0 792 72" xml:space="preserve">
<g id="Calque_1">
	<g>
		<g>
			<path fill="#373737" d="M33.6,17C33,14.1,38,12.5,38,15.7c0,3.2-6.1,3.5-5.4,0.9c0.3-1.1,1.7-1.9,2.8-2.1c1.7-0.3,3,1.2,0.9,2
				c-0.8,0.3-2.8,0.7-3.5,0.1c-0.6-0.5-0.5-0.7,0-1.1c0.2-0.2,1.4-0.6,1.7-0.6c0.4,0.1,0.7,0.3,1.1,0.4c0,0,0.1,0,0.1,0.1
				c-0.1,0.4-0.1,0.8-0.2,1.2c0.3-0.3,0.6-0.5,1.1-0.3c-0.4-0.1-0.7-0.3-1.1-0.4c-0.1-0.4-0.3-0.6-0.6-0.8c0.2-0.4,0.3-0.4,0.3-0.1
				c0.1,0.3,0,0.5-0.5,0.6c-0.3,0.1-0.6,0.1-0.8-0.1c-1.6-0.5-0.9-1.2,0.2-1.8c1.2-0.7,2.3-0.5,2.9,0.9c1,2.1-0.9,2.3-2.4,2.6
				c-1.9,0.3-1.1,3.2,0.8,2.9c2.6-0.4,5.4-1.8,5-4.9c-0.4-2.7-2.5-5.1-5.4-4.8c-2,0.2-5.2,2.1-5.1,4.3c0.1,2.5,3,4.3,5.3,3.9
				c2.3-0.4,4.2-2.9,2.9-5.2c-1.2-2-4.2-2.2-5.5-0.2c-1.3,2-0.1,4.9,2.4,5.1c2.1,0.2,4.7-2,3.2-4.2c-1.4-1.9-5.2-0.4-5.3,1.8
				c-0.2,2.7,3.8,2.7,4.2,0.2c0.5-2.6-1.8-4.5-4.3-3.8c-2.2,0.7-4,2.7-3,5.1c2.1,4.7,12.5,2.5,10.7-3.1c-1.8-5.7-11.2-2.1-10.8,3.1
				c0.2,3.2,3.7,4.3,6.5,3.8c2.9-0.5,5.2-3,5-6c-0.3-3.1-3.3-4.9-6.1-4.1c-3,0.9-4.7,3.6-4.1,6.7C31.1,19.7,34,18.9,33.6,17L33.6,17
				z"/>
		</g>
	</g>
	<g>
		<g>
			<path fill="#373737" d="M34.7,20.3c-0.3,8.1,0.4,16.1,2.2,24.1c0.4,1.9,3.3,1.1,2.9-0.8c-1.7-7.7-2.4-15.4-2.1-23.3
				C37.8,18.4,34.8,18.4,34.7,20.3L34.7,20.3z"/>
		</g>
	</g>
	<g>
		<g>
			<path fill="#373737" d="M36.1,46c-1.6,3.3-4.5,6.3-5.7,9.7c-1.1,3.1-0.6,7-0.5,10.3c0,1.9,3,1.9,3,0c-0.1-3.3-0.7-7.5,1-10.5
				c1.6-2.7,3.4-5.1,4.8-8C39.6,45.8,37,44.2,36.1,46L36.1,46z"/>
		</g>
	</g>
	<g>
		<g>
			<path fill="#373737" d="M37.6,45.8c1.1,3.2-1,7-0.9,10.4c0.1,3.6,0.7,7.2,1.7,10.6c0.5,1.9,3.4,1.1,2.9-0.8
				c-1.1-4.1-2.1-8.7-1.4-12.9c0.5-2.9,1.7-5.1,0.7-8.1C39.8,43.2,36.9,44,37.6,45.8L37.6,45.8z"/>
		</g>
	</g>
	<g>
		<g>
			<path fill="#373737" d="M38.1,25.9c0.9-1.1,0.7-1.3-0.7-0.8c-0.4,0.1-0.8,0.1-1.2,0.2c-1.5,0.2-2.9,0.4-4.4,0.7
				c-2.1,0.3-7.1,1.9-8.9,0.7c-1.6-1-3.1,1.6-1.5,2.6c2.2,1.4,4.8,0.6,7.3,0.2c3.4-0.5,7.4-0.6,10.8-1.6c3.7-1.2,2.2-5.1-1.4-4.9
				C36.2,23,36.1,26,38.1,25.9L38.1,25.9z"/>
		</g>
	</g>
	<g>
		<g>
			<path fill="#373737" d="M34.2,24.6c-1.8,0.1-3.5,0.9-5.3,1.2c-2.7,0.5-5.3,0.3-8-0.3c-1.9-0.4-2.7,2.5-0.8,2.9
				c2.4,0.5,4.8,0.8,7.2,0.6c2.3-0.2,4.5-1.3,6.8-1.4C36.1,27.5,36.1,24.5,34.2,24.6L34.2,24.6z"/>
		</g>
	</g>
	<g>
		<g>
			<path fill="#FF0000" d="M18.5,29.7C18.5,29.6,18.5,29.6,18.5,29.7C18.5,29.6,18.5,29.6,18.5,29.7c-0.1,0.3-0.1,0.3-0.1,0.2
				c-0.1,0.1-0.1,0.2,0,0.1c-0.5,0.6-0.6,1.5,0,2.1c0.5,0.5,1.6,0.6,2.1,0c0.8-0.9,1-1.9,0.9-3.1c-0.1-0.8-1.1-1.2-1.8-1
				C18.7,28.1,18.4,28.9,18.5,29.7L18.5,29.7z"/>
		</g>
	</g>
	<g>
		<g>
			<path fill="#FF0000" d="M23.3,25.7c2.6-5.1,4.7-10.3,6.8-15.5C30.6,9,29.3,8,28.3,8.3c-2.4,0.7-3.8,4.1-4.8,6.2
				c-1.4,2.9-1.9,6.2-2.6,9.3c-0.3,1.3,1,2.3,2.2,1.7c2.2-1.1,3.6-4.7,4.5-6.8c1.3-2.9,2-5.9,2.3-9c0.2-1.9-2.8-1.9-3,0
				c-0.3,2.5-0.9,4.9-1.8,7.2c-0.6,1.5-2,5.2-3.5,6c0.7,0.6,1.5,1.1,2.2,1.7c0.5-2.2,0.9-4.4,1.5-6.5c0.4-1.3,2.3-6.4,3.8-6.9
				c-0.6-0.6-1.2-1.2-1.8-1.8c-2,5-4.1,10-6.5,14.8C19.8,25.9,22.4,27.4,23.3,25.7L23.3,25.7z"/>
		</g>
	</g>
</g>
<g id="Calque_2">
	<g>
		<g>
			<path fill="#373737" d="M106.6,15c-0.6-2.9,4.4-4.5,4.4-1.3c0,3.2-6.1,3.5-5.4,0.9c0.3-1.1,1.7-1.9,2.8-2.1c1.7-0.3,3,1.2,0.9,2
				c-0.8,0.3-2.8,0.7-3.5,0.1c-0.6-0.5-0.5-0.7,0-1.1c0.2-0.2,1.4-0.6,1.7-0.6c0.4,0.1,0.7,0.3,1.1,0.4c0,0,0.1,0,0.1,0.1
				c-0.1,0.4-0.1,0.8-0.2,1.2c0.3-0.3,0.6-0.5,1.1-0.3c-0.4-0.1-0.7-0.3-1.1-0.4c-0.1-0.4-0.3-0.6-0.6-0.8c0.2-0.4,0.3-0.4,0.3-0.1
				c0.1,0.3,0,0.5-0.5,0.6c-0.3,0.1-0.6,0.1-0.8-0.1c-1.6-0.5-0.9-1.2,0.2-1.8c1.2-0.7,2.3-0.5,2.9,0.9c1,2.1-0.9,2.3-2.4,2.6
				c-1.9,0.3-1.1,3.2,0.8,2.9c2.6-0.4,5.4-1.8,5-4.9c-0.4-2.7-2.5-5.1-5.4-4.8c-2,0.2-5.2,2.1-5.1,4.3c0.1,2.5,3,4.3,5.3,3.9
				c2.3-0.4,4.2-2.9,2.9-5.2c-1.2-2-4.2-2.2-5.5-0.2c-1.3,2-0.1,4.9,2.4,5.1c2.1,0.2,4.7-2,3.2-4.2c-1.4-1.9-5.2-0.4-5.3,1.8
				c-0.2,2.7,3.8,2.7,4.2,0.2c0.5-2.6-1.8-4.5-4.3-3.8c-2.2,0.7-4,2.7-3,5.1c2.1,4.7,12.5,2.5,10.7-3.1c-1.8-5.7-11.2-2.1-10.8,3.1
				c0.2,3.2,3.7,4.3,6.5,3.8c2.9-0.5,5.2-3,5-6c-0.3-3.1-3.3-4.9-6.1-4.1c-3,0.9-4.7,3.6-4.1,6.7C104.1,17.7,107,16.9,106.6,15
				L106.6,15z"/>
		</g>
	</g>
	<g>
		<g>
			<path fill="#373737" d="M107.7,18.3c-0.3,8.1,0.4,16.1,2.2,24.1c0.4,1.9,3.3,1.1,2.9-0.8c-1.7-7.7-2.4-15.4-2.1-23.3
				C110.8,16.4,107.8,16.4,107.7,18.3L107.7,18.3z"/>
		</g>
	</g>
	<g>
		<g>
			<path fill="#373737" d="M109.1,44c-1.6,3.3-4.5,6.3-5.7,9.7c-1.1,3.1-0.6,7-0.5,10.3c0,1.9,3,1.9,3,0c-0.1-3.3-0.7-7.5,1-10.5
				c1.6-2.7,3.4-5.1,4.8-8C112.6,43.8,110,42.2,109.1,44L109.1,44z"/>
		</g>
	</g>
	<g>
		<g>
			<path fill="#FF0000" d="M86.8,25.3C90.5,18,94,10.6,97.1,3.1C97.6,2,96.3,1,95.3,1.3c-2.2,0.7-3.4,3.5-4.4,5.4
				c-1.7,3.2-2.3,6.7-3,10.1c-0.2,1.1,1.1,2.6,2.2,1.7C94.4,15,96.2,8,96.8,2.7c0.2-1.9-2.8-1.9-3,0c-0.5,4-1.9,10.5-5.3,13.2
				c0.7,0.6,1.5,1.1,2.2,1.7c0.5-2.2,0.9-4.6,1.6-6.8c0.5-1.4,2.2-6.2,3.8-6.7c-0.6-0.6-1.2-1.2-1.8-1.8c-3,7.3-6.4,14.4-10,21.4
				C83.3,25.5,85.9,27,86.8,25.3L86.8,25.3z"/>
		</g>
	</g>
	<g>
		<g>
			<path fill="#373737" d="M109.2,22.7c-3.3,0.8-6.3,2.4-9.6,3.1c-4.1,1-7.4-2.9-10.2-5.3c-1.5-1.2-3.6,0.9-2.1,2.1
				c2.6,2.1,5.9,6.1,9.4,6.7c1.8,0.3,3.5-0.6,5.1-1.2c2.7-1.1,5.4-1.9,8.2-2.6C111.9,25.2,111.1,22.3,109.2,22.7L109.2,22.7z"/>
		</g>
	</g>
	<g>
		<g>
			<path fill="#373737" d="M107.4,22.2c-1.5-0.2-2.9-0.5-4.4-0.5c-1.7,0-3.8,0.7-5.4,0c-1.3-0.5-2.3-1.8-3.6-2.6
				c-1.4-0.9-3-1.5-4.6-2.1c-1.8-0.7-2.6,2.2-0.8,2.9c2.1,0.8,3.9,1.8,5.7,3.3c0.9,0.7,1.5,1.4,2.6,1.7c1.1,0.3,2.2,0.1,3.3,0
				c2.2-0.2,4.1-0.1,6.3,0.3C108.5,25.4,109.3,22.5,107.4,22.2L107.4,22.2z"/>
		</g>
	</g>
	<g>
		<g>
			<path fill="#373737" d="M111.9,41.2c-2.3,0.8-8.6,1.6-8.6,5.1c0,1.6,1.6,3.4,2.3,4.7c1.2,2.3,2.2,4.7,3,7.2
				c0.6,1.8,3.5,1.1,2.9-0.8c-0.9-2.7-1.9-5.4-3.3-8c-0.6-1.2-1.9-2.3-1-3.4c0.8-0.9,4.2-1.5,5.4-1.9
				C114.5,43.5,113.7,40.6,111.9,41.2L111.9,41.2z"/>
		</g>
	</g>
</g>
<g id="Calque_3">
	<g>
		<g>
			<path fill="#FF0000" d="M160.8,28c1.1-8.1,2-16.2,2.5-24.3c0.1-1.1-1.3-2-2.3-1.3c-4.3,3.1-2.5,12.8-2,17.1
				c0.2,1.4,1.9,2.1,2.8,0.8c2.9-4.5,2.2-11.8,1.1-16.8c-0.4-1.9-3.3-1.1-2.9,0.8c0.9,4.1,1.6,10.8-0.8,14.5
				c0.9,0.3,1.9,0.5,2.8,0.8c-0.3-2.4-0.7-4.9-0.7-7.3c0-1.2,0.1-6.3,1.2-7.1c-0.8-0.4-1.5-0.9-2.3-1.3c-0.4,7.9-1.3,15.7-2.4,23.5
				C157.7,29.1,160.6,29.9,160.8,28L160.8,28z"/>
		</g>
	</g>
	<g>
		<g>
			<path fill="#373737" d="M167.6,15c-0.6-2.9,4.4-4.5,4.4-1.3c0,3.2-6.1,3.5-5.4,0.9c0.3-1.1,1.7-1.9,2.8-2.1c1.7-0.3,3,1.2,0.9,2
				c-0.8,0.3-2.8,0.7-3.5,0.1c-0.6-0.5-0.5-0.7,0-1.1c0.2-0.2,1.4-0.6,1.7-0.6c0.4,0.1,0.7,0.3,1.1,0.4c0,0,0.1,0,0.1,0.1
				c-0.1,0.4-0.1,0.8-0.2,1.2c0.3-0.3,0.6-0.5,1.1-0.3c-0.4-0.1-0.7-0.3-1.1-0.4c-0.1-0.4-0.3-0.6-0.6-0.8c0.2-0.4,0.3-0.4,0.3-0.1
				c0.1,0.3,0,0.5-0.5,0.6c-0.3,0.1-0.6,0.1-0.8-0.1c-1.6-0.5-0.9-1.2,0.2-1.8c1.2-0.7,2.3-0.5,2.9,0.9c1,2.1-0.9,2.3-2.4,2.6
				c-1.9,0.3-1.1,3.2,0.8,2.9c2.6-0.4,5.4-1.8,5-4.9c-0.4-2.7-2.5-5.1-5.4-4.8c-2,0.2-5.2,2.1-5.1,4.3c0.1,2.5,3,4.3,5.3,3.9
				c2.3-0.4,4.2-2.9,2.9-5.2c-1.2-2-4.2-2.2-5.5-0.2c-1.3,2-0.1,4.9,2.4,5.1c2.1,0.2,4.7-2,3.2-4.2c-1.4-1.9-5.2-0.4-5.3,1.8
				c-0.2,2.7,3.8,2.7,4.2,0.2c0.5-2.6-1.8-4.5-4.3-3.8c-2.2,0.7-4,2.7-3,5.1c2.1,4.7,12.5,2.5,10.7-3.1c-1.8-5.7-11.2-2.1-10.8,3.1
				c0.2,3.2,3.7,4.3,6.5,3.8c2.9-0.5,5.2-3,5-6c-0.3-3.1-3.3-4.9-6.1-4.1c-3,0.9-4.7,3.6-4.1,6.7C165.1,17.7,168,16.9,167.6,15
				L167.6,15z"/>
		</g>
	</g>
	<g>
		<g>
			<path fill="#373737" d="M181.1,44c-1.6,3.3-4.5,6.3-5.7,9.7c-1.1,3.1-0.6,7-0.5,10.3c0,1.9,3,1.9,3,0c-0.1-3.3-0.7-7.5,1-10.5
				c1.6-2.7,3.4-5.1,4.8-8C184.6,43.8,182,42.2,181.1,44L181.1,44z"/>
		</g>
	</g>
	<g>
		<g>
			<path fill="#373737" d="M182.1,43.4c-0.3,3.7-0.4,7.5,1.7,10.7c2.6,3.9,6.9,7,10.3,10.2c1.4,1.3,3.5-0.8,2.1-2.1
				c-2.7-2.6-5.6-5.1-8.3-7.9c-3.2-3.3-3.2-6.6-2.9-10.9C185.3,41.4,182.3,41.4,182.1,43.4L182.1,43.4z"/>
		</g>
	</g>
	<g>
		<g>
			<path fill="#373737" d="M184.8,41.3c-4-2.3-5.7-7.3-7.9-11.2c-1.9-3.4-4.2-7-4.9-11c-0.3-1.9-3.2-1.1-2.9,0.8
				c0.8,4.6,3.6,8.7,5.8,12.7c2.4,4.2,4.1,8.8,8.4,11.2C185,44.8,186.5,42.2,184.8,41.3L184.8,41.3z"/>
		</g>
	</g>
	<g>
		<g>
			<path fill="#373737" d="M171.4,23.8c-1,1-2.1,2-3.1,3c-0.9,0.9-2.3,2.7-3.5,3.2c-1.5,0.5-1.9-1.4-2.6-2.4
				c-0.8-1.2-1.7-2.3-2.7-3.3c-1.3-1.4-3.4,0.7-2.1,2.1c1.7,1.8,2.6,3.9,4,5.8c0.8,1,1.7,1.5,3,1.2c1.6-0.3,3.1-1.8,4.2-2.9
				c1.6-1.5,3.2-3.1,4.9-4.7C175,24.6,172.8,22.5,171.4,23.8L171.4,23.8z"/>
		</g>
	</g>
	<g>
		<g>
			<path fill="#373737" d="M168.7,22.9c-0.8,0.6-1.5,1.2-2.3,1.8c-1.1,0.9-1.7,1.3-2.9,0.3c-1.2-1-2-1.9-3.5-2.5
				c-1.8-0.7-2.6,2.2-0.8,2.9c2.1,0.9,2.8,3.4,5.3,3.5c2.4,0.1,4.6-2.5,6.3-3.8C172.3,23.8,170.2,21.7,168.7,22.9L168.7,22.9z"/>
		</g>
	</g>
</g>
<g id="Calque_4">
	<g>
		<g>
			<path fill="#FF0000" d="M235,27.8c4.2-6.8,8.2-13.8,11.8-21c0.6-1.2-0.4-2.5-1.7-2.2c-2.1,0.5-3.7,3.4-4.8,5.1
				c-1.9,3-2.8,6.5-3.8,9.9c-0.4,1.2,1.1,2.4,2.2,1.7c4.5-3,6.8-9.9,7.8-14.9c0.4-1.9-2.5-2.7-2.9-0.8c-0.8,4.1-2.7,10.6-6.5,13.1
				c0.7,0.6,1.5,1.1,2.2,1.7c0.7-2.5,1.3-5.1,2.5-7.4c0.7-1.4,2.4-5.1,4-5.5c-0.6-0.7-1.1-1.5-1.7-2.2c-3.6,7.1-7.6,14.1-11.8,21
				C231.4,27.9,234,29.4,235,27.8L235,27.8z"/>
		</g>
	</g>
	<g>
		<g>
			<path fill="#373737" d="M247.6,12c-0.6-2.9,4.4-4.5,4.4-1.3c0,3.2-6.1,3.5-5.4,0.9c0.3-1.1,1.7-1.9,2.8-2.1c1.7-0.3,3,1.2,0.9,2
				c-0.8,0.3-2.8,0.7-3.5,0.1c-0.6-0.5-0.5-0.7,0-1.1c0.2-0.2,1.4-0.6,1.7-0.6c0.4,0.1,0.7,0.3,1.1,0.4c0,0,0.1,0,0.1,0.1
				c-0.1,0.4-0.1,0.8-0.2,1.2c0.3-0.3,0.6-0.5,1.1-0.3c-0.4-0.1-0.7-0.3-1.1-0.4c-0.1-0.4-0.3-0.6-0.6-0.8c0.2-0.4,0.3-0.4,0.3-0.1
				c0.1,0.3,0,0.5-0.5,0.6c-0.3,0.1-0.6,0.1-0.8-0.1c-1.6-0.5-0.9-1.2,0.2-1.8c1.2-0.7,2.3-0.5,2.9,0.9c1,2.1-0.9,2.3-2.4,2.6
				c-1.9,0.3-1.1,3.2,0.8,2.9c2.6-0.4,5.4-1.8,5-4.9c-0.4-2.7-2.5-5.1-5.4-4.8c-2,0.2-5.2,2.1-5.1,4.3c0.1,2.5,3,4.3,5.3,3.9
				c2.3-0.4,4.2-2.9,2.9-5.2c-1.2-2-4.2-2.2-5.5-0.2c-1.3,2-0.1,4.9,2.4,5.1c2.1,0.2,4.7-2,3.2-4.2c-1.4-1.9-5.2-0.4-5.3,1.8
				c-0.2,2.7,3.8,2.7,4.2,0.2c0.5-2.6-1.8-4.5-4.3-3.8c-2.2,0.7-4,2.7-3,5.1c2.1,4.7,12.5,2.5,10.7-3.1c-1.8-5.7-11.2-2.1-10.8,3.1
				c0.2,3.2,3.7,4.3,6.5,3.8c2.9-0.5,5.2-3,5-6c-0.3-3.1-3.3-4.9-6.1-4.1c-3,0.9-4.7,3.6-4.1,6.7C245.1,14.7,248,13.9,247.6,12
				L247.6,12z"/>
		</g>
	</g>
	<g>
		<g>
			<path fill="#373737" d="M256.2,40.3c-1.6-8.1-3.2-16.3-4.8-24.4c-0.4-1.9-3.3-1.1-2.9,0.8c1.6,8.1,3.2,16.3,4.8,24.4
				C253.7,43,256.6,42.2,256.2,40.3L256.2,40.3z"/>
		</g>
	</g>
	<g>
		<g>
			<path fill="#373737" d="M253.8,42.1c1.6,3.8,2.4,8.2,4.6,11.7c2.4,3.6,4.7,7.1,6.8,10.9c1,1.7,3.5,0.2,2.6-1.5
				c-1.8-3.1-3.4-6.3-5.5-9.2c-2.7-3.9-3.8-8.2-5.6-12.6C255.9,39.6,253,40.4,253.8,42.1L253.8,42.1z"/>
		</g>
	</g>
	<g>
		<g>
			<path fill="#373737" d="M253.9,40.6c-3,3.2-5.8,6.7-8,10.4c-2.3,3.9-3.3,8.7-4.6,13.1c-0.6,1.9,2.3,2.6,2.9,0.8
				c1.2-4.1,2.1-8.6,4.3-12.3c2.1-3.6,4.8-6.8,7.6-9.8C257.3,41.3,255.2,39.2,253.9,40.6L253.9,40.6z"/>
		</g>
	</g>
	<g>
		<g>
			<path fill="#373737" d="M252.5,21.2c0.7-1,0.6-1.3-0.2-0.8c-0.6,0.2-1.3,0.4-1.9,0.6c-1.4,0.4-2.7,0.9-4.1,1.3
				c-3.5,1-6.9,1.7-10.5,1.1c-1.9-0.3-2.7,2.6-0.8,2.9c4.7,0.7,9-0.1,13.5-1.5c2.3-0.7,7.6-1.1,8.3-3.9c0.1-0.5,0-1.1-0.4-1.5
				c-1.1-0.9-2.4-1.1-3.8-1.1C250.6,18,250.6,21,252.5,21.2L252.5,21.2z"/>
		</g>
	</g>
	<g>
		<g>
			<path fill="#373737" d="M250.2,18.9c-5.7-0.2-10.7,2.5-16.1,3.5c-1.9,0.4-1.1,3.2,0.8,2.9c5.2-1,10-3.6,15.3-3.4
				C252.1,21.9,252.1,18.9,250.2,18.9L250.2,18.9z"/>
		</g>
	</g>
</g>
<g id="Calque_5">
	<g>
		<g>
			<path fill="#373737" d="M320.6,17c-0.6-2.9,4.4-4.5,4.4-1.3c0,3.2-6.1,3.5-5.4,0.9c0.3-1.1,1.7-1.9,2.8-2.1c1.7-0.3,3,1.2,0.9,2
				c-0.8,0.3-2.8,0.7-3.5,0.1c-0.6-0.5-0.5-0.7,0-1.1c0.2-0.2,1.4-0.6,1.7-0.6c0.4,0.1,0.7,0.3,1.1,0.4c0,0,0.1,0,0.1,0.1
				c-0.1,0.4-0.1,0.8-0.2,1.2c0.3-0.3,0.6-0.5,1.1-0.3c-0.4-0.1-0.7-0.3-1.1-0.4c-0.1-0.4-0.3-0.6-0.6-0.8c0.2-0.4,0.3-0.4,0.3-0.1
				c0.1,0.3,0,0.5-0.5,0.6c-0.3,0.1-0.6,0.1-0.8-0.1c-1.6-0.5-0.9-1.2,0.2-1.8c1.2-0.7,2.3-0.5,2.9,0.9c1,2.1-0.9,2.3-2.4,2.6
				c-1.9,0.3-1.1,3.2,0.8,2.9c2.6-0.4,5.4-1.8,5-4.9c-0.4-2.7-2.5-5.1-5.4-4.8c-2,0.2-5.2,2.1-5.1,4.3c0.1,2.5,3,4.3,5.3,3.9
				c2.3-0.4,4.2-2.9,2.9-5.2c-1.2-2-4.2-2.2-5.5-0.2c-1.3,2-0.1,4.9,2.4,5.1c2.1,0.2,4.7-2,3.2-4.2c-1.4-1.9-5.2-0.4-5.3,1.8
				c-0.2,2.7,3.8,2.7,4.2,0.2c0.5-2.6-1.8-4.5-4.3-3.8c-2.2,0.7-4,2.7-3,5.1c2.1,4.7,12.5,2.5,10.7-3.1c-1.8-5.7-11.2-2.1-10.8,3.1
				c0.2,3.2,3.7,4.3,6.5,3.8c2.9-0.5,5.2-3,5-6c-0.3-3.1-3.3-4.9-6.1-4.1c-3,0.9-4.7,3.6-4.1,6.7C318.1,19.7,321,18.9,320.6,17
				L320.6,17z"/>
		</g>
	</g>
	<g>
		<g>
			<path fill="#373737" d="M327.4,42.2c-1.9-6.8-3.7-13.6-3.6-20.7c0-1.9-3-1.9-3,0c-0.1,7.4,1.7,14.4,3.7,21.5
				C325.1,44.8,328,44,327.4,42.2L327.4,42.2z"/>
		</g>
	</g>
	<g>
		<g>
			<path fill="#373737" d="M319.7,24.2c-1.9,2.3-3.9,4.7-5.8,7c-1.2,1.4-3.7,3.4-3.7,5.4c0,5.1,7.2-0.4,8.5-1.4
				c1.5-1.2-0.6-3.3-2.1-2.1c-0.6,0.5-3.1,1.8-3.4,2.4c0.2,0.2,0.4,0.4,0.6,0.7c0.3-0.3,0.6-0.7,0.9-1c0.5-0.6,1-1.2,1.4-1.7
				c1.9-2.3,3.9-4.7,5.8-7C323,24.8,320.9,22.7,319.7,24.2L319.7,24.2z"/>
		</g>
	</g>
	<g>
		<g>
			<path fill="#FF0000" d="M319.2,31.1c-7,3.8-14,7.8-20.7,12.2c-1.1,0.7-0.9,2.3,0.4,2.7c2.1,0.7,4.9-1,6.7-2
				c3.2-1.7,5.6-4.2,8.2-6.7c0.9-0.9,0.2-2.6-1.1-2.6c-5.4,0.3-10.9,5.1-14.3,8.9c-1.3,1.4,0.8,3.6,2.1,2.1
				c2.8-3.2,7.6-7.8,12.2-8.1c-0.4-0.9-0.7-1.7-1.1-2.6c-1.9,1.8-3.7,3.7-5.9,5.2c-1.4,0.9-4.5,3.2-6.1,2.7c0.1,0.9,0.2,1.8,0.4,2.7
				c6.7-4.4,13.7-8.4,20.7-12.2C322.4,32.7,320.9,30.1,319.2,31.1L319.2,31.1z"/>
		</g>
	</g>
	<g>
		<g>
			<path fill="#373737" d="M322.8,25.3c0.4,0.2,3.7,1.2,3.8,1.7c0.1,0.7-2.5,1.7-3,2c-2,1.2-3.9,2.5-5.7,4c-1.5,1.2,0.6,3.3,2.1,2.1
				c1.7-1.4,3.5-2.6,5.4-3.7c1.4-0.8,3.3-1.4,4.1-2.9c1.9-3.6-3.6-5.1-6-6C321.8,21.7,321.1,24.6,322.8,25.3L322.8,25.3z"/>
		</g>
	</g>
	<g>
		<g>
			<path fill="#373737" d="M325,44.1c2.6,2.3,5.6,5.5,6.6,8.9c1.2,4,1.4,8.6,1.8,12.8c0.2,1.9,3.2,1.9,3,0
				c-0.5-4.7-0.6-10.4-2.3-14.8c-1.3-3.3-4.4-6.7-7-9C325.7,40.8,323.6,42.9,325,44.1L325,44.1z"/>
		</g>
	</g>
	<g>
		<g>
			<path fill="#373737" d="M323.2,43c-0.5,9.6-9.9,14.5-16.8,19.6c-1.5,1.1,0,3.7,1.5,2.6c7.8-5.8,17.7-11.2,18.3-22.2
				C326.3,41,323.3,41,323.2,43L323.2,43z"/>
		</g>
	</g>
</g>
<g id="Calque_6">
	<g>
		<g>
			<path fill="#373737" d="M392.6,17c-0.6-2.9,4.4-4.5,4.4-1.3c0,3.2-6.1,3.5-5.4,0.9c0.3-1.1,1.7-1.9,2.8-2.1c1.7-0.3,3,1.2,0.9,2
				c-0.8,0.3-2.8,0.7-3.5,0.1c-0.6-0.5-0.5-0.7,0-1.1c0.2-0.2,1.4-0.6,1.7-0.6c0.4,0.1,0.7,0.3,1.1,0.4c0,0,0.1,0,0.1,0.1
				c-0.1,0.4-0.1,0.8-0.2,1.2c0.3-0.3,0.6-0.5,1.1-0.3c-0.4-0.1-0.7-0.3-1.1-0.4c-0.1-0.4-0.3-0.6-0.6-0.8c0.2-0.4,0.3-0.4,0.3-0.1
				c0.1,0.3,0,0.5-0.5,0.6c-0.3,0.1-0.6,0.1-0.8-0.1c-1.6-0.5-0.9-1.2,0.2-1.8c1.2-0.7,2.3-0.5,2.9,0.9c1,2.1-0.9,2.3-2.4,2.6
				c-1.9,0.3-1.1,3.2,0.8,2.9c2.6-0.4,5.4-1.8,5-4.9c-0.4-2.7-2.5-5.1-5.4-4.8c-2,0.2-5.2,2.1-5.1,4.3c0.1,2.5,3,4.3,5.3,3.9
				c2.3-0.4,4.2-2.9,2.9-5.2c-1.2-2-4.2-2.2-5.5-0.2c-1.3,2-0.1,4.9,2.4,5.1c2.1,0.2,4.7-2,3.2-4.2c-1.4-1.9-5.2-0.4-5.3,1.8
				c-0.2,2.7,3.8,2.7,4.2,0.2c0.5-2.6-1.8-4.5-4.3-3.8c-2.2,0.7-4,2.7-3,5.1c2.1,4.7,12.5,2.5,10.7-3.1c-1.8-5.7-11.2-2.1-10.8,3.1
				c0.2,3.2,3.7,4.3,6.5,3.8c2.9-0.5,5.2-3,5-6c-0.3-3.1-3.3-4.9-6.1-4.1c-3,0.9-4.7,3.6-4.1,6.7C390.1,19.7,393,18.9,392.6,17
				L392.6,17z"/>
		</g>
	</g>
	<g>
		<g>
			<path fill="#373737" d="M399.4,42.2c-1.9-6.8-3.7-13.6-3.6-20.7c0-1.9-3-1.9-3,0c-0.1,7.4,1.7,14.4,3.7,21.5
				C397.1,44.8,400,44,399.4,42.2L399.4,42.2z"/>
		</g>
	</g>
	<g>
		<g>
			<path fill="#FF0000" d="M401.5,38.7c6.7,4.4,13.6,8.6,20.6,12.4c1.2,0.7,2.4-0.4,2.2-1.7c-0.4-2.2-3.3-3.8-5-4.9
				c-3-2-6.4-2.9-9.8-4c-1.2-0.4-2.4,1.1-1.7,2.2c2.8,4.6,9.7,7.1,14.7,8.2c1.9,0.4,2.7-2.5,0.8-2.9c-4.1-0.9-10.5-3-12.9-6.9
				c-0.6,0.7-1.1,1.5-1.7,2.2c2.4,0.8,5.1,1.5,7.4,2.7c1.5,0.8,5,2.5,5.3,4.1c0.7-0.6,1.5-1.1,2.2-1.7c-7-3.8-13.9-8-20.6-12.4
				C401.3,35.1,399.8,37.7,401.5,38.7L401.5,38.7z"/>
		</g>
	</g>
	<g>
		<g>
			<path fill="#373737" d="M397.4,43.8c3.2,3,4.9,7.5,6.8,11.3c2.1,4,4.3,7.9,7,11.6c1.1,1.5,3.7,0,2.6-1.5c-3-4.1-5.4-8.5-7.8-13
				c-1.9-3.7-3.5-7.6-6.6-10.5C398.1,40.4,396,42.5,397.4,43.8L397.4,43.8z"/>
		</g>
	</g>
	<g>
		<g>
			<path fill="#373737" d="M395.7,42.8c-0.8,4.5-0.7,10.8-4.3,13.8c-3.5,2.9-7.9,5.2-11.8,7.7c-1.6,1.1-0.1,3.7,1.5,2.6
				c2.5-1.6,4.9-3.2,7.4-4.8c2.1-1.4,4.9-2.6,6.7-4.5c2.8-2.9,2.7-10,3.4-14C398.9,41.7,396,40.9,395.7,42.8L395.7,42.8z"/>
		</g>
	</g>
	<g>
		<g>
			<path fill="#373737" d="M394.7,25.6c3.7,5.3,7.7,10.4,10.8,16c0.9,1.7,3.5,0.2,2.6-1.5c-3.1-5.6-7.1-10.8-10.8-16
				C396.2,22.5,393.6,24,394.7,25.6L394.7,25.6z"/>
		</g>
	</g>
	<g>
		<g>
			<path fill="#373737" d="M392,24.3c-3.9,2.7-3.5,5.8,0,8.6c4.2,3.3,9.5,5.2,13.2,9.2c1.3,1.4,3.4-0.7,2.1-2.1
				c-2.2-2.4-4.9-4-7.7-5.7c-2.1-1.2-9.9-4.7-6.2-7.3C395.1,25.8,393.6,23.2,392,24.3L392,24.3z"/>
		</g>
	</g>
</g>
<g id="Calque_7">
	<g>
		<g>
			<path fill="#373737" d="M461.6,17c-0.6-2.9,4.4-4.5,4.4-1.3c0,3.2-6.1,3.5-5.4,0.9c0.3-1.1,1.7-1.9,2.8-2.1c1.7-0.3,3,1.2,0.9,2
				c-0.8,0.3-2.8,0.7-3.5,0.1c-0.6-0.5-0.5-0.7,0-1.1c0.2-0.2,1.4-0.6,1.7-0.6c0.4,0.1,0.7,0.3,1.1,0.4c0,0,0.1,0,0.1,0.1
				c-0.1,0.4-0.1,0.8-0.2,1.2c0.3-0.3,0.6-0.5,1.1-0.3c-0.4-0.1-0.7-0.3-1.1-0.4c-0.1-0.4-0.3-0.6-0.6-0.8c0.2-0.4,0.3-0.4,0.3-0.1
				c0.1,0.3,0,0.5-0.5,0.6c-0.3,0.1-0.6,0.1-0.8-0.1c-1.6-0.5-0.9-1.2,0.2-1.8c1.2-0.7,2.3-0.5,2.9,0.9c1,2.1-0.9,2.3-2.4,2.6
				c-1.9,0.3-1.1,3.2,0.8,2.9c2.6-0.4,5.4-1.8,5-4.9c-0.4-2.7-2.5-5.1-5.4-4.8c-2,0.2-5.2,2.1-5.1,4.3c0.1,2.5,3,4.3,5.3,3.9
				c2.3-0.4,4.2-2.9,2.9-5.2c-1.2-2-4.2-2.2-5.5-0.2c-1.3,2-0.1,4.9,2.4,5.1c2.1,0.2,4.7-2,3.2-4.2c-1.4-1.9-5.2-0.4-5.3,1.8
				c-0.2,2.7,3.8,2.7,4.2,0.2c0.5-2.6-1.8-4.5-4.3-3.8c-2.2,0.7-4,2.7-3,5.1c2.1,4.7,12.5,2.5,10.7-3.1c-1.8-5.7-11.2-2.1-10.8,3.1
				c0.2,3.2,3.7,4.3,6.5,3.8c2.9-0.5,5.2-3,5-6c-0.3-3.1-3.3-4.9-6.1-4.1c-3,0.9-4.7,3.6-4.1,6.7C459.1,19.7,462,18.9,461.6,17
				L461.6,17z"/>
		</g>
	</g>
	<g>
		<g>
			<path fill="#FF0000" d="M475.7,26.7c5.5-5.8,10.9-11.8,15.9-18.1c0.8-1,0.3-2.6-1.1-2.6c-2.4,0-4.5,2.6-6,4.2
				c-2.4,2.5-3.9,5.6-5.5,8.6c-0.6,1,0.4,2.7,1.7,2.2c5-2,8.8-8.2,10.8-12.9c0.8-1.8-1.8-3.3-2.6-1.5c-1.7,3.9-4.8,9.9-9,11.5
				c0.6,0.7,1.1,1.5,1.7,2.2c1.1-2,2.1-4.1,3.4-6c0.8-1.1,3.9-5.3,5.5-5.3c-0.4-0.9-0.7-1.7-1.1-2.6c-5,6.2-10.4,12.2-15.9,18.1
				C472.2,26,474.3,28.2,475.7,26.7L475.7,26.7z"/>
		</g>
	</g>
	<g>
		<g>
			<path fill="#373737" d="M462.2,20.7c-2.4,7.9,1.6,17.2,5,24.3c0.8,1.7,3.4,0.2,2.6-1.5c-3-6.2-6.8-15-4.7-21.9
				C465.7,19.6,462.8,18.8,462.2,20.7L462.2,20.7z"/>
		</g>
	</g>
	<g>
		<g>
			<path fill="#373737" d="M467.8,45.2c4.3,8.1,9.8,15.5,16.3,22c1.4,1.4,3.5-0.8,2.1-2.1c-6.4-6.3-11.6-13.5-15.9-21.4
				C469.5,42,466.9,43.5,467.8,45.2L467.8,45.2z"/>
		</g>
	</g>
	<g>
		<g>
			<path fill="#373737" d="M466.7,43.7c0.3,4,1.2,9.6-0.4,13.4c-1.4,3.3-5.5,5.8-7.9,8.6c-1.2,1.5,0.9,3.6,2.1,2.1
				c2.5-3,7.4-5.8,8.8-9.4c1.6-4.2,0.7-10.4,0.4-14.8C469.6,41.8,466.6,41.7,466.7,43.7L466.7,43.7z"/>
		</g>
	</g>
	<g>
		<g>
			<path fill="#373737" d="M463.3,27.9c2.4,0.6,4.7,1.8,7.2,1.4c2.6-0.4,5-2.4,7.2-3.6c1.7-1,0.2-3.5-1.5-2.6
				c-1.8,1-3.6,2.4-5.6,3.1c-2.1,0.7-4.5-0.6-6.6-1.1C462.2,24.5,461.4,27.4,463.3,27.9L463.3,27.9z"/>
		</g>
	</g>
	<g>
		<g>
			<path fill="#373737" d="M461,24.3c-2.4,1.9-3.8,6.5,0.4,7c5.8,0.7,12.1-4.3,16.8-6.9c1.7-0.9,0.2-3.5-1.5-2.6
				c-2.5,1.4-5,2.8-7.6,4.2c-1.2,0.6-2.4,1.3-3.7,1.7c-0.9,0.3-1.9,0.5-2.8,0.6c-0.5-0.9-0.2-1.6,0.6-1.9
				C464.7,25.2,462.5,23.1,461,24.3L461,24.3z"/>
		</g>
	</g>
</g>
<g id="Calque_8">
	<g>
		<g>
			<path fill="#373737" d="M527.6,18c-0.6-2.9,4.4-4.5,4.4-1.3c0,3.2-6.1,3.5-5.4,0.9c0.3-1.1,1.7-1.9,2.8-2.1c1.7-0.3,3,1.2,0.9,2
				c-0.8,0.3-2.8,0.7-3.5,0.1c-0.6-0.5-0.5-0.7,0-1.1c0.2-0.2,1.4-0.6,1.7-0.6c0.4,0.1,0.7,0.3,1.1,0.4c0,0,0.1,0,0.1,0.1
				c-0.1,0.4-0.1,0.8-0.2,1.2c0.3-0.3,0.6-0.5,1.1-0.3c-0.4-0.1-0.7-0.3-1.1-0.4c-0.1-0.4-0.3-0.6-0.6-0.8c0.2-0.4,0.3-0.4,0.3-0.1
				c0.1,0.3,0,0.5-0.5,0.6c-0.3,0.1-0.6,0.1-0.8-0.1c-1.6-0.5-0.9-1.2,0.2-1.8c1.2-0.7,2.3-0.5,2.9,0.9c1,2.1-0.9,2.3-2.4,2.6
				c-1.9,0.3-1.1,3.2,0.8,2.9c2.6-0.4,5.4-1.8,5-4.9c-0.4-2.7-2.5-5.1-5.4-4.8c-2,0.2-5.2,2.1-5.1,4.3c0.1,2.5,3,4.3,5.3,3.9
				c2.3-0.4,4.2-2.9,2.9-5.2c-1.2-2-4.2-2.2-5.5-0.2c-1.3,2-0.1,4.9,2.4,5.1c2.1,0.2,4.7-2,3.2-4.2c-1.4-1.9-5.2-0.4-5.3,1.8
				c-0.2,2.7,3.8,2.7,4.2,0.2c0.5-2.6-1.8-4.5-4.3-3.8c-2.2,0.7-4,2.7-3,5.1c2.1,4.7,12.5,2.5,10.7-3.1c-1.8-5.7-11.2-2.1-10.8,3.1
				c0.2,3.2,3.7,4.3,6.5,3.8c2.9-0.5,5.2-3,5-6c-0.3-3.1-3.3-4.9-6.1-4.1c-3,0.9-4.7,3.6-4.1,6.7C525.1,20.7,528,19.9,527.6,18
				L527.6,18z"/>
		</g>
	</g>
	<g>
		<g>
			<path fill="#FF0000" d="M526.8,26.6c-6.8,4.2-13.6,8.6-20,13.4c-1,0.7-1,2.4,0.4,2.7c2.2,0.6,4.8-1.2,6.6-2.3
				c3.1-1.8,5.4-4.5,7.9-7.1c0.8-0.9,0.3-2.7-1.1-2.6c-5.4,0.6-10.6,5.6-13.8,9.7c-1.2,1.5,0.9,3.6,2.1,2.1
				c2.6-3.3,7.2-8.3,11.7-8.8c-0.4-0.9-0.7-1.7-1.1-2.6c-1.6,1.7-3.1,3.5-4.9,4.9c-1.1,0.9-5.1,4.1-6.7,3.7c0.1,0.9,0.2,1.8,0.4,2.7
				c6.4-4.7,13.2-9.2,20-13.4C530,28.1,528.5,25.5,526.8,26.6L526.8,26.6z"/>
		</g>
	</g>
	<g>
		<g>
			<path fill="#373737" d="M530.3,22.2c4,7.3,9.1,14.4,9.8,22.9c0.2,1.9,3.2,1.9,3,0c-0.8-9.1-5.9-16.6-10.2-24.5
				C531.9,19,529.3,20.5,530.3,22.2L530.3,22.2z"/>
		</g>
	</g>
	<g>
		<g>
			<path fill="#373737" d="M540.1,45.9c0.8,3.3,3.8,6.3,5.6,9.1c2.6,4.2,5.4,8.3,8.4,12.2c1.1,1.5,3.7,0,2.6-1.5
				c-2.6-3.6-5.2-7.2-7.6-10.9c-1.7-2.7-5.3-6.6-6.1-9.7C542.5,43.2,539.6,44,540.1,45.9L540.1,45.9z"/>
		</g>
	</g>
	<g>
		<g>
			<path fill="#373737" d="M540.3,45.3c0.2,9-7.9,15.1-14.5,19.5c-1.6,1.1-0.1,3.7,1.5,2.6c7.5-5,16.2-12,16-22.1
				C543.3,43.3,540.3,43.3,540.3,45.3L540.3,45.3z"/>
		</g>
	</g>
	<g>
		<g>
			<path fill="#373737" d="M535.7,27.4c3.1-0.9,6-2,8.1-4.5c1.9-2.1,2.8-4.7,3.1-7.5c0.2-1.9-2.8-1.9-3,0c-0.5,5.2-4.4,7.8-9,9.1
				C533.1,25,533.8,27.9,535.7,27.4L535.7,27.4z"/>
		</g>
	</g>
	<g>
		<g>
			<path fill="#373737" d="M533.5,24.8c-3.7,0-7,1.3-9.7,3.8c-1.4,1.3,0.7,3.4,2.1,2.1c2.1-1.9,4.8-2.9,7.6-2.9
				C535.4,27.8,535.4,24.8,533.5,24.8L533.5,24.8z"/>
		</g>
	</g>
</g>
<g id="Calque_9">
	<g>
		<g>
			<path fill="#373737" d="M607.6,12c-0.6-2.9,4.4-4.5,4.4-1.3c0,3.2-6.1,3.5-5.4,0.9c0.3-1.1,1.7-1.9,2.8-2.1c1.7-0.3,3,1.2,0.9,2
				c-0.8,0.3-2.8,0.7-3.5,0.1c-0.6-0.5-0.5-0.7,0-1.1c0.2-0.2,1.4-0.6,1.7-0.6c0.4,0.1,0.7,0.3,1.1,0.4c0,0,0.1,0,0.1,0.1
				c-0.1,0.4-0.1,0.8-0.2,1.2c0.3-0.3,0.6-0.5,1.1-0.3c-0.4-0.1-0.7-0.3-1.1-0.4c-0.1-0.4-0.3-0.6-0.6-0.8c0.2-0.4,0.3-0.4,0.3-0.1
				c0.1,0.3,0,0.5-0.5,0.6c-0.3,0.1-0.6,0.1-0.8-0.1c-1.6-0.5-0.9-1.2,0.2-1.8c1.2-0.7,2.3-0.5,2.9,0.9c1,2.1-0.9,2.3-2.4,2.6
				c-1.9,0.3-1.1,3.2,0.8,2.9c2.6-0.4,5.4-1.8,5-4.9c-0.4-2.7-2.5-5.1-5.4-4.8c-2,0.2-5.2,2.1-5.1,4.3c0.1,2.5,3,4.3,5.3,3.9
				c2.3-0.4,4.2-2.9,2.9-5.2c-1.2-2-4.2-2.2-5.5-0.2c-1.3,2-0.1,4.9,2.4,5.1c2.1,0.2,4.7-2,3.2-4.2c-1.4-1.9-5.2-0.4-5.3,1.8
				c-0.2,2.7,3.8,2.7,4.2,0.2c0.5-2.6-1.8-4.5-4.3-3.8c-2.2,0.7-4,2.7-3,5.1c2.1,4.7,12.5,2.5,10.7-3.1c-1.8-5.7-11.2-2.1-10.8,3.1
				c0.2,3.2,3.7,4.3,6.5,3.8c2.9-0.5,5.2-3,5-6c-0.3-3.1-3.3-4.9-6.1-4.1c-3,0.9-4.7,3.6-4.1,6.7C605.1,14.7,608,13.9,607.6,12
				L607.6,12z"/>
		</g>
	</g>
	<g>
		<g>
			<path fill="#FF0000" d="M607.1,40.8c-3,7.4-5.8,15-8.1,22.6c-0.3,1,0.8,2.3,1.8,1.8c5.1-2,5.6-11.9,6.2-16.4
				c0.2-1.4-1.7-1.9-2.6-1.1c-3.9,3.7-5,11-5.2,16c-0.1,1.9,2.9,1.9,3,0c0.1-4.2,0.9-10.8,4.3-13.9c-0.9-0.4-1.7-0.7-2.6-1.1
				c-0.3,2.6-0.5,5.2-1.2,7.7c-0.2,0.5-1.8,5.4-2.7,5.8c0.6,0.6,1.2,1.2,1.8,1.8c2.4-7.6,5.1-15.2,8.1-22.6
				C610.7,39.8,607.8,39.1,607.1,40.8L607.1,40.8z"/>
		</g>
	</g>
	<g>
		<g>
			<path fill="#373737" d="M607.9,16c0,5-0.1,10.1,1.3,15c1.6,6,5.4,11.1,4.5,17.6c-0.2,1.9,2.8,1.9,3,0c0.7-5.2-1.3-9.6-3.2-14.4
				c-2.4-5.9-2.6-11.9-2.6-18.2C610.9,14.1,607.9,14.1,607.9,16L607.9,16z"/>
		</g>
	</g>
	<g>
		<g>
			<path fill="#373737" d="M614.5,49.6c4,5.8,6.2,12.2,6.5,19.2c0.1,1.9,3.1,1.9,3,0c-0.3-7.5-2.6-14.6-6.9-20.8
				C616,46.5,613.4,48,614.5,49.6L614.5,49.6z"/>
		</g>
	</g>
	<g>
		<g>
			<path fill="#373737" d="M612.5,48c-4.2,6.2-6.8,13.7-11.5,19.5c-1.2,1.5,0.9,3.6,2.1,2.1c4.9-6.1,7.6-13.7,12-20.1
				C616.2,47.9,613.6,46.4,612.5,48L612.5,48z"/>
		</g>
	</g>
	<g>
		<g>
			<path fill="#373737" d="M608.1,21.2c-4,2.5-0.9,5.4,2.1,6.8c2,0.9,3.8,1.5,5.9,1.7c2.7,0.3,4.5,1.1,7.1-0.4
				c1.7-1,0.2-3.6-1.5-2.6c-1.9,1.1-2.5,0.3-4.3,0c-0.9-0.1-1.8,0-2.7-0.2c-0.6-0.1-5.7-2.5-5.2-2.7
				C611.2,22.8,609.7,20.2,608.1,21.2L608.1,21.2z"/>
		</g>
	</g>
	<g>
		<g>
			<path fill="#373737" d="M608.7,22.5c-0.6,7.1-0.2,15.5-2.5,22.3c-0.6,1.8,2.3,2.6,2.9,0.8c2.3-7,1.9-15.7,2.6-23.1
				C611.8,20.6,608.8,20.6,608.7,22.5L608.7,22.5z"/>
		</g>
	</g>
</g>
<g id="Calque_10">
	<g>
		<g>
			<path fill="#373737" d="M680.6,12c-0.6-2.9,4.4-4.5,4.4-1.3c0,3.2-6.1,3.5-5.4,0.9c0.3-1.1,1.7-1.9,2.8-2.1c1.7-0.3,3,1.2,0.9,2
				c-0.8,0.3-2.8,0.7-3.5,0.1c-0.6-0.5-0.5-0.7,0-1.1c0.2-0.2,1.4-0.6,1.7-0.6c0.4,0.1,0.7,0.3,1.1,0.4c0,0,0.1,0,0.1,0.1
				c-0.1,0.4-0.1,0.8-0.2,1.2c0.3-0.3,0.6-0.5,1.1-0.3c-0.4-0.1-0.7-0.3-1.1-0.4c-0.1-0.4-0.3-0.6-0.6-0.8c0.2-0.4,0.3-0.4,0.3-0.1
				c0.1,0.3,0,0.5-0.5,0.6c-0.3,0.1-0.6,0.1-0.8-0.1c-1.6-0.5-0.9-1.2,0.2-1.8c1.2-0.7,2.3-0.5,2.9,0.9c1,2.1-0.9,2.3-2.4,2.6
				c-1.9,0.3-1.1,3.2,0.8,2.9c2.6-0.4,5.4-1.8,5-4.9c-0.4-2.7-2.5-5.1-5.4-4.8c-2,0.2-5.2,2.1-5.1,4.3c0.1,2.5,3,4.3,5.3,3.9
				c2.3-0.4,4.2-2.9,2.9-5.2c-1.2-2-4.2-2.2-5.5-0.2c-1.3,2-0.1,4.9,2.4,5.1c2.1,0.2,4.7-2,3.2-4.2c-1.4-1.9-5.2-0.4-5.3,1.8
				c-0.2,2.7,3.8,2.7,4.2,0.2c0.5-2.6-1.8-4.5-4.3-3.8c-2.2,0.7-4,2.7-3,5.1c2.1,4.7,12.5,2.5,10.7-3.1c-1.8-5.7-11.2-2.1-10.8,3.1
				c0.2,3.2,3.7,4.3,6.5,3.8c2.9-0.5,5.2-3,5-6c-0.3-3.1-3.3-4.9-6.1-4.1c-3,0.9-4.7,3.6-4.1,6.7C678.1,14.7,681,13.9,680.6,12
				L680.6,12z"/>
		</g>
	</g>
	<g>
		<g>
			<path fill="#FF0000" d="M679.7,43.5c-6.8,4.3-13.5,8.7-19.9,13.6c-1,0.7-1,2.4,0.4,2.7c2.2,0.6,4.8-1.3,6.6-2.4
				c3-1.9,5.4-4.6,7.8-7.2c0.8-0.8,0.3-2.7-1.1-2.6c-5.6,0.7-10.7,5.9-13.9,10.1c-1.2,1.5,1.4,3,2.6,1.5c2.5-3.2,7-8.1,11.3-8.6
				c-0.4-0.9-0.7-1.7-1.1-2.6c-1.6,1.7-3.1,3.5-4.8,5c-1.1,1-5,4.2-6.6,3.8c0.1,0.9,0.2,1.8,0.4,2.7c6.4-4.8,13.1-9.3,19.9-13.6
				C682.8,45,681.3,42.5,679.7,43.5L679.7,43.5z"/>
		</g>
	</g>
	<g>
		<g>
			<path fill="#373737" d="M680.7,14.1c4,10.4,3.5,22,5,32.9c0.3,1.9,3.2,1.1,2.9-0.8c-1.5-11-0.9-22.4-5-32.9
				C682.9,11.6,680,12.3,680.7,14.1L680.7,14.1z"/>
		</g>
	</g>
	<g>
		<g>
			<path fill="#373737" d="M686.4,47.2c0.6,4.5,2.3,8.9,3.3,13.3c0.9,4,2.7,7.3,5.3,10.4c1.3,1.5,3.4-0.7,2.1-2.1
				c-2.7-3.1-4.1-6.5-4.9-10.5c-0.7-3.7-2.4-7.3-2.9-11C689.1,45.3,686.1,45.3,686.4,47.2L686.4,47.2z"/>
		</g>
	</g>
	<g>
		<g>
			<path fill="#373737" d="M685.4,46.2c-1.5,4.2-3.7,8.7-4.2,13.2c-0.4,3.7,0.7,7.6,1.3,11.2c0.3,1.9,3.2,1.1,2.9-0.8
				c-0.7-4.4-1.7-8.6-0.5-13c0.9-3.3,2.3-6.6,3.4-9.8C688.9,45.1,686,44.4,685.4,46.2L685.4,46.2z"/>
		</g>
	</g>
	<g>
		<g>
			<path fill="#373737" d="M683.7,22.3c3.2,4.7,6.2,11.4,1.3,15.8c-3.1,2.7-6.1,5.2-8.4,8.7c0.8-0.1,1.6-0.2,2.4-0.3
				c-0.2-0.2-0.3-0.4-0.5-0.6c-1.3-1.5-3.4,0.7-2.1,2.1c0.2,0.2,0.3,0.4,0.5,0.6c0.7,0.8,1.9,0.4,2.4-0.3c2-3,4.6-5.2,7.3-7.5
				c1.6-1.5,3.5-2.8,4.1-5.1c1.3-4.8-1.7-11.1-4.3-14.9C685.2,19.2,682.6,20.7,683.7,22.3L683.7,22.3z"/>
		</g>
	</g>
	<g>
		<g>
			<path fill="#373737" d="M681.6,20.1c-2.1,3.1-5.2,4.6-5.7,8.6c-0.6,5.7,0.1,11.8,0.2,17.4c0,1.9,3,1.9,3,0
				c-0.1-4.6-0.5-9.3-0.2-13.9c0.2-2.8,0.5-5.1,2.3-7.3c0.9-1.2,2.1-2.1,3-3.4C685.3,20.1,682.7,18.6,681.6,20.1L681.6,20.1z"/>
		</g>
	</g>
</g>
<g id="Calque_11">
	<g>
		<g>
			<path fill="#373737" d="M753.6,17c-0.6-2.9,4.4-4.5,4.4-1.3c0,3.2-6.1,3.5-5.4,0.9c0.3-1.1,1.7-1.9,2.8-2.1c1.7-0.3,3,1.2,0.9,2
				c-0.8,0.3-2.8,0.7-3.5,0.1c-0.6-0.5-0.5-0.7,0-1.1c0.2-0.2,1.4-0.6,1.7-0.6c0.4,0.1,0.7,0.3,1.1,0.4c0,0,0.1,0,0.1,0.1
				c-0.1,0.4-0.1,0.8-0.2,1.2c0.3-0.3,0.6-0.5,1.1-0.3c-0.4-0.1-0.7-0.3-1.1-0.4c-0.1-0.4-0.3-0.6-0.6-0.8c0.2-0.4,0.3-0.4,0.3-0.1
				c0.1,0.3,0,0.5-0.5,0.6c-0.3,0.1-0.6,0.1-0.8-0.1c-1.6-0.5-0.9-1.2,0.2-1.8c1.2-0.7,2.3-0.5,2.9,0.9c1,2.1-0.9,2.3-2.4,2.6
				c-1.9,0.3-1.1,3.2,0.8,2.9c2.6-0.4,5.4-1.8,5-4.9c-0.4-2.7-2.5-5.1-5.4-4.8c-2,0.2-5.2,2.1-5.1,4.3c0.1,2.5,3,4.3,5.3,3.9
				c2.3-0.4,4.2-2.9,2.9-5.2c-1.2-2-4.2-2.2-5.5-0.2c-1.3,2-0.1,4.9,2.4,5.1c2.1,0.2,4.7-2,3.2-4.2c-1.4-1.9-5.2-0.4-5.3,1.8
				c-0.2,2.7,3.8,2.7,4.2,0.2c0.5-2.6-1.8-4.5-4.3-3.8c-2.2,0.7-4,2.7-3,5.1c2.1,4.7,12.5,2.5,10.7-3.1c-1.8-5.7-11.2-2.1-10.8,3.1
				c0.2,3.2,3.7,4.3,6.5,3.8c2.9-0.5,5.2-3,5-6c-0.3-3.1-3.3-4.9-6.1-4.1c-3,0.9-4.7,3.6-4.1,6.7C751.1,19.7,754,18.9,753.6,17
				L753.6,17z"/>
		</g>
	</g>
	<g>
		<g>
			<path fill="#373737" d="M754.7,20.3c-0.3,8.1,0.4,16.1,2.2,24.1c0.4,1.9,3.3,1.1,2.9-0.8c-1.7-7.7-2.4-15.4-2.1-23.3
				C757.8,18.4,754.8,18.4,754.7,20.3L754.7,20.3z"/>
		</g>
	</g>
	<g>
		<g>
			<path fill="#373737" d="M756.1,46c-1.6,3.3-4.5,6.3-5.7,9.7c-1.1,3.1-0.6,7-0.5,10.3c0,1.9,3,1.9,3,0c-0.1-3.3-0.7-7.5,1-10.5
				c1.6-2.7,3.4-5.1,4.8-8C759.6,45.8,757,44.2,756.1,46L756.1,46z"/>
		</g>
	</g>
	<g>
		<g>
			<path fill="#373737" d="M757.6,45.8c1.1,3.2-1,7-0.9,10.4c0.1,3.6,0.7,7.2,1.7,10.6c0.5,1.9,3.4,1.1,2.9-0.8
				c-1.1-4.1-2.1-8.7-1.4-12.9c0.5-2.9,1.7-5.1,0.7-8.1C759.8,43.2,756.9,44,757.6,45.8L757.6,45.8z"/>
		</g>
	</g>
	<g>
		<g>
			<path fill="#373737" d="M758.1,25.9c0.9-1.1,0.7-1.3-0.7-0.8c-0.4,0.1-0.8,0.1-1.2,0.2c-1.5,0.2-2.9,0.4-4.4,0.7
				c-2.1,0.3-7.1,1.9-8.9,0.7c-1.6-1-3.1,1.6-1.5,2.6c2.2,1.4,4.8,0.6,7.3,0.2c3.4-0.5,7.4-0.6,10.8-1.6c3.7-1.2,2.2-5.1-1.4-4.9
				C756.2,23,756.1,26,758.1,25.9L758.1,25.9z"/>
		</g>
	</g>
	<g>
		<g>
			<path fill="#373737" d="M754.2,24.6c-1.8,0.1-3.5,0.9-5.3,1.2c-2.7,0.5-5.3,0.3-8-0.3c-1.9-0.4-2.7,2.5-0.8,2.9
				c2.4,0.5,4.8,0.8,7.2,0.6c2.3-0.2,4.5-1.3,6.8-1.4C756.1,27.5,756.1,24.5,754.2,24.6L754.2,24.6z"/>
		</g>
	</g>
	<g>
		<g>
			<path fill="#FF0000" d="M738.5,29.7C738.5,29.6,738.5,29.6,738.5,29.7C738.5,29.6,738.5,29.6,738.5,29.7
				c-0.1,0.3-0.1,0.3-0.1,0.2c-0.1,0.1-0.1,0.2,0,0.1c-0.5,0.6-0.6,1.5,0,2.1c0.5,0.5,1.6,0.6,2.1,0c0.8-0.9,1-1.9,0.9-3.1
				c-0.1-0.8-1.1-1.2-1.8-1C738.7,28.1,738.4,28.9,738.5,29.7L738.5,29.7z"/>
		</g>
	</g>
	<g>
		<g>
			<path fill="#FF0000" d="M743.3,25.7c2.6-5.1,4.7-10.3,6.8-15.5c0.4-1.1-0.8-2.1-1.8-1.8c-2.4,0.7-3.8,4.1-4.8,6.2
				c-1.4,2.9-1.9,6.2-2.6,9.3c-0.3,1.3,1,2.3,2.2,1.7c2.2-1.1,3.6-4.7,4.5-6.8c1.3-2.9,2-5.9,2.3-9c0.2-1.9-2.8-1.9-3,0
				c-0.3,2.5-0.9,4.9-1.8,7.2c-0.6,1.5-2,5.2-3.5,6c0.7,0.6,1.5,1.1,2.2,1.7c0.5-2.2,0.9-4.4,1.5-6.5c0.4-1.3,2.3-6.4,3.8-6.9
				c-0.6-0.6-1.2-1.2-1.8-1.8c-2,5-4.1,10-6.5,14.8C739.8,25.9,742.4,27.4,743.3,25.7L743.3,25.7z"/>
		</g>
	</g>
</g>
</svg>
