<?xml version="1.0" encoding="utf-8"?>
<!-- Generator: Adobe Illustrator 22.1.0, SVG Export Plug-In . SVG Version: 6.00 Build 0)  -->
<svg version="1.1" xmlns="http://www.w3.org/2000/svg" xmlns:xlink="http://www.w3.org/1999/xlink" x="0px" y="0px" width="430px"
	 height="72px" viewBox="0 0 430 72" enable-background="new 0 0 430 72" xml:space="preserve">
<g id="Calque_1">
</g>
<g id="Calque_2">
	<g>
		<g>
			<path fill="#373737" d="M100.9,8.5c-3-1.3-5.4,0.8-6.6,3.4c-1.4,2.9-0.1,5.6,2.8,6.9c6.1,2.6,11.5-4.9,7.6-10.1
				C103,6.4,99,6.1,96.9,8.1c-1.9,1.8-3.2,5.5-1.3,7.8c2.1,2.5,5.5,1,7.1-1.1c0.7-1,1.4-2.3,0.9-3.5c-0.4-1.2-1.6-1.9-2.8-2
				c-2.7-0.1-5.6,4.1-3.1,6.2c2.8,2.2,5.6-2.5,6-4.7c0.2-1-0.4-1.8-1.4-1.9c-2.7-0.2-3.9,2.1-4.7,4.3c-0.5,1.4,1.5,2.6,2.5,1.5
				c0.7-0.8,1.1-1.6,1.5-2.6c0.3-0.9-0.5-2-1.4-1.9c-3.9,0.4-3,7.5,0.8,6c1.6-0.6,1.9-2.8,0.6-3.9c-1.4-1.1-3.3-0.2-3.7,1.4
				c-0.4,1.9,2.5,2.7,2.9,0.8c-0.3-0.7-0.3-1.3,0.1-1.8c-0.4,0.1-0.7,0.3-1.1,0.4c0.1,0,0.2,0,0.3,0c-0.5-0.6-1-1.3-1.4-1.9
				c-0.2,0.5-0.4,0.9-0.8,1.3c0.8,0.5,1.7,1,2.5,1.5c0.3-0.9,0.6-2.1,1.8-2.1c-0.5-0.6-1-1.3-1.4-1.9c-0.1,0.6-0.2,1.1-0.5,1.6
				c-0.1,0.1-1.1,1.6-1.2,1.4c0.3,0.6,2.4-1.3,1,0.3c-0.4,0.4-1.2,1.2-1.8,0.9c-1.4-0.6-0.1-3,0.6-3.7c1.2-1.2,3.2-0.8,3.8,0.7
				c1,2.3-0.4,5.3-3.2,5.2c-1.4-0.1-3-1-2.7-2.5c0.1-0.9,1.6-3.2,2.7-2.7C101.2,11.9,102.7,9.3,100.9,8.5L100.9,8.5z"/>
		</g>
	</g>
	<g>
		<g>
			<path fill="#373737" d="M98.1,18.2c-0.4,4.9-0.8,9.9-0.1,14.8c0.4,2.3,0.8,4.2,0.6,6.5c-0.2,2.1-0.4,4-0.3,6.1
				c0.1,1.9,3.1,1.9,3,0c-0.2-3.9,0.6-7.4,0-11.2c-0.9-5.5-0.7-10.7-0.2-16.3C101.2,16.3,98.2,16.3,98.1,18.2L98.1,18.2z"/>
		</g>
	</g>
	<g>
		<g>
			<path fill="#373737" d="M99.7,47.6c2.8,1.8,6.1,3.3,6.7,6.9c0.5,2.9-0.1,5.9-0.3,8.8c-0.1,1.9,2.9,1.9,3,0
				c0.2-3.7,1.1-7.9-0.3-11.4c-1.4-3.3-4.8-5-7.6-6.9C99.6,44,98.1,46.6,99.7,47.6L99.7,47.6z"/>
		</g>
	</g>
	<g>
		<g>
			<path fill="#373737" d="M97.5,47.1c1,3.2,3.3,5.8,2,9.2c-1.1,3-4,4.1-5.7,6.7c-1,1.6,1.6,3.1,2.6,1.5c1.1-1.7,3-2.5,4.3-4
				c1-1.3,1.8-3.1,2.2-4.7c0.9-3.5-1.5-6.4-2.4-9.5C99.9,44.5,97,45.2,97.5,47.1L97.5,47.1z"/>
		</g>
	</g>
	<g>
		<g>
			<path fill="#373737" d="M99.5,27.2c1.8,1,4.5,1.8,6.4,0.6c0.9-0.6,1.4-1.6,1.9-2.6c0.7-1.4,1.4-2.8,2.1-4.2
				c0.9-1.7-1.7-3.2-2.6-1.5c-0.8,1.6-1.6,3.2-2.4,4.8c-0.4,0.7-0.5,1.1-1.4,1.1c-0.8,0.1-1.8-0.4-2.5-0.7
				C99.4,23.7,97.8,26.3,99.5,27.2L99.5,27.2z"/>
		</g>
	</g>
	<g>
		<g>
			<path fill="#373737" d="M97.8,24.6c0.9,2.8,2.1,5.6,3.3,8.3c0.8,1.8,1.9,3.7,4.2,2.9c1.2-0.4,2.1-1.6,2.9-2.4
				c1.2-1.2,2.4-2.3,3.6-3.5c1.3-1.4,2-3.5,0.2-4.9c-1.5-1.2-3.6,0.9-2.1,2.1c0.1,0.1-4.8,6-5.8,5.3c-0.7-0.5-1.3-3.1-1.7-3.9
				c-0.7-1.6-1.3-3.1-1.8-4.7C100.1,22,97.2,22.7,97.8,24.6L97.8,24.6z"/>
		</g>
	</g>
</g>
<g id="Calque_4">
	<g>
		<g>
			<path fill="#373737" d="M175.9,8.5c-3-1.3-5.4,0.8-6.6,3.4c-1.4,2.9-0.1,5.6,2.8,6.9c6.1,2.6,11.5-4.9,7.6-10.1
				c-1.7-2.3-5.8-2.6-7.8-0.6c-1.9,1.8-3.2,5.5-1.3,7.8c2.1,2.5,5.5,1,7.1-1.1c0.7-1,1.4-2.3,0.9-3.5c-0.4-1.2-1.6-1.9-2.8-2
				c-2.7-0.1-5.6,4.1-3.1,6.2c2.8,2.2,5.6-2.5,6-4.7c0.2-1-0.4-1.8-1.4-1.9c-2.7-0.2-3.9,2.1-4.7,4.3c-0.5,1.4,1.5,2.6,2.5,1.5
				c0.7-0.8,1.1-1.6,1.5-2.6c0.3-0.9-0.5-2-1.4-1.9c-3.9,0.4-3,7.5,0.8,6c1.6-0.6,1.9-2.8,0.6-3.9c-1.4-1.1-3.3-0.2-3.7,1.4
				c-0.4,1.9,2.5,2.7,2.9,0.8c-0.3-0.7-0.3-1.3,0.1-1.8c-0.4,0.1-0.7,0.3-1.1,0.4c0.1,0,0.2,0,0.3,0c-0.5-0.6-1-1.3-1.4-1.9
				c-0.2,0.5-0.4,0.9-0.8,1.3c0.8,0.5,1.7,1,2.5,1.5c0.3-0.9,0.6-2.1,1.8-2.1c-0.5-0.6-1-1.3-1.4-1.9c-0.1,0.6-0.2,1.1-0.5,1.6
				c-0.1,0.1-1.1,1.6-1.2,1.4c0.3,0.6,2.4-1.3,1,0.3c-0.4,0.4-1.2,1.2-1.8,0.9c-1.4-0.6-0.1-3,0.6-3.7c1.2-1.2,3.2-0.8,3.8,0.7
				c1,2.3-0.4,5.3-3.2,5.2c-1.4-0.1-3-1-2.7-2.5c0.1-0.9,1.6-3.2,2.7-2.7C176.2,11.9,177.7,9.3,175.9,8.5L175.9,8.5z"/>
		</g>
	</g>
	<g>
		<g>
			<path fill="#373737" d="M173.1,18.2c-0.4,4.9-0.8,9.9-0.1,14.8c0.4,2.3,0.8,4.2,0.6,6.5c-0.2,2.1-0.4,4-0.3,6.1
				c0.1,1.9,3.1,1.9,3,0c-0.2-3.9,0.6-7.4,0-11.2c-0.9-5.5-0.7-10.7-0.2-16.3C176.2,16.3,173.2,16.3,173.1,18.2L173.1,18.2z"/>
		</g>
	</g>
	<g>
		<g>
			<path fill="#373737" d="M173.6,25.9c2.9,1.1,5.5,5.7,9.1,4c3.1-1.4,5.2-5.9,6.8-8.7c0.9-1.7-1.6-3.2-2.6-1.5
				c-0.6,1.1-1.3,2.2-2,3.3c-0.4,0.5-0.7,1.1-1.1,1.6c-1,1.3-1.1,1.9-2.8,1.8c-2.4-0.1-4.2-2.6-6.5-3.4
				C172.6,22.3,171.8,25.2,173.6,25.9L173.6,25.9z"/>
		</g>
	</g>
	<g>
		<g>
			<path fill="#373737" d="M177.8,21.8c-1.1,0.9-2.4,1.4-3.8,1.5c-1,0.1-2.2-0.3-3.2,0.1c-0.9,0.4-1.4,1.4-1.1,2.3
				c0.3,1.1,1.4,1.5,2.4,1.5c1.9,0.1,1.9-2.9,0-3c0,0,0,0,0.1,0c0.1,0.4,0.3,0.7,0.4,1.1c0-0.1,0-0.2,0-0.4
				c-0.1,0.4-0.3,0.7-0.4,1.1c-0.4,0.4,1.2,0.3,1.5,0.3c0.8,0,1.6-0.2,2.3-0.4c1.5-0.4,2.7-1.1,3.9-2.1
				C181.5,22.7,179.3,20.6,177.8,21.8L177.8,21.8z"/>
		</g>
	</g>
	<g>
		<g>
			<path fill="#373737" d="M174.1,46.7c2.2,2.5,2.2,6,4.1,8.7c2.4,3.5,5.9,5.5,5.3,10.3c-0.2,1.9,2.8,1.9,3,0c0.5-4.1-1.5-7.1-4-10
				c-1.9-2.1-2.7-4-3.6-6.6c-0.6-1.7-1.3-3.1-2.5-4.5C175,43.1,172.9,45.3,174.1,46.7L174.1,46.7z"/>
		</g>
	</g>
	<g>
		<g>
			<path fill="#373737" d="M172.5,45.6c-2.7,6.7-4.1,13.7-4.1,20.9c0,1.9,3,1.9,3,0c0.1-7,1.4-13.7,4-20.1
				C176.1,44.6,173.2,43.8,172.5,45.6L172.5,45.6z"/>
		</g>
	</g>
</g>
<g id="Calque_5">
	<g>
		<g>
			<path fill="#373737" d="M246.9,8.5c-3-1.3-5.4,0.8-6.6,3.4c-1.4,2.9-0.1,5.6,2.8,6.9c6.1,2.6,11.5-4.9,7.6-10.1
				c-1.7-2.3-5.8-2.6-7.8-0.6c-1.9,1.8-3.2,5.5-1.3,7.8c2.1,2.5,5.5,1,7.1-1.1c0.7-1,1.4-2.3,0.9-3.5c-0.4-1.2-1.6-1.9-2.8-2
				c-2.7-0.1-5.6,4.1-3.1,6.2c2.8,2.2,5.6-2.5,6-4.7c0.2-1-0.4-1.8-1.4-1.9c-2.7-0.2-3.9,2.1-4.7,4.3c-0.5,1.4,1.5,2.6,2.5,1.5
				c0.7-0.8,1.1-1.6,1.5-2.6c0.3-0.9-0.5-2-1.4-1.9c-3.9,0.4-3,7.5,0.8,6c1.6-0.6,1.9-2.8,0.6-3.9c-1.4-1.1-3.3-0.2-3.7,1.4
				c-0.4,1.9,2.5,2.7,2.9,0.8c-0.3-0.7-0.3-1.3,0.1-1.8c-0.4,0.1-0.7,0.3-1.1,0.4c0.1,0,0.2,0,0.3,0c-0.5-0.6-1-1.3-1.4-1.9
				c-0.2,0.5-0.4,0.9-0.8,1.3c0.8,0.5,1.7,1,2.5,1.5c0.3-0.9,0.6-2.1,1.8-2.1c-0.5-0.6-1-1.3-1.4-1.9c-0.1,0.6-0.2,1.1-0.5,1.6
				c-0.1,0.1-1.1,1.6-1.2,1.4c0.3,0.6,2.4-1.3,1,0.3c-0.4,0.4-1.2,1.2-1.8,0.9c-1.4-0.6-0.1-3,0.6-3.7c1.2-1.2,3.2-0.8,3.8,0.7
				c1,2.3-0.4,5.3-3.2,5.2c-1.4-0.1-3-1-2.7-2.5c0.1-0.9,1.6-3.2,2.7-2.7C247.2,11.9,248.7,9.3,246.9,8.5L246.9,8.5z"/>
		</g>
	</g>
	<g>
		<g>
			<path fill="#373737" d="M244.1,18.2c-0.4,4.9-0.8,9.9-0.1,14.8c0.4,2.3,0.8,4.2,0.6,6.5c-0.2,2.1-0.4,4-0.3,6.1
				c0.1,1.9,3.1,1.9,3,0c-0.2-3.9,0.6-7.4,0-11.2c-0.9-5.5-0.7-10.7-0.2-16.3C247.2,16.3,244.2,16.3,244.1,18.2L244.1,18.2z"/>
		</g>
	</g>
	<g>
		<g>
			<path fill="#373737" d="M246,27.4c3.7-0.4,7.3-1.1,10.8-2.5c3.5-1.4,6.8-4.4,10.5-5.3c1.9-0.4,1.1-3.3-0.8-2.9
				c-3,0.7-5.4,2.9-8.2,4.3c-3.9,1.9-8,2.9-12.2,3.4C244.1,24.6,244.1,27.6,246,27.4L246,27.4z"/>
		</g>
	</g>
	<g>
		<g>
			<path fill="#373737" d="M243,22.3c-2.6,1.8-3.3,6.2-1,8.5c2.9,3,6.9-2.9,8.3-5c1.1-1.6-1.5-3.1-2.6-1.5c-0.6,0.9-1.2,1.7-2,2.5
				c-0.3,0.4-1.8,1.8-1.8,1.8c0.1,0-0.2-0.7-0.2-0.9c-0.1-0.3-0.1-0.7-0.1-1c0-0.7,0.2-1.4,0.9-1.9C246.1,23.8,244.6,21.2,243,22.3
				L243,22.3z"/>
		</g>
	</g>
	<g>
		<g>
			<path fill="#373737" d="M245.2,46.6c1.1,1.7,1.1,5.3,1.7,7.2c0.5,1.5,1.2,2.9,2.1,4.1c2.4,3.1,6.6,4.6,8,8.4
				c0.7,1.8,3.6,1,2.9-0.8c-1.2-3.4-3.8-5.2-6.5-7.5c-2.1-1.8-3.3-3.7-4-6.4c-0.6-2.2-0.3-4.6-1.6-6.6
				C246.8,43.5,244.2,45,245.2,46.6L245.2,46.6z"/>
		</g>
	</g>
	<g>
		<g>
			<path fill="#373737" d="M244.2,44.4c-2.4,3-5.7,6.1-7.1,9.8c-1.4,3.6-1.2,7.9-1.1,11.7c0,1.9,3,1.9,3,0c0-3.4-0.3-7.2,0.9-10.4
				c1.3-3.3,4.2-6.2,6.4-8.9C247.5,45,245.4,42.9,244.2,44.4L244.2,44.4z"/>
		</g>
	</g>
</g>
<g id="Calque_6">
	<g>
		<g>
			<path fill="#373737" d="M316.9,8.5c-3-1.3-5.4,0.8-6.6,3.4c-1.4,2.9-0.1,5.6,2.8,6.9c6.1,2.6,11.5-4.9,7.6-10.1
				c-1.7-2.3-5.8-2.6-7.8-0.6c-1.9,1.8-3.2,5.5-1.3,7.8c2.1,2.5,5.5,1,7.1-1.1c0.7-1,1.4-2.3,0.9-3.5c-0.4-1.2-1.6-1.9-2.8-2
				c-2.7-0.1-5.6,4.1-3.1,6.2c2.8,2.2,5.6-2.5,6-4.7c0.2-1-0.4-1.8-1.4-1.9c-2.7-0.2-3.9,2.1-4.7,4.3c-0.5,1.4,1.5,2.6,2.5,1.5
				c0.7-0.8,1.1-1.6,1.5-2.6c0.3-0.9-0.5-2-1.4-1.9c-3.9,0.4-3,7.5,0.8,6c1.6-0.6,1.9-2.8,0.6-3.9c-1.4-1.1-3.3-0.2-3.7,1.4
				c-0.4,1.9,2.5,2.7,2.9,0.8c-0.3-0.7-0.3-1.3,0.1-1.8c-0.4,0.1-0.7,0.3-1.1,0.4c0.1,0,0.2,0,0.3,0c-0.5-0.6-1-1.3-1.4-1.9
				c-0.2,0.5-0.4,0.9-0.8,1.3c0.8,0.5,1.7,1,2.5,1.5c0.3-0.9,0.6-2.1,1.8-2.1c-0.5-0.6-1-1.3-1.4-1.9c-0.1,0.6-0.2,1.1-0.5,1.6
				c-0.1,0.1-1.1,1.6-1.2,1.4c0.3,0.6,2.4-1.3,1,0.3c-0.4,0.4-1.2,1.2-1.8,0.9c-1.4-0.6-0.1-3,0.6-3.7c1.2-1.2,3.2-0.8,3.8,0.7
				c1,2.3-0.4,5.3-3.2,5.2c-1.4-0.1-3-1-2.7-2.5c0.1-0.9,1.6-3.2,2.7-2.7C317.2,11.9,318.7,9.3,316.9,8.5L316.9,8.5z"/>
		</g>
	</g>
	<g>
		<g>
			<path fill="#373737" d="M314.1,18.2c-0.4,4.9-0.8,9.9-0.1,14.8c0.4,2.3,0.8,4.2,0.6,6.5c-0.2,2.1-0.4,4-0.3,6.1
				c0.1,1.9,3.1,1.9,3,0c-0.2-3.9,0.6-7.4,0-11.2c-0.9-5.5-0.7-10.7-0.2-16.3C317.2,16.3,314.2,16.3,314.1,18.2L314.1,18.2z"/>
		</g>
	</g>
	<g>
		<g>
			<path fill="#373737" d="M312.3,21.9c-2.8,2.3-4.8,8.8-0.1,10.4c2.2,0.8,3.8-0.3,5.2-1.8c1.8-1.9,3.4-4.1,4.8-6.3
				c1.1-1.6-1.5-3.1-2.6-1.5c-1.4,2.1-2.9,4.5-4.8,6.1c-1.4,1.2-2.5,0.4-2.4-1.4c0.1-1.4,1-2.5,2-3.4
				C316,22.8,313.8,20.7,312.3,21.9L312.3,21.9z"/>
		</g>
	</g>
	<g>
		<g>
			<path fill="#373737" d="M314.8,24.9c3.3,0.8,6.6,1.4,9.9,1.6c2.6,0.2,6.1,0.7,8.5-0.2c4.1-1.5,1.5-5.3-1.3-6.5
				c-1.8-0.7-2.6,2.2-0.8,2.9c2.3,1-2.5,1-2.3,1c-1.4,0-2.8-0.1-4.1-0.2c-3.1-0.2-6.1-0.8-9.1-1.5C313.7,21.5,312.9,24.4,314.8,24.9
				L314.8,24.9z"/>
		</g>
	</g>
	<g>
		<g>
			<path fill="#373737" d="M314,45.9c-1,3.3-4.4,4.9-5,8.6c-0.5,3.5-0.5,7.5-0.5,11.1c0,1.9,3,1.9,3,0c0-3.4,0-7.4,0.6-10.7
				c0.6-3.4,3.8-5.1,4.8-8.3C317.4,44.9,314.5,44.1,314,45.9L314,45.9z"/>
		</g>
	</g>
	<g>
		<g>
			<path fill="#373737" d="M315.3,45.9c0.9,3.6,1.2,8.3,3.4,11.3c2.6,3.4,6.7,4.8,8,9.3c0.5,1.8,3.4,1.1,2.9-0.8
				c-1-3.4-3.3-5.7-5.9-8c-1.7-1.5-2.9-2.8-3.6-5c-0.8-2.5-1.2-5.1-1.8-7.6C317.8,43.2,314.9,44,315.3,45.9L315.3,45.9z"/>
		</g>
	</g>
</g>
<g id="Calque_3">
	<g>
		<g>
			<path fill="#373737" d="M34.9,8.5c-3-1.3-5.4,0.8-6.6,3.4c-1.4,2.9-0.1,5.6,2.8,6.9c6.1,2.6,11.5-4.9,7.6-10.1
				C37,6.4,33,6.1,30.9,8.1c-1.9,1.8-3.2,5.5-1.3,7.8c2.1,2.5,5.5,1,7.1-1.1c0.7-1,1.4-2.3,0.9-3.5c-0.4-1.2-1.6-1.9-2.8-2
				c-2.7-0.1-5.6,4.1-3.1,6.2c2.8,2.2,5.6-2.5,6-4.7c0.2-1-0.4-1.8-1.4-1.9c-2.7-0.2-3.9,2.1-4.7,4.3C31,14.4,33,15.7,34,14.5
				c0.7-0.8,1.1-1.6,1.5-2.6c0.3-0.9-0.5-2-1.4-1.9c-3.9,0.4-3,7.5,0.8,6c1.6-0.6,1.9-2.8,0.6-3.9c-1.4-1.1-3.3-0.2-3.7,1.4
				c-0.4,1.9,2.5,2.7,2.9,0.8c-0.3-0.7-0.3-1.3,0.1-1.8c-0.4,0.1-0.7,0.3-1.1,0.4c0.1,0,0.2,0,0.3,0c-0.5-0.6-1-1.3-1.4-1.9
				c-0.2,0.5-0.4,0.9-0.8,1.3c0.8,0.5,1.7,1,2.5,1.5c0.3-0.9,0.6-2.1,1.8-2.1c-0.5-0.6-1-1.3-1.4-1.9c-0.1,0.6-0.2,1.1-0.5,1.6
				c-0.1,0.1-1.1,1.6-1.2,1.4c0.3,0.6,2.4-1.3,1,0.3c-0.4,0.4-1.2,1.2-1.8,0.9c-1.4-0.6-0.1-3,0.6-3.7c1.2-1.2,3.2-0.8,3.8,0.7
				c1,2.3-0.4,5.3-3.2,5.2c-1.4-0.1-3-1-2.7-2.5c0.1-0.9,1.6-3.2,2.7-2.7C35.2,11.9,36.7,9.3,34.9,8.5L34.9,8.5z"/>
		</g>
	</g>
	<g>
		<g>
			<path fill="#373737" d="M32.1,18.2c-0.4,4.9-0.8,9.9-0.1,14.8c0.4,2.3,0.8,4.2,0.6,6.5c-0.2,2.1-0.4,4-0.3,6.1
				c0.1,1.9,3.1,1.9,3,0c-0.2-3.9,0.6-7.4,0-11.2c-0.9-5.5-0.7-10.7-0.2-16.3C35.2,16.3,32.2,16.3,32.1,18.2L32.1,18.2z"/>
		</g>
	</g>
	<g>
		<g>
			<path fill="#373737" d="M33.4,47.4c4.4,3.4,6.8,10.5,6.8,15.9c0,1.9,3,1.9,3,0c0-6.1-2.7-14.2-7.7-18
				C34,44.1,31.9,46.2,33.4,47.4L33.4,47.4z"/>
		</g>
	</g>
	<g>
		<g>
			<path fill="#373737" d="M31.5,47.1c0.7,3.1,1,6-0.3,9c-1,2.4-2.3,4.7-3.4,7c-0.8,1.7,1.7,3.3,2.6,1.5c1.5-3,3.3-6,4.3-9.2
				c0.9-3,0.4-6-0.3-9C34,44.4,31.1,45.2,31.5,47.1L31.5,47.1z"/>
		</g>
	</g>
	<g>
		<g>
			<path fill="#373737" d="M33.9,24.8c2.8,2.2,7.5,9.6,11.7,6.6c2.2-1.6,4.2-4.7,5.7-7c1.2-1.8,1.4-3.5,0-5.2
				c-1.2-1.5-3.3,0.6-2.1,2.1c0.8,0.9-2.2,3.9-2.8,4.6c-1,1.3-1.9,3.3-3.7,2.6c-2.7-1-4.4-4.2-6.6-5.9
				C34.5,21.4,32.4,23.6,33.9,24.8L33.9,24.8z"/>
		</g>
	</g>
	<g>
		<g>
			<path fill="#373737" d="M40,22.1c-0.7,0.9-1.2,1.8-1.6,2.8c-0.3,0.7-0.4,2-1.1,2.4c-0.7,0.4-0.7-0.5-0.9-1.1
				c-0.3-0.8-0.6-1.5-1.1-2.2c-1.2-1.5-3.3,0.6-2.1,2.1c0.7,0.8,0.6,2.1,1.2,3c0.8,1.1,2.1,1.5,3.4,1.2c3-0.8,3.1-4.6,4.7-6.8
				C43.8,22,41.2,20.6,40,22.1L40,22.1z"/>
		</g>
	</g>
	<g>
		<g>
			<path fill="#373737" d="M388.9,8.5c-3-1.3-5.4,0.8-6.6,3.4c-1.4,2.9-0.1,5.6,2.8,6.9c6.1,2.6,11.5-4.9,7.6-10.1
				c-1.7-2.3-5.8-2.6-7.8-0.6c-1.9,1.8-3.2,5.5-1.3,7.8c2.1,2.5,5.5,1,7.1-1.1c0.7-1,1.4-2.3,0.9-3.5c-0.4-1.2-1.6-1.9-2.8-2
				c-2.7-0.1-5.6,4.1-3.1,6.2c2.8,2.2,5.6-2.5,6-4.7c0.2-1-0.4-1.8-1.4-1.9c-2.7-0.2-3.9,2.1-4.7,4.3c-0.5,1.4,1.5,2.6,2.5,1.5
				c0.7-0.8,1.1-1.6,1.5-2.6c0.3-0.9-0.5-2-1.4-1.9c-3.9,0.4-3,7.5,0.8,6c1.6-0.6,1.9-2.8,0.6-3.9c-1.4-1.1-3.3-0.2-3.7,1.4
				c-0.4,1.9,2.5,2.7,2.9,0.8c-0.3-0.7-0.3-1.3,0.1-1.8c-0.4,0.1-0.7,0.3-1.1,0.4c0.1,0,0.2,0,0.3,0c-0.5-0.6-1-1.3-1.4-1.9
				c-0.2,0.5-0.4,0.9-0.8,1.3c0.8,0.5,1.7,1,2.5,1.5c0.3-0.9,0.6-2.1,1.8-2.1c-0.5-0.6-1-1.3-1.4-1.9c-0.1,0.6-0.2,1.1-0.5,1.6
				c-0.1,0.1-1.1,1.6-1.2,1.4c0.3,0.6,2.4-1.3,1,0.3c-0.4,0.4-1.2,1.2-1.8,0.9c-1.4-0.6-0.1-3,0.6-3.7c1.2-1.2,3.2-0.8,3.8,0.7
				c1,2.3-0.4,5.3-3.2,5.2c-1.4-0.1-3-1-2.7-2.5c0.1-0.9,1.6-3.2,2.7-2.7C389.2,11.9,390.7,9.3,388.9,8.5L388.9,8.5z"/>
		</g>
	</g>
	<g>
		<g>
			<path fill="#373737" d="M386.1,18.2c-0.4,4.9-0.8,9.9-0.1,14.8c0.4,2.3,0.8,4.2,0.6,6.5c-0.2,2.1-0.4,4-0.3,6.1
				c0.1,1.9,3.1,1.9,3,0c-0.2-3.9,0.6-7.4,0-11.2c-0.9-5.5-0.7-10.7-0.2-16.3C389.2,16.3,386.2,16.3,386.1,18.2L386.1,18.2z"/>
		</g>
	</g>
	<g>
		<g>
			<path fill="#373737" d="M387.4,47.4c4.4,3.4,6.8,10.5,6.8,15.9c0,1.9,3,1.9,3,0c0-6.1-2.7-14.2-7.7-18
				C388,44.1,385.9,46.2,387.4,47.4L387.4,47.4z"/>
		</g>
	</g>
	<g>
		<g>
			<path fill="#373737" d="M385.5,47.1c0.7,3.1,1,6-0.3,9c-1,2.4-2.3,4.7-3.4,7c-0.8,1.7,1.7,3.3,2.6,1.5c1.5-3,3.3-6,4.3-9.2
				c0.9-3,0.4-6-0.3-9C388,44.4,385.1,45.2,385.5,47.1L385.5,47.1z"/>
		</g>
	</g>
	<g>
		<g>
			<path fill="#373737" d="M387.9,24.8c2.8,2.2,7.5,9.6,11.7,6.6c2.2-1.6,4.2-4.7,5.7-7c1.2-1.8,1.4-3.5,0-5.2
				c-1.2-1.5-3.3,0.6-2.1,2.1c0.8,0.9-2.2,3.9-2.8,4.6c-1,1.3-1.9,3.3-3.7,2.6c-2.7-1-4.4-4.2-6.6-5.9
				C388.5,21.4,386.4,23.6,387.9,24.8L387.9,24.8z"/>
		</g>
	</g>
	<g>
		<g>
			<path fill="#373737" d="M394,22.1c-0.7,0.9-1.2,1.8-1.6,2.8c-0.3,0.7-0.4,2-1.1,2.4c-0.7,0.4-0.7-0.5-0.9-1.1
				c-0.3-0.8-0.6-1.5-1.1-2.2c-1.2-1.5-3.3,0.6-2.1,2.1c0.7,0.8,0.6,2.1,1.2,3c0.8,1.1,2.1,1.5,3.4,1.2c3-0.8,3.1-4.6,4.7-6.8
				C397.8,22,395.2,20.6,394,22.1L394,22.1z"/>
		</g>
	</g>
</g>
</svg>
